M48
;Layer_Color=9474304
;FILE_FORMAT=4:4
METRIC,LZ
;TYPE=PLATED
T1F00S00C0.2500
T2F00S00C1.0200
T3F00S00C1.0200
T4F00S00C1.0400
T5F00S00C2.9972
T6F00S00C3.0000
;TYPE=NON_PLATED
T7F00S00C3.0000
%
T01
X00087Y00091
X00116441Y0009806
X0016Y00117
X00196Y00109
X00185Y00071
X00162Y0007112
X00141448Y00146941
X001397Y0017145
X0017145
Y0019177
X0017907Y002032
X00216Y00206
X00209205Y00219365
X0022225Y0023368
X002286Y002286
X00239Y00215412
X00283Y0022
X00291Y00205
X00319Y002
X00338
X00381Y0023
X00408Y00236
X00413Y00197
X00402Y00135
X00407Y0011
X00434Y00102
X00433Y00026
X00353Y00079
X0019177Y0016256
X00452Y00142
X00461Y00111
X00464Y00178
X0048Y00235
X00471Y00243
X0043688Y002667
X00448Y00328
X004572Y0034925
X00469Y00395
X004953Y004064
Y0043307
Y0045974
X00561Y0045
Y00425
Y00396
X00395Y004
X003556Y0040767
X0035052Y0041275
Y0044831
X0035941Y0044958
X0036957
X00385Y00452
X0037846Y0045974
X004Y00454
X00384886Y0048327
X00352Y00485
X00357Y00476
X00355Y00501
X00363
X00344
X0033Y0051
X0030099Y00485
X0029
X0028
X00255Y00495
X00206Y0051
X00189Y0051
X00188326Y0048524
X001651Y004953
X00146Y0057
X00137Y00405
Y0038
Y00355
X00113Y00352
X001143Y0033655
X0014605
X00139Y00316
X00173Y00344
X0018796Y0034544
Y0036195
X002032Y00381
X0018796Y0041275
X00248Y00424
X00273Y00415
Y0044
X00295Y0042
Y00376
X0031242Y003683
X003175Y0036195
X0032385Y003556
X003302Y0034925
X0035179Y0036576
X0036703
X0038354Y0035306
X0038227Y0033274
Y003175
X0041275Y0031877
X00427976Y00328123
X00428Y00268
X00418Y00242
X00396Y00258
X00369Y00256
X00372Y00287
X00358Y0028
X0033909Y0028194
X00325199Y0028575
X0031877Y0028067
X0033147Y002921
X003048
X0030226Y0025527
X003175Y0025019
X002667Y00254
X00255Y00268
X0025908Y0029718
X0024638Y0032258
X0026284Y0033716
X0037211Y0034163
X00317Y00464
X0021Y00265
X00178Y00274
X0017145Y0024765
X00159Y00253
X00083Y00336
X00035Y00329
X00027Y0035
X0001Y0034
X00019Y0042
X00021Y0062
T02
X00089501Y00125
X00119501
Y00155
X00089501
Y00185
X00119501
Y00215
X00089501
Y00245
X00119501
Y00275
X00089501
X000895Y00375
X001195
Y00405
X000895
Y00435
X001195
Y00465
X000895
Y00495
X001195
Y00525
X000895
T03
X004504Y00515
Y00545
X004804
Y00515
T04
X00061097Y0002
X00086497
X00111896
X00137295Y00020001
X00162697Y00019999
X00188097
X00213497
X00238897
X00327001Y000385
Y000639
Y000893
Y001147
X00326999Y00140101
X00327Y001655
X003719Y0008
X003973
X004227
X004481
X00555601Y000893
Y000639
Y000385
Y001147
X00555599Y00140101
X005556Y001655
X005381Y006
X005127
X004873
X004619
X00238897Y00629999
X00213497
X00188097
X00162697
X00137295Y00630001
X00111896Y0063
X00086497
X00061097
T05
X0026Y0015
X0051Y001
X004Y0055
X0026Y0052
T06
X00046501Y001465
Y002535
X000465Y003965
Y005035
T07
X005236Y0053
M30
