G04*
G04 #@! TF.GenerationSoftware,Altium Limited,Altium Designer,20.0.11 (256)*
G04*
G04 Layer_Color=8421504*
%FSLAX44Y44*%
%MOMM*%
G71*
G01*
G75*
%ADD16R,1.4400X1.8200*%
%ADD17R,0.9000X0.9000*%
%ADD18R,0.9000X0.9500*%
%ADD19R,2.5100X3.3000*%
%ADD20R,1.4500X0.6000*%
%ADD21R,1.6000X2.2000*%
%ADD22R,0.9000X0.9000*%
%ADD23R,1.7000X2.5000*%
%ADD24C,1.0000*%
%ADD25R,1.1000X0.6000*%
%ADD26R,2.2200X1.2000*%
%ADD27R,2.7100X3.4000*%
%ADD28R,1.5500X0.6000*%
D16*
X125000Y367000D02*
D03*
X151720D02*
D03*
D17*
X39000Y297000D02*
D03*
X58000D02*
D03*
X119000Y285000D02*
D03*
X138000D02*
D03*
X83000Y222000D02*
D03*
X102000D02*
D03*
X138000Y236000D02*
D03*
X119000D02*
D03*
X138000Y252000D02*
D03*
X119000D02*
D03*
X138000Y268000D02*
D03*
X119000D02*
D03*
X170000Y236000D02*
D03*
X151000D02*
D03*
X227000Y40000D02*
D03*
X246000D02*
D03*
X226000Y90000D02*
D03*
X245000D02*
D03*
X226000Y140000D02*
D03*
X245000D02*
D03*
X226000Y190000D02*
D03*
X245000D02*
D03*
X226000Y240000D02*
D03*
X245000D02*
D03*
X141000Y188000D02*
D03*
X122000D02*
D03*
X161000Y128000D02*
D03*
X180000D02*
D03*
X95000D02*
D03*
X114000D02*
D03*
X128000D02*
D03*
X147000D02*
D03*
X153000Y561000D02*
D03*
X172000D02*
D03*
D18*
X104000Y297000D02*
D03*
X72500D02*
D03*
D19*
X74750Y258350D02*
D03*
D20*
X102000Y239300D02*
D03*
Y252000D02*
D03*
Y264700D02*
D03*
Y277400D02*
D03*
X47500Y239300D02*
D03*
Y252000D02*
D03*
Y264700D02*
D03*
Y277400D02*
D03*
D21*
X103000Y348000D02*
D03*
X39000D02*
D03*
D22*
X29000Y284000D02*
D03*
Y265000D02*
D03*
X121000Y311000D02*
D03*
Y330000D02*
D03*
X138000D02*
D03*
Y311000D02*
D03*
X29000Y232000D02*
D03*
Y251000D02*
D03*
X77000Y147000D02*
D03*
Y166000D02*
D03*
X228000Y497000D02*
D03*
Y516000D02*
D03*
X191000Y147000D02*
D03*
Y166000D02*
D03*
X173000Y147000D02*
D03*
Y166000D02*
D03*
X59000Y147000D02*
D03*
Y166000D02*
D03*
X41000Y147000D02*
D03*
Y166000D02*
D03*
X133000Y542000D02*
D03*
Y523000D02*
D03*
X115000Y542000D02*
D03*
Y523000D02*
D03*
X228000Y530000D02*
D03*
Y549000D02*
D03*
X97000Y523000D02*
D03*
Y542000D02*
D03*
D23*
X178000Y271000D02*
D03*
Y311000D02*
D03*
D24*
X280000Y630000D02*
D03*
X20000Y420000D02*
D03*
X30000Y30000D02*
D03*
D25*
X95000Y166000D02*
D03*
Y156500D02*
D03*
Y147000D02*
D03*
X122000D02*
D03*
Y156500D02*
D03*
Y166000D02*
D03*
D26*
X148000Y147000D02*
D03*
Y169200D02*
D03*
D27*
X180043Y523000D02*
D03*
D28*
X153043Y542050D02*
D03*
Y529350D02*
D03*
Y516650D02*
D03*
Y503950D02*
D03*
X207043Y542050D02*
D03*
Y529350D02*
D03*
Y516650D02*
D03*
Y503950D02*
D03*
M02*
