G04*
G04 #@! TF.GenerationSoftware,Altium Limited,Altium Designer,20.0.11 (256)*
G04*
G04 Layer_Color=8421504*
%FSLAX44Y44*%
%MOMM*%
G71*
G01*
G75*
%ADD16R,1.1000X0.6000*%
%ADD17R,1.4500X0.6000*%
%ADD18R,2.5100X3.3000*%
%ADD19R,1.5500X0.6000*%
%ADD20R,2.7100X3.4000*%
%ADD21R,2.2200X1.2000*%
%ADD22R,1.7000X2.5000*%
%ADD23R,1.6000X2.2000*%
%ADD24R,0.9000X0.9500*%
%ADD25R,1.4400X1.8200*%
%ADD26R,0.9000X0.9000*%
%ADD27R,0.9000X0.9000*%
%ADD28C,1.0000*%
D16*
X122000Y166000D02*
D03*
Y156500D02*
D03*
Y147000D02*
D03*
X95000D02*
D03*
Y156500D02*
D03*
Y166000D02*
D03*
D17*
X47500Y277400D02*
D03*
Y264700D02*
D03*
Y252000D02*
D03*
Y239300D02*
D03*
X102000Y277400D02*
D03*
Y264700D02*
D03*
Y252000D02*
D03*
Y239300D02*
D03*
D18*
X74750Y258350D02*
D03*
D19*
X207043Y503950D02*
D03*
Y516650D02*
D03*
Y529350D02*
D03*
Y542050D02*
D03*
X153043Y503950D02*
D03*
Y516650D02*
D03*
Y529350D02*
D03*
Y542050D02*
D03*
D20*
X180043Y523000D02*
D03*
D21*
X148000Y169200D02*
D03*
Y147000D02*
D03*
D22*
X178000Y311000D02*
D03*
Y271000D02*
D03*
D23*
X39000Y348000D02*
D03*
X103000D02*
D03*
D24*
X72500Y297000D02*
D03*
X104000D02*
D03*
D25*
X151720Y367000D02*
D03*
X125000D02*
D03*
D26*
X245000Y240000D02*
D03*
X226000D02*
D03*
X172000Y561000D02*
D03*
X153000D02*
D03*
X180000Y128000D02*
D03*
X161000D02*
D03*
X114000D02*
D03*
X95000D02*
D03*
X147000D02*
D03*
X128000D02*
D03*
X122000Y188000D02*
D03*
X141000D02*
D03*
X58000Y297000D02*
D03*
X39000D02*
D03*
X102000Y222000D02*
D03*
X83000D02*
D03*
X119000Y252000D02*
D03*
X138000D02*
D03*
X151000Y236000D02*
D03*
X170000D02*
D03*
X119000Y268000D02*
D03*
X138000D02*
D03*
Y285000D02*
D03*
X119000D02*
D03*
Y236000D02*
D03*
X138000D02*
D03*
X246000Y40000D02*
D03*
X227000D02*
D03*
X245000Y90000D02*
D03*
X226000D02*
D03*
X245000Y140000D02*
D03*
X226000D02*
D03*
X245000Y190000D02*
D03*
X226000D02*
D03*
D27*
X41000Y166000D02*
D03*
Y147000D02*
D03*
X59000Y166000D02*
D03*
Y147000D02*
D03*
X173000Y166000D02*
D03*
Y147000D02*
D03*
X191000Y166000D02*
D03*
Y147000D02*
D03*
X133000Y523000D02*
D03*
Y542000D02*
D03*
X228000Y549000D02*
D03*
Y530000D02*
D03*
X115000Y523000D02*
D03*
Y542000D02*
D03*
X97000D02*
D03*
Y523000D02*
D03*
X77000Y166000D02*
D03*
Y147000D02*
D03*
X228000Y516000D02*
D03*
Y497000D02*
D03*
X29000Y265000D02*
D03*
Y284000D02*
D03*
X121000Y330000D02*
D03*
Y311000D02*
D03*
X29000Y251000D02*
D03*
Y232000D02*
D03*
X138000Y311000D02*
D03*
Y330000D02*
D03*
D28*
X30000Y30000D02*
D03*
X140000Y420000D02*
D03*
X280000Y580000D02*
D03*
M02*
