G04*
G04 #@! TF.GenerationSoftware,Altium Limited,Altium Designer,20.0.11 (256)*
G04*
G04 Layer_Color=8388736*
%FSLAX44Y44*%
%MOMM*%
G71*
G01*
G75*
%ADD26R,0.9000X0.9000*%
%ADD29R,1.2000X0.7000*%
%ADD30R,1.5500X0.7000*%
%ADD31R,2.6100X3.4000*%
%ADD32R,1.6500X0.7000*%
%ADD33R,2.8100X3.5000*%
%ADD34R,2.3200X1.3000*%
%ADD35R,1.8000X2.6000*%
%ADD36R,1.7000X2.3000*%
%ADD37R,1.0000X1.0500*%
%ADD38R,1.5400X1.9200*%
%ADD39R,1.0000X1.0000*%
%ADD40R,1.0000X1.0000*%
%ADD41C,3.0000*%
%ADD42C,3.1480*%
%ADD43P,1.4071X8X292.5*%
%ADD44R,1.9000X1.9000*%
%ADD45C,1.9000*%
%ADD46C,3.1000*%
%ADD47R,1.6300X1.6300*%
%ADD48C,1.6300*%
%ADD49P,1.4071X8X202.5*%
%ADD50C,0.5000*%
D26*
X259500Y240000D02*
D03*
X274500D02*
D03*
X260500Y40000D02*
D03*
X275500D02*
D03*
X259500Y90000D02*
D03*
X274500D02*
D03*
X259500Y140000D02*
D03*
X274500D02*
D03*
X259500Y190000D02*
D03*
X274500D02*
D03*
D29*
X122000Y166000D02*
D03*
Y156500D02*
D03*
Y147000D02*
D03*
X95000D02*
D03*
Y156500D02*
D03*
Y166000D02*
D03*
D30*
X47500Y277400D02*
D03*
Y264700D02*
D03*
Y252000D02*
D03*
Y239300D02*
D03*
X102000Y277400D02*
D03*
Y264700D02*
D03*
Y252000D02*
D03*
Y239300D02*
D03*
D31*
X74750Y258350D02*
D03*
D32*
X207043Y503950D02*
D03*
Y516650D02*
D03*
Y529350D02*
D03*
Y542050D02*
D03*
X153043Y503950D02*
D03*
Y516650D02*
D03*
Y529350D02*
D03*
Y542050D02*
D03*
D33*
X180043Y523000D02*
D03*
D34*
X148000Y169200D02*
D03*
Y147000D02*
D03*
D35*
X178000Y311000D02*
D03*
Y271000D02*
D03*
D36*
X39000Y348000D02*
D03*
X103000D02*
D03*
D37*
X72500Y297000D02*
D03*
X104000D02*
D03*
D38*
X151720Y367000D02*
D03*
X125000D02*
D03*
D39*
X245000Y240000D02*
D03*
X226000D02*
D03*
X172000Y561000D02*
D03*
X153000D02*
D03*
X180000Y128000D02*
D03*
X161000D02*
D03*
X114000D02*
D03*
X95000D02*
D03*
X147000D02*
D03*
X128000D02*
D03*
X122000Y188000D02*
D03*
X141000D02*
D03*
X58000Y297000D02*
D03*
X39000D02*
D03*
X102000Y222000D02*
D03*
X83000D02*
D03*
X119000Y252000D02*
D03*
X138000D02*
D03*
X151000Y236000D02*
D03*
X170000D02*
D03*
X119000Y268000D02*
D03*
X138000D02*
D03*
Y285000D02*
D03*
X119000D02*
D03*
Y236000D02*
D03*
X138000D02*
D03*
X246000Y40000D02*
D03*
X227000D02*
D03*
X245000Y90000D02*
D03*
X226000D02*
D03*
X245000Y140000D02*
D03*
X226000D02*
D03*
X245000Y190000D02*
D03*
X226000D02*
D03*
D40*
X41000Y166000D02*
D03*
Y147000D02*
D03*
X59000Y166000D02*
D03*
Y147000D02*
D03*
X173000Y166000D02*
D03*
Y147000D02*
D03*
X191000Y166000D02*
D03*
Y147000D02*
D03*
X133000Y523000D02*
D03*
Y542000D02*
D03*
X228000Y549000D02*
D03*
Y530000D02*
D03*
X115000Y523000D02*
D03*
Y542000D02*
D03*
X97000D02*
D03*
Y523000D02*
D03*
X77000Y166000D02*
D03*
Y147000D02*
D03*
X228000Y516000D02*
D03*
Y497000D02*
D03*
X29000Y265000D02*
D03*
Y284000D02*
D03*
X121000Y330000D02*
D03*
Y311000D02*
D03*
X29000Y251000D02*
D03*
Y232000D02*
D03*
X138000Y311000D02*
D03*
Y330000D02*
D03*
D41*
X30000Y30000D02*
D03*
X140000Y420000D02*
D03*
X280000Y580000D02*
D03*
D42*
X50000Y550000D02*
D03*
Y100000D02*
D03*
X240000Y620000D02*
D03*
X150000Y30000D02*
D03*
D43*
X290000Y40000D02*
D03*
Y240000D02*
D03*
Y140000D02*
D03*
X290000Y90000D02*
D03*
X290000Y10000D02*
D03*
D44*
X111900Y600000D02*
D03*
X101900Y80000D02*
D03*
D45*
X137300Y600000D02*
D03*
X162700D02*
D03*
X188100D02*
D03*
X127300Y80000D02*
D03*
X152700D02*
D03*
X178100D02*
D03*
D46*
X253600Y440000D02*
D03*
X276600Y320000D02*
D03*
D47*
X210400Y455000D02*
D03*
X233400Y335000D02*
D03*
D48*
X210400Y425000D02*
D03*
X180400Y455000D02*
D03*
Y425000D02*
D03*
X233400Y305000D02*
D03*
X203400Y335000D02*
D03*
Y305000D02*
D03*
D49*
X290000Y190000D02*
D03*
D50*
X69250Y269350D02*
D03*
X80250D02*
D03*
X69250Y258350D02*
D03*
X80250D02*
D03*
X69250Y247350D02*
D03*
X80250D02*
D03*
X185543Y512000D02*
D03*
X174543D02*
D03*
X185543Y523000D02*
D03*
X174543D02*
D03*
X185543Y534000D02*
D03*
X174543D02*
D03*
X147000Y118000D02*
D03*
X29000Y293000D02*
D03*
X181000Y561000D02*
D03*
X238000Y516000D02*
D03*
Y530000D02*
D03*
X97000Y552000D02*
D03*
X165000Y367000D02*
D03*
X150000Y330000D02*
D03*
X195000Y271000D02*
D03*
X160000D02*
D03*
X178000Y250000D02*
D03*
X150000Y252000D02*
D03*
Y268000D02*
D03*
X180000Y236000D02*
D03*
X276000Y250000D02*
D03*
X275000Y200000D02*
D03*
Y150000D02*
D03*
Y100000D02*
D03*
X276000Y50000D02*
D03*
X202000Y166000D02*
D03*
X191000Y175000D02*
D03*
X173000D02*
D03*
X95000Y178000D02*
D03*
X30000Y166000D02*
D03*
X41000Y175000D02*
D03*
X59000D02*
D03*
X77000D02*
D03*
X83000Y212000D02*
D03*
X48000Y227000D02*
D03*
X29000Y222000D02*
D03*
X226000Y150000D02*
D03*
X20000Y335000D02*
D03*
X138000Y295000D02*
D03*
M02*
