G04*
G04 #@! TF.GenerationSoftware,Altium Limited,Altium Designer,20.0.11 (256)*
G04*
G04 Layer_Color=65535*
%FSLAX44Y44*%
%MOMM*%
G71*
G01*
G75*
%ADD10C,0.1000*%
%ADD11C,0.2500*%
%ADD12C,0.2000*%
%ADD13C,0.1270*%
%ADD14C,0.3000*%
%ADD15C,0.2540*%
D10*
X180000Y620000D02*
G03*
X180000Y620000I-30000J0D01*
G01*
Y30000D02*
G03*
X180000Y30000I-30000J0D01*
G01*
X200250Y465400D02*
Y488250D01*
X299500D01*
Y391750D02*
Y488250D01*
X200250Y391750D02*
X299500D01*
X200250D02*
Y414600D01*
X45000Y292000D02*
X52000D01*
X45000Y302000D02*
X52000D01*
X66250Y293000D02*
Y301000D01*
X78250Y290000D02*
X98250D01*
X78250Y304000D02*
X98250D01*
X58750Y233350D02*
X90750D01*
X58750Y283350D02*
X90750D01*
X111000Y363000D02*
Y388000D01*
X31000D02*
X111000D01*
X31000Y363000D02*
Y388000D01*
Y308000D02*
Y333000D01*
Y308000D02*
X111000D01*
Y333000D01*
X24000Y271000D02*
Y278000D01*
X34000Y271000D02*
Y278000D01*
X125000Y280000D02*
X132000D01*
X125000Y290000D02*
X132000D01*
X89000Y217000D02*
X96000D01*
X89000Y227000D02*
X96000D01*
X126000Y317000D02*
Y324000D01*
X116000Y317000D02*
Y324000D01*
X125000Y241000D02*
X132000D01*
X125000Y231000D02*
X132000D01*
X125000Y257000D02*
X132000D01*
X125000Y247000D02*
X132000D01*
X133000Y317000D02*
Y324000D01*
X143000Y317000D02*
Y324000D01*
X125000Y273000D02*
X132000D01*
X125000Y263000D02*
X132000D01*
X34000Y238000D02*
Y245000D01*
X24000Y238000D02*
Y245000D01*
X157000Y241000D02*
X164000D01*
X157000Y231000D02*
X164000D01*
X165500Y326000D02*
X190500D01*
X233000Y35000D02*
X240000D01*
X233000Y45000D02*
X240000D01*
X281500Y35000D02*
Y45000D01*
X232000Y85000D02*
X239000D01*
X232000Y95000D02*
X239000D01*
X280500Y85000D02*
Y95000D01*
X232000Y135000D02*
X239000D01*
X232000Y145000D02*
X239000D01*
X280500Y135000D02*
Y145000D01*
X232000Y185000D02*
X239000D01*
X232000Y195000D02*
X239000D01*
X280500Y185000D02*
Y195000D01*
X232000Y235000D02*
X239000D01*
X232000Y245000D02*
X239000D01*
X280500Y235000D02*
Y245000D01*
X223250Y271750D02*
Y294600D01*
Y271750D02*
X322500D01*
Y368250D01*
X223250D02*
X322500D01*
X223250Y345400D02*
Y368250D01*
X17500Y537500D02*
Y562500D01*
Y537500D02*
X37500Y517500D01*
X17500Y562500D02*
X37500Y582500D01*
X62500D01*
X37500Y517500D02*
X62500D01*
X82500Y537500D02*
Y562500D01*
X62500Y517500D02*
X82500Y537500D01*
X62500Y582500D02*
X82500Y562500D01*
X17500Y87500D02*
Y112500D01*
Y87500D02*
X37500Y67500D01*
X17500Y112500D02*
X37500Y132500D01*
X62500D01*
X37500Y67500D02*
X62500D01*
X82500Y87500D02*
Y112500D01*
X62500Y67500D02*
X82500Y87500D01*
X62500Y132500D02*
X82500Y112500D01*
X128000Y193000D02*
X135000D01*
X128000Y183000D02*
X135000D01*
X82000Y153000D02*
Y160000D01*
X72000Y153000D02*
Y160000D01*
X233000Y503000D02*
Y510000D01*
X223000Y503000D02*
Y510000D01*
X103500Y172000D02*
X113500D01*
X103500Y141000D02*
X113500D01*
X103500D02*
Y172000D01*
X113500Y141000D02*
Y172000D01*
X189200Y557300D02*
Y582700D01*
Y557300D02*
X290800D01*
Y582700D01*
X189200D02*
X290800D01*
X89200Y67300D02*
Y92700D01*
Y67300D02*
X190800D01*
Y92700D01*
X89200D02*
X190800D01*
X167000Y123000D02*
X174000D01*
X167000Y133000D02*
X174000D01*
X137000Y156200D02*
Y160000D01*
X159000Y156200D02*
Y160000D01*
X196000Y153000D02*
Y160000D01*
X186000Y153000D02*
Y160000D01*
X178000Y153000D02*
Y160000D01*
X168000Y153000D02*
Y160000D01*
X101000Y123000D02*
X108000D01*
X101000Y133000D02*
X108000D01*
X64000Y153000D02*
Y160000D01*
X54000Y153000D02*
Y160000D01*
X46000Y153000D02*
Y160000D01*
X36000Y153000D02*
Y160000D01*
X134000Y123000D02*
X141000D01*
X134000Y133000D02*
X141000D01*
X164043Y548000D02*
X196043D01*
X164043Y498000D02*
X196043D01*
X128000Y529000D02*
Y536000D01*
X138000Y529000D02*
Y536000D01*
X110000Y529000D02*
Y536000D01*
X120000Y529000D02*
Y536000D01*
X233000Y536000D02*
Y543000D01*
X223000Y536000D02*
Y543000D01*
X159000Y556000D02*
X166000D01*
X159000Y566000D02*
X166000D01*
X102000Y529000D02*
Y536000D01*
X92000Y529000D02*
Y536000D01*
X185334Y489998D02*
X182002D01*
X183668D01*
Y481668D01*
X182002Y480002D01*
X180336D01*
X178669Y481668D01*
X193664Y480002D02*
Y489998D01*
X188666Y485000D01*
X195331D01*
X59335Y228998D02*
Y220668D01*
X61002Y219002D01*
X64334D01*
X66000Y220668D01*
Y228998D01*
X69332Y219002D02*
X72664D01*
X70998D01*
Y228998D01*
X69332Y227332D01*
X223504Y222002D02*
Y231998D01*
X228502D01*
X230168Y230332D01*
Y227000D01*
X228502Y225334D01*
X223504D01*
X226836D02*
X230168Y222002D01*
X233501D02*
X236833D01*
X235167D01*
Y231998D01*
X233501Y230332D01*
X248496Y222002D02*
X241831D01*
X248496Y228666D01*
Y230332D01*
X246830Y231998D01*
X243498D01*
X241831Y230332D01*
X227169Y172002D02*
Y181998D01*
X232168D01*
X233834Y180332D01*
Y177000D01*
X232168Y175334D01*
X227169D01*
X230502D02*
X233834Y172002D01*
X237166Y173668D02*
X238832Y172002D01*
X242164D01*
X243831Y173668D01*
Y180332D01*
X242164Y181998D01*
X238832D01*
X237166Y180332D01*
Y178666D01*
X238832Y177000D01*
X243831D01*
X226669Y122002D02*
Y131998D01*
X231668D01*
X233334Y130332D01*
Y127000D01*
X231668Y125334D01*
X226669D01*
X230002D02*
X233334Y122002D01*
X236666Y130332D02*
X238332Y131998D01*
X241665D01*
X243331Y130332D01*
Y128666D01*
X241665Y127000D01*
X243331Y125334D01*
Y123668D01*
X241665Y122002D01*
X238332D01*
X236666Y123668D01*
Y125334D01*
X238332Y127000D01*
X236666Y128666D01*
Y130332D01*
X238332Y127000D02*
X241665D01*
X227173Y72002D02*
Y81999D01*
X232171D01*
X233837Y80333D01*
Y77001D01*
X232171Y75335D01*
X227173D01*
X230505D02*
X233837Y72002D01*
X237170Y81999D02*
X243834D01*
Y80333D01*
X237170Y73668D01*
Y72002D01*
X227669Y22002D02*
Y31998D01*
X232668D01*
X234334Y30332D01*
Y27000D01*
X232668Y25334D01*
X227669D01*
X231002D02*
X234334Y22002D01*
X244331Y31998D02*
X240998Y30332D01*
X237666Y27000D01*
Y23668D01*
X239332Y22002D01*
X242665D01*
X244331Y23668D01*
Y25334D01*
X242665Y27000D01*
X237666D01*
X142998Y336669D02*
X133002D01*
Y341668D01*
X134668Y343334D01*
X138000D01*
X139666Y341668D01*
Y336669D01*
Y340002D02*
X142998Y343334D01*
X133002Y353331D02*
Y346666D01*
X138000D01*
X136334Y349998D01*
Y351665D01*
X138000Y353331D01*
X141332D01*
X142998Y351665D01*
Y348332D01*
X141332Y346666D01*
X20998Y232669D02*
X11002D01*
Y237668D01*
X12668Y239334D01*
X16000D01*
X17666Y237668D01*
Y232669D01*
Y236002D02*
X20998Y239334D01*
Y247665D02*
X11002D01*
X16000Y242666D01*
Y249331D01*
X125998Y336669D02*
X116002D01*
Y341668D01*
X117668Y343334D01*
X121000D01*
X122666Y341668D01*
Y336669D01*
Y340002D02*
X125998Y343334D01*
X117668Y346666D02*
X116002Y348332D01*
Y351665D01*
X117668Y353331D01*
X119334D01*
X121000Y351665D01*
Y349998D01*
Y351665D01*
X122666Y353331D01*
X124332D01*
X125998Y351665D01*
Y348332D01*
X124332Y346666D01*
X120669Y218002D02*
Y227998D01*
X125668D01*
X127334Y226332D01*
Y223000D01*
X125668Y221334D01*
X120669D01*
X124002D02*
X127334Y218002D01*
X137331D02*
X130666D01*
X137331Y224666D01*
Y226332D01*
X135665Y227998D01*
X132332D01*
X130666Y226332D01*
X144597Y279819D02*
Y289816D01*
X149596D01*
X151262Y288150D01*
Y284817D01*
X149596Y283151D01*
X144597D01*
X147929D02*
X151262Y279819D01*
X154594D02*
X157926D01*
X156260D01*
Y289816D01*
X154594Y288150D01*
X15336Y386998D02*
Y377002D01*
X22000D01*
X25332D02*
X28665D01*
X26998D01*
Y386998D01*
X25332Y385332D01*
X208334Y366998D02*
X205002D01*
X206668D01*
Y358668D01*
X205002Y357002D01*
X203335D01*
X201669Y358668D01*
X211666Y365332D02*
X213332Y366998D01*
X216665D01*
X218331Y365332D01*
Y363666D01*
X216665Y362000D01*
X214998D01*
X216665D01*
X218331Y360334D01*
Y358668D01*
X216665Y357002D01*
X213332D01*
X211666Y358668D01*
X258669Y231998D02*
Y222002D01*
X263668D01*
X265334Y223668D01*
Y230332D01*
X263668Y231998D01*
X258669D01*
X268666D02*
X275331D01*
Y230332D01*
X268666Y223668D01*
Y222002D01*
X258669Y181998D02*
Y172002D01*
X263668D01*
X265334Y173668D01*
Y180332D01*
X263668Y181998D01*
X258669D01*
X275331D02*
X271998Y180332D01*
X268666Y177000D01*
Y173668D01*
X270332Y172002D01*
X273664D01*
X275331Y173668D01*
Y175334D01*
X273664Y177000D01*
X268666D01*
X258669Y131998D02*
Y122002D01*
X263668D01*
X265334Y123668D01*
Y130332D01*
X263668Y131998D01*
X258669D01*
X275331D02*
X268666D01*
Y127000D01*
X271998Y128666D01*
X273664D01*
X275331Y127000D01*
Y123668D01*
X273664Y122002D01*
X270332D01*
X268666Y123668D01*
X258669Y81998D02*
Y72002D01*
X263668D01*
X265334Y73668D01*
Y80332D01*
X263668Y81998D01*
X258669D01*
X273664Y72002D02*
Y81998D01*
X268666Y77000D01*
X275331D01*
X259669Y31998D02*
Y22002D01*
X264668D01*
X266334Y23668D01*
Y30332D01*
X264668Y31998D01*
X259669D01*
X269666Y30332D02*
X271332Y31998D01*
X274664D01*
X276331Y30332D01*
Y28666D01*
X274664Y27000D01*
X272998D01*
X274664D01*
X276331Y25334D01*
Y23668D01*
X274664Y22002D01*
X271332D01*
X269666Y23668D01*
X169669Y338998D02*
Y329002D01*
X174668D01*
X176334Y330668D01*
Y337332D01*
X174668Y338998D01*
X169669D01*
X186331Y329002D02*
X179666D01*
X186331Y335666D01*
Y337332D01*
X184664Y338998D01*
X181332D01*
X179666Y337332D01*
X111335Y303998D02*
Y294002D01*
X116334D01*
X118000Y295668D01*
Y302332D01*
X116334Y303998D01*
X111335D01*
X121332Y294002D02*
X124664D01*
X122998D01*
Y303998D01*
X121332Y302332D01*
X151334Y271332D02*
X149668Y272998D01*
X146335D01*
X144669Y271332D01*
Y264668D01*
X146335Y263002D01*
X149668D01*
X151334Y264668D01*
X154666Y272998D02*
X161331D01*
Y271332D01*
X154666Y264668D01*
Y263002D01*
X158334Y226332D02*
X156668Y227998D01*
X153336D01*
X151669Y226332D01*
Y219668D01*
X153336Y218002D01*
X156668D01*
X158334Y219668D01*
X168331Y227998D02*
X164998Y226332D01*
X161666Y223000D01*
Y219668D01*
X163332Y218002D01*
X166665D01*
X168331Y219668D01*
Y221334D01*
X166665Y223000D01*
X161666D01*
X136334Y388332D02*
X134668Y389998D01*
X131335D01*
X129669Y388332D01*
Y381668D01*
X131335Y380002D01*
X134668D01*
X136334Y381668D01*
X146331Y389998D02*
X139666D01*
Y385000D01*
X142998Y386666D01*
X144664D01*
X146331Y385000D01*
Y381668D01*
X144664Y380002D01*
X141332D01*
X139666Y381668D01*
X151334Y255332D02*
X149668Y256998D01*
X146335D01*
X144669Y255332D01*
Y248668D01*
X146335Y247002D01*
X149668D01*
X151334Y248668D01*
X159664Y247002D02*
Y256998D01*
X154666Y252000D01*
X161331D01*
X90334Y212332D02*
X88668Y213998D01*
X85336D01*
X83669Y212332D01*
Y205668D01*
X85336Y204002D01*
X88668D01*
X90334Y205668D01*
X93666Y212332D02*
X95332Y213998D01*
X98665D01*
X100331Y212332D01*
Y210666D01*
X98665Y209000D01*
X96998D01*
X98665D01*
X100331Y207334D01*
Y205668D01*
X98665Y204002D01*
X95332D01*
X93666Y205668D01*
X12668Y273334D02*
X11002Y271668D01*
Y268335D01*
X12668Y266669D01*
X19332D01*
X20998Y268335D01*
Y271668D01*
X19332Y273334D01*
X20998Y283331D02*
Y276666D01*
X14334Y283331D01*
X12668D01*
X11002Y281665D01*
Y278332D01*
X12668Y276666D01*
X26000Y300332D02*
X24334Y301998D01*
X21002D01*
X19335Y300332D01*
Y293668D01*
X21002Y292002D01*
X24334D01*
X26000Y293668D01*
X29332Y292002D02*
X32664D01*
X30998D01*
Y301998D01*
X29332Y300332D01*
X242665Y510331D02*
X240998Y511997D01*
X237666D01*
X236000Y510331D01*
Y503666D01*
X237666Y502000D01*
X240998D01*
X242665Y503666D01*
X245997Y502000D02*
X249329D01*
X247663D01*
Y511997D01*
X245997Y510331D01*
X260992Y511997D02*
X257660Y510331D01*
X254327Y506998D01*
Y503666D01*
X255994Y502000D01*
X259326D01*
X260992Y503666D01*
Y505332D01*
X259326Y506998D01*
X254327D01*
X129664Y204331D02*
X127998Y205997D01*
X124666D01*
X123000Y204331D01*
Y197666D01*
X124666Y196000D01*
X127998D01*
X129664Y197666D01*
X132997Y196000D02*
X136329D01*
X134663D01*
Y205997D01*
X132997Y204331D01*
X141327Y196000D02*
X144660D01*
X142994D01*
Y205997D01*
X141327Y204331D01*
X73669Y179664D02*
X72003Y177998D01*
Y174666D01*
X73669Y173000D01*
X80334D01*
X82000Y174666D01*
Y177998D01*
X80334Y179664D01*
X82000Y182997D02*
Y186329D01*
Y184663D01*
X72003D01*
X73669Y182997D01*
Y191327D02*
X72003Y192994D01*
Y196326D01*
X73669Y197992D01*
X80334D01*
X82000Y196326D01*
Y192994D01*
X80334Y191327D01*
X73669D01*
X125000Y506997D02*
Y498666D01*
X126666Y497000D01*
X129998D01*
X131664Y498666D01*
Y506997D01*
X134997Y505331D02*
X136663Y506997D01*
X139995D01*
X141661Y505331D01*
Y503665D01*
X139995Y501998D01*
X138329D01*
X139995D01*
X141661Y500332D01*
Y498666D01*
X139995Y497000D01*
X136663D01*
X134997Y498666D01*
X88000Y187997D02*
Y179666D01*
X89666Y178000D01*
X92998D01*
X94664Y179666D01*
Y187997D01*
X104661Y178000D02*
X97997D01*
X104661Y184664D01*
Y186331D01*
X102995Y187997D01*
X99663D01*
X97997Y186331D01*
X102000Y549000D02*
X92003D01*
Y553998D01*
X93669Y555664D01*
X97002D01*
X98668Y553998D01*
Y549000D01*
Y552332D02*
X102000Y555664D01*
Y558997D02*
Y562329D01*
Y560663D01*
X92003D01*
X93669Y558997D01*
X92003Y573992D02*
Y567327D01*
X97002D01*
X95336Y570660D01*
Y572326D01*
X97002Y573992D01*
X100334D01*
X102000Y572326D01*
Y568994D01*
X100334Y567327D01*
X120000Y549000D02*
X110003D01*
Y553998D01*
X111669Y555664D01*
X115002D01*
X116668Y553998D01*
Y549000D01*
Y552332D02*
X120000Y555664D01*
Y558997D02*
Y562329D01*
Y560663D01*
X110003D01*
X111669Y558997D01*
X120000Y572326D02*
X110003D01*
X115002Y567327D01*
Y573992D01*
X129000Y110000D02*
Y119997D01*
X133998D01*
X135665Y118331D01*
Y114998D01*
X133998Y113332D01*
X129000D01*
X132332D02*
X135665Y110000D01*
X138997D02*
X142329D01*
X140663D01*
Y119997D01*
X138997Y118331D01*
X147327D02*
X148994Y119997D01*
X152326D01*
X153992Y118331D01*
Y116664D01*
X152326Y114998D01*
X150660D01*
X152326D01*
X153992Y113332D01*
Y111666D01*
X152326Y110000D01*
X148994D01*
X147327Y111666D01*
X96000Y110000D02*
Y119997D01*
X100998D01*
X102664Y118331D01*
Y114998D01*
X100998Y113332D01*
X96000D01*
X99332D02*
X102664Y110000D01*
X105997D02*
X109329D01*
X107663D01*
Y119997D01*
X105997Y118331D01*
X114327Y110000D02*
X117660D01*
X115994D01*
Y119997D01*
X114327Y118331D01*
X164000Y110000D02*
Y119997D01*
X168998D01*
X170665Y118331D01*
Y114998D01*
X168998Y113332D01*
X164000D01*
X167332D02*
X170665Y110000D01*
X173997D02*
X177329D01*
X175663D01*
Y119997D01*
X173997Y118331D01*
X182327D02*
X183994Y119997D01*
X187326D01*
X188992Y118331D01*
Y111666D01*
X187326Y110000D01*
X183994D01*
X182327Y111666D01*
Y118331D01*
X150003Y180000D02*
X160000D01*
Y186665D01*
Y196661D02*
Y189997D01*
X153336Y196661D01*
X151669D01*
X150003Y194995D01*
Y191663D01*
X151669Y189997D01*
X279165Y594997D02*
X275832D01*
X277498D01*
Y586666D01*
X275832Y585000D01*
X274166D01*
X272500Y586666D01*
X289161Y585000D02*
X282497D01*
X289161Y591665D01*
Y593331D01*
X287495Y594997D01*
X284163D01*
X282497Y593331D01*
X200665Y83997D02*
X197332D01*
X198998D01*
Y75666D01*
X197332Y74000D01*
X195666D01*
X194000Y75666D01*
X203997Y74000D02*
X207329D01*
X205663D01*
Y83997D01*
X203997Y82331D01*
X156664Y577331D02*
X154998Y578997D01*
X151666D01*
X150000Y577331D01*
Y570666D01*
X151666Y569000D01*
X154998D01*
X156664Y570666D01*
X159997Y569000D02*
X163329D01*
X161663D01*
Y578997D01*
X159997Y577331D01*
X168327Y578997D02*
X174992D01*
Y577331D01*
X168327Y570666D01*
Y569000D01*
X242665Y543331D02*
X240998Y544997D01*
X237666D01*
X236000Y543331D01*
Y536666D01*
X237666Y535000D01*
X240998D01*
X242665Y536666D01*
X245997Y535000D02*
X249329D01*
X247663D01*
Y544997D01*
X245997Y543331D01*
X260992Y544997D02*
X254327D01*
Y539998D01*
X257660Y541665D01*
X259326D01*
X260992Y539998D01*
Y536666D01*
X259326Y535000D01*
X255994D01*
X254327Y536666D01*
X129669Y555664D02*
X128003Y553998D01*
Y550666D01*
X129669Y549000D01*
X136334D01*
X138000Y550666D01*
Y553998D01*
X136334Y555664D01*
X138000Y558997D02*
Y562329D01*
Y560663D01*
X128003D01*
X129669Y558997D01*
X138000Y572326D02*
X128003D01*
X133002Y567327D01*
Y573992D01*
X187669Y179664D02*
X186003Y177998D01*
Y174666D01*
X187669Y173000D01*
X194334D01*
X196000Y174666D01*
Y177998D01*
X194334Y179664D01*
X196000Y182997D02*
Y186329D01*
Y184663D01*
X186003D01*
X187669Y182997D01*
Y191327D02*
X186003Y192994D01*
Y196326D01*
X187669Y197992D01*
X189335D01*
X191002Y196326D01*
Y194660D01*
Y196326D01*
X192668Y197992D01*
X194334D01*
X196000Y196326D01*
Y192994D01*
X194334Y191327D01*
X169669Y179664D02*
X168003Y177998D01*
Y174666D01*
X169669Y173000D01*
X176334D01*
X178000Y174666D01*
Y177998D01*
X176334Y179664D01*
X178000Y182997D02*
Y186329D01*
Y184663D01*
X168003D01*
X169669Y182997D01*
X178000Y197992D02*
Y191327D01*
X171336Y197992D01*
X169669D01*
X168003Y196326D01*
Y192994D01*
X169669Y191327D01*
X55669Y179664D02*
X54003Y177998D01*
Y174666D01*
X55669Y173000D01*
X62334D01*
X64000Y174666D01*
Y177998D01*
X62334Y179664D01*
Y182997D02*
X64000Y184663D01*
Y187995D01*
X62334Y189661D01*
X55669D01*
X54003Y187995D01*
Y184663D01*
X55669Y182997D01*
X57336D01*
X59002Y184663D01*
Y189661D01*
X37669Y179664D02*
X36003Y177998D01*
Y174666D01*
X37669Y173000D01*
X44334D01*
X46000Y174666D01*
Y177998D01*
X44334Y179664D01*
X37669Y182997D02*
X36003Y184663D01*
Y187995D01*
X37669Y189661D01*
X39335D01*
X41002Y187995D01*
X42668Y189661D01*
X44334D01*
X46000Y187995D01*
Y184663D01*
X44334Y182997D01*
X42668D01*
X41002Y184663D01*
X39335Y182997D01*
X37669D01*
X41002Y184663D02*
Y187995D01*
D11*
X48750Y285900D02*
G03*
X48750Y285900I-1250J0D01*
G01*
D12*
X39500Y380500D02*
G03*
X39500Y380500I-1000J0D01*
G01*
X96000Y174500D02*
G03*
X96000Y174500I-1000J0D01*
G01*
X208043Y495450D02*
G03*
X208043Y495450I-1000J0D01*
G01*
X86664Y444331D02*
X84998Y445997D01*
X81666D01*
X80000Y444331D01*
Y442664D01*
X81666Y440998D01*
X84998D01*
X86664Y439332D01*
Y437666D01*
X84998Y436000D01*
X81666D01*
X80000Y437666D01*
X94995Y445997D02*
X91663D01*
X89997Y444331D01*
Y437666D01*
X91663Y436000D01*
X94995D01*
X96661Y437666D01*
Y444331D01*
X94995Y445997D01*
X99993Y436000D02*
Y442664D01*
X103326Y445997D01*
X106658Y442664D01*
Y436000D01*
Y440998D01*
X99993D01*
X109990Y436000D02*
Y445997D01*
X114989D01*
X116655Y444331D01*
Y440998D01*
X114989Y439332D01*
X109990D01*
X113323D02*
X116655Y436000D01*
X253000Y373000D02*
Y382997D01*
X257998D01*
X259664Y381331D01*
Y377998D01*
X257998Y376332D01*
X253000D01*
X256332D02*
X259664Y373000D01*
X262997D02*
Y379664D01*
X266329Y382997D01*
X269661Y379664D01*
Y373000D01*
Y377998D01*
X262997D01*
X272994Y382997D02*
Y373000D01*
X277992D01*
X279658Y374666D01*
Y381331D01*
X277992Y382997D01*
X272994D01*
X282990D02*
X286323D01*
X284657D01*
Y373000D01*
X282990D01*
X286323D01*
X296319Y382997D02*
X292987D01*
X291321Y381331D01*
Y374666D01*
X292987Y373000D01*
X296319D01*
X297985Y374666D01*
Y381331D01*
X296319Y382997D01*
X103000Y450000D02*
Y455332D01*
X105666Y457997D01*
X108332Y455332D01*
Y450000D01*
Y453999D01*
X103000D01*
X110997Y457997D02*
Y452666D01*
X113663Y450000D01*
X116329Y452666D01*
Y457997D01*
X118995Y456665D02*
X120328Y457997D01*
X122993D01*
X124326Y456665D01*
Y455332D01*
X122993Y453999D01*
X121661D01*
X122993D01*
X124326Y452666D01*
Y451333D01*
X122993Y450000D01*
X120328D01*
X118995Y451333D01*
X126992Y450000D02*
Y451333D01*
X128325D01*
Y450000D01*
X126992D01*
X138988D02*
X133657D01*
X138988Y455332D01*
Y456665D01*
X137655Y457997D01*
X134990D01*
X133657Y456665D01*
X271000Y502997D02*
Y493000D01*
X275998D01*
X277665Y494666D01*
Y496332D01*
X275998Y497998D01*
X271000D01*
X275998D01*
X277665Y499664D01*
Y501331D01*
X275998Y502997D01*
X271000D01*
X280997Y493000D02*
Y499664D01*
X284329Y502997D01*
X287661Y499664D01*
Y493000D01*
Y497998D01*
X280997D01*
X290994Y502997D02*
X297658D01*
X294326D01*
Y493000D01*
D13*
X135460Y376000D02*
X141260D01*
X135460Y358000D02*
X141260D01*
D14*
X57000Y451000D02*
Y465995D01*
X64498D01*
X66997Y463496D01*
Y458498D01*
X64498Y455998D01*
X57000D01*
X71995Y451000D02*
Y465995D01*
X76993Y460997D01*
X81992Y465995D01*
Y451000D01*
X86990Y465995D02*
Y451000D01*
X94488D01*
X96987Y453499D01*
Y455998D01*
X94488Y458498D01*
X86990D01*
X94488D01*
X96987Y460997D01*
Y463496D01*
X94488Y465995D01*
X86990D01*
D15*
X238069Y67618D02*
Y57461D01*
X243147Y52382D01*
X248226Y57461D01*
Y67618D01*
X253304D02*
Y52382D01*
X260922D01*
X263461Y54922D01*
Y57461D01*
X260922Y60000D01*
X253304D01*
X260922D01*
X263461Y62539D01*
Y65078D01*
X260922Y67618D01*
X253304D01*
X268539Y52382D02*
Y62539D01*
X273617Y67618D01*
X278696Y62539D01*
Y52382D01*
Y60000D01*
X268539D01*
X283774Y67618D02*
X293931D01*
X288853D01*
Y52382D01*
X249843Y15078D02*
X247304Y17617D01*
X242226D01*
X239687Y15078D01*
Y4922D01*
X242226Y2383D01*
X247304D01*
X249843Y4922D01*
Y10000D01*
X244765D01*
X254922Y2383D02*
Y17617D01*
X265078Y2383D01*
Y17617D01*
X270157D02*
Y2383D01*
X277774D01*
X280313Y4922D01*
Y15078D01*
X277774Y17617D01*
X270157D01*
X255956Y102382D02*
X261035D01*
X258495D01*
Y117618D01*
X255956Y115078D01*
X278809Y102382D02*
X268652D01*
X278809Y112539D01*
Y115078D01*
X276270Y117618D01*
X271191D01*
X268652Y115078D01*
X283887Y117618D02*
Y107461D01*
X288965Y102382D01*
X294044Y107461D01*
Y117618D01*
X253687Y167617D02*
X263843D01*
Y165078D01*
X253687Y154922D01*
Y152382D01*
X268922Y167617D02*
Y157461D01*
X274000Y152382D01*
X279078Y157461D01*
Y167617D01*
X294314D02*
X284157D01*
Y160000D01*
X289235Y162539D01*
X291774D01*
X294314Y160000D01*
Y154922D01*
X291774Y152382D01*
X286696D01*
X284157Y154922D01*
X277461Y217617D02*
X267304D01*
Y210000D01*
X272383Y212539D01*
X274922D01*
X277461Y210000D01*
Y204922D01*
X274922Y202383D01*
X269843D01*
X267304Y204922D01*
X282539Y217617D02*
Y207461D01*
X287617Y202383D01*
X292696Y207461D01*
Y217617D01*
X253687Y265078D02*
X256226Y267617D01*
X261304D01*
X263843Y265078D01*
Y262539D01*
X261304Y260000D01*
X258765D01*
X261304D01*
X263843Y257461D01*
Y254922D01*
X261304Y252383D01*
X256226D01*
X253687Y254922D01*
X268922Y267617D02*
Y257461D01*
X274000Y252383D01*
X279078Y257461D01*
Y267617D01*
X284157Y265078D02*
X286696Y267617D01*
X291774D01*
X294314Y265078D01*
Y262539D01*
X291774Y260000D01*
X289235D01*
X291774D01*
X294314Y257461D01*
Y254922D01*
X291774Y252383D01*
X286696D01*
X284157Y254922D01*
M02*
