G04*
G04 #@! TF.GenerationSoftware,Altium Limited,Altium Designer,20.0.11 (256)*
G04*
G04 Layer_Color=16711935*
%FSLAX44Y44*%
%MOMM*%
G71*
G01*
G75*
%ADD41C,3.0000*%
%ADD42C,3.1480*%
%ADD43P,1.4071X8X292.5*%
%ADD44R,1.9000X1.9000*%
%ADD45C,1.9000*%
%ADD46C,3.1000*%
%ADD47R,1.6300X1.6300*%
%ADD48C,1.6300*%
%ADD49P,1.4071X8X202.5*%
%ADD50C,0.5000*%
D41*
X280000Y580000D02*
D03*
X30000Y30000D02*
D03*
X140000Y420000D02*
D03*
D42*
X50000Y550000D02*
D03*
Y100000D02*
D03*
X240000Y620000D02*
D03*
X150000Y30000D02*
D03*
D43*
X290000Y40000D02*
D03*
Y240000D02*
D03*
Y140000D02*
D03*
X290000Y90000D02*
D03*
X290000Y10000D02*
D03*
D44*
X111900Y600000D02*
D03*
X101900Y80000D02*
D03*
D45*
X137300Y600000D02*
D03*
X162700D02*
D03*
X188100D02*
D03*
X127300Y80000D02*
D03*
X152700D02*
D03*
X178100D02*
D03*
D46*
X253600Y440000D02*
D03*
X276600Y320000D02*
D03*
D47*
X210400Y455000D02*
D03*
X233400Y335000D02*
D03*
D48*
X210400Y425000D02*
D03*
X180400Y455000D02*
D03*
Y425000D02*
D03*
X233400Y305000D02*
D03*
X203400Y335000D02*
D03*
Y305000D02*
D03*
D49*
X290000Y190000D02*
D03*
D50*
X69250Y269350D02*
D03*
X80250D02*
D03*
X69250Y258350D02*
D03*
X80250D02*
D03*
X69250Y247350D02*
D03*
X80250D02*
D03*
X185543Y512000D02*
D03*
X174543D02*
D03*
X185543Y523000D02*
D03*
X174543D02*
D03*
X185543Y534000D02*
D03*
X174543D02*
D03*
X147000Y118000D02*
D03*
X29000Y293000D02*
D03*
X181000Y561000D02*
D03*
X238000Y516000D02*
D03*
Y530000D02*
D03*
X97000Y552000D02*
D03*
X165000Y367000D02*
D03*
X150000Y330000D02*
D03*
X195000Y271000D02*
D03*
X160000D02*
D03*
X178000Y250000D02*
D03*
X150000Y252000D02*
D03*
Y268000D02*
D03*
X180000Y236000D02*
D03*
X276000Y250000D02*
D03*
X275000Y200000D02*
D03*
Y150000D02*
D03*
Y100000D02*
D03*
X276000Y50000D02*
D03*
X202000Y166000D02*
D03*
X191000Y175000D02*
D03*
X173000D02*
D03*
X95000Y178000D02*
D03*
X30000Y166000D02*
D03*
X41000Y175000D02*
D03*
X59000D02*
D03*
X77000D02*
D03*
X83000Y212000D02*
D03*
X48000Y227000D02*
D03*
X29000Y222000D02*
D03*
X226000Y150000D02*
D03*
X20000Y335000D02*
D03*
X138000Y295000D02*
D03*
M02*
