M48
;Layer_Color=9474304
;FILE_FORMAT=4:4
METRIC,LZ
;TYPE=PLATED
T1F00S00C0.2000
T2F00S00C0.2500
T3F00S00C0.7000
T4F00S00C1.0200
T5F00S00C1.1000
T6F00S00C2.9972
;TYPE=NON_PLATED
T7F00S00C2.9972
T8F00S00C3.0000
%
T01
X00174543Y00512
Y00523
Y00534
X00185543
Y00523
Y00512
X0008025Y0026935
Y0025835
Y0024735
X0006925
Y0025835
Y0026935
T02
X00147Y00118
X00275Y001
X00276Y0005
X00275Y0015
X00226
X00202Y00166
X00191Y00175
X00173
X0018Y00236
X00178Y0025
X0015Y00252
Y00268
X0016Y00271
X00195
X00276Y0025
X00275Y002
X0015Y0033
X00165Y00367
X00238Y00516
Y0053
X00138Y00295
X00029Y00293
X0002Y00335
X00029Y00222
X00048Y00227
X00083Y00212
X00077Y00175
X00059
X00041
X0003Y00166
X00095Y00178
X00097Y00552
X00181Y00561
T03
X0029Y0001
Y0004
X0029Y0009
X0029Y0014
Y0019
Y0024
T04
X002034Y00305
Y00335
X002334
Y00305
X002104Y00425
Y00455
X001804
Y00425
T05
X001019Y0008
X001273
X001527
X001781
X002019Y0057
X002273
X002527
X002781
T06
X0005Y001
Y0055
T07
X0015Y0003
Y0062
T08
X002766Y0032
X002536Y0044
M30
