G04*
G04 #@! TF.GenerationSoftware,Altium Limited,Altium Designer,20.0.11 (256)*
G04*
G04 Layer_Physical_Order=1*
G04 Layer_Color=255*
%FSLAX44Y44*%
%MOMM*%
G71*
G01*
G75*
%ADD11C,0.2500*%
%ADD13C,0.3000*%
%ADD14C,1.0000*%
%ADD15R,0.9000X0.9000*%
%ADD16R,1.4500X0.4500*%
%ADD17R,1.5500X0.6000*%
%ADD18R,0.9000X0.9000*%
%ADD19R,0.8000X0.9000*%
%ADD33C,0.5000*%
%ADD34R,0.8000X0.8000*%
%ADD35R,0.8000X0.8000*%
%ADD36C,0.2540*%
%ADD37C,3.0480*%
%ADD38C,3.0000*%
%ADD39R,1.5300X1.5300*%
%ADD40C,1.5300*%
%ADD41R,1.8000X1.8000*%
%ADD42C,1.8000*%
%ADD43R,1.8000X1.8000*%
G36*
X286502Y649540D02*
X286502Y648730D01*
Y644270D01*
X293043D01*
Y643000D01*
X294312D01*
Y636460D01*
X299583Y636460D01*
X300000Y635363D01*
Y634754D01*
X299042Y634000D01*
X298730Y634000D01*
X287043D01*
Y622000D01*
X289686D01*
Y602500D01*
X286500D01*
Y589982D01*
X285261Y589425D01*
X280500Y594186D01*
Y602500D01*
X267500D01*
Y601153D01*
X266230Y600344D01*
X265000Y600588D01*
X263244Y600239D01*
X261756Y599244D01*
X260761Y597756D01*
X260412Y596000D01*
X260761Y594244D01*
X261756Y592756D01*
X263244Y591761D01*
X265000Y591412D01*
X266230Y591656D01*
X267500Y590847D01*
Y589500D01*
X275814D01*
X293686Y571627D01*
Y548659D01*
X292513Y548173D01*
X259564Y581122D01*
X259239Y582756D01*
X258244Y584244D01*
X256756Y585239D01*
X255000Y585588D01*
X253244Y585239D01*
X251756Y584244D01*
X250761Y582756D01*
X250412Y581000D01*
X250761Y579244D01*
X251756Y577756D01*
X253244Y576761D01*
X254878Y576436D01*
X289686Y541627D01*
Y470096D01*
X289290Y468990D01*
X288416Y468990D01*
X282860D01*
X282474Y470260D01*
X282634Y470366D01*
X283748Y472034D01*
X283886Y472730D01*
X274114D01*
X274252Y472034D01*
X275366Y470366D01*
X275526Y470260D01*
X275140Y468990D01*
X268710D01*
Y464720D01*
X279000D01*
Y463450D01*
X280270D01*
Y457910D01*
X288416D01*
X289290Y457910D01*
X289686Y456804D01*
Y456555D01*
X288750Y455750D01*
X288416Y455750D01*
X269250D01*
Y454765D01*
X267980Y454421D01*
X266756Y455239D01*
X265000Y455588D01*
X263244Y455239D01*
X261756Y454244D01*
X260761Y452756D01*
X260412Y451000D01*
X260761Y449244D01*
X261756Y447756D01*
X263244Y446761D01*
X265000Y446412D01*
X266756Y446761D01*
X267980Y447579D01*
X269250Y447235D01*
Y445750D01*
X288416D01*
X288750Y445750D01*
X289564Y445050D01*
Y443750D01*
X288750Y443050D01*
X288416Y443050D01*
X269250D01*
Y442349D01*
X264337D01*
X258314Y448373D01*
Y473628D01*
X285343Y500657D01*
X286061Y501732D01*
X286314Y503000D01*
Y537478D01*
X286061Y538746D01*
X285343Y539821D01*
X250749Y574416D01*
X250424Y576049D01*
X249429Y577538D01*
X247941Y578532D01*
X246185Y578881D01*
X244429Y578532D01*
X243584Y577967D01*
X242314Y578646D01*
Y583859D01*
X243239Y585244D01*
X243588Y587000D01*
X243239Y588756D01*
X242244Y590244D01*
X240756Y591239D01*
X240500Y591290D01*
Y592686D01*
X245000D01*
X246268Y592939D01*
X247343Y593657D01*
X275686Y622000D01*
X283000D01*
Y634000D01*
X271000D01*
Y626686D01*
X268173Y623859D01*
X267000Y624346D01*
Y634000D01*
X255000D01*
Y626686D01*
X251073Y622760D01*
X249900Y623246D01*
Y641000D01*
X227900D01*
Y619000D01*
X245655D01*
X246140Y617827D01*
X240627Y612314D01*
X190000D01*
X188732Y612061D01*
X187657Y611343D01*
X178814Y602500D01*
X170500D01*
Y589653D01*
X169033D01*
X164500Y594186D01*
Y602500D01*
X156186D01*
X140614Y618073D01*
Y619466D01*
X142847Y620392D01*
X145145Y622155D01*
X146909Y624453D01*
X148017Y627128D01*
X148395Y630000D01*
X148017Y632872D01*
X146909Y635547D01*
X145145Y637845D01*
X142847Y639608D01*
X140172Y640717D01*
X137300Y641095D01*
X134428Y640717D01*
X131753Y639608D01*
X129455Y637845D01*
X127691Y635547D01*
X126583Y632872D01*
X126205Y630000D01*
X126583Y627128D01*
X127691Y624453D01*
X129455Y622155D01*
X131753Y620392D01*
X133986Y619466D01*
Y616700D01*
X134239Y615432D01*
X134957Y614357D01*
X151500Y597814D01*
Y589500D01*
X159814D01*
X165318Y583996D01*
X166393Y583278D01*
X167661Y583026D01*
X184288D01*
X209380Y557933D01*
X208755Y556763D01*
X208500Y556814D01*
X69873D01*
X32500Y594186D01*
Y602500D01*
X30601D01*
X29922Y603770D01*
X30239Y604244D01*
X30588Y606000D01*
X30239Y607756D01*
X29244Y609244D01*
X27756Y610239D01*
X26000Y610588D01*
X24244Y610239D01*
X22756Y609244D01*
X21761Y607756D01*
X21412Y606000D01*
X21761Y604244D01*
X22078Y603770D01*
X21399Y602500D01*
X19500D01*
Y589500D01*
X27814D01*
X66157Y551157D01*
X67232Y550439D01*
X68500Y550186D01*
X207127D01*
X230686Y526627D01*
Y509000D01*
X230939Y507732D01*
X231657Y506657D01*
X236686Y501628D01*
Y479028D01*
X235416Y478306D01*
X234000Y478588D01*
X232244Y478239D01*
X230860Y477314D01*
X217000D01*
X215732Y477061D01*
X214657Y476343D01*
X208770Y470456D01*
X208297Y470516D01*
X207500Y470898D01*
Y477500D01*
X194500D01*
Y474314D01*
X189500D01*
Y477500D01*
X176500D01*
Y474314D01*
X167000D01*
Y477500D01*
X155000D01*
Y464500D01*
X167000D01*
Y467686D01*
X176500D01*
Y464500D01*
X189500D01*
Y467686D01*
X194500D01*
Y464500D01*
X207342Y464500D01*
X207575Y463261D01*
X202814Y458500D01*
X194500D01*
Y450186D01*
X191213Y446899D01*
X190040Y447385D01*
Y450730D01*
X183000D01*
X175960D01*
Y444960D01*
X177250D01*
X177817Y444270D01*
X183000D01*
Y441730D01*
X178114D01*
X178252Y441034D01*
X179366Y439366D01*
X180876Y438358D01*
X181352Y437201D01*
X181390Y437076D01*
X170076Y425762D01*
X169358Y424688D01*
X169119Y423487D01*
X168756Y423244D01*
X167761Y421756D01*
X167412Y420000D01*
X167499Y419563D01*
X166415Y418500D01*
X155000D01*
Y405500D01*
X167000D01*
Y408686D01*
X176500D01*
Y405500D01*
X189500D01*
Y408686D01*
X194500D01*
Y405500D01*
X207342Y405500D01*
X207575Y404261D01*
X202814Y399500D01*
X194500D01*
Y391186D01*
X191213Y387900D01*
X190040Y388386D01*
Y391730D01*
X183000D01*
Y393000D01*
X181730D01*
Y400040D01*
X177376D01*
X176588Y401000D01*
X176239Y402756D01*
X175244Y404244D01*
X173756Y405239D01*
X172000Y405588D01*
X170244Y405239D01*
X168756Y404244D01*
X167761Y402756D01*
X167412Y401000D01*
X167761Y399244D01*
X168686Y397859D01*
Y385000D01*
X159063D01*
X158000Y385500D01*
X158000Y386270D01*
Y398500D01*
X146000D01*
Y395314D01*
X143973D01*
X128358Y410928D01*
X129002Y412481D01*
X129333Y415000D01*
X129002Y417519D01*
X128029Y419867D01*
X126482Y421883D01*
X124467Y423429D01*
X122119Y424402D01*
X119600Y424733D01*
X117081Y424402D01*
X114733Y423429D01*
X112718Y421883D01*
X111171Y419867D01*
X110198Y417519D01*
X109867Y415000D01*
X110198Y412481D01*
X111171Y410133D01*
X112718Y408117D01*
X114733Y406571D01*
X117081Y405598D01*
X119600Y405267D01*
X122119Y405598D01*
X123672Y406242D01*
X140257Y389657D01*
X141332Y388939D01*
X142600Y388686D01*
X145102D01*
X146000Y387788D01*
X146000Y385500D01*
X144937Y385000D01*
X134588D01*
X134239Y386756D01*
X133244Y388244D01*
X131756Y389239D01*
X130000Y389588D01*
X128244Y389239D01*
X126756Y388244D01*
X125761Y386756D01*
X125436Y385122D01*
X125314Y385000D01*
X65000D01*
Y105000D01*
X95000D01*
Y78594D01*
X93730Y78194D01*
X92530Y79114D01*
X90827Y79820D01*
X89000Y80060D01*
X87173Y79820D01*
X85470Y79114D01*
X84008Y77993D01*
X82886Y76530D01*
X82180Y74827D01*
X81940Y73000D01*
X82180Y71173D01*
X82886Y69470D01*
X84008Y68008D01*
X85470Y66885D01*
X87173Y66180D01*
X89000Y65940D01*
X90827Y66180D01*
X92530Y66885D01*
X93730Y67806D01*
X95000Y67406D01*
Y28944D01*
X93730Y28317D01*
X92048Y29609D01*
X89372Y30717D01*
X86500Y31095D01*
X83628Y30717D01*
X80953Y29609D01*
X78655Y27845D01*
X76891Y25547D01*
X75783Y22872D01*
X75405Y20000D01*
X75783Y17128D01*
X76891Y14453D01*
X78655Y12155D01*
X80953Y10391D01*
X83628Y9283D01*
X86500Y8905D01*
X89372Y9283D01*
X92048Y10391D01*
X93730Y11683D01*
X95000Y11056D01*
Y5000D01*
X165000D01*
Y8663D01*
X165713Y8757D01*
X168520Y9920D01*
X170930Y11770D01*
X172780Y14180D01*
X173943Y16988D01*
X174172Y18730D01*
X162700D01*
Y21270D01*
X174172D01*
X173943Y23013D01*
X172780Y25820D01*
X170930Y28230D01*
X168520Y30080D01*
X165713Y31243D01*
X165000Y31337D01*
Y41960D01*
X168730D01*
Y49000D01*
Y56040D01*
X165000D01*
Y59002D01*
X168730D01*
Y66042D01*
Y73082D01*
X165000D01*
Y75000D01*
X150139D01*
X149748Y76967D01*
X148634Y78634D01*
X148175Y78940D01*
X148560Y80210D01*
X154790D01*
Y83730D01*
X145000D01*
X135210D01*
Y80210D01*
X141440D01*
X141825Y78940D01*
X141366Y78634D01*
X140252Y76967D01*
X139861Y75000D01*
X125000D01*
Y94654D01*
X126173Y95140D01*
X132157Y89157D01*
X133232Y88439D01*
X134500Y88186D01*
X135210D01*
Y86270D01*
X145000D01*
X154790D01*
Y89790D01*
X154250D01*
Y100250D01*
Y108750D01*
X148314D01*
Y110627D01*
X157373Y119686D01*
X163500D01*
Y116500D01*
X175000D01*
Y101314D01*
X173141D01*
X171756Y102239D01*
X170000Y102588D01*
X168244Y102239D01*
X166756Y101244D01*
X165761Y99756D01*
X165412Y98000D01*
X165761Y96244D01*
X166756Y94756D01*
X168244Y93761D01*
X170000Y93412D01*
X171756Y93761D01*
X173141Y94686D01*
X175000D01*
Y85000D01*
X179750D01*
Y80750D01*
X185686D01*
Y72543D01*
X182500D01*
Y59542D01*
X185686D01*
Y55500D01*
X182500D01*
Y42500D01*
X195500D01*
Y55500D01*
X192314D01*
Y59542D01*
X194249D01*
X194366Y59366D01*
X196033Y58252D01*
X196730Y58114D01*
Y63000D01*
Y67923D01*
X195500Y68802D01*
Y72543D01*
X192314D01*
Y80750D01*
X198250D01*
Y85000D01*
X200314D01*
X200500Y84814D01*
Y73542D01*
X213500D01*
Y85000D01*
X219500D01*
Y73542D01*
X220000D01*
Y69500D01*
X219500D01*
Y56500D01*
X220000D01*
Y53686D01*
X219627Y53314D01*
X218141D01*
X216756Y54239D01*
X215000Y54588D01*
X213244Y54239D01*
X211756Y53244D01*
X210761Y51756D01*
X210412Y50000D01*
X210761Y48244D01*
X211756Y46756D01*
X213244Y45761D01*
X215000Y45412D01*
X216756Y45761D01*
X218141Y46686D01*
X220000D01*
Y30315D01*
X218730Y29740D01*
X216372Y30717D01*
X213500Y31095D01*
X210628Y30717D01*
X207952Y29609D01*
X205655Y27845D01*
X203892Y25547D01*
X202783Y22872D01*
X202405Y20000D01*
X202783Y17128D01*
X203892Y14453D01*
X205655Y12155D01*
X207952Y10391D01*
X210628Y9283D01*
X213500Y8905D01*
X216372Y9283D01*
X218351Y10103D01*
X220000Y8453D01*
Y0D01*
X0D01*
Y332381D01*
X460Y333460D01*
X1270Y333460D01*
X5730D01*
Y340000D01*
Y346540D01*
X896Y346540D01*
X349Y347500D01*
X896Y348460D01*
X5730D01*
Y355000D01*
Y361540D01*
X896Y361540D01*
X349Y362500D01*
X896Y363460D01*
X5730D01*
Y370000D01*
Y376540D01*
X1270D01*
X460Y376540D01*
X0Y377620D01*
Y588437D01*
X500Y589500D01*
X1270Y589500D01*
X13500D01*
Y602500D01*
X10314D01*
Y622000D01*
X12915D01*
Y634000D01*
X1270D01*
X915Y634000D01*
X0Y634857D01*
Y635345D01*
X375Y636460D01*
X1270Y636460D01*
X5645D01*
Y643000D01*
X6915D01*
Y644270D01*
X13455D01*
Y648730D01*
X13455Y649540D01*
X14534Y650000D01*
X15381D01*
X16460Y649540D01*
X16460Y648730D01*
Y644270D01*
X29540D01*
Y648730D01*
X29540Y649540D01*
X30619Y650000D01*
X31381D01*
X32460Y649540D01*
X32460Y648730D01*
Y644270D01*
X39000D01*
Y643000D01*
X40270D01*
Y636460D01*
X45540D01*
Y638491D01*
X46810Y639070D01*
X48033Y638252D01*
X48730Y638114D01*
Y643000D01*
Y647886D01*
X48033Y647748D01*
X46810Y646930D01*
X45540Y647509D01*
X45540Y649540D01*
X46619Y650000D01*
X253381D01*
X254460Y649540D01*
X254460Y648730D01*
Y644270D01*
X267540D01*
Y648730D01*
X267540Y649540D01*
X268619Y650000D01*
X269380D01*
X270460Y649540D01*
X270460Y648730D01*
Y644270D01*
X283540D01*
Y648730D01*
X283540Y649540D01*
X284619Y650000D01*
X285423D01*
X286502Y649540D01*
D02*
G37*
G36*
X260307Y423007D02*
X261382Y422289D01*
X262650Y422036D01*
X269250D01*
Y420350D01*
X288416D01*
X288750Y420350D01*
X289564Y419650D01*
Y418350D01*
X288750Y417650D01*
X288416Y417650D01*
X269250D01*
Y415964D01*
X263432D01*
X263244Y416244D01*
X261756Y417239D01*
X260000Y417588D01*
X258244Y417239D01*
X256756Y416244D01*
X255761Y414756D01*
X255412Y413000D01*
X255761Y411244D01*
X256756Y409756D01*
X258244Y408761D01*
X260000Y408412D01*
X261756Y408761D01*
X262617Y409336D01*
X269250D01*
Y407650D01*
X288416D01*
X288750Y407650D01*
X289564Y406950D01*
Y405883D01*
X288583Y404950D01*
X269250D01*
Y394950D01*
X288750D01*
Y396636D01*
X290950D01*
X292218Y396889D01*
X292269Y396922D01*
X293384Y396358D01*
X293496Y395182D01*
X290020Y391706D01*
X288750Y392232D01*
Y392250D01*
X269250D01*
Y382250D01*
X288750D01*
Y383936D01*
X290250D01*
X291518Y384189D01*
X292593Y384907D01*
X298730Y391044D01*
X300000Y390518D01*
Y0D01*
X225000D01*
Y1826D01*
X226270Y2281D01*
X227134Y1703D01*
X228500Y1431D01*
X278000D01*
X279366Y1703D01*
X280523Y2477D01*
X297523Y19477D01*
X298297Y20634D01*
X298569Y22000D01*
Y339000D01*
X298297Y340366D01*
X297523Y341523D01*
X285500Y353547D01*
Y361500D01*
X282314D01*
Y369550D01*
X288750D01*
Y379550D01*
X269250D01*
Y369550D01*
X275686D01*
Y361500D01*
X272500D01*
Y348500D01*
X280453D01*
X284740Y344213D01*
X284254Y343040D01*
X280270D01*
Y337270D01*
X286040D01*
Y341254D01*
X287213Y341740D01*
X291431Y337522D01*
Y23478D01*
X276522Y8569D01*
X250991D01*
X249900Y9000D01*
Y31000D01*
X242214D01*
Y144869D01*
X243484Y145057D01*
X243995Y143371D01*
X245596Y140376D01*
X247750Y137751D01*
X250376Y135596D01*
X253371Y133995D01*
X256620Y133010D01*
X260000Y132677D01*
X263380Y133010D01*
X266629Y133995D01*
X269624Y135596D01*
X272250Y137751D01*
X274404Y140376D01*
X276005Y143371D01*
X276991Y146620D01*
X277323Y150000D01*
X276991Y153380D01*
X276005Y156629D01*
X274404Y159624D01*
X272250Y162250D01*
X269624Y164404D01*
X266629Y166005D01*
X263380Y166991D01*
X260000Y167323D01*
X256620Y166991D01*
X253371Y166005D01*
X250376Y164404D01*
X247750Y162250D01*
X245596Y159624D01*
X243995Y156629D01*
X243484Y154943D01*
X242214Y155131D01*
Y258100D01*
X241961Y259368D01*
X241243Y260443D01*
X232500Y269186D01*
Y277500D01*
X229314D01*
Y282500D01*
X232500D01*
Y295500D01*
X225000D01*
Y299002D01*
X233040D01*
Y300250D01*
X233730Y300816D01*
Y306000D01*
Y311183D01*
X233040Y311750D01*
Y313083D01*
X225000D01*
Y325000D01*
X255000D01*
Y331943D01*
X255634Y332366D01*
X256748Y334034D01*
X257139Y336000D01*
X256748Y337966D01*
X255634Y339634D01*
X255000Y340057D01*
Y385000D01*
X235290D01*
Y385980D01*
X225000D01*
X214710D01*
Y385000D01*
X204697D01*
X204000Y385139D01*
X203302Y385000D01*
X200624D01*
X199945Y386270D01*
X200099Y386500D01*
X207500D01*
Y394814D01*
X213343Y400657D01*
X215036Y400906D01*
X215250Y400749D01*
Y394950D01*
X234750D01*
Y396636D01*
X235950D01*
X237218Y396889D01*
X238293Y397607D01*
X247343Y406657D01*
X248061Y407732D01*
X248314Y409000D01*
Y433341D01*
X249487Y433827D01*
X260307Y423007D01*
D02*
G37*
G36*
X250000Y362788D02*
X249040Y362040D01*
X248730Y362040D01*
X243270D01*
Y355000D01*
Y347960D01*
X248730D01*
X249040Y347960D01*
X250000Y347212D01*
Y341239D01*
X249770Y341101D01*
X248500Y341821D01*
Y342500D01*
X235500D01*
Y330000D01*
X231457D01*
Y342500D01*
X218458D01*
Y334186D01*
X216824Y332553D01*
X215244Y332239D01*
X213756Y331244D01*
X212924Y330000D01*
X195500D01*
Y337500D01*
X182500D01*
Y330000D01*
X176500D01*
Y337500D01*
X163500D01*
Y330000D01*
X110000D01*
Y300689D01*
X109892Y300548D01*
X108783Y297872D01*
X108405Y295000D01*
X108783Y292129D01*
X109892Y289453D01*
X110000Y289311D01*
Y270689D01*
X109892Y270548D01*
X108783Y267872D01*
X108405Y265000D01*
X108783Y262129D01*
X109892Y259453D01*
X110000Y259311D01*
Y240689D01*
X109892Y240548D01*
X108783Y237872D01*
X108405Y235000D01*
X108783Y232129D01*
X109892Y229453D01*
X110000Y229311D01*
Y210689D01*
X109892Y210548D01*
X108783Y207872D01*
X108405Y205000D01*
X108783Y202129D01*
X109892Y199453D01*
X110000Y199311D01*
Y180689D01*
X109892Y180548D01*
X108783Y177872D01*
X108405Y175000D01*
X108783Y172129D01*
X109892Y169453D01*
X110000Y169311D01*
Y150689D01*
X109892Y150548D01*
X108783Y147872D01*
X108405Y145000D01*
X108783Y142128D01*
X109892Y139453D01*
X110000Y139311D01*
Y130000D01*
X116186D01*
Y106500D01*
X116439Y105232D01*
X117157Y104157D01*
X120000Y101314D01*
Y70000D01*
X155775D01*
X156412Y68730D01*
X155761Y67756D01*
X155412Y66000D01*
X155761Y64244D01*
X156756Y62756D01*
X158244Y61761D01*
X160000Y61412D01*
Y53588D01*
X158244Y53239D01*
X156756Y52244D01*
X155761Y50756D01*
X155412Y49000D01*
X155761Y47244D01*
X156756Y45756D01*
X158244Y44761D01*
X160000Y44412D01*
Y30739D01*
X159828Y30717D01*
X157153Y29609D01*
X154855Y27845D01*
X153091Y25547D01*
X151983Y22872D01*
X151605Y20000D01*
X151983Y17128D01*
X153091Y14453D01*
X154855Y12155D01*
X156008Y11270D01*
X155577Y10000D01*
X145200D01*
X144791Y11203D01*
X145530Y11770D01*
X147380Y14180D01*
X148543Y16988D01*
X148772Y18730D01*
X125828D01*
X126057Y16988D01*
X127220Y14180D01*
X129070Y11770D01*
X129809Y11203D01*
X129400Y10000D01*
X120000D01*
Y12487D01*
X121509Y14453D01*
X122617Y17128D01*
X122995Y20000D01*
X122617Y22872D01*
X121509Y25547D01*
X120000Y27513D01*
Y50000D01*
X100000D01*
Y110000D01*
X70000D01*
Y333500D01*
X80500D01*
Y336686D01*
X148000D01*
X149268Y336939D01*
X150343Y337657D01*
X192686Y380000D01*
X199412D01*
X199761Y378244D01*
X200756Y376756D01*
X202244Y375761D01*
X204000Y375412D01*
X205756Y375761D01*
X207244Y376756D01*
X208239Y378244D01*
X208564Y379878D01*
X208686Y380000D01*
X214710D01*
Y375820D01*
X225000D01*
X235290D01*
Y380000D01*
X250000D01*
Y362788D01*
D02*
G37*
G36*
X175000Y282040D02*
X171270D01*
Y275000D01*
Y267960D01*
X175000D01*
Y264040D01*
X171270D01*
Y257000D01*
Y249960D01*
X175000D01*
Y235042D01*
X163500D01*
Y231856D01*
X155543D01*
X154275Y231604D01*
X153200Y230886D01*
X142657Y220343D01*
X141939Y219268D01*
X141686Y218000D01*
Y212750D01*
X135750D01*
X135314Y213839D01*
Y222500D01*
X135061Y223768D01*
X134343Y224843D01*
X129292Y229895D01*
X130217Y232129D01*
X130595Y235000D01*
X130217Y237872D01*
X129108Y240548D01*
X127345Y242845D01*
X125048Y244608D01*
X125000Y244628D01*
Y255372D01*
X125048Y255392D01*
X127345Y257155D01*
X129108Y259453D01*
X130217Y262129D01*
X130595Y265000D01*
X130217Y267872D01*
X129292Y270105D01*
X134343Y275157D01*
X135061Y276232D01*
X135314Y277500D01*
Y288253D01*
X140253D01*
X140931Y286982D01*
X140252Y285966D01*
X140114Y285270D01*
X149886D01*
X149748Y285966D01*
X149069Y286982D01*
X149747Y288253D01*
X154790D01*
Y291772D01*
X145000D01*
Y294312D01*
X154790D01*
Y297833D01*
X154250D01*
Y309229D01*
X162542D01*
X163811Y309481D01*
X164886Y310199D01*
X172343Y317657D01*
X173061Y318732D01*
X173314Y320000D01*
Y324500D01*
X175000D01*
Y282040D01*
D02*
G37*
G36*
X220000Y312542D02*
X219500D01*
Y299543D01*
X220000D01*
Y295500D01*
X219500D01*
Y282500D01*
X220000D01*
Y277500D01*
X219500D01*
Y264500D01*
X220000D01*
Y174686D01*
X216770Y171456D01*
X215500Y171658D01*
Y174500D01*
X202500D01*
Y161500D01*
X202500D01*
Y160500D01*
X202500D01*
Y147500D01*
X215500D01*
Y160500D01*
X215500D01*
Y161500D01*
X215500D01*
Y164686D01*
X218000D01*
X218730Y164832D01*
X219733Y164266D01*
X220000Y164016D01*
Y139588D01*
X218244Y139239D01*
X216859Y138314D01*
X215500D01*
Y141500D01*
X202500D01*
Y128500D01*
X215500D01*
Y131686D01*
X216859D01*
X218244Y130761D01*
X220000Y130412D01*
Y104500D01*
X219500D01*
Y91500D01*
X220000D01*
Y90000D01*
X214788D01*
X214040Y90960D01*
Y96730D01*
X207000D01*
Y98000D01*
X205730D01*
Y105040D01*
X199960D01*
Y104186D01*
X198690Y103529D01*
X198250Y103841D01*
Y108750D01*
X192314D01*
Y116500D01*
X195500D01*
Y129500D01*
X182500D01*
Y116500D01*
X185686D01*
Y108750D01*
X180000D01*
Y184750D01*
X185686D01*
Y176542D01*
X182500D01*
Y163542D01*
X185686D01*
Y159500D01*
X182500D01*
Y146500D01*
X195500D01*
Y159500D01*
X192314D01*
Y163542D01*
X195500D01*
Y176542D01*
X192314D01*
Y184750D01*
X198250D01*
Y191268D01*
X199520Y191794D01*
X202500Y188814D01*
Y180500D01*
X215500D01*
Y193500D01*
X208155D01*
X208029Y193690D01*
X208707Y194960D01*
X216040D01*
Y200730D01*
X201960D01*
Y199818D01*
X201928Y199721D01*
X200690Y198776D01*
X200500Y198814D01*
X198790D01*
Y200730D01*
X189000D01*
Y203270D01*
X198790D01*
Y206790D01*
X198250D01*
Y212750D01*
X192314D01*
Y222043D01*
X193618D01*
X194424Y221061D01*
X194412Y221000D01*
X194761Y219244D01*
X195756Y217756D01*
X197244Y216761D01*
X199000Y216412D01*
X200756Y216761D01*
X201230Y217078D01*
X202500Y216399D01*
Y214500D01*
X215500D01*
Y227500D01*
X202500D01*
Y225601D01*
X201230Y224922D01*
X200756Y225239D01*
X199000Y225588D01*
X197244Y225239D01*
X196770Y224922D01*
X195500Y225601D01*
Y235042D01*
X182500D01*
Y222043D01*
X185686D01*
Y212750D01*
X180000D01*
Y288792D01*
X185686D01*
Y281500D01*
X182500D01*
Y268500D01*
X185686D01*
Y263500D01*
X182500D01*
Y250500D01*
X195500D01*
Y263500D01*
X192314D01*
Y268500D01*
X194258D01*
X194756Y267756D01*
X196244Y266761D01*
X198000Y266412D01*
X199230Y266656D01*
X200500Y265847D01*
Y264500D01*
X213500D01*
Y277500D01*
X200500D01*
Y276153D01*
X199230Y275343D01*
X198000Y275588D01*
X196770Y275343D01*
X195500Y276153D01*
Y281500D01*
X192314D01*
Y288792D01*
X198250D01*
Y293405D01*
X199423Y293890D01*
X200436Y292878D01*
Y292250D01*
X200500Y291930D01*
Y282500D01*
X213500D01*
Y295500D01*
X206815D01*
X206811Y295518D01*
X206093Y296593D01*
X204857Y297829D01*
X205343Y299002D01*
X205730D01*
Y306042D01*
Y313083D01*
X199960D01*
Y312228D01*
X198690Y311572D01*
X198250Y311884D01*
Y316793D01*
X192314D01*
Y320000D01*
X220000D01*
Y312542D01*
D02*
G37*
G36*
X163500Y222043D02*
X175000D01*
Y177083D01*
X171270D01*
Y170042D01*
Y163002D01*
X175000D01*
Y160040D01*
X171270D01*
Y153000D01*
Y145960D01*
X175000D01*
Y129500D01*
X163500D01*
Y126314D01*
X156000D01*
X154732Y126061D01*
X153657Y125343D01*
X142657Y114343D01*
X141939Y113268D01*
X141686Y112000D01*
Y108750D01*
X135750D01*
X135314Y109839D01*
Y162500D01*
X135061Y163768D01*
X134343Y164843D01*
X129292Y169895D01*
X130217Y172129D01*
X130595Y175000D01*
X130217Y177872D01*
X129108Y180548D01*
X127345Y182845D01*
X125048Y184608D01*
X125000Y184628D01*
Y193155D01*
X126173Y193640D01*
X126657Y193157D01*
X127732Y192439D01*
X129000Y192186D01*
X135210D01*
Y190270D01*
X145000D01*
X154790D01*
Y193790D01*
X154250D01*
Y204250D01*
Y212750D01*
X148314D01*
Y216628D01*
X156915Y225229D01*
X163500D01*
Y222043D01*
D02*
G37*
G36*
X235586Y256727D02*
Y31000D01*
X227900D01*
Y12306D01*
X226727Y11820D01*
X225000Y13547D01*
Y49314D01*
X228343Y52657D01*
X229061Y53732D01*
X229314Y55000D01*
Y56500D01*
X232500D01*
Y69500D01*
X229314D01*
Y73542D01*
X232500D01*
Y86543D01*
X225000D01*
Y90960D01*
X233040D01*
Y96730D01*
X226000D01*
Y99270D01*
X233040D01*
Y105040D01*
X231495D01*
X230803Y106310D01*
X230886Y106730D01*
X226000D01*
Y109270D01*
X230886D01*
X230748Y109966D01*
X229634Y111634D01*
X227966Y112748D01*
X226000Y113139D01*
X225982Y113135D01*
X225000Y113941D01*
Y134303D01*
X225139Y135000D01*
X225000Y135697D01*
Y170314D01*
X225122Y170436D01*
X226756Y170761D01*
X228244Y171756D01*
X229239Y173244D01*
X229588Y175000D01*
X229239Y176756D01*
X228244Y178244D01*
X226756Y179239D01*
X225000Y179588D01*
Y264500D01*
X227814D01*
X235586Y256727D01*
D02*
G37*
%LPC*%
G36*
X51270Y647886D02*
Y644270D01*
X54886D01*
X54748Y644967D01*
X53634Y646634D01*
X51967Y647748D01*
X51270Y647886D01*
D02*
G37*
G36*
X283540Y641730D02*
X278270D01*
Y636460D01*
X283540D01*
Y641730D01*
D02*
G37*
G36*
X275730D02*
X270460D01*
Y636460D01*
X275730D01*
Y641730D01*
D02*
G37*
G36*
X267540D02*
X262270D01*
Y636460D01*
X267540D01*
Y641730D01*
D02*
G37*
G36*
X259730D02*
X254460D01*
Y636460D01*
X259730D01*
Y641730D01*
D02*
G37*
G36*
X37730D02*
X32460D01*
Y636460D01*
X37730D01*
Y641730D01*
D02*
G37*
G36*
X29540D02*
X24270D01*
Y636460D01*
X29540D01*
Y641730D01*
D02*
G37*
G36*
X21730D02*
X16460D01*
Y636460D01*
X21730D01*
Y641730D01*
D02*
G37*
G36*
X13455D02*
X8185D01*
Y636460D01*
X13455D01*
Y641730D01*
D02*
G37*
G36*
X291772D02*
X286502D01*
Y636460D01*
X291772D01*
Y641730D01*
D02*
G37*
G36*
X45000Y634000D02*
X33000D01*
Y624346D01*
X31827Y623859D01*
X29000Y626686D01*
Y634000D01*
X17000D01*
Y622000D01*
X24314D01*
X52657Y593657D01*
X53732Y592939D01*
X55000Y592686D01*
X58500D01*
Y589500D01*
X71500D01*
Y602500D01*
X58500D01*
Y599314D01*
X56373D01*
X34859Y620827D01*
X35345Y622000D01*
X40314D01*
X53657Y608657D01*
X54732Y607939D01*
X56000Y607686D01*
X82627D01*
X86641Y603673D01*
X86154Y602500D01*
X77500D01*
Y589500D01*
X79399D01*
X80078Y588230D01*
X79761Y587756D01*
X79412Y586000D01*
X79761Y584244D01*
X80756Y582756D01*
X82244Y581761D01*
X84000Y581412D01*
X85756Y581761D01*
X87244Y582756D01*
X88239Y584244D01*
X88588Y586000D01*
X88239Y587756D01*
X87922Y588230D01*
X88601Y589500D01*
X90500D01*
Y598068D01*
X91609Y598542D01*
X92500Y597808D01*
Y589500D01*
X105500D01*
Y602500D01*
X97186D01*
X86343Y613343D01*
X85268Y614061D01*
X84000Y614314D01*
X57373D01*
X45000Y626686D01*
Y634000D01*
D02*
G37*
G36*
X213500Y641095D02*
X210628Y640717D01*
X207952Y639608D01*
X205655Y637845D01*
X203892Y635547D01*
X202783Y632872D01*
X202405Y630000D01*
X202783Y627128D01*
X203892Y624453D01*
X205655Y622155D01*
X207952Y620392D01*
X210628Y619283D01*
X213500Y618905D01*
X216372Y619283D01*
X219048Y620392D01*
X221345Y622155D01*
X223109Y624453D01*
X224217Y627128D01*
X224595Y630000D01*
X224217Y632872D01*
X223109Y635547D01*
X221345Y637845D01*
X219048Y639608D01*
X216372Y640717D01*
X213500Y641095D01*
D02*
G37*
G36*
X188100D02*
X185228Y640717D01*
X182553Y639608D01*
X180255Y637845D01*
X178491Y635547D01*
X177383Y632872D01*
X177005Y630000D01*
X177383Y627128D01*
X178491Y624453D01*
X180255Y622155D01*
X182553Y620392D01*
X185228Y619283D01*
X188100Y618905D01*
X190972Y619283D01*
X193647Y620392D01*
X195945Y622155D01*
X197708Y624453D01*
X198817Y627128D01*
X199195Y630000D01*
X198817Y632872D01*
X197708Y635547D01*
X195945Y637845D01*
X193647Y639608D01*
X190972Y640717D01*
X188100Y641095D01*
D02*
G37*
G36*
X162700D02*
X159828Y640717D01*
X157153Y639608D01*
X154855Y637845D01*
X153091Y635547D01*
X151983Y632872D01*
X151605Y630000D01*
X151983Y627128D01*
X153091Y624453D01*
X154855Y622155D01*
X157153Y620392D01*
X159828Y619283D01*
X162700Y618905D01*
X165572Y619283D01*
X168248Y620392D01*
X170545Y622155D01*
X172309Y624453D01*
X173417Y627128D01*
X173795Y630000D01*
X173417Y632872D01*
X172309Y635547D01*
X170545Y637845D01*
X168248Y639608D01*
X165572Y640717D01*
X162700Y641095D01*
D02*
G37*
G36*
X86500D02*
X83628Y640717D01*
X80953Y639608D01*
X78655Y637845D01*
X76891Y635547D01*
X75783Y632872D01*
X75405Y630000D01*
X75783Y627128D01*
X76891Y624453D01*
X78655Y622155D01*
X80953Y620392D01*
X83628Y619283D01*
X86500Y618905D01*
X89372Y619283D01*
X92048Y620392D01*
X94345Y622155D01*
X96109Y624453D01*
X97217Y627128D01*
X97595Y630000D01*
X97217Y632872D01*
X96109Y635547D01*
X94345Y637845D01*
X92048Y639608D01*
X89372Y640717D01*
X86500Y641095D01*
D02*
G37*
G36*
X54886Y641730D02*
X51270D01*
Y638114D01*
X51967Y638252D01*
X52846Y637313D01*
X51491Y635547D01*
X50383Y632872D01*
X50005Y630000D01*
X50383Y627128D01*
X51491Y624453D01*
X53255Y622155D01*
X55553Y620392D01*
X58228Y619283D01*
X61100Y618905D01*
X63972Y619283D01*
X66648Y620392D01*
X68945Y622155D01*
X70708Y624453D01*
X71817Y627128D01*
X72195Y630000D01*
X71817Y632872D01*
X70708Y635547D01*
X68945Y637845D01*
X66648Y639608D01*
X63972Y640717D01*
X61100Y641095D01*
X58228Y640717D01*
X55553Y639608D01*
X55081Y639247D01*
X54142Y640127D01*
X54748Y641033D01*
X54886Y641730D01*
D02*
G37*
G36*
X111900Y641095D02*
X109028Y640717D01*
X106353Y639608D01*
X104055Y637845D01*
X102291Y635547D01*
X101183Y632872D01*
X100805Y630000D01*
X101183Y627128D01*
X102291Y624453D01*
X104055Y622155D01*
X106353Y620392D01*
X109028Y619283D01*
X111900Y618905D01*
X113731Y619146D01*
X114686Y618309D01*
Y602500D01*
X111500D01*
Y589500D01*
X113399D01*
X114078Y588230D01*
X113761Y587756D01*
X113412Y586000D01*
X113761Y584244D01*
X114756Y582756D01*
X116244Y581761D01*
X118000Y581412D01*
X119756Y581761D01*
X121244Y582756D01*
X122239Y584244D01*
X122588Y586000D01*
X122239Y587756D01*
X121922Y588230D01*
X122601Y589500D01*
X124500D01*
Y602500D01*
X121314D01*
Y620785D01*
X121061Y622054D01*
X120413Y623024D01*
X121509Y624453D01*
X122617Y627128D01*
X122995Y630000D01*
X122617Y632872D01*
X121509Y635547D01*
X119745Y637845D01*
X117448Y639608D01*
X114772Y640717D01*
X111900Y641095D01*
D02*
G37*
G36*
X144270Y541886D02*
Y538270D01*
X147886D01*
X147748Y538966D01*
X146634Y540634D01*
X144966Y541748D01*
X144270Y541886D01*
D02*
G37*
G36*
X141730D02*
X141033Y541748D01*
X139366Y540634D01*
X138252Y538966D01*
X138114Y538270D01*
X141730D01*
Y541886D01*
D02*
G37*
G36*
X40000Y567323D02*
X36620Y566991D01*
X33371Y566005D01*
X30376Y564404D01*
X27750Y562249D01*
X25596Y559624D01*
X23995Y556629D01*
X23010Y553380D01*
X22677Y550000D01*
X23010Y546620D01*
X23995Y543371D01*
X25596Y540376D01*
X27750Y537751D01*
X30376Y535596D01*
X33371Y533995D01*
X36620Y533009D01*
X40000Y532677D01*
X43380Y533009D01*
X46629Y533995D01*
X49624Y535596D01*
X52249Y537751D01*
X54404Y540376D01*
X56005Y543371D01*
X56990Y546620D01*
X57323Y550000D01*
X56990Y553380D01*
X56005Y556629D01*
X54404Y559624D01*
X52249Y562249D01*
X49624Y564404D01*
X46629Y566005D01*
X43380Y566991D01*
X40000Y567323D01*
D02*
G37*
G36*
X207500Y532500D02*
X194500D01*
Y529314D01*
X189500D01*
Y532500D01*
X176500D01*
Y529314D01*
X167000D01*
Y532500D01*
X155000D01*
Y519500D01*
X167000D01*
Y522686D01*
X176500D01*
Y519500D01*
X189500D01*
Y522686D01*
X194500D01*
Y519500D01*
X207500D01*
Y532500D01*
D02*
G37*
G36*
X147886Y535730D02*
X138114D01*
X138252Y535033D01*
X138736Y534310D01*
X138057Y533040D01*
X136460D01*
Y527270D01*
X149540D01*
Y533040D01*
X147943D01*
X147264Y534310D01*
X147748Y535033D01*
X147886Y535730D01*
D02*
G37*
G36*
X118000Y535060D02*
X116173Y534820D01*
X114470Y534114D01*
X113007Y532992D01*
X111885Y531530D01*
X111180Y529827D01*
X110940Y528000D01*
X111180Y526173D01*
X111885Y524470D01*
X113007Y523008D01*
X114470Y521885D01*
X116173Y521180D01*
X118000Y520940D01*
X119827Y521180D01*
X121530Y521885D01*
X122992Y523008D01*
X124114Y524470D01*
X124820Y526173D01*
X125060Y528000D01*
X124820Y529827D01*
X124114Y531530D01*
X122992Y532992D01*
X121530Y534114D01*
X119827Y534820D01*
X118000Y535060D01*
D02*
G37*
G36*
X149540Y524730D02*
X144270D01*
Y518960D01*
X149540D01*
Y524730D01*
D02*
G37*
G36*
X141730D02*
X136460D01*
Y518960D01*
X141730D01*
Y524730D01*
D02*
G37*
G36*
X190040Y514040D02*
X184270D01*
Y508270D01*
X190040D01*
Y514040D01*
D02*
G37*
G36*
X172730Y511886D02*
X172034Y511748D01*
X170366Y510634D01*
X169252Y508966D01*
X169114Y508270D01*
X172730D01*
Y511886D01*
D02*
G37*
G36*
Y505730D02*
X169114D01*
X169252Y505033D01*
X170366Y503366D01*
X172034Y502252D01*
X172730Y502114D01*
Y505730D01*
D02*
G37*
G36*
X190040D02*
X184270D01*
Y499960D01*
X190040D01*
Y505730D01*
D02*
G37*
G36*
X181730Y514040D02*
X175960D01*
Y512750D01*
X175270Y512184D01*
Y507000D01*
Y501816D01*
X175960Y501250D01*
Y499960D01*
X181730D01*
Y507000D01*
Y514040D01*
D02*
G37*
G36*
X207500Y513500D02*
X194500D01*
Y500500D01*
X196399D01*
X197078Y499230D01*
X196761Y498756D01*
X196412Y497000D01*
X196761Y495244D01*
X197756Y493756D01*
X199244Y492761D01*
X201000Y492412D01*
X202756Y492761D01*
X204244Y493756D01*
X205239Y495244D01*
X205588Y497000D01*
X205239Y498756D01*
X204922Y499230D01*
X205601Y500500D01*
X207500D01*
Y513500D01*
D02*
G37*
G36*
X158000Y512500D02*
X146000D01*
Y504686D01*
X124623Y483309D01*
X124467Y483429D01*
X122119Y484402D01*
X119600Y484733D01*
X117081Y484402D01*
X114733Y483429D01*
X112718Y481883D01*
X111171Y479867D01*
X110198Y477519D01*
X109867Y475000D01*
X110198Y472481D01*
X111171Y470133D01*
X112718Y468118D01*
X114733Y466571D01*
X117081Y465598D01*
X119600Y465267D01*
X122119Y465598D01*
X124467Y466571D01*
X126482Y468118D01*
X128029Y470133D01*
X129002Y472481D01*
X129333Y475000D01*
X129002Y477519D01*
X128768Y478082D01*
X150186Y499500D01*
X158000D01*
Y512500D01*
D02*
G37*
G36*
X144270Y486886D02*
Y483270D01*
X147886D01*
X147748Y483966D01*
X146634Y485634D01*
X144966Y486748D01*
X144270Y486886D01*
D02*
G37*
G36*
X141730D02*
X141033Y486748D01*
X139366Y485634D01*
X138252Y483966D01*
X138114Y483270D01*
X141730D01*
Y486886D01*
D02*
G37*
G36*
X280270Y478886D02*
Y475270D01*
X283886D01*
X283748Y475966D01*
X282634Y477634D01*
X280966Y478748D01*
X280270Y478886D01*
D02*
G37*
G36*
X277730D02*
X277034Y478748D01*
X275366Y477634D01*
X274252Y475966D01*
X274114Y475270D01*
X277730D01*
Y478886D01*
D02*
G37*
G36*
X147886Y480730D02*
X138114D01*
X138252Y480033D01*
X138736Y479310D01*
X138057Y478040D01*
X136460D01*
Y472270D01*
X149540D01*
Y478040D01*
X147943D01*
X147264Y479310D01*
X147748Y480033D01*
X147886Y480730D01*
D02*
G37*
G36*
X89600Y484733D02*
X87081Y484402D01*
X84733Y483429D01*
X82718Y481883D01*
X81171Y479867D01*
X80198Y477519D01*
X79867Y475000D01*
X80198Y472481D01*
X81171Y470133D01*
X82718Y468118D01*
X84733Y466571D01*
X87081Y465598D01*
X89600Y465267D01*
X92119Y465598D01*
X94467Y466571D01*
X96482Y468118D01*
X98029Y470133D01*
X99002Y472481D01*
X99333Y475000D01*
X99002Y477519D01*
X98029Y479867D01*
X96482Y481883D01*
X94467Y483429D01*
X92119Y484402D01*
X89600Y484733D01*
D02*
G37*
G36*
X149540Y469730D02*
X144270D01*
Y463960D01*
X149540D01*
Y469730D01*
D02*
G37*
G36*
X141730D02*
X136460D01*
Y463960D01*
X141730D01*
Y469730D01*
D02*
G37*
G36*
X277730Y462180D02*
X268710D01*
Y457910D01*
X277730D01*
Y462180D01*
D02*
G37*
G36*
X190040Y459040D02*
X184270D01*
Y453270D01*
X190040D01*
Y459040D01*
D02*
G37*
G36*
X181730D02*
X175960D01*
Y453270D01*
X181730D01*
Y459040D01*
D02*
G37*
G36*
X158000Y457500D02*
X146000D01*
Y449686D01*
X144627Y448314D01*
X128673D01*
X128029Y449867D01*
X126482Y451883D01*
X124467Y453429D01*
X122119Y454402D01*
X119600Y454733D01*
X117081Y454402D01*
X114733Y453429D01*
X112718Y451883D01*
X111171Y449867D01*
X110198Y447519D01*
X109867Y445000D01*
X110198Y442481D01*
X111171Y440133D01*
X112718Y438117D01*
X114733Y436571D01*
X117081Y435598D01*
X119600Y435267D01*
X122119Y435598D01*
X124467Y436571D01*
X126482Y438117D01*
X128029Y440133D01*
X128673Y441686D01*
X146000D01*
X147268Y441939D01*
X148343Y442657D01*
X150186Y444500D01*
X158000D01*
Y457500D01*
D02*
G37*
G36*
X89600Y454733D02*
X87081Y454402D01*
X84733Y453429D01*
X82718Y451883D01*
X81171Y449867D01*
X80198Y447519D01*
X79867Y445000D01*
X80198Y442481D01*
X81171Y440133D01*
X82718Y438117D01*
X84733Y436571D01*
X87081Y435598D01*
X89600Y435267D01*
X92119Y435598D01*
X94467Y436571D01*
X96482Y438117D01*
X98029Y440133D01*
X99002Y442481D01*
X99333Y445000D01*
X99002Y447519D01*
X98029Y449867D01*
X96482Y451883D01*
X94467Y453429D01*
X92119Y454402D01*
X89600Y454733D01*
D02*
G37*
G36*
X46400Y462082D02*
X43067Y461754D01*
X39863Y460782D01*
X36910Y459203D01*
X34321Y457079D01*
X32197Y454490D01*
X30618Y451537D01*
X29646Y448333D01*
X29318Y445000D01*
X29646Y441667D01*
X30618Y438463D01*
X32197Y435510D01*
X34321Y432921D01*
X36910Y430797D01*
X39863Y429218D01*
X43067Y428246D01*
X46400Y427918D01*
X49733Y428246D01*
X52937Y429218D01*
X55890Y430797D01*
X58479Y432921D01*
X60603Y435510D01*
X62182Y438463D01*
X63154Y441667D01*
X63482Y445000D01*
X63154Y448333D01*
X62182Y451537D01*
X60603Y454490D01*
X58479Y457079D01*
X55890Y459203D01*
X52937Y460782D01*
X49733Y461754D01*
X46400Y462082D01*
D02*
G37*
G36*
X144270Y427886D02*
Y424270D01*
X147886D01*
X147748Y424967D01*
X146634Y426634D01*
X144966Y427748D01*
X144270Y427886D01*
D02*
G37*
G36*
X141730D02*
X141033Y427748D01*
X139366Y426634D01*
X138252Y424967D01*
X138114Y424270D01*
X141730D01*
Y427886D01*
D02*
G37*
G36*
X147886Y421730D02*
X138114D01*
X138252Y421034D01*
X138736Y420310D01*
X138057Y419040D01*
X136460D01*
Y413270D01*
X149540D01*
Y419040D01*
X147943D01*
X147264Y420310D01*
X147748Y421034D01*
X147886Y421730D01*
D02*
G37*
G36*
X99250Y424650D02*
X79950D01*
Y405350D01*
X99250D01*
Y424650D01*
D02*
G37*
G36*
X149540Y410730D02*
X144270D01*
Y404960D01*
X149540D01*
Y410730D01*
D02*
G37*
G36*
X141730D02*
X136460D01*
Y404960D01*
X141730D01*
Y410730D01*
D02*
G37*
G36*
X190040Y400040D02*
X184270D01*
Y394270D01*
X190040D01*
Y400040D01*
D02*
G37*
G36*
X8270Y389886D02*
Y386270D01*
X11886D01*
X11748Y386967D01*
X10634Y388634D01*
X8967Y389748D01*
X8270Y389886D01*
D02*
G37*
G36*
X5730D02*
X5034Y389748D01*
X3366Y388634D01*
X2252Y386967D01*
X2114Y386270D01*
X5730D01*
Y389886D01*
D02*
G37*
G36*
X11886Y383730D02*
X8270D01*
Y380114D01*
X8967Y380252D01*
X10634Y381366D01*
X11748Y383033D01*
X11886Y383730D01*
D02*
G37*
G36*
X5730D02*
X2114D01*
X2252Y383033D01*
X3366Y381366D01*
X5034Y380252D01*
X5730Y380114D01*
Y383730D01*
D02*
G37*
G36*
X61500Y376500D02*
X48500D01*
Y373334D01*
X28000D01*
Y376000D01*
X16000D01*
Y364000D01*
X28000D01*
Y366666D01*
X48500D01*
Y363500D01*
X61500D01*
Y376500D01*
D02*
G37*
G36*
X8270Y376540D02*
Y371270D01*
X13540D01*
Y376540D01*
X8270D01*
D02*
G37*
G36*
X13540Y368730D02*
X8270D01*
Y363460D01*
X13540D01*
Y368730D01*
D02*
G37*
G36*
X61500Y361500D02*
X48500D01*
Y358334D01*
X28000D01*
Y361000D01*
X16000D01*
Y349000D01*
X28000D01*
Y351666D01*
X48500D01*
Y348500D01*
X61500D01*
Y361500D01*
D02*
G37*
G36*
X8270Y361540D02*
Y356270D01*
X13540D01*
Y361540D01*
X8270D01*
D02*
G37*
G36*
X13540Y353730D02*
X8270D01*
Y348460D01*
X13540D01*
Y353730D01*
D02*
G37*
G36*
X61500Y346500D02*
X48500D01*
Y343314D01*
X28000D01*
Y346000D01*
X16000D01*
Y334000D01*
X28000D01*
Y336686D01*
X48500D01*
Y333500D01*
X61500D01*
Y346500D01*
D02*
G37*
G36*
X8270Y346540D02*
Y341270D01*
X13540D01*
Y346540D01*
X8270D01*
D02*
G37*
G36*
X13540Y338730D02*
X8270D01*
Y333460D01*
X13540D01*
Y338730D01*
D02*
G37*
G36*
X16270Y329886D02*
Y326270D01*
X19886D01*
X19748Y326967D01*
X18634Y328634D01*
X16967Y329748D01*
X16270Y329886D01*
D02*
G37*
G36*
X13730D02*
X13033Y329748D01*
X11366Y328634D01*
X10252Y326967D01*
X10114Y326270D01*
X13730D01*
Y329886D01*
D02*
G37*
G36*
X19886Y323730D02*
X16270D01*
Y320114D01*
X16967Y320252D01*
X18634Y321366D01*
X19748Y323033D01*
X19886Y323730D01*
D02*
G37*
G36*
X13730D02*
X10114D01*
X10252Y323033D01*
X11366Y321366D01*
X13033Y320252D01*
X13730Y320114D01*
Y323730D01*
D02*
G37*
G36*
X46500Y290582D02*
X43168Y290254D01*
X39963Y289282D01*
X37010Y287703D01*
X34421Y285579D01*
X32297Y282990D01*
X30718Y280037D01*
X29746Y276833D01*
X29418Y273500D01*
X29746Y270168D01*
X30718Y266963D01*
X32297Y264010D01*
X34421Y261421D01*
X37010Y259297D01*
X39963Y257718D01*
X43168Y256746D01*
X46500Y256418D01*
X49833Y256746D01*
X53037Y257718D01*
X55990Y259297D01*
X58579Y261421D01*
X60703Y264010D01*
X62282Y266963D01*
X63254Y270168D01*
X63582Y273500D01*
X63254Y276833D01*
X62282Y280037D01*
X60703Y282990D01*
X58579Y285579D01*
X55990Y287703D01*
X53037Y289282D01*
X49833Y290254D01*
X46500Y290582D01*
D02*
G37*
G36*
Y183582D02*
X43168Y183254D01*
X39963Y182282D01*
X37010Y180703D01*
X34421Y178579D01*
X32297Y175990D01*
X30718Y173037D01*
X29746Y169833D01*
X29418Y166500D01*
X29746Y163167D01*
X30718Y159963D01*
X32297Y157010D01*
X34421Y154421D01*
X37010Y152297D01*
X39963Y150718D01*
X43168Y149746D01*
X46500Y149418D01*
X49833Y149746D01*
X53037Y150718D01*
X55990Y152297D01*
X58579Y154421D01*
X60703Y157010D01*
X62282Y159963D01*
X63254Y163167D01*
X63582Y166500D01*
X63254Y169833D01*
X62282Y173037D01*
X60703Y175990D01*
X58579Y178579D01*
X55990Y180703D01*
X53037Y182282D01*
X49833Y183254D01*
X46500Y183582D01*
D02*
G37*
G36*
X177040Y73082D02*
X171270D01*
Y67312D01*
X177040D01*
Y73082D01*
D02*
G37*
G36*
X214040Y70040D02*
X208270D01*
Y64270D01*
X214040D01*
Y70040D01*
D02*
G37*
G36*
X177040Y64773D02*
X171270D01*
Y59002D01*
X177040D01*
Y64773D01*
D02*
G37*
G36*
X214040Y61730D02*
X208270D01*
Y55960D01*
X214040D01*
Y61730D01*
D02*
G37*
G36*
X205730Y70040D02*
X199960D01*
Y68750D01*
X199270Y68184D01*
Y63000D01*
Y57816D01*
X199960Y57250D01*
Y55960D01*
X205730D01*
Y63000D01*
Y70040D01*
D02*
G37*
G36*
X40000Y87323D02*
X36620Y86991D01*
X33371Y86005D01*
X30376Y84404D01*
X27750Y82249D01*
X25596Y79624D01*
X23995Y76629D01*
X23010Y73380D01*
X22677Y70000D01*
X23010Y66620D01*
X23995Y63371D01*
X25596Y60376D01*
X27750Y57751D01*
X30376Y55596D01*
X33371Y53995D01*
X36620Y53010D01*
X40000Y52677D01*
X43380Y53010D01*
X46629Y53995D01*
X49624Y55596D01*
X52249Y57751D01*
X54404Y60376D01*
X56005Y63371D01*
X56990Y66620D01*
X57323Y70000D01*
X56990Y73380D01*
X56005Y76629D01*
X54404Y79624D01*
X52249Y82249D01*
X49624Y84404D01*
X46629Y86005D01*
X43380Y86991D01*
X40000Y87323D01*
D02*
G37*
G36*
X177040Y56040D02*
X171270D01*
Y50270D01*
X177040D01*
Y56040D01*
D02*
G37*
G36*
Y47730D02*
X171270D01*
Y41960D01*
X177040D01*
Y47730D01*
D02*
G37*
G36*
X62370Y31472D02*
Y21270D01*
X72572D01*
X72343Y23013D01*
X71180Y25820D01*
X69330Y28230D01*
X66920Y30080D01*
X64113Y31243D01*
X62370Y31472D01*
D02*
G37*
G36*
X59830D02*
X58088Y31243D01*
X55280Y30080D01*
X52870Y28230D01*
X51020Y25820D01*
X49857Y23013D01*
X49628Y21270D01*
X59830D01*
Y31472D01*
D02*
G37*
G36*
X188100Y31095D02*
X185228Y30717D01*
X182553Y29609D01*
X180255Y27845D01*
X178491Y25547D01*
X177383Y22872D01*
X177005Y20000D01*
X177383Y17128D01*
X178491Y14453D01*
X180255Y12155D01*
X182553Y10391D01*
X185228Y9283D01*
X188100Y8905D01*
X190972Y9283D01*
X193647Y10391D01*
X195945Y12155D01*
X197708Y14453D01*
X198817Y17128D01*
X199195Y20000D01*
X198817Y22872D01*
X197708Y25547D01*
X195945Y27845D01*
X193647Y29609D01*
X190972Y30717D01*
X188100Y31095D01*
D02*
G37*
G36*
X72572Y18730D02*
X62370D01*
Y8528D01*
X64113Y8757D01*
X66920Y9920D01*
X69330Y11770D01*
X71180Y14180D01*
X72343Y16988D01*
X72572Y18730D01*
D02*
G37*
G36*
X59830D02*
X49628D01*
X49857Y16988D01*
X51020Y14180D01*
X52870Y11770D01*
X55280Y9920D01*
X58088Y8757D01*
X59830Y8528D01*
Y18730D01*
D02*
G37*
G36*
X235290Y392790D02*
X226270D01*
Y388520D01*
X235290D01*
Y392790D01*
D02*
G37*
G36*
X223730D02*
X214710D01*
Y388520D01*
X223730D01*
Y392790D01*
D02*
G37*
G36*
X277730Y343040D02*
X271960D01*
Y341495D01*
X270690Y340802D01*
X270270Y340886D01*
Y336000D01*
Y331114D01*
X270690Y331197D01*
X271960Y330505D01*
Y328960D01*
X277730D01*
Y336000D01*
Y343040D01*
D02*
G37*
G36*
X267730Y340886D02*
X267034Y340748D01*
X265366Y339634D01*
X264252Y337966D01*
X264114Y337270D01*
X267730D01*
Y340886D01*
D02*
G37*
G36*
Y334730D02*
X264114D01*
X264252Y334034D01*
X265366Y332366D01*
X267034Y331252D01*
X267730Y331114D01*
Y334730D01*
D02*
G37*
G36*
X286040D02*
X280270D01*
Y328960D01*
X286040D01*
Y334730D01*
D02*
G37*
G36*
X236270Y310886D02*
Y307270D01*
X239886D01*
X239748Y307966D01*
X238634Y309634D01*
X236966Y310748D01*
X236270Y310886D01*
D02*
G37*
G36*
X239886Y304730D02*
X236270D01*
Y301114D01*
X236966Y301252D01*
X238634Y302366D01*
X239748Y304034D01*
X239886Y304730D01*
D02*
G37*
G36*
X275000Y38060D02*
X273173Y37820D01*
X271470Y37115D01*
X270008Y35992D01*
X268885Y34530D01*
X268180Y32827D01*
X267940Y31000D01*
X268180Y29173D01*
X268885Y27470D01*
X270008Y26007D01*
X271470Y24885D01*
X273173Y24180D01*
X275000Y23940D01*
X276827Y24180D01*
X278530Y24885D01*
X279993Y26007D01*
X281115Y27470D01*
X281820Y29173D01*
X282060Y31000D01*
X281820Y32827D01*
X281115Y34530D01*
X279993Y35992D01*
X278530Y37115D01*
X276827Y37820D01*
X275000Y38060D01*
D02*
G37*
G36*
X235290Y373280D02*
X226270D01*
Y369010D01*
X235290D01*
Y373280D01*
D02*
G37*
G36*
X223730D02*
X214710D01*
Y369010D01*
X223730D01*
Y373280D01*
D02*
G37*
G36*
X231998Y362040D02*
X226227D01*
Y356270D01*
X231998D01*
Y362040D01*
D02*
G37*
G36*
X223687D02*
X217917D01*
Y356270D01*
X223687D01*
Y362040D01*
D02*
G37*
G36*
X240730D02*
X234960D01*
Y356270D01*
X240730D01*
Y362040D01*
D02*
G37*
G36*
X231998Y353730D02*
X226227D01*
Y347960D01*
X231998D01*
Y353730D01*
D02*
G37*
G36*
X223687D02*
X217917D01*
Y347960D01*
X223687D01*
Y353730D01*
D02*
G37*
G36*
X240730D02*
X234960D01*
Y347960D01*
X240730D01*
Y353730D01*
D02*
G37*
G36*
X89500Y306095D02*
X86629Y305717D01*
X83953Y304608D01*
X81655Y302845D01*
X79892Y300548D01*
X78783Y297872D01*
X78405Y295000D01*
X78783Y292129D01*
X79892Y289453D01*
X81655Y287155D01*
X83953Y285392D01*
X86629Y284283D01*
X89500Y283905D01*
X92372Y284283D01*
X95048Y285392D01*
X97345Y287155D01*
X99108Y289453D01*
X100217Y292129D01*
X100595Y295000D01*
X100217Y297872D01*
X99108Y300548D01*
X97345Y302845D01*
X95048Y304608D01*
X92372Y305717D01*
X89500Y306095D01*
D02*
G37*
G36*
X90770Y276472D02*
Y266270D01*
X100972D01*
X100743Y268013D01*
X99580Y270820D01*
X97730Y273230D01*
X95320Y275080D01*
X92513Y276243D01*
X90770Y276472D01*
D02*
G37*
G36*
X88230Y276472D02*
X86488Y276243D01*
X83680Y275080D01*
X81270Y273230D01*
X79420Y270820D01*
X78257Y268013D01*
X78028Y266270D01*
X88230D01*
Y276472D01*
D02*
G37*
G36*
Y263730D02*
X78028D01*
X78257Y261987D01*
X79420Y259180D01*
X81270Y256770D01*
X83680Y254920D01*
X86488Y253757D01*
X88230Y253528D01*
Y263730D01*
D02*
G37*
G36*
X100972D02*
X90770D01*
Y253528D01*
X92513Y253757D01*
X95320Y254920D01*
X97730Y256770D01*
X99580Y259180D01*
X100743Y261987D01*
X100972Y263730D01*
D02*
G37*
G36*
X89500Y246095D02*
X86629Y245717D01*
X83953Y244608D01*
X81655Y242845D01*
X79892Y240548D01*
X78783Y237872D01*
X78405Y235000D01*
X78783Y232129D01*
X79892Y229453D01*
X81655Y227155D01*
X83953Y225392D01*
X86629Y224283D01*
X89500Y223905D01*
X92372Y224283D01*
X95048Y225392D01*
X97345Y227155D01*
X99108Y229453D01*
X100217Y232129D01*
X100595Y235000D01*
X100217Y237872D01*
X99108Y240548D01*
X97345Y242845D01*
X95048Y244608D01*
X92372Y245717D01*
X89500Y246095D01*
D02*
G37*
G36*
X90770Y216472D02*
Y206270D01*
X100972D01*
X100743Y208013D01*
X99580Y210820D01*
X97730Y213230D01*
X95320Y215080D01*
X92513Y216243D01*
X90770Y216472D01*
D02*
G37*
G36*
X88230D02*
X86488Y216243D01*
X83680Y215080D01*
X81270Y213230D01*
X79420Y210820D01*
X78257Y208013D01*
X78028Y206270D01*
X88230D01*
Y216472D01*
D02*
G37*
G36*
X100972Y203730D02*
X90770D01*
Y193528D01*
X92513Y193757D01*
X95320Y194920D01*
X97730Y196770D01*
X99580Y199180D01*
X100743Y201987D01*
X100972Y203730D01*
D02*
G37*
G36*
X88230D02*
X78028D01*
X78257Y201987D01*
X79420Y199180D01*
X81270Y196770D01*
X83680Y194920D01*
X86488Y193757D01*
X88230Y193528D01*
Y203730D01*
D02*
G37*
G36*
X89500Y186095D02*
X86629Y185717D01*
X83953Y184608D01*
X81655Y182845D01*
X79892Y180548D01*
X78783Y177872D01*
X78405Y175000D01*
X78783Y172129D01*
X79892Y169453D01*
X81655Y167155D01*
X83953Y165392D01*
X86629Y164283D01*
X89500Y163905D01*
X92372Y164283D01*
X95048Y165392D01*
X97345Y167155D01*
X99108Y169453D01*
X100217Y172129D01*
X100595Y175000D01*
X100217Y177872D01*
X99108Y180548D01*
X97345Y182845D01*
X95048Y184608D01*
X92372Y185717D01*
X89500Y186095D01*
D02*
G37*
G36*
X101040Y156540D02*
X90770D01*
Y146270D01*
X101040D01*
Y156540D01*
D02*
G37*
G36*
X88230D02*
X77960D01*
Y146270D01*
X88230D01*
Y156540D01*
D02*
G37*
G36*
X101040Y143730D02*
X90770D01*
Y133460D01*
X101040D01*
Y143730D01*
D02*
G37*
G36*
X88230D02*
X77960D01*
Y133460D01*
X88230D01*
Y143730D01*
D02*
G37*
G36*
X138570Y31472D02*
Y21270D01*
X148772D01*
X148543Y23013D01*
X147380Y25820D01*
X145530Y28230D01*
X143120Y30080D01*
X140312Y31243D01*
X138570Y31472D01*
D02*
G37*
G36*
X136030D02*
X134288Y31243D01*
X131480Y30080D01*
X129070Y28230D01*
X127220Y25820D01*
X126057Y23013D01*
X125828Y21270D01*
X136030D01*
Y31472D01*
D02*
G37*
G36*
X168730Y282040D02*
X162960D01*
Y280495D01*
X161690Y279803D01*
X161270Y279886D01*
Y275000D01*
Y270114D01*
X161690Y270198D01*
X162960Y269505D01*
Y267960D01*
X168730D01*
Y275000D01*
Y282040D01*
D02*
G37*
G36*
X149886Y282730D02*
X146270D01*
Y279114D01*
X146966Y279252D01*
X148634Y280366D01*
X149748Y282034D01*
X149886Y282730D01*
D02*
G37*
G36*
X143730D02*
X140114D01*
X140252Y282034D01*
X141366Y280366D01*
X143034Y279252D01*
X143730Y279114D01*
Y282730D01*
D02*
G37*
G36*
X158730Y279886D02*
X158034Y279748D01*
X156366Y278634D01*
X155252Y276966D01*
X155114Y276270D01*
X158730D01*
Y279886D01*
D02*
G37*
G36*
Y273730D02*
X155114D01*
X155252Y273034D01*
X156366Y271366D01*
X158034Y270252D01*
X158730Y270114D01*
Y273730D01*
D02*
G37*
G36*
X168730Y264040D02*
X162960D01*
Y262495D01*
X161690Y261803D01*
X161270Y261886D01*
Y257000D01*
Y252114D01*
X161690Y252197D01*
X162960Y251505D01*
Y249960D01*
X168730D01*
Y257000D01*
Y264040D01*
D02*
G37*
G36*
X158730Y261886D02*
X158034Y261748D01*
X156366Y260634D01*
X155252Y258967D01*
X155114Y258270D01*
X158730D01*
Y261886D01*
D02*
G37*
G36*
Y255730D02*
X155114D01*
X155252Y255033D01*
X156366Y253366D01*
X158034Y252252D01*
X158730Y252114D01*
Y255730D01*
D02*
G37*
G36*
X214040Y313083D02*
X208270D01*
Y307313D01*
X214040D01*
Y313083D01*
D02*
G37*
G36*
Y304772D02*
X208270D01*
Y299002D01*
X214040D01*
Y304772D01*
D02*
G37*
G36*
X216040Y209040D02*
X210270D01*
Y203270D01*
X216040D01*
Y209040D01*
D02*
G37*
G36*
X207730D02*
X201960D01*
Y203270D01*
X207730D01*
Y209040D01*
D02*
G37*
G36*
X214040Y105040D02*
X208270D01*
Y99270D01*
X214040D01*
Y105040D01*
D02*
G37*
G36*
X154790Y187730D02*
X145000D01*
X135210D01*
Y184210D01*
X140224D01*
X140903Y182940D01*
X140252Y181966D01*
X140114Y181270D01*
X149886D01*
X149748Y181966D01*
X149097Y182940D01*
X149776Y184210D01*
X154790D01*
Y187730D01*
D02*
G37*
G36*
X149886Y178730D02*
X146270D01*
Y175114D01*
X146966Y175252D01*
X148634Y176366D01*
X149748Y178034D01*
X149886Y178730D01*
D02*
G37*
G36*
X143730D02*
X140114D01*
X140252Y178034D01*
X141366Y176366D01*
X143034Y175252D01*
X143730Y175114D01*
Y178730D01*
D02*
G37*
G36*
X168730Y177083D02*
X162960D01*
Y175495D01*
X161690Y174802D01*
X161270Y174886D01*
Y170000D01*
Y165114D01*
X161690Y165197D01*
X162960Y164505D01*
Y163002D01*
X168730D01*
Y170042D01*
Y177083D01*
D02*
G37*
G36*
X158730Y174886D02*
X158034Y174748D01*
X156366Y173634D01*
X155252Y171966D01*
X155114Y171270D01*
X158730D01*
Y174886D01*
D02*
G37*
G36*
Y168730D02*
X155114D01*
X155252Y168034D01*
X156366Y166366D01*
X158034Y165252D01*
X158730Y165114D01*
Y168730D01*
D02*
G37*
G36*
X168730Y160040D02*
X162960D01*
Y158495D01*
X161690Y157803D01*
X161270Y157886D01*
Y153000D01*
Y148114D01*
X161690Y148197D01*
X162960Y147505D01*
Y145960D01*
X168730D01*
Y153000D01*
Y160040D01*
D02*
G37*
G36*
X158730Y157886D02*
X158034Y157748D01*
X156366Y156634D01*
X155252Y154966D01*
X155114Y154270D01*
X158730D01*
Y157886D01*
D02*
G37*
G36*
Y151730D02*
X155114D01*
X155252Y151033D01*
X156366Y149366D01*
X158034Y148252D01*
X158730Y148114D01*
Y151730D01*
D02*
G37*
%LPD*%
D11*
X201000Y507000D02*
X201000Y507000D01*
Y497000D02*
Y507000D01*
X181000Y382000D02*
X182000D01*
X183000Y383000D01*
X148000Y340000D02*
X201000Y393000D01*
X74000Y340000D02*
X148000D01*
X201000Y393000D02*
X211000Y403000D01*
X183000Y383000D02*
Y393000D01*
X198000Y271000D02*
X207000D01*
X68500Y553500D02*
X208500D01*
X26000Y596000D02*
X68500Y553500D01*
X208500D02*
X234000Y528000D01*
X39000Y643000D02*
X50000D01*
X7000Y333000D02*
X15000Y325000D01*
X7000Y333000D02*
Y340000D01*
Y370000D02*
Y385000D01*
X143000Y537000D02*
X143000Y537000D01*
X143000Y526000D02*
Y537000D01*
X174000Y507000D02*
X183000D01*
X143000Y471000D02*
Y482000D01*
X183000Y443000D02*
Y452000D01*
Y443000D02*
X183000Y443000D01*
X143000Y412000D02*
Y423000D01*
X143000Y423000D01*
X279000Y463450D02*
Y474000D01*
X279000Y474000D01*
X211250Y387250D02*
X225000D01*
X204000Y380000D02*
X211250Y387250D01*
X145000Y284000D02*
Y293043D01*
X145000Y284000D02*
X145000Y284000D01*
X234958Y306042D02*
X235000Y306000D01*
X226000Y306042D02*
X234958D01*
X145000Y180000D02*
X145000Y180000D01*
Y189000D01*
X145000Y75000D02*
X145000Y75000D01*
Y85000D01*
X198000Y63000D02*
X207000D01*
X160000Y49000D02*
X170000D01*
X160000Y66000D02*
X160042Y66042D01*
X170000D01*
X160000Y170000D02*
X160042Y170042D01*
X170000D01*
X160000Y153000D02*
X170000D01*
X269000Y336000D02*
X279000D01*
X226000Y98000D02*
Y108000D01*
X160000Y257000D02*
X170000D01*
X160000Y275000D02*
X170000D01*
X217000Y328042D02*
X224958Y336000D01*
X217000Y328000D02*
Y328042D01*
X242000Y336000D02*
X252000D01*
X199000Y221000D02*
X209000D01*
X199000Y221000D02*
X199000Y221000D01*
X220000Y135000D02*
X220000Y135000D01*
X209000Y135000D02*
X220000D01*
X238900Y20000D02*
Y258100D01*
X226000Y271000D02*
X238900Y258100D01*
X259000Y550000D02*
X279000Y530000D01*
X223000Y572000D02*
X245000Y550000D01*
X259000D01*
X279000Y506000D02*
Y530000D01*
X209000Y168000D02*
X218000D01*
X225000Y175000D01*
X217000Y474000D02*
X234000D01*
X215000Y596000D02*
X223000Y588000D01*
Y572000D02*
Y588000D01*
X239000Y565000D02*
Y587000D01*
X210000Y430000D02*
Y450000D01*
X226000Y55000D02*
Y63000D01*
X221000Y50000D02*
X226000Y55000D01*
X215000Y50000D02*
X221000D01*
X214000Y567000D02*
Y587000D01*
X189000Y306042D02*
X207000D01*
X189000Y98000D02*
X207000D01*
X170000Y320000D02*
Y331000D01*
X145000Y312542D02*
X162542D01*
X170000Y320000D01*
Y98000D02*
X189000D01*
X156000Y123000D02*
X170000D01*
X145000Y112000D02*
X156000Y123000D01*
X145000Y104500D02*
Y112000D01*
X132000Y102000D02*
Y162500D01*
X119500Y175000D02*
X132000Y162500D01*
Y102000D02*
X135598Y98402D01*
X144598D02*
X145000Y98000D01*
X135598Y98402D02*
X144598D01*
X119500Y106500D02*
Y145000D01*
X134500Y91500D02*
X145000D01*
X119500Y106500D02*
X134500Y91500D01*
X189000Y66042D02*
Y85000D01*
Y49000D02*
Y66042D01*
X226000Y63000D02*
Y80042D01*
X203827Y83215D02*
X207000Y80042D01*
X203827Y83215D02*
Y86173D01*
X198535Y91465D02*
X203827Y86173D01*
X189000Y91500D02*
X189035Y91465D01*
X198535D01*
X189000Y104500D02*
Y123000D01*
X119500Y235000D02*
X132000Y222500D01*
Y206000D02*
Y222500D01*
X144598Y202402D02*
X145000Y202000D01*
X135598Y202402D02*
X144598D01*
X132000Y206000D02*
X135598Y202402D01*
X129000Y195500D02*
X145000D01*
X119500Y205000D02*
X129000Y195500D01*
X155543Y228542D02*
X170000D01*
X145000Y218000D02*
X155543Y228542D01*
X145000Y208500D02*
Y218000D01*
X209000Y154000D02*
Y168000D01*
X189000Y195500D02*
X200500D01*
X209000Y187000D01*
X189000Y170042D02*
Y189000D01*
Y153000D02*
Y170042D01*
Y208500D02*
Y228542D01*
X119500Y265000D02*
X132000Y277500D01*
Y296000D01*
X135464Y299464D01*
X144922D01*
X145000Y299543D01*
X130542Y306042D02*
X145000D01*
X119500Y295000D02*
X130542Y306042D01*
X189000Y312542D02*
Y331000D01*
Y275000D02*
Y293043D01*
Y257000D02*
Y275000D01*
X226000Y271000D02*
Y289000D01*
X203750Y292250D02*
Y294250D01*
Y292250D02*
X207000Y289000D01*
X198535Y299464D02*
X203750Y294250D01*
X189078Y299464D02*
X198535D01*
X189000Y299543D02*
X189078Y299464D01*
X115000Y370000D02*
X130000Y385000D01*
X74000Y370000D02*
X115000D01*
X172000Y420000D02*
X172419Y420419D01*
X172000Y377000D02*
Y401000D01*
X150000Y355000D02*
X172000Y377000D01*
X172419Y423419D02*
X201000Y452000D01*
X172419Y420419D02*
Y423419D01*
X74000Y355000D02*
X150000D01*
X158000Y596000D02*
X167661Y586339D01*
X185661D02*
X240000Y532000D01*
X167661Y586339D02*
X185661D01*
X255000Y581000D02*
X293000Y543000D01*
Y402000D02*
Y543000D01*
X118000Y586000D02*
Y596000D01*
X118000Y586000D02*
X118000Y586000D01*
X283000Y503000D02*
Y537478D01*
X246185Y574293D02*
X283000Y537478D01*
X250000Y438000D02*
X262650Y425350D01*
X279000D01*
X260350Y412650D02*
X279000D01*
X260000Y413000D02*
X260350Y412650D01*
X265000Y451000D02*
X278750D01*
X211000Y462000D02*
Y468000D01*
X217000Y474000D01*
X201000Y452000D02*
X211000Y462000D01*
X255000Y447000D02*
Y475000D01*
X262964Y439035D02*
X278015D01*
X255000Y447000D02*
X262964Y439035D01*
X250000Y438000D02*
Y477000D01*
X255000Y475000D02*
X283000Y503000D01*
X250000Y477000D02*
X279000Y506000D01*
X240000Y512000D02*
X245000Y507000D01*
X235950Y399950D02*
X245000Y409000D01*
Y507000D01*
X234000Y509000D02*
X240000Y503000D01*
X236650Y412650D02*
X240000Y416000D01*
Y503000D01*
X279000Y355000D02*
Y374550D01*
X234000Y509000D02*
Y528000D01*
X225000Y412650D02*
X236650D01*
X240000Y512000D02*
Y532000D01*
X225000Y399950D02*
X235950D01*
X278015Y439035D02*
X279000Y438050D01*
X290950Y399950D02*
X293000Y402000D01*
X279000Y399950D02*
X290950D01*
X274000Y596000D02*
X297000Y573000D01*
Y394000D02*
Y573000D01*
X279000Y387250D02*
X290250D01*
X297000Y394000D01*
X278750Y451000D02*
X279000Y450750D01*
X265000Y596000D02*
X274000D01*
X205000D02*
X215000D01*
X137300Y616700D02*
X158000Y596000D01*
X137300Y616700D02*
Y630000D01*
X242000Y609000D02*
X261000Y628000D01*
X190000Y609000D02*
X242000D01*
X177000Y596000D02*
X190000Y609000D01*
X234000Y596000D02*
X245000D01*
X277000Y628000D01*
X293000Y596000D02*
Y627957D01*
X293043Y628000D01*
X118000Y596000D02*
Y620785D01*
X111900Y626885D02*
X118000Y620785D01*
X111900Y626885D02*
Y630000D01*
X84000Y586000D02*
Y596000D01*
X26000D02*
Y606000D01*
X26000Y606000D02*
X26000Y606000D01*
X39000Y628000D02*
X56000Y611000D01*
X84000D02*
X99000Y596000D01*
X56000Y611000D02*
X84000D01*
X55000Y596000D02*
X65000D01*
X23000Y628000D02*
X55000Y596000D01*
X7000D02*
Y627915D01*
X6915Y628000D02*
X7000Y627915D01*
X211000Y403000D02*
Y419385D01*
X223491Y423841D02*
X225000Y425350D01*
X211000Y419385D02*
X215456Y423841D01*
X223491D01*
X183000Y526000D02*
X201000D01*
X161000D02*
X183000D01*
Y471000D02*
X201000D01*
X161000D02*
X183000D01*
Y412000D02*
X201000D01*
X161000D02*
X183000D01*
X152000Y505500D02*
Y506000D01*
X149250Y502750D02*
X152000Y505500D01*
X148750Y502750D02*
X149250D01*
X121000Y475000D02*
X148750Y502750D01*
X119600Y475000D02*
X121000D01*
X119600Y445000D02*
X146000D01*
X148750Y447750D01*
X149250D01*
X152000Y450500D01*
Y451000D01*
X142600Y392000D02*
X152000D01*
X119600Y415000D02*
X142600Y392000D01*
X22000Y340000D02*
X55000D01*
D13*
X228500Y5000D02*
X278000D01*
X213500Y20000D02*
X228500Y5000D01*
X278000D02*
X295000Y22000D01*
X279000Y355000D02*
X295000Y339000D01*
Y22000D02*
Y339000D01*
D14*
X118000Y528000D02*
D03*
X89000Y73000D02*
D03*
X275000Y31000D02*
D03*
D15*
X7000Y596000D02*
D03*
X26000D02*
D03*
X65000D02*
D03*
X84000D02*
D03*
X99000D02*
D03*
X118000D02*
D03*
X74000Y340000D02*
D03*
X55000D02*
D03*
X74000Y355000D02*
D03*
X55000D02*
D03*
X74000Y370000D02*
D03*
X55000D02*
D03*
X158000Y596000D02*
D03*
X177000D02*
D03*
X215000D02*
D03*
X234000D02*
D03*
X274000D02*
D03*
X293000D02*
D03*
X226000Y80042D02*
D03*
X207000D02*
D03*
X189000Y49000D02*
D03*
X170000D02*
D03*
Y123000D02*
D03*
X189000D02*
D03*
Y153000D02*
D03*
X170000D02*
D03*
Y228542D02*
D03*
X189000D02*
D03*
X226000Y289000D02*
D03*
X207000D02*
D03*
X189000Y257000D02*
D03*
X170000D02*
D03*
Y331000D02*
D03*
X189000D02*
D03*
X226000Y63000D02*
D03*
X207000D02*
D03*
X189000Y66042D02*
D03*
X170000D02*
D03*
X207000Y98000D02*
D03*
X226000D02*
D03*
X189000Y170042D02*
D03*
X170000D02*
D03*
X226000Y271000D02*
D03*
X207000D02*
D03*
X189000Y275000D02*
D03*
X170000D02*
D03*
X207000Y306042D02*
D03*
X226000D02*
D03*
D16*
X189000Y85000D02*
D03*
Y91500D02*
D03*
Y98000D02*
D03*
Y104500D02*
D03*
X145000Y85000D02*
D03*
Y91500D02*
D03*
Y98000D02*
D03*
Y104500D02*
D03*
X189000Y189000D02*
D03*
Y195500D02*
D03*
Y202000D02*
D03*
Y208500D02*
D03*
X145000Y189000D02*
D03*
Y195500D02*
D03*
Y202000D02*
D03*
Y208500D02*
D03*
X189000Y293043D02*
D03*
Y299543D02*
D03*
Y306042D02*
D03*
Y312542D02*
D03*
X145000Y293043D02*
D03*
Y299543D02*
D03*
Y306042D02*
D03*
Y312542D02*
D03*
D17*
X225000Y463450D02*
D03*
Y450750D02*
D03*
Y438050D02*
D03*
Y425350D02*
D03*
Y412650D02*
D03*
Y399950D02*
D03*
Y387250D02*
D03*
Y374550D02*
D03*
X279000Y463450D02*
D03*
Y450750D02*
D03*
Y438050D02*
D03*
Y425350D02*
D03*
Y412650D02*
D03*
Y399950D02*
D03*
Y387250D02*
D03*
Y374550D02*
D03*
D18*
X183000Y412000D02*
D03*
Y393000D02*
D03*
X201000Y412000D02*
D03*
Y393000D02*
D03*
X183000Y471000D02*
D03*
Y452000D02*
D03*
X201000Y471000D02*
D03*
Y452000D02*
D03*
X183000Y526000D02*
D03*
Y507000D02*
D03*
X201000Y526000D02*
D03*
Y507000D02*
D03*
X209000Y168000D02*
D03*
Y187000D02*
D03*
X279000Y355000D02*
D03*
Y336000D02*
D03*
X209000Y154000D02*
D03*
Y135000D02*
D03*
Y202000D02*
D03*
Y221000D02*
D03*
X242000Y355000D02*
D03*
Y336000D02*
D03*
X224958Y355000D02*
D03*
Y336000D02*
D03*
D19*
X152000Y392000D02*
D03*
X143000Y412000D02*
D03*
X161000D02*
D03*
X152000Y451000D02*
D03*
X143000Y471000D02*
D03*
X161000D02*
D03*
X152000Y506000D02*
D03*
X143000Y526000D02*
D03*
X161000D02*
D03*
D33*
X201000Y497000D02*
D03*
X181000Y382000D02*
D03*
X198000Y271000D02*
D03*
X50000Y643000D02*
D03*
X15000Y325000D02*
D03*
X7000Y385000D02*
D03*
X143000Y537000D02*
D03*
X174000Y507000D02*
D03*
X143000Y482000D02*
D03*
X183000Y443000D02*
D03*
X143000Y423000D02*
D03*
X279000Y474000D02*
D03*
X204000Y380000D02*
D03*
X145000Y284000D02*
D03*
X235000Y306000D02*
D03*
X145000Y180000D02*
D03*
Y75000D02*
D03*
X198000Y63000D02*
D03*
X160000Y49000D02*
D03*
Y66000D02*
D03*
Y170000D02*
D03*
Y153000D02*
D03*
X269000Y336000D02*
D03*
X226000Y108000D02*
D03*
X160000Y257000D02*
D03*
Y275000D02*
D03*
X217000Y328000D02*
D03*
X252000Y336000D02*
D03*
X199000Y221000D02*
D03*
X220000Y135000D02*
D03*
X225000Y175000D02*
D03*
X234000Y474000D02*
D03*
X239000Y565000D02*
D03*
Y587000D02*
D03*
X210000Y450000D02*
D03*
X215000Y50000D02*
D03*
X210000Y430000D02*
D03*
X214000Y567000D02*
D03*
Y587000D02*
D03*
X170000Y98000D02*
D03*
X130000Y385000D02*
D03*
X172000Y420000D02*
D03*
Y401000D02*
D03*
X255000Y581000D02*
D03*
X118000Y586000D02*
D03*
X246185Y574293D02*
D03*
X260000Y413000D02*
D03*
X265000Y451000D02*
D03*
Y596000D02*
D03*
X205000D02*
D03*
X84000Y586000D02*
D03*
X26000Y606000D02*
D03*
D34*
X6915Y628000D02*
D03*
Y643000D02*
D03*
X23000Y628000D02*
D03*
Y643000D02*
D03*
X39000Y628000D02*
D03*
Y643000D02*
D03*
X261000D02*
D03*
Y628000D02*
D03*
X277000Y643000D02*
D03*
Y628000D02*
D03*
X293043Y643000D02*
D03*
Y628000D02*
D03*
D35*
X7000Y340000D02*
D03*
X22000D02*
D03*
X7000Y355000D02*
D03*
X22000D02*
D03*
X7000Y370000D02*
D03*
X22000D02*
D03*
D36*
Y355000D02*
X55000D01*
X22000Y370000D02*
X55000D01*
D37*
X40000Y550000D02*
D03*
Y70000D02*
D03*
X260000Y150000D02*
D03*
Y520000D02*
D03*
D38*
X46400Y445000D02*
D03*
X46500Y273500D02*
D03*
Y166500D02*
D03*
D39*
X89600Y415000D02*
D03*
D40*
Y445000D02*
D03*
X119600Y415000D02*
D03*
Y445000D02*
D03*
Y475000D02*
D03*
X89600D02*
D03*
D41*
X89500Y145000D02*
D03*
D42*
X119500D02*
D03*
X89500Y175000D02*
D03*
X119500D02*
D03*
X89500Y205000D02*
D03*
X119500D02*
D03*
X89500Y235000D02*
D03*
X119500D02*
D03*
X89500Y265000D02*
D03*
X119500D02*
D03*
X89500Y295000D02*
D03*
X119500D02*
D03*
X162700Y630000D02*
D03*
X188100D02*
D03*
X213500D02*
D03*
X137300D02*
D03*
X111900D02*
D03*
X86500D02*
D03*
X61100D02*
D03*
X162700Y20000D02*
D03*
X188100D02*
D03*
X213500D02*
D03*
X137300D02*
D03*
X111900D02*
D03*
X86500D02*
D03*
X61100D02*
D03*
D43*
X238900Y630000D02*
D03*
Y20000D02*
D03*
M02*
