G04*
G04 #@! TF.GenerationSoftware,Altium Limited,Altium Designer,20.0.11 (256)*
G04*
G04 Layer_Color=8388736*
%FSLAX44Y44*%
%MOMM*%
G71*
G01*
G75*
%ADD15R,0.9000X0.9000*%
%ADD18R,0.9000X0.9000*%
%ADD20C,3.0000*%
%ADD21R,1.0000X1.0000*%
%ADD22R,1.5500X0.5500*%
%ADD23R,1.6500X0.7000*%
%ADD24R,1.0000X1.0000*%
%ADD25R,0.9000X1.0000*%
%ADD26C,3.1480*%
%ADD27C,3.1000*%
%ADD28R,1.6300X1.6300*%
%ADD29C,1.6300*%
%ADD30R,1.9000X1.9000*%
%ADD31C,1.9000*%
%ADD32R,1.9000X1.9000*%
%ADD33C,0.5000*%
D15*
X7000Y340000D02*
D03*
X22000D02*
D03*
X7000Y355000D02*
D03*
X22000D02*
D03*
X7000Y370000D02*
D03*
X22000D02*
D03*
D18*
X6915Y628000D02*
D03*
Y643000D02*
D03*
X23000Y628000D02*
D03*
Y643000D02*
D03*
X39000Y628000D02*
D03*
Y643000D02*
D03*
X261000D02*
D03*
Y628000D02*
D03*
X277000Y643000D02*
D03*
Y628000D02*
D03*
X293043Y643000D02*
D03*
Y628000D02*
D03*
D20*
X118000Y528000D02*
D03*
X89000Y73000D02*
D03*
X275000Y31000D02*
D03*
D21*
X7000Y596000D02*
D03*
X26000D02*
D03*
X65000D02*
D03*
X84000D02*
D03*
X99000D02*
D03*
X118000D02*
D03*
X74000Y340000D02*
D03*
X55000D02*
D03*
X74000Y355000D02*
D03*
X55000D02*
D03*
X74000Y370000D02*
D03*
X55000D02*
D03*
X158000Y596000D02*
D03*
X177000D02*
D03*
X215000D02*
D03*
X234000D02*
D03*
X274000D02*
D03*
X293000D02*
D03*
X226000Y80042D02*
D03*
X207000D02*
D03*
X189000Y49000D02*
D03*
X170000D02*
D03*
Y123000D02*
D03*
X189000D02*
D03*
Y153000D02*
D03*
X170000D02*
D03*
Y228542D02*
D03*
X189000D02*
D03*
X226000Y289000D02*
D03*
X207000D02*
D03*
X189000Y257000D02*
D03*
X170000D02*
D03*
Y331000D02*
D03*
X189000D02*
D03*
X226000Y63000D02*
D03*
X207000D02*
D03*
X189000Y66042D02*
D03*
X170000D02*
D03*
X207000Y98000D02*
D03*
X226000D02*
D03*
X189000Y170042D02*
D03*
X170000D02*
D03*
X226000Y271000D02*
D03*
X207000D02*
D03*
X189000Y275000D02*
D03*
X170000D02*
D03*
X207000Y306042D02*
D03*
X226000D02*
D03*
D22*
X189000Y85000D02*
D03*
Y91500D02*
D03*
Y98000D02*
D03*
Y104500D02*
D03*
X145000Y85000D02*
D03*
Y91500D02*
D03*
Y98000D02*
D03*
Y104500D02*
D03*
X189000Y189000D02*
D03*
Y195500D02*
D03*
Y202000D02*
D03*
Y208500D02*
D03*
X145000Y189000D02*
D03*
Y195500D02*
D03*
Y202000D02*
D03*
Y208500D02*
D03*
X189000Y293043D02*
D03*
Y299543D02*
D03*
Y306042D02*
D03*
Y312542D02*
D03*
X145000Y293043D02*
D03*
Y299543D02*
D03*
Y306042D02*
D03*
Y312542D02*
D03*
D23*
X225000Y463450D02*
D03*
Y450750D02*
D03*
Y438050D02*
D03*
Y425350D02*
D03*
Y412650D02*
D03*
Y399950D02*
D03*
Y387250D02*
D03*
Y374550D02*
D03*
X279000Y463450D02*
D03*
Y450750D02*
D03*
Y438050D02*
D03*
Y425350D02*
D03*
Y412650D02*
D03*
Y399950D02*
D03*
Y387250D02*
D03*
Y374550D02*
D03*
D24*
X183000Y412000D02*
D03*
Y393000D02*
D03*
X201000Y412000D02*
D03*
Y393000D02*
D03*
X183000Y471000D02*
D03*
Y452000D02*
D03*
X201000Y471000D02*
D03*
Y452000D02*
D03*
X183000Y526000D02*
D03*
Y507000D02*
D03*
X201000Y526000D02*
D03*
Y507000D02*
D03*
X209000Y168000D02*
D03*
Y187000D02*
D03*
X279000Y355000D02*
D03*
Y336000D02*
D03*
X209000Y154000D02*
D03*
Y135000D02*
D03*
Y202000D02*
D03*
Y221000D02*
D03*
X242000Y355000D02*
D03*
Y336000D02*
D03*
X224958Y355000D02*
D03*
Y336000D02*
D03*
D25*
X152000Y392000D02*
D03*
X143000Y412000D02*
D03*
X161000D02*
D03*
X152000Y451000D02*
D03*
X143000Y471000D02*
D03*
X161000D02*
D03*
X152000Y506000D02*
D03*
X143000Y526000D02*
D03*
X161000D02*
D03*
D26*
X40000Y550000D02*
D03*
Y70000D02*
D03*
X260000Y150000D02*
D03*
Y520000D02*
D03*
D27*
X46400Y445000D02*
D03*
X46500Y273500D02*
D03*
Y166500D02*
D03*
D28*
X89600Y415000D02*
D03*
D29*
Y445000D02*
D03*
X119600Y415000D02*
D03*
Y445000D02*
D03*
Y475000D02*
D03*
X89600D02*
D03*
D30*
X89500Y145000D02*
D03*
D31*
X119500D02*
D03*
X89500Y175000D02*
D03*
X119500D02*
D03*
X89500Y205000D02*
D03*
X119500D02*
D03*
X89500Y235000D02*
D03*
X119500D02*
D03*
X89500Y265000D02*
D03*
X119500D02*
D03*
X89500Y295000D02*
D03*
X119500D02*
D03*
X162700Y630000D02*
D03*
X188100D02*
D03*
X213500D02*
D03*
X137300D02*
D03*
X111900D02*
D03*
X86500D02*
D03*
X61100D02*
D03*
X162700Y20000D02*
D03*
X188100D02*
D03*
X213500D02*
D03*
X137300D02*
D03*
X111900D02*
D03*
X86500D02*
D03*
X61100D02*
D03*
D32*
X238900Y630000D02*
D03*
Y20000D02*
D03*
D33*
X201000Y497000D02*
D03*
X181000Y382000D02*
D03*
X198000Y271000D02*
D03*
X50000Y643000D02*
D03*
X15000Y325000D02*
D03*
X7000Y385000D02*
D03*
X143000Y537000D02*
D03*
X174000Y507000D02*
D03*
X143000Y482000D02*
D03*
X183000Y443000D02*
D03*
X143000Y423000D02*
D03*
X279000Y474000D02*
D03*
X204000Y380000D02*
D03*
X145000Y284000D02*
D03*
X235000Y306000D02*
D03*
X145000Y180000D02*
D03*
Y75000D02*
D03*
X198000Y63000D02*
D03*
X160000Y49000D02*
D03*
Y66000D02*
D03*
Y170000D02*
D03*
Y153000D02*
D03*
X269000Y336000D02*
D03*
X226000Y108000D02*
D03*
X160000Y257000D02*
D03*
Y275000D02*
D03*
X217000Y328000D02*
D03*
X252000Y336000D02*
D03*
X199000Y221000D02*
D03*
X220000Y135000D02*
D03*
X225000Y175000D02*
D03*
X234000Y474000D02*
D03*
X239000Y565000D02*
D03*
Y587000D02*
D03*
X210000Y450000D02*
D03*
X215000Y50000D02*
D03*
X210000Y430000D02*
D03*
X214000Y567000D02*
D03*
Y587000D02*
D03*
X170000Y98000D02*
D03*
X130000Y385000D02*
D03*
X172000Y420000D02*
D03*
Y401000D02*
D03*
X255000Y581000D02*
D03*
X118000Y586000D02*
D03*
X246185Y574293D02*
D03*
X260000Y413000D02*
D03*
X265000Y451000D02*
D03*
Y596000D02*
D03*
X205000D02*
D03*
X84000Y586000D02*
D03*
X26000Y606000D02*
D03*
M02*
