G04*
G04 #@! TF.GenerationSoftware,Altium Limited,Altium Designer,20.0.11 (256)*
G04*
G04 Layer_Physical_Order=2*
G04 Layer_Color=16711680*
%FSLAX44Y44*%
%MOMM*%
G71*
G01*
G75*
%ADD11C,0.2500*%
%ADD13C,0.3000*%
%ADD14C,1.0000*%
%ADD33C,0.5000*%
%ADD37C,3.0480*%
%ADD38C,3.0000*%
%ADD39R,1.5300X1.5300*%
%ADD40C,1.5300*%
%ADD41R,1.8000X1.8000*%
%ADD42C,1.8000*%
%ADD43R,1.8000X1.8000*%
%ADD44C,0.5000*%
G36*
X300000Y0D02*
X176003D01*
X175618Y1270D01*
X176344Y1756D01*
X184269Y9681D01*
X185228Y9283D01*
X188100Y8905D01*
X190972Y9283D01*
X193647Y10391D01*
X195945Y12155D01*
X197708Y14453D01*
X198817Y17128D01*
X199195Y20000D01*
X198817Y22872D01*
X197708Y25547D01*
X195945Y27845D01*
X193647Y29609D01*
X190972Y30717D01*
X188100Y31095D01*
X185228Y30717D01*
X182553Y29609D01*
X180255Y27845D01*
X178491Y25547D01*
X177383Y22872D01*
X177005Y20000D01*
X177383Y17128D01*
X177780Y16169D01*
X171360Y9749D01*
X170521Y9855D01*
X170113Y11142D01*
X170930Y11770D01*
X172780Y14180D01*
X173943Y16988D01*
X174172Y18730D01*
X151228D01*
X151457Y16988D01*
X152620Y14180D01*
X154470Y11770D01*
X155657Y10858D01*
X155226Y9588D01*
X143887D01*
X143455Y10858D01*
X145145Y12155D01*
X146909Y14453D01*
X148017Y17128D01*
X148395Y20000D01*
X148017Y22872D01*
X146909Y25547D01*
X145145Y27845D01*
X142847Y29609D01*
X140172Y30717D01*
X137300Y31095D01*
X134428Y30717D01*
X131753Y29609D01*
X129455Y27845D01*
X127691Y25547D01*
X126583Y22872D01*
X126205Y20000D01*
X126583Y17128D01*
X127691Y14453D01*
X129455Y12155D01*
X131145Y10858D01*
X130713Y9588D01*
X119374D01*
X118943Y10858D01*
X120130Y11770D01*
X121980Y14180D01*
X123143Y16988D01*
X123372Y18730D01*
X100428D01*
X100657Y16988D01*
X101820Y14180D01*
X103670Y11770D01*
X104857Y10858D01*
X104426Y9588D01*
X93087D01*
X92655Y10858D01*
X94345Y12155D01*
X96109Y14453D01*
X97217Y17128D01*
X97595Y20000D01*
X97217Y22872D01*
X96109Y25547D01*
X94345Y27845D01*
X92048Y29609D01*
X90069Y30428D01*
Y37022D01*
X142023Y88977D01*
X142749Y90063D01*
X147373Y94686D01*
X166859D01*
X168244Y93761D01*
X170000Y93412D01*
X171756Y93761D01*
X173244Y94756D01*
X174239Y96244D01*
X174588Y98000D01*
X174239Y99756D01*
X173244Y101244D01*
X171756Y102239D01*
X170000Y102588D01*
X168244Y102239D01*
X166859Y101314D01*
X146000D01*
X144732Y101061D01*
X143657Y100343D01*
X138063Y94749D01*
X136977Y94023D01*
X83977Y41023D01*
X83203Y39866D01*
X82931Y38500D01*
Y30428D01*
X80953Y29609D01*
X78655Y27845D01*
X76891Y25547D01*
X75783Y22872D01*
X75405Y20000D01*
X75783Y17128D01*
X76891Y14453D01*
X78655Y12155D01*
X80344Y10858D01*
X79913Y9588D01*
X68574D01*
X68143Y10858D01*
X69330Y11770D01*
X71180Y14180D01*
X72343Y16988D01*
X72572Y18730D01*
X49628D01*
X49857Y16988D01*
X50253Y16032D01*
X49176Y15312D01*
X12588Y51901D01*
Y319139D01*
X13730Y319993D01*
Y325000D01*
Y330349D01*
X13110Y330823D01*
X13044Y331956D01*
X86439Y405350D01*
X99250D01*
Y424650D01*
X94188D01*
Y436455D01*
X94467Y436571D01*
X96482Y438117D01*
X98029Y440133D01*
X99002Y442481D01*
X99333Y445000D01*
X99002Y447519D01*
X98029Y449867D01*
X96482Y451883D01*
X94467Y453429D01*
X94188Y453545D01*
Y466455D01*
X94467Y466571D01*
X96482Y468118D01*
X98029Y470133D01*
X99002Y472481D01*
X99333Y475000D01*
X99002Y477519D01*
X98029Y479867D01*
X96482Y481883D01*
X94467Y483429D01*
X92119Y484402D01*
X89600Y484733D01*
X87081Y484402D01*
X84733Y483429D01*
X82718Y481883D01*
X81171Y479867D01*
X80198Y477519D01*
X79867Y475000D01*
X80198Y472481D01*
X81171Y470133D01*
X82718Y468118D01*
X84733Y466571D01*
X85012Y466455D01*
Y453545D01*
X84733Y453429D01*
X82718Y451883D01*
X81171Y449867D01*
X80198Y447519D01*
X79867Y445000D01*
X80198Y442481D01*
X81171Y440133D01*
X82718Y438117D01*
X84733Y436571D01*
X85012Y436455D01*
Y424650D01*
X79950D01*
Y411839D01*
X4756Y336644D01*
X3761Y335156D01*
X3412Y333400D01*
Y50000D01*
X3761Y48244D01*
X4756Y46756D01*
X49756Y1756D01*
X50483Y1270D01*
X50097Y0D01*
X0D01*
Y650000D01*
X300000D01*
Y0D01*
D02*
G37*
%LPC*%
G36*
X51270Y647886D02*
Y644270D01*
X54886D01*
X54748Y644967D01*
X53634Y646634D01*
X51967Y647748D01*
X51270Y647886D01*
D02*
G37*
G36*
X48730D02*
X48033Y647748D01*
X46366Y646634D01*
X45252Y644967D01*
X45114Y644270D01*
X48730D01*
Y647886D01*
D02*
G37*
G36*
X248000Y647314D02*
X202100D01*
X200832Y647061D01*
X199757Y646343D01*
X193205Y639792D01*
X190972Y640717D01*
X188100Y641095D01*
X185228Y640717D01*
X182553Y639608D01*
X180255Y637845D01*
X178491Y635547D01*
X177383Y632872D01*
X177005Y630000D01*
X177383Y627128D01*
X178491Y624453D01*
X180255Y622155D01*
X182553Y620392D01*
X185228Y619283D01*
X188100Y618905D01*
X190972Y619283D01*
X193647Y620392D01*
X195945Y622155D01*
X197708Y624453D01*
X198817Y627128D01*
X199195Y630000D01*
X198817Y632872D01*
X197892Y635105D01*
X203473Y640686D01*
X207442D01*
X207702Y639416D01*
X205655Y637845D01*
X203892Y635547D01*
X202783Y632872D01*
X202405Y630000D01*
X202783Y627128D01*
X203892Y624453D01*
X205655Y622155D01*
X207952Y620392D01*
X210186Y619466D01*
Y598624D01*
X208916Y598239D01*
X208244Y599244D01*
X206756Y600239D01*
X205000Y600588D01*
X203244Y600239D01*
X201859Y599314D01*
X198073D01*
X172492Y624895D01*
X173417Y627128D01*
X173795Y630000D01*
X173417Y632872D01*
X172309Y635547D01*
X170545Y637845D01*
X168248Y639608D01*
X165572Y640717D01*
X162700Y641095D01*
X159828Y640717D01*
X157153Y639608D01*
X154855Y637845D01*
X153091Y635547D01*
X151983Y632872D01*
X151605Y630000D01*
X151983Y627128D01*
X153091Y624453D01*
X154855Y622155D01*
X157153Y620392D01*
X159828Y619283D01*
X162700Y618905D01*
X165572Y619283D01*
X167805Y620208D01*
X194357Y593657D01*
X195432Y592939D01*
X196700Y592686D01*
X201859D01*
X203244Y591761D01*
X205000Y591412D01*
X206756Y591761D01*
X208244Y592756D01*
X208916Y593761D01*
X210186Y593376D01*
Y589392D01*
X209761Y588756D01*
X209412Y587000D01*
X209694Y585584D01*
X208972Y584314D01*
X124373D01*
X122564Y586122D01*
X122239Y587756D01*
X121244Y589244D01*
X119756Y590239D01*
X118000Y590588D01*
X116244Y590239D01*
X114756Y589244D01*
X113761Y587756D01*
X113412Y586000D01*
X113761Y584244D01*
X114756Y582756D01*
X116244Y581761D01*
X117878Y581436D01*
X120437Y578877D01*
X120227Y578021D01*
X119947Y577607D01*
X97079D01*
X88564Y586122D01*
X88239Y587756D01*
X87314Y589141D01*
Y619012D01*
X89372Y619283D01*
X92048Y620392D01*
X94345Y622155D01*
X96109Y624453D01*
X97217Y627128D01*
X97595Y630000D01*
X97217Y632872D01*
X96109Y635547D01*
X94345Y637845D01*
X92048Y639608D01*
X89372Y640717D01*
X86500Y641095D01*
X83628Y640717D01*
X80953Y639608D01*
X78655Y637845D01*
X76891Y635547D01*
X75783Y632872D01*
X75405Y630000D01*
X75783Y627128D01*
X76891Y624453D01*
X78655Y622155D01*
X80686Y620596D01*
Y589141D01*
X79761Y587756D01*
X79412Y586000D01*
X79761Y584244D01*
X80756Y582756D01*
X82244Y581761D01*
X83878Y581436D01*
X93364Y571950D01*
X94439Y571232D01*
X95707Y570980D01*
X209744D01*
X210398Y569710D01*
X209761Y568756D01*
X209436Y567122D01*
X207657Y565343D01*
X206939Y564268D01*
X206686Y563000D01*
Y497989D01*
X205416Y497864D01*
X205239Y498756D01*
X204244Y500244D01*
X202756Y501239D01*
X201000Y501588D01*
X199244Y501239D01*
X197859Y500314D01*
X188000D01*
X186732Y500061D01*
X185657Y499343D01*
X130508Y444194D01*
X129305Y444788D01*
X129333Y445000D01*
X129002Y447519D01*
X128029Y449867D01*
X126482Y451883D01*
X124467Y453429D01*
X122119Y454402D01*
X119600Y454733D01*
X117081Y454402D01*
X114733Y453429D01*
X112718Y451883D01*
X111171Y449867D01*
X110198Y447519D01*
X109867Y445000D01*
X110198Y442481D01*
X111171Y440133D01*
X112718Y438117D01*
X114733Y436571D01*
X117081Y435598D01*
X119600Y435267D01*
X122119Y435598D01*
X124467Y436571D01*
X126482Y438117D01*
X127416Y439335D01*
X128686Y438904D01*
Y421096D01*
X127416Y420665D01*
X126482Y421883D01*
X124467Y423429D01*
X122119Y424402D01*
X119600Y424733D01*
X117081Y424402D01*
X114733Y423429D01*
X112718Y421883D01*
X111171Y419867D01*
X110198Y417519D01*
X109867Y415000D01*
X110198Y412481D01*
X111171Y410133D01*
X112718Y408117D01*
X114733Y406571D01*
X117081Y405598D01*
X119600Y405267D01*
X122119Y405598D01*
X124467Y406571D01*
X126482Y408117D01*
X127416Y409335D01*
X128686Y408904D01*
Y389327D01*
X128244Y389239D01*
X126756Y388244D01*
X125761Y386756D01*
X125412Y385000D01*
X125761Y383244D01*
X126756Y381756D01*
X128244Y380761D01*
X130000Y380412D01*
X131756Y380761D01*
X133244Y381756D01*
X134239Y383244D01*
X134588Y385000D01*
X134481Y385540D01*
X135061Y386408D01*
X135314Y387677D01*
Y439627D01*
X189373Y493686D01*
X197686D01*
Y449000D01*
X197939Y447732D01*
X198657Y446657D01*
X209525Y435789D01*
X209107Y434411D01*
X208244Y434239D01*
X206756Y433244D01*
X205761Y431756D01*
X205412Y430000D01*
X205761Y428244D01*
X206686Y426860D01*
Y385678D01*
X205416Y384857D01*
X205270Y384886D01*
Y380000D01*
Y375114D01*
X205416Y375143D01*
X206686Y374322D01*
Y55000D01*
X206939Y53732D01*
X207657Y52657D01*
X210436Y49878D01*
X210761Y48244D01*
X211756Y46756D01*
X213244Y45761D01*
X215000Y45412D01*
X216756Y45761D01*
X218244Y46756D01*
X219239Y48244D01*
X219588Y50000D01*
X219239Y51756D01*
X218244Y53244D01*
X216756Y54239D01*
X215122Y54564D01*
X213314Y56372D01*
Y322874D01*
X214584Y323553D01*
X215033Y323252D01*
X215730Y323114D01*
Y328000D01*
Y332886D01*
X215033Y332748D01*
X214584Y332447D01*
X213314Y333126D01*
Y426860D01*
X214239Y428244D01*
X214411Y429107D01*
X215789Y429525D01*
X234657Y410657D01*
X235732Y409939D01*
X237000Y409686D01*
X256859D01*
X258244Y408761D01*
X260000Y408412D01*
X261756Y408761D01*
X263244Y409756D01*
X264239Y411244D01*
X264588Y413000D01*
X264239Y414756D01*
X263244Y416244D01*
X261756Y417239D01*
X260000Y417588D01*
X258244Y417239D01*
X256859Y416314D01*
X238373D01*
X210475Y444211D01*
X210893Y445589D01*
X211756Y445761D01*
X213244Y446756D01*
X214239Y448244D01*
X214588Y450000D01*
X214239Y451756D01*
X213314Y453140D01*
Y561628D01*
X214122Y562436D01*
X215756Y562761D01*
X217244Y563756D01*
X218239Y565244D01*
X218588Y567000D01*
X218239Y568756D01*
X217602Y569710D01*
X218256Y570980D01*
X243044D01*
X244429Y570054D01*
X246185Y569705D01*
X247941Y570054D01*
X249429Y571049D01*
X250424Y572537D01*
X250773Y574293D01*
X250424Y576049D01*
X250305Y576227D01*
X250853Y577377D01*
X252025Y577575D01*
X253244Y576761D01*
X255000Y576412D01*
X256756Y576761D01*
X258244Y577756D01*
X259239Y579244D01*
X259588Y581000D01*
X259239Y582756D01*
X258244Y584244D01*
X256756Y585239D01*
X255000Y585588D01*
X253244Y585239D01*
X251859Y584314D01*
X244028D01*
X243306Y585584D01*
X243588Y587000D01*
X243239Y588756D01*
X242244Y590244D01*
X242214Y590265D01*
Y619000D01*
X249900D01*
X250686Y618056D01*
Y607000D01*
X250939Y605732D01*
X251657Y604657D01*
X260436Y595878D01*
X260761Y594244D01*
X261756Y592756D01*
X263244Y591761D01*
X265000Y591412D01*
X266756Y591761D01*
X268244Y592756D01*
X269239Y594244D01*
X269588Y596000D01*
X269239Y597756D01*
X268244Y599244D01*
X266756Y600239D01*
X265122Y600564D01*
X257314Y608372D01*
Y638000D01*
X257061Y639268D01*
X256343Y640343D01*
X250343Y646343D01*
X249268Y647061D01*
X249058Y647103D01*
X248000Y647314D01*
D02*
G37*
G36*
X48730Y641730D02*
X45114D01*
X45252Y641033D01*
X46366Y639366D01*
X48033Y638252D01*
X48730Y638114D01*
Y641730D01*
D02*
G37*
G36*
X137300Y641095D02*
X134428Y640717D01*
X131753Y639608D01*
X129455Y637845D01*
X127691Y635547D01*
X126583Y632872D01*
X126205Y630000D01*
X126583Y627128D01*
X127691Y624453D01*
X129455Y622155D01*
X131753Y620392D01*
X134428Y619283D01*
X137300Y618905D01*
X140172Y619283D01*
X142847Y620392D01*
X145145Y622155D01*
X146909Y624453D01*
X148017Y627128D01*
X148395Y630000D01*
X148017Y632872D01*
X146909Y635547D01*
X145145Y637845D01*
X142847Y639608D01*
X140172Y640717D01*
X137300Y641095D01*
D02*
G37*
G36*
X111900D02*
X109028Y640717D01*
X106353Y639608D01*
X104055Y637845D01*
X102291Y635547D01*
X101183Y632872D01*
X100805Y630000D01*
X101183Y627128D01*
X102291Y624453D01*
X104055Y622155D01*
X106353Y620392D01*
X109028Y619283D01*
X111900Y618905D01*
X114772Y619283D01*
X117448Y620392D01*
X119745Y622155D01*
X121509Y624453D01*
X122617Y627128D01*
X122995Y630000D01*
X122617Y632872D01*
X121509Y635547D01*
X119745Y637845D01*
X117448Y639608D01*
X114772Y640717D01*
X111900Y641095D01*
D02*
G37*
G36*
X54886Y641730D02*
X51270D01*
Y638114D01*
X51967Y638252D01*
X52846Y637313D01*
X51491Y635547D01*
X50489Y633128D01*
X49815D01*
X48546Y632876D01*
X47471Y632158D01*
X25878Y610564D01*
X24244Y610239D01*
X22756Y609244D01*
X21761Y607756D01*
X21412Y606000D01*
X21761Y604244D01*
X22756Y602756D01*
X24244Y601761D01*
X26000Y601412D01*
X27756Y601761D01*
X29244Y602756D01*
X30239Y604244D01*
X30564Y605878D01*
X49994Y625308D01*
X51240Y625060D01*
X51491Y624453D01*
X53255Y622155D01*
X55553Y620392D01*
X58228Y619283D01*
X61100Y618905D01*
X63972Y619283D01*
X66648Y620392D01*
X68945Y622155D01*
X70708Y624453D01*
X71817Y627128D01*
X72195Y630000D01*
X71817Y632872D01*
X70708Y635547D01*
X68945Y637845D01*
X66648Y639608D01*
X63972Y640717D01*
X61100Y641095D01*
X58228Y640717D01*
X55553Y639608D01*
X55081Y639247D01*
X54142Y640127D01*
X54748Y641033D01*
X54886Y641730D01*
D02*
G37*
G36*
X144270Y541886D02*
Y538270D01*
X147886D01*
X147748Y538966D01*
X146634Y540634D01*
X144966Y541748D01*
X144270Y541886D01*
D02*
G37*
G36*
X141730D02*
X141033Y541748D01*
X139366Y540634D01*
X138252Y538966D01*
X138114Y538270D01*
X141730D01*
Y541886D01*
D02*
G37*
G36*
X40000Y567323D02*
X36620Y566991D01*
X33371Y566005D01*
X30376Y564404D01*
X27750Y562249D01*
X25596Y559624D01*
X23995Y556629D01*
X23010Y553380D01*
X22677Y550000D01*
X23010Y546620D01*
X23995Y543371D01*
X25596Y540376D01*
X27750Y537751D01*
X30376Y535596D01*
X33371Y533995D01*
X36620Y533009D01*
X40000Y532677D01*
X43380Y533009D01*
X46629Y533995D01*
X49624Y535596D01*
X52249Y537751D01*
X54404Y540376D01*
X56005Y543371D01*
X56990Y546620D01*
X57323Y550000D01*
X56990Y553380D01*
X56005Y556629D01*
X54404Y559624D01*
X52249Y562249D01*
X49624Y564404D01*
X46629Y566005D01*
X43380Y566991D01*
X40000Y567323D01*
D02*
G37*
G36*
X147886Y535730D02*
X144270D01*
Y532114D01*
X144966Y532252D01*
X146634Y533366D01*
X147748Y535033D01*
X147886Y535730D01*
D02*
G37*
G36*
X141730D02*
X138114D01*
X138252Y535033D01*
X139366Y533366D01*
X141033Y532252D01*
X141730Y532114D01*
Y535730D01*
D02*
G37*
G36*
X118000Y535060D02*
X116173Y534820D01*
X114470Y534114D01*
X113007Y532992D01*
X111885Y531530D01*
X111180Y529827D01*
X110940Y528000D01*
X111180Y526173D01*
X111885Y524470D01*
X113007Y523008D01*
X114470Y521885D01*
X116173Y521180D01*
X118000Y520940D01*
X119827Y521180D01*
X121530Y521885D01*
X122992Y523008D01*
X124114Y524470D01*
X124820Y526173D01*
X125060Y528000D01*
X124820Y529827D01*
X124114Y531530D01*
X122992Y532992D01*
X121530Y534114D01*
X119827Y534820D01*
X118000Y535060D01*
D02*
G37*
G36*
X175270Y511886D02*
Y508270D01*
X178886D01*
X178748Y508966D01*
X177634Y510634D01*
X175966Y511748D01*
X175270Y511886D01*
D02*
G37*
G36*
X172730D02*
X172034Y511748D01*
X170366Y510634D01*
X169252Y508966D01*
X169114Y508270D01*
X172730D01*
Y511886D01*
D02*
G37*
G36*
X239000Y569588D02*
X237244Y569239D01*
X235756Y568244D01*
X234761Y566756D01*
X234412Y565000D01*
X234761Y563244D01*
X235686Y561860D01*
Y499000D01*
X235939Y497732D01*
X236657Y496657D01*
X270686Y462627D01*
Y451989D01*
X269416Y451864D01*
X269239Y452756D01*
X268244Y454244D01*
X266756Y455239D01*
X265122Y455564D01*
X244343Y476343D01*
X243268Y477061D01*
X242000Y477314D01*
X237141D01*
X235756Y478239D01*
X234000Y478588D01*
X232244Y478239D01*
X230756Y477244D01*
X229761Y475756D01*
X229412Y474000D01*
X229761Y472244D01*
X230756Y470756D01*
X232244Y469761D01*
X234000Y469412D01*
X235756Y469761D01*
X237141Y470686D01*
X240627D01*
X260436Y450878D01*
X260761Y449244D01*
X261756Y447756D01*
X263244Y446761D01*
X265000Y446412D01*
X266756Y446761D01*
X268244Y447756D01*
X269239Y449244D01*
X269416Y450136D01*
X270686Y450011D01*
Y376373D01*
X223248Y328934D01*
X221870Y329352D01*
X221748Y329967D01*
X220634Y331634D01*
X218967Y332748D01*
X218270Y332886D01*
Y328000D01*
Y323114D01*
X218967Y323252D01*
X220416Y324221D01*
X221686Y323830D01*
Y178141D01*
X220761Y176756D01*
X220412Y175000D01*
X220761Y173244D01*
X221756Y171756D01*
X223244Y170761D01*
X225000Y170412D01*
X226756Y170761D01*
X228244Y171756D01*
X229239Y173244D01*
X229588Y175000D01*
X229239Y176756D01*
X228314Y178141D01*
Y324627D01*
X276343Y372657D01*
X277061Y373732D01*
X277314Y375000D01*
Y464000D01*
X277061Y465268D01*
X276343Y466343D01*
X242314Y500373D01*
Y514539D01*
X243584Y514727D01*
X243995Y513371D01*
X245596Y510376D01*
X247750Y507751D01*
X250376Y505596D01*
X253371Y503995D01*
X256620Y503009D01*
X260000Y502677D01*
X263380Y503009D01*
X266629Y503995D01*
X269624Y505596D01*
X272250Y507751D01*
X274404Y510376D01*
X276005Y513371D01*
X276991Y516620D01*
X277323Y520000D01*
X276991Y523380D01*
X276005Y526629D01*
X274404Y529624D01*
X272250Y532249D01*
X269624Y534404D01*
X266629Y536005D01*
X263380Y536991D01*
X260000Y537323D01*
X256620Y536991D01*
X253371Y536005D01*
X250376Y534404D01*
X247750Y532249D01*
X245596Y529624D01*
X243995Y526629D01*
X243584Y525273D01*
X242314Y525461D01*
Y561860D01*
X243239Y563244D01*
X243588Y565000D01*
X243239Y566756D01*
X242244Y568244D01*
X240756Y569239D01*
X239000Y569588D01*
D02*
G37*
G36*
X178886Y505730D02*
X175270D01*
Y502114D01*
X175966Y502252D01*
X177634Y503366D01*
X178748Y505033D01*
X178886Y505730D01*
D02*
G37*
G36*
X172730D02*
X169114D01*
X169252Y505033D01*
X170366Y503366D01*
X172034Y502252D01*
X172730Y502114D01*
Y505730D01*
D02*
G37*
G36*
X144270Y486886D02*
Y483270D01*
X147886D01*
X147748Y483966D01*
X146634Y485634D01*
X144966Y486748D01*
X144270Y486886D01*
D02*
G37*
G36*
X141730D02*
X141033Y486748D01*
X139366Y485634D01*
X138252Y483966D01*
X138114Y483270D01*
X141730D01*
Y486886D01*
D02*
G37*
G36*
X147886Y480730D02*
X144270D01*
Y477114D01*
X144966Y477252D01*
X146634Y478366D01*
X147748Y480033D01*
X147886Y480730D01*
D02*
G37*
G36*
X141730D02*
X138114D01*
X138252Y480033D01*
X139366Y478366D01*
X141033Y477252D01*
X141730Y477114D01*
Y480730D01*
D02*
G37*
G36*
X280270Y478886D02*
Y475270D01*
X283886D01*
X283748Y475966D01*
X282634Y477634D01*
X280966Y478748D01*
X280270Y478886D01*
D02*
G37*
G36*
X277730D02*
X277034Y478748D01*
X275366Y477634D01*
X274252Y475966D01*
X274114Y475270D01*
X277730D01*
Y478886D01*
D02*
G37*
G36*
X283886Y472730D02*
X280270D01*
Y469114D01*
X280966Y469252D01*
X282634Y470366D01*
X283748Y472034D01*
X283886Y472730D01*
D02*
G37*
G36*
X277730D02*
X274114D01*
X274252Y472034D01*
X275366Y470366D01*
X277034Y469252D01*
X277730Y469114D01*
Y472730D01*
D02*
G37*
G36*
X119600Y484733D02*
X117081Y484402D01*
X114733Y483429D01*
X112718Y481883D01*
X111171Y479867D01*
X110198Y477519D01*
X109867Y475000D01*
X110198Y472481D01*
X111171Y470133D01*
X112718Y468118D01*
X114733Y466571D01*
X117081Y465598D01*
X119600Y465267D01*
X122119Y465598D01*
X124467Y466571D01*
X126482Y468118D01*
X128029Y470133D01*
X129002Y472481D01*
X129333Y475000D01*
X129002Y477519D01*
X128029Y479867D01*
X126482Y481883D01*
X124467Y483429D01*
X122119Y484402D01*
X119600Y484733D01*
D02*
G37*
G36*
X184270Y447886D02*
Y444270D01*
X187886D01*
X187748Y444967D01*
X186634Y446634D01*
X184967Y447748D01*
X184270Y447886D01*
D02*
G37*
G36*
X181730D02*
X181033Y447748D01*
X179366Y446634D01*
X178252Y444967D01*
X178114Y444270D01*
X181730D01*
Y447886D01*
D02*
G37*
G36*
X187886Y441730D02*
X184270D01*
Y438114D01*
X184967Y438252D01*
X186634Y439366D01*
X187748Y441034D01*
X187886Y441730D01*
D02*
G37*
G36*
X181730D02*
X178114D01*
X178252Y441034D01*
X179366Y439366D01*
X181033Y438252D01*
X181730Y438114D01*
Y441730D01*
D02*
G37*
G36*
X46400Y462082D02*
X43067Y461754D01*
X39863Y460782D01*
X36910Y459203D01*
X34321Y457079D01*
X32197Y454490D01*
X30618Y451537D01*
X29646Y448333D01*
X29318Y445000D01*
X29646Y441667D01*
X30618Y438463D01*
X32197Y435510D01*
X34321Y432921D01*
X36910Y430797D01*
X39863Y429218D01*
X43067Y428246D01*
X46400Y427918D01*
X49733Y428246D01*
X52937Y429218D01*
X55890Y430797D01*
X58479Y432921D01*
X60603Y435510D01*
X62182Y438463D01*
X63154Y441667D01*
X63482Y445000D01*
X63154Y448333D01*
X62182Y451537D01*
X60603Y454490D01*
X58479Y457079D01*
X55890Y459203D01*
X52937Y460782D01*
X49733Y461754D01*
X46400Y462082D01*
D02*
G37*
G36*
X144270Y427886D02*
Y424270D01*
X147886D01*
X147748Y424967D01*
X146634Y426634D01*
X144966Y427748D01*
X144270Y427886D01*
D02*
G37*
G36*
X141730D02*
X141033Y427748D01*
X139366Y426634D01*
X138252Y424967D01*
X138114Y424270D01*
X141730D01*
Y427886D01*
D02*
G37*
G36*
X147886Y421730D02*
X144270D01*
Y418114D01*
X144966Y418252D01*
X146634Y419366D01*
X147748Y421034D01*
X147886Y421730D01*
D02*
G37*
G36*
X141730D02*
X138114D01*
X138252Y421034D01*
X139366Y419366D01*
X141033Y418252D01*
X141730Y418114D01*
Y421730D01*
D02*
G37*
G36*
X172000Y424588D02*
X170244Y424239D01*
X168756Y423244D01*
X167761Y421756D01*
X167412Y420000D01*
X167761Y418244D01*
X168686Y416860D01*
Y404141D01*
X167761Y402756D01*
X167412Y401000D01*
X167761Y399244D01*
X168756Y397756D01*
X170244Y396761D01*
X172000Y396412D01*
X173756Y396761D01*
X175244Y397756D01*
X176239Y399244D01*
X176588Y401000D01*
X176239Y402756D01*
X175314Y404141D01*
Y416860D01*
X176239Y418244D01*
X176588Y420000D01*
X176239Y421756D01*
X175244Y423244D01*
X173756Y424239D01*
X172000Y424588D01*
D02*
G37*
G36*
X8270Y389886D02*
Y386270D01*
X11886D01*
X11748Y386967D01*
X10634Y388634D01*
X8967Y389748D01*
X8270Y389886D01*
D02*
G37*
G36*
X5730D02*
X5034Y389748D01*
X3366Y388634D01*
X2252Y386967D01*
X2114Y386270D01*
X5730D01*
Y389886D01*
D02*
G37*
G36*
X182270Y386886D02*
Y383270D01*
X185886D01*
X185748Y383966D01*
X184634Y385634D01*
X182966Y386748D01*
X182270Y386886D01*
D02*
G37*
G36*
X179730D02*
X179034Y386748D01*
X177366Y385634D01*
X176252Y383966D01*
X176114Y383270D01*
X179730D01*
Y386886D01*
D02*
G37*
G36*
X202730Y384886D02*
X202034Y384748D01*
X200366Y383634D01*
X199252Y381967D01*
X199114Y381270D01*
X202730D01*
Y384886D01*
D02*
G37*
G36*
X11886Y383730D02*
X8270D01*
Y380114D01*
X8967Y380252D01*
X10634Y381366D01*
X11748Y383033D01*
X11886Y383730D01*
D02*
G37*
G36*
X5730D02*
X2114D01*
X2252Y383033D01*
X3366Y381366D01*
X5034Y380252D01*
X5730Y380114D01*
Y383730D01*
D02*
G37*
G36*
X185886Y380730D02*
X182270D01*
Y377114D01*
X182966Y377252D01*
X184634Y378366D01*
X185748Y380033D01*
X185886Y380730D01*
D02*
G37*
G36*
X179730D02*
X176114D01*
X176252Y380033D01*
X177366Y378366D01*
X179034Y377252D01*
X179730Y377114D01*
Y380730D01*
D02*
G37*
G36*
X202730Y378730D02*
X199114D01*
X199252Y378033D01*
X200366Y376366D01*
X202034Y375252D01*
X202730Y375114D01*
Y378730D01*
D02*
G37*
G36*
X270270Y340886D02*
Y337270D01*
X273886D01*
X273748Y337966D01*
X272634Y339634D01*
X270966Y340748D01*
X270270Y340886D01*
D02*
G37*
G36*
X267730D02*
X267034Y340748D01*
X265366Y339634D01*
X264252Y337966D01*
X264114Y337270D01*
X267730D01*
Y340886D01*
D02*
G37*
G36*
X253270D02*
Y337270D01*
X256886D01*
X256748Y337966D01*
X255634Y339634D01*
X253967Y340748D01*
X253270Y340886D01*
D02*
G37*
G36*
X250730D02*
X250033Y340748D01*
X248366Y339634D01*
X247252Y337966D01*
X247114Y337270D01*
X250730D01*
Y340886D01*
D02*
G37*
G36*
X273886Y334730D02*
X270270D01*
Y331114D01*
X270966Y331252D01*
X272634Y332366D01*
X273748Y334034D01*
X273886Y334730D01*
D02*
G37*
G36*
X267730D02*
X264114D01*
X264252Y334034D01*
X265366Y332366D01*
X267034Y331252D01*
X267730Y331114D01*
Y334730D01*
D02*
G37*
G36*
X256886D02*
X253270D01*
Y331114D01*
X253967Y331252D01*
X255634Y332366D01*
X256748Y334034D01*
X256886Y334730D01*
D02*
G37*
G36*
X250730D02*
X247114D01*
X247252Y334034D01*
X248366Y332366D01*
X250033Y331252D01*
X250730Y331114D01*
Y334730D01*
D02*
G37*
G36*
X16270Y329886D02*
Y326270D01*
X19886D01*
X19748Y326967D01*
X18634Y328634D01*
X16967Y329748D01*
X16270Y329886D01*
D02*
G37*
G36*
X19886Y323730D02*
X16270D01*
Y320114D01*
X16967Y320252D01*
X18634Y321366D01*
X19748Y323033D01*
X19886Y323730D01*
D02*
G37*
G36*
X236270Y310886D02*
Y307270D01*
X239886D01*
X239748Y307966D01*
X238634Y309634D01*
X236966Y310748D01*
X236270Y310886D01*
D02*
G37*
G36*
X233730D02*
X233034Y310748D01*
X231366Y309634D01*
X230252Y307966D01*
X230114Y307270D01*
X233730D01*
Y310886D01*
D02*
G37*
G36*
X239886Y304730D02*
X236270D01*
Y301114D01*
X236966Y301252D01*
X238634Y302366D01*
X239748Y304034D01*
X239886Y304730D01*
D02*
G37*
G36*
X233730D02*
X230114D01*
X230252Y304034D01*
X231366Y302366D01*
X233034Y301252D01*
X233730Y301114D01*
Y304730D01*
D02*
G37*
G36*
X90770Y306472D02*
Y296270D01*
X100972D01*
X100743Y298013D01*
X99580Y300820D01*
X97730Y303230D01*
X95320Y305080D01*
X92513Y306243D01*
X90770Y306472D01*
D02*
G37*
G36*
X88230Y306472D02*
X86488Y306243D01*
X83680Y305080D01*
X81270Y303230D01*
X79420Y300820D01*
X78257Y298013D01*
X78028Y296270D01*
X88230D01*
Y306472D01*
D02*
G37*
G36*
X146270Y288886D02*
Y285270D01*
X149886D01*
X149748Y285966D01*
X148634Y287634D01*
X146966Y288748D01*
X146270Y288886D01*
D02*
G37*
G36*
X143730D02*
X143034Y288748D01*
X141366Y287634D01*
X140252Y285966D01*
X140114Y285270D01*
X143730D01*
Y288886D01*
D02*
G37*
G36*
X119500Y306095D02*
X116628Y305717D01*
X113953Y304608D01*
X111655Y302845D01*
X109892Y300548D01*
X108783Y297872D01*
X108405Y295000D01*
X108783Y292129D01*
X109892Y289453D01*
X111655Y287155D01*
X113953Y285392D01*
X116628Y284283D01*
X119500Y283905D01*
X122372Y284283D01*
X125048Y285392D01*
X127345Y287155D01*
X129108Y289453D01*
X130217Y292129D01*
X130595Y295000D01*
X130217Y297872D01*
X129108Y300548D01*
X127345Y302845D01*
X125048Y304608D01*
X122372Y305717D01*
X119500Y306095D01*
D02*
G37*
G36*
X100972Y293730D02*
X90770D01*
Y283528D01*
X92513Y283757D01*
X95320Y284920D01*
X97730Y286770D01*
X99580Y289180D01*
X100743Y291987D01*
X100972Y293730D01*
D02*
G37*
G36*
X88230D02*
X78028D01*
X78257Y291987D01*
X79420Y289180D01*
X81270Y286770D01*
X83680Y284920D01*
X86488Y283757D01*
X88230Y283528D01*
Y293730D01*
D02*
G37*
G36*
X149886Y282730D02*
X146270D01*
Y279114D01*
X146966Y279252D01*
X148634Y280366D01*
X149748Y282034D01*
X149886Y282730D01*
D02*
G37*
G36*
X143730D02*
X140114D01*
X140252Y282034D01*
X141366Y280366D01*
X143034Y279252D01*
X143730Y279114D01*
Y282730D01*
D02*
G37*
G36*
X161270Y279886D02*
Y276270D01*
X164886D01*
X164748Y276966D01*
X163634Y278634D01*
X161966Y279748D01*
X161270Y279886D01*
D02*
G37*
G36*
X158730D02*
X158034Y279748D01*
X156366Y278634D01*
X155252Y276966D01*
X155114Y276270D01*
X158730D01*
Y279886D01*
D02*
G37*
G36*
X199270Y275886D02*
Y272270D01*
X202886D01*
X202748Y272966D01*
X201634Y274634D01*
X199967Y275748D01*
X199270Y275886D01*
D02*
G37*
G36*
X196730D02*
X196033Y275748D01*
X194366Y274634D01*
X193252Y272966D01*
X193114Y272270D01*
X196730D01*
Y275886D01*
D02*
G37*
G36*
X164886Y273730D02*
X161270D01*
Y270114D01*
X161966Y270252D01*
X163634Y271366D01*
X164748Y273034D01*
X164886Y273730D01*
D02*
G37*
G36*
X158730D02*
X155114D01*
X155252Y273034D01*
X156366Y271366D01*
X158034Y270252D01*
X158730Y270114D01*
Y273730D01*
D02*
G37*
G36*
X202886Y269730D02*
X199270D01*
Y266114D01*
X199967Y266252D01*
X201634Y267366D01*
X202748Y269034D01*
X202886Y269730D01*
D02*
G37*
G36*
X196730D02*
X193114D01*
X193252Y269034D01*
X194366Y267366D01*
X196033Y266252D01*
X196730Y266114D01*
Y269730D01*
D02*
G37*
G36*
X161270Y261886D02*
Y258270D01*
X164886D01*
X164748Y258967D01*
X163634Y260634D01*
X161966Y261748D01*
X161270Y261886D01*
D02*
G37*
G36*
X158730D02*
X158034Y261748D01*
X156366Y260634D01*
X155252Y258967D01*
X155114Y258270D01*
X158730D01*
Y261886D01*
D02*
G37*
G36*
X46500Y290582D02*
X43168Y290254D01*
X39963Y289282D01*
X37010Y287703D01*
X34421Y285579D01*
X32297Y282990D01*
X30718Y280037D01*
X29746Y276833D01*
X29418Y273500D01*
X29746Y270168D01*
X30718Y266963D01*
X32297Y264010D01*
X34421Y261421D01*
X37010Y259297D01*
X39963Y257718D01*
X43168Y256746D01*
X46500Y256418D01*
X49833Y256746D01*
X53037Y257718D01*
X55990Y259297D01*
X58579Y261421D01*
X60703Y264010D01*
X62282Y266963D01*
X63254Y270168D01*
X63582Y273500D01*
X63254Y276833D01*
X62282Y280037D01*
X60703Y282990D01*
X58579Y285579D01*
X55990Y287703D01*
X53037Y289282D01*
X49833Y290254D01*
X46500Y290582D01*
D02*
G37*
G36*
X119500Y276095D02*
X116628Y275717D01*
X113953Y274608D01*
X111655Y272845D01*
X109892Y270548D01*
X108783Y267872D01*
X108405Y265000D01*
X108783Y262129D01*
X109892Y259453D01*
X111655Y257155D01*
X113953Y255392D01*
X116628Y254283D01*
X119500Y253905D01*
X122372Y254283D01*
X125048Y255392D01*
X127345Y257155D01*
X129108Y259453D01*
X130217Y262129D01*
X130595Y265000D01*
X130217Y267872D01*
X129108Y270548D01*
X127345Y272845D01*
X125048Y274608D01*
X122372Y275717D01*
X119500Y276095D01*
D02*
G37*
G36*
X89500D02*
X86629Y275717D01*
X83953Y274608D01*
X81655Y272845D01*
X79892Y270548D01*
X78783Y267872D01*
X78405Y265000D01*
X78783Y262129D01*
X79892Y259453D01*
X81655Y257155D01*
X83953Y255392D01*
X86629Y254283D01*
X89500Y253905D01*
X92372Y254283D01*
X95048Y255392D01*
X97345Y257155D01*
X99108Y259453D01*
X100217Y262129D01*
X100595Y265000D01*
X100217Y267872D01*
X99108Y270548D01*
X97345Y272845D01*
X95048Y274608D01*
X92372Y275717D01*
X89500Y276095D01*
D02*
G37*
G36*
X164886Y255730D02*
X161270D01*
Y252114D01*
X161966Y252252D01*
X163634Y253366D01*
X164748Y255033D01*
X164886Y255730D01*
D02*
G37*
G36*
X158730D02*
X155114D01*
X155252Y255033D01*
X156366Y253366D01*
X158034Y252252D01*
X158730Y252114D01*
Y255730D01*
D02*
G37*
G36*
X90770Y246472D02*
Y236270D01*
X100972D01*
X100743Y238013D01*
X99580Y240820D01*
X97730Y243230D01*
X95320Y245080D01*
X92513Y246243D01*
X90770Y246472D01*
D02*
G37*
G36*
X88230Y246472D02*
X86488Y246243D01*
X83680Y245080D01*
X81270Y243230D01*
X79420Y240820D01*
X78257Y238013D01*
X78028Y236270D01*
X88230D01*
Y246472D01*
D02*
G37*
G36*
X119500Y246095D02*
X116628Y245717D01*
X113953Y244608D01*
X111655Y242845D01*
X109892Y240548D01*
X108783Y237872D01*
X108405Y235000D01*
X108783Y232129D01*
X109892Y229453D01*
X111655Y227155D01*
X113953Y225392D01*
X116628Y224283D01*
X119500Y223905D01*
X122372Y224283D01*
X125048Y225392D01*
X127345Y227155D01*
X129108Y229453D01*
X130217Y232129D01*
X130595Y235000D01*
X130217Y237872D01*
X129108Y240548D01*
X127345Y242845D01*
X125048Y244608D01*
X122372Y245717D01*
X119500Y246095D01*
D02*
G37*
G36*
X100972Y233730D02*
X90770D01*
Y223528D01*
X92513Y223757D01*
X95320Y224920D01*
X97730Y226770D01*
X99580Y229180D01*
X100743Y231987D01*
X100972Y233730D01*
D02*
G37*
G36*
X88230D02*
X78028D01*
X78257Y231987D01*
X79420Y229180D01*
X81270Y226770D01*
X83680Y224920D01*
X86488Y223757D01*
X88230Y223528D01*
Y233730D01*
D02*
G37*
G36*
X200270Y225886D02*
Y222270D01*
X203886D01*
X203748Y222966D01*
X202634Y224634D01*
X200966Y225748D01*
X200270Y225886D01*
D02*
G37*
G36*
X197730D02*
X197034Y225748D01*
X195366Y224634D01*
X194252Y222966D01*
X194114Y222270D01*
X197730D01*
Y225886D01*
D02*
G37*
G36*
X203886Y219730D02*
X200270D01*
Y216114D01*
X200966Y216252D01*
X202634Y217366D01*
X203748Y219034D01*
X203886Y219730D01*
D02*
G37*
G36*
X197730D02*
X194114D01*
X194252Y219034D01*
X195366Y217366D01*
X197034Y216252D01*
X197730Y216114D01*
Y219730D01*
D02*
G37*
G36*
X119500Y216095D02*
X116628Y215717D01*
X113953Y214608D01*
X111655Y212845D01*
X109892Y210548D01*
X108783Y207872D01*
X108405Y205000D01*
X108783Y202129D01*
X109892Y199453D01*
X111655Y197155D01*
X113953Y195392D01*
X116628Y194283D01*
X119500Y193905D01*
X122372Y194283D01*
X125048Y195392D01*
X127345Y197155D01*
X129108Y199453D01*
X130217Y202129D01*
X130595Y205000D01*
X130217Y207872D01*
X129108Y210548D01*
X127345Y212845D01*
X125048Y214608D01*
X122372Y215717D01*
X119500Y216095D01*
D02*
G37*
G36*
X89500D02*
X86629Y215717D01*
X83953Y214608D01*
X81655Y212845D01*
X79892Y210548D01*
X78783Y207872D01*
X78405Y205000D01*
X78783Y202129D01*
X79892Y199453D01*
X81655Y197155D01*
X83953Y195392D01*
X86629Y194283D01*
X89500Y193905D01*
X92372Y194283D01*
X95048Y195392D01*
X97345Y197155D01*
X99108Y199453D01*
X100217Y202129D01*
X100595Y205000D01*
X100217Y207872D01*
X99108Y210548D01*
X97345Y212845D01*
X95048Y214608D01*
X92372Y215717D01*
X89500Y216095D01*
D02*
G37*
G36*
X146270Y184886D02*
Y181270D01*
X149886D01*
X149748Y181966D01*
X148634Y183634D01*
X146966Y184748D01*
X146270Y184886D01*
D02*
G37*
G36*
X143730D02*
X143034Y184748D01*
X141366Y183634D01*
X140252Y181966D01*
X140114Y181270D01*
X143730D01*
Y184886D01*
D02*
G37*
G36*
X90770Y186472D02*
Y176270D01*
X100972D01*
X100743Y178013D01*
X99580Y180820D01*
X97730Y183230D01*
X95320Y185080D01*
X92513Y186243D01*
X90770Y186472D01*
D02*
G37*
G36*
X88230D02*
X86488Y186243D01*
X83680Y185080D01*
X81270Y183230D01*
X79420Y180820D01*
X78257Y178013D01*
X78028Y176270D01*
X88230D01*
Y186472D01*
D02*
G37*
G36*
X149886Y178730D02*
X146270D01*
Y175114D01*
X146966Y175252D01*
X148634Y176366D01*
X149748Y178034D01*
X149886Y178730D01*
D02*
G37*
G36*
X143730D02*
X140114D01*
X140252Y178034D01*
X141366Y176366D01*
X143034Y175252D01*
X143730Y175114D01*
Y178730D01*
D02*
G37*
G36*
X161270Y174886D02*
Y171270D01*
X164886D01*
X164748Y171966D01*
X163634Y173634D01*
X161966Y174748D01*
X161270Y174886D01*
D02*
G37*
G36*
X158730D02*
X158034Y174748D01*
X156366Y173634D01*
X155252Y171966D01*
X155114Y171270D01*
X158730D01*
Y174886D01*
D02*
G37*
G36*
X164886Y168730D02*
X161270D01*
Y165114D01*
X161966Y165252D01*
X163634Y166366D01*
X164748Y168034D01*
X164886Y168730D01*
D02*
G37*
G36*
X158730D02*
X155114D01*
X155252Y168034D01*
X156366Y166366D01*
X158034Y165252D01*
X158730Y165114D01*
Y168730D01*
D02*
G37*
G36*
X119500Y186095D02*
X116628Y185717D01*
X113953Y184608D01*
X111655Y182845D01*
X109892Y180548D01*
X108783Y177872D01*
X108405Y175000D01*
X108783Y172129D01*
X109892Y169453D01*
X111655Y167155D01*
X113953Y165392D01*
X116628Y164283D01*
X119500Y163905D01*
X122372Y164283D01*
X125048Y165392D01*
X127345Y167155D01*
X129108Y169453D01*
X130217Y172129D01*
X130595Y175000D01*
X130217Y177872D01*
X129108Y180548D01*
X127345Y182845D01*
X125048Y184608D01*
X122372Y185717D01*
X119500Y186095D01*
D02*
G37*
G36*
X100972Y173730D02*
X90770D01*
Y163528D01*
X92513Y163757D01*
X95320Y164920D01*
X97730Y166770D01*
X99580Y169180D01*
X100743Y171987D01*
X100972Y173730D01*
D02*
G37*
G36*
X88230D02*
X78028D01*
X78257Y171987D01*
X79420Y169180D01*
X81270Y166770D01*
X83680Y164920D01*
X86488Y163757D01*
X88230Y163528D01*
Y173730D01*
D02*
G37*
G36*
X161270Y157886D02*
Y154270D01*
X164886D01*
X164748Y154966D01*
X163634Y156634D01*
X161966Y157748D01*
X161270Y157886D01*
D02*
G37*
G36*
X158730D02*
X158034Y157748D01*
X156366Y156634D01*
X155252Y154966D01*
X155114Y154270D01*
X158730D01*
Y157886D01*
D02*
G37*
G36*
X46500Y183582D02*
X43168Y183254D01*
X39963Y182282D01*
X37010Y180703D01*
X34421Y178579D01*
X32297Y175990D01*
X30718Y173037D01*
X29746Y169833D01*
X29418Y166500D01*
X29746Y163167D01*
X30718Y159963D01*
X32297Y157010D01*
X34421Y154421D01*
X37010Y152297D01*
X39963Y150718D01*
X43168Y149746D01*
X46500Y149418D01*
X49833Y149746D01*
X53037Y150718D01*
X55990Y152297D01*
X58579Y154421D01*
X60703Y157010D01*
X62282Y159963D01*
X63254Y163167D01*
X63582Y166500D01*
X63254Y169833D01*
X62282Y173037D01*
X60703Y175990D01*
X58579Y178579D01*
X55990Y180703D01*
X53037Y182282D01*
X49833Y183254D01*
X46500Y183582D01*
D02*
G37*
G36*
X164886Y151730D02*
X161270D01*
Y148114D01*
X161966Y148252D01*
X163634Y149366D01*
X164748Y151033D01*
X164886Y151730D01*
D02*
G37*
G36*
X158730D02*
X155114D01*
X155252Y151033D01*
X156366Y149366D01*
X158034Y148252D01*
X158730Y148114D01*
Y151730D01*
D02*
G37*
G36*
X221270Y139886D02*
Y136270D01*
X224886D01*
X224748Y136966D01*
X223634Y138634D01*
X221966Y139748D01*
X221270Y139886D01*
D02*
G37*
G36*
X218730D02*
X218034Y139748D01*
X216366Y138634D01*
X215252Y136966D01*
X215114Y136270D01*
X218730D01*
Y139886D01*
D02*
G37*
G36*
X100500Y156000D02*
X78500D01*
Y134000D01*
X100500D01*
Y156000D01*
D02*
G37*
G36*
X119500Y156095D02*
X116628Y155717D01*
X113953Y154608D01*
X111655Y152845D01*
X109892Y150548D01*
X108783Y147872D01*
X108405Y145000D01*
X108783Y142128D01*
X109892Y139453D01*
X111655Y137155D01*
X113953Y135392D01*
X116628Y134283D01*
X119500Y133905D01*
X122372Y134283D01*
X125048Y135392D01*
X127345Y137155D01*
X129108Y139453D01*
X130217Y142128D01*
X130595Y145000D01*
X130217Y147872D01*
X129108Y150548D01*
X127345Y152845D01*
X125048Y154608D01*
X122372Y155717D01*
X119500Y156095D01*
D02*
G37*
G36*
X260000Y167323D02*
X256620Y166991D01*
X253371Y166005D01*
X250376Y164404D01*
X247750Y162250D01*
X245596Y159624D01*
X243995Y156629D01*
X243009Y153380D01*
X242677Y150000D01*
X243009Y146620D01*
X243995Y143371D01*
X245596Y140376D01*
X247750Y137751D01*
X250376Y135596D01*
X253371Y133995D01*
X256620Y133010D01*
X260000Y132677D01*
X263380Y133010D01*
X266629Y133995D01*
X269624Y135596D01*
X272250Y137751D01*
X274404Y140376D01*
X276005Y143371D01*
X276991Y146620D01*
X277323Y150000D01*
X276991Y153380D01*
X276005Y156629D01*
X274404Y159624D01*
X272250Y162250D01*
X269624Y164404D01*
X266629Y166005D01*
X263380Y166991D01*
X260000Y167323D01*
D02*
G37*
G36*
X224886Y133730D02*
X221270D01*
Y130114D01*
X221966Y130252D01*
X223634Y131366D01*
X224748Y133034D01*
X224886Y133730D01*
D02*
G37*
G36*
X218730D02*
X215114D01*
X215252Y133034D01*
X216366Y131366D01*
X218034Y130252D01*
X218730Y130114D01*
Y133730D01*
D02*
G37*
G36*
X227270Y112886D02*
Y109270D01*
X230886D01*
X230748Y109966D01*
X229634Y111634D01*
X227966Y112748D01*
X227270Y112886D01*
D02*
G37*
G36*
X224730D02*
X224034Y112748D01*
X222366Y111634D01*
X221252Y109966D01*
X221114Y109270D01*
X224730D01*
Y112886D01*
D02*
G37*
G36*
X230886Y106730D02*
X227270D01*
Y103114D01*
X227966Y103252D01*
X229634Y104366D01*
X230748Y106033D01*
X230886Y106730D01*
D02*
G37*
G36*
X224730D02*
X221114D01*
X221252Y106033D01*
X222366Y104366D01*
X224034Y103252D01*
X224730Y103114D01*
Y106730D01*
D02*
G37*
G36*
X146270Y79886D02*
Y76270D01*
X149886D01*
X149748Y76967D01*
X148634Y78634D01*
X146966Y79748D01*
X146270Y79886D01*
D02*
G37*
G36*
X143730D02*
X143034Y79748D01*
X141366Y78634D01*
X140252Y76967D01*
X140114Y76270D01*
X143730D01*
Y79886D01*
D02*
G37*
G36*
X149886Y73730D02*
X146270D01*
Y70114D01*
X146966Y70252D01*
X148634Y71366D01*
X149748Y73033D01*
X149886Y73730D01*
D02*
G37*
G36*
X143730D02*
X140114D01*
X140252Y73033D01*
X141366Y71366D01*
X143034Y70252D01*
X143730Y70114D01*
Y73730D01*
D02*
G37*
G36*
X161270Y70886D02*
Y67270D01*
X164886D01*
X164748Y67966D01*
X163634Y69634D01*
X161966Y70748D01*
X161270Y70886D01*
D02*
G37*
G36*
X158730D02*
X158034Y70748D01*
X156366Y69634D01*
X155252Y67966D01*
X155114Y67270D01*
X158730D01*
Y70886D01*
D02*
G37*
G36*
X89000Y80060D02*
X87173Y79820D01*
X85470Y79114D01*
X84008Y77993D01*
X82886Y76530D01*
X82180Y74827D01*
X81940Y73000D01*
X82180Y71173D01*
X82886Y69470D01*
X84008Y68008D01*
X85470Y66885D01*
X87173Y66180D01*
X89000Y65940D01*
X90827Y66180D01*
X92530Y66885D01*
X93992Y68008D01*
X95114Y69470D01*
X95820Y71173D01*
X96060Y73000D01*
X95820Y74827D01*
X95114Y76530D01*
X93992Y77993D01*
X92530Y79114D01*
X90827Y79820D01*
X89000Y80060D01*
D02*
G37*
G36*
X199270Y67886D02*
Y64270D01*
X202886D01*
X202748Y64967D01*
X201634Y66634D01*
X199967Y67748D01*
X199270Y67886D01*
D02*
G37*
G36*
X196730D02*
X196033Y67748D01*
X194366Y66634D01*
X193252Y64967D01*
X193114Y64270D01*
X196730D01*
Y67886D01*
D02*
G37*
G36*
X164886Y64730D02*
X161270D01*
Y61114D01*
X161966Y61252D01*
X163634Y62366D01*
X164748Y64033D01*
X164886Y64730D01*
D02*
G37*
G36*
X158730D02*
X155114D01*
X155252Y64033D01*
X156366Y62366D01*
X158034Y61252D01*
X158730Y61114D01*
Y64730D01*
D02*
G37*
G36*
X202886Y61730D02*
X199270D01*
Y58114D01*
X199967Y58252D01*
X201634Y59366D01*
X202748Y61034D01*
X202886Y61730D01*
D02*
G37*
G36*
X196730D02*
X193114D01*
X193252Y61034D01*
X194366Y59366D01*
X196033Y58252D01*
X196730Y58114D01*
Y61730D01*
D02*
G37*
G36*
X40000Y87323D02*
X36620Y86991D01*
X33371Y86005D01*
X30376Y84404D01*
X27750Y82249D01*
X25596Y79624D01*
X23995Y76629D01*
X23010Y73380D01*
X22677Y70000D01*
X23010Y66620D01*
X23995Y63371D01*
X25596Y60376D01*
X27750Y57751D01*
X30376Y55596D01*
X33371Y53995D01*
X36620Y53010D01*
X40000Y52677D01*
X43380Y53010D01*
X46629Y53995D01*
X49624Y55596D01*
X52249Y57751D01*
X54404Y60376D01*
X56005Y63371D01*
X56990Y66620D01*
X57323Y70000D01*
X56990Y73380D01*
X56005Y76629D01*
X54404Y79624D01*
X52249Y82249D01*
X49624Y84404D01*
X46629Y86005D01*
X43380Y86991D01*
X40000Y87323D01*
D02*
G37*
G36*
X161270Y53886D02*
Y50270D01*
X164886D01*
X164748Y50967D01*
X163634Y52634D01*
X161966Y53748D01*
X161270Y53886D01*
D02*
G37*
G36*
X158730D02*
X158034Y53748D01*
X156366Y52634D01*
X155252Y50967D01*
X155114Y50270D01*
X158730D01*
Y53886D01*
D02*
G37*
G36*
X164886Y47730D02*
X161270D01*
Y44114D01*
X161966Y44252D01*
X163634Y45366D01*
X164748Y47034D01*
X164886Y47730D01*
D02*
G37*
G36*
X158730D02*
X155114D01*
X155252Y47034D01*
X156366Y45366D01*
X158034Y44252D01*
X158730Y44114D01*
Y47730D01*
D02*
G37*
G36*
X275000Y38060D02*
X273173Y37820D01*
X271470Y37115D01*
X270008Y35992D01*
X268885Y34530D01*
X268180Y32827D01*
X267940Y31000D01*
X268180Y29173D01*
X268885Y27470D01*
X270008Y26007D01*
X271470Y24885D01*
X273173Y24180D01*
X275000Y23940D01*
X276827Y24180D01*
X278530Y24885D01*
X279993Y26007D01*
X281115Y27470D01*
X281820Y29173D01*
X282060Y31000D01*
X281820Y32827D01*
X281115Y34530D01*
X279993Y35992D01*
X278530Y37115D01*
X276827Y37820D01*
X275000Y38060D01*
D02*
G37*
G36*
X163970Y31472D02*
Y21270D01*
X174172D01*
X173943Y23013D01*
X172780Y25820D01*
X170930Y28230D01*
X168520Y30080D01*
X165713Y31243D01*
X163970Y31472D01*
D02*
G37*
G36*
X161430D02*
X159688Y31243D01*
X156880Y30080D01*
X154470Y28230D01*
X152620Y25820D01*
X151457Y23013D01*
X151228Y21270D01*
X161430D01*
Y31472D01*
D02*
G37*
G36*
X113170D02*
Y21270D01*
X123372D01*
X123143Y23013D01*
X121980Y25820D01*
X120130Y28230D01*
X117720Y30080D01*
X114913Y31243D01*
X113170Y31472D01*
D02*
G37*
G36*
X110630D02*
X108888Y31243D01*
X106080Y30080D01*
X103670Y28230D01*
X101820Y25820D01*
X100657Y23013D01*
X100428Y21270D01*
X110630D01*
Y31472D01*
D02*
G37*
G36*
X62370D02*
Y21270D01*
X72572D01*
X72343Y23013D01*
X71180Y25820D01*
X69330Y28230D01*
X66920Y30080D01*
X64113Y31243D01*
X62370Y31472D01*
D02*
G37*
G36*
X59830D02*
X58088Y31243D01*
X55280Y30080D01*
X52870Y28230D01*
X51020Y25820D01*
X49857Y23013D01*
X49628Y21270D01*
X59830D01*
Y31472D01*
D02*
G37*
G36*
X249900Y31000D02*
X227900D01*
Y9000D01*
X249900D01*
Y31000D01*
D02*
G37*
G36*
X213500Y31095D02*
X210628Y30717D01*
X207952Y29609D01*
X205655Y27845D01*
X203892Y25547D01*
X202783Y22872D01*
X202405Y20000D01*
X202783Y17128D01*
X203892Y14453D01*
X205655Y12155D01*
X207952Y10391D01*
X210628Y9283D01*
X213500Y8905D01*
X216372Y9283D01*
X219048Y10391D01*
X221345Y12155D01*
X223109Y14453D01*
X224217Y17128D01*
X224595Y20000D01*
X224217Y22872D01*
X223109Y25547D01*
X221345Y27845D01*
X219048Y29609D01*
X216372Y30717D01*
X213500Y31095D01*
D02*
G37*
%LPD*%
D11*
X188000Y497000D02*
X201000D01*
X132000Y441000D02*
X188000Y497000D01*
X201000Y449000D02*
Y497000D01*
X188100Y630000D02*
X202100Y644000D01*
X248000D02*
X254000Y638000D01*
Y607000D02*
Y638000D01*
X202100Y644000D02*
X248000D01*
X225000Y326000D02*
X274000Y375000D01*
X225000Y175000D02*
Y326000D01*
X239000Y499000D02*
X274000Y464000D01*
Y375000D02*
Y464000D01*
X234000Y474000D02*
X242000D01*
X239000Y499000D02*
Y565000D01*
X238900Y587100D02*
Y630000D01*
Y587100D02*
X239000Y587000D01*
X210000Y450000D02*
Y563000D01*
X214000Y567000D01*
X210000Y55000D02*
X215000Y50000D01*
X210000Y55000D02*
Y430000D01*
X237000Y413000D02*
X260000D01*
X201000Y449000D02*
X237000Y413000D01*
X213500Y588176D02*
Y630000D01*
Y588176D02*
X214000Y587677D01*
Y587000D02*
Y587677D01*
X139500Y91500D02*
X146000Y98000D01*
X170000D01*
X130000Y385000D02*
Y385676D01*
X132000Y387677D01*
Y441000D01*
X172000Y401000D02*
Y420000D01*
X123000Y581000D02*
X255000D01*
X118000Y586000D02*
X123000Y581000D01*
X95707Y574293D02*
X246185D01*
X84000Y586000D02*
X95707Y574293D01*
X242000Y474000D02*
X265000Y451000D01*
X254000Y607000D02*
X265000Y596000D01*
X162700Y630000D02*
X196700Y596000D01*
X205000D01*
X84000Y627500D02*
X86500Y630000D01*
X84000Y586000D02*
Y627500D01*
X60915Y629814D02*
X61100Y630000D01*
X49815Y629814D02*
X60915D01*
X26000Y606000D02*
X49815Y629814D01*
D13*
X86500Y38500D02*
X139500Y91500D01*
X86500Y20000D02*
Y38500D01*
D14*
X118000Y528000D02*
D03*
X89000Y73000D02*
D03*
X275000Y31000D02*
D03*
D33*
X201000Y497000D02*
D03*
X181000Y382000D02*
D03*
X198000Y271000D02*
D03*
X50000Y643000D02*
D03*
X15000Y325000D02*
D03*
X7000Y385000D02*
D03*
X143000Y537000D02*
D03*
X174000Y507000D02*
D03*
X143000Y482000D02*
D03*
X183000Y443000D02*
D03*
X143000Y423000D02*
D03*
X279000Y474000D02*
D03*
X204000Y380000D02*
D03*
X145000Y284000D02*
D03*
X235000Y306000D02*
D03*
X145000Y180000D02*
D03*
Y75000D02*
D03*
X198000Y63000D02*
D03*
X160000Y49000D02*
D03*
Y66000D02*
D03*
Y170000D02*
D03*
Y153000D02*
D03*
X269000Y336000D02*
D03*
X226000Y108000D02*
D03*
X160000Y257000D02*
D03*
Y275000D02*
D03*
X217000Y328000D02*
D03*
X252000Y336000D02*
D03*
X199000Y221000D02*
D03*
X220000Y135000D02*
D03*
X225000Y175000D02*
D03*
X234000Y474000D02*
D03*
X239000Y565000D02*
D03*
Y587000D02*
D03*
X210000Y450000D02*
D03*
X215000Y50000D02*
D03*
X210000Y430000D02*
D03*
X214000Y567000D02*
D03*
Y587000D02*
D03*
X170000Y98000D02*
D03*
X130000Y385000D02*
D03*
X172000Y420000D02*
D03*
Y401000D02*
D03*
X255000Y581000D02*
D03*
X118000Y586000D02*
D03*
X246185Y574293D02*
D03*
X260000Y413000D02*
D03*
X265000Y451000D02*
D03*
Y596000D02*
D03*
X205000D02*
D03*
X84000Y586000D02*
D03*
X26000Y606000D02*
D03*
D37*
X40000Y550000D02*
D03*
Y70000D02*
D03*
X260000Y150000D02*
D03*
Y520000D02*
D03*
D38*
X46400Y445000D02*
D03*
X46500Y273500D02*
D03*
Y166500D02*
D03*
D39*
X89600Y415000D02*
D03*
D40*
Y445000D02*
D03*
X119600Y415000D02*
D03*
Y445000D02*
D03*
Y475000D02*
D03*
X89600D02*
D03*
D41*
X89500Y145000D02*
D03*
D42*
X119500D02*
D03*
X89500Y175000D02*
D03*
X119500D02*
D03*
X89500Y205000D02*
D03*
X119500D02*
D03*
X89500Y235000D02*
D03*
X119500D02*
D03*
X89500Y265000D02*
D03*
X119500D02*
D03*
X89500Y295000D02*
D03*
X119500D02*
D03*
X162700Y630000D02*
D03*
X188100D02*
D03*
X213500D02*
D03*
X137300D02*
D03*
X111900D02*
D03*
X86500D02*
D03*
X61100D02*
D03*
X162700Y20000D02*
D03*
X188100D02*
D03*
X213500D02*
D03*
X137300D02*
D03*
X111900D02*
D03*
X86500D02*
D03*
X61100D02*
D03*
D43*
X238900Y630000D02*
D03*
Y20000D02*
D03*
D44*
X89600Y445000D02*
Y475000D01*
Y415000D02*
Y445000D01*
X8000Y333400D02*
X89600Y415000D01*
X8000Y50000D02*
Y333400D01*
Y50000D02*
X53000Y5000D01*
X173100D02*
X188100Y20000D01*
X53000Y5000D02*
X173100D01*
M02*
