G04*
G04 #@! TF.GenerationSoftware,Altium Limited,Altium Designer,20.2.6 (244)*
G04*
G04 Layer_Color=65535*
%FSLAX25Y25*%
%MOIN*%
G70*
G04*
G04 #@! TF.SameCoordinates,6757E463-D53E-4A0F-BFD9-6918A9DD6810*
G04*
G04*
G04 #@! TF.FilePolarity,Positive*
G04*
G01*
G75*
%ADD10C,0.00787*%
%ADD11C,0.00394*%
%ADD12C,0.00500*%
%ADD13C,0.01000*%
D10*
X20507Y148354D02*
X19720D01*
X20507D01*
D11*
X153454Y88868D02*
X153439Y89868D01*
X153397Y90867D01*
X153325Y91864D01*
X153226Y92858D01*
X153097Y93849D01*
X152941Y94837D01*
X152757Y95819D01*
X152544Y96796D01*
X152304Y97766D01*
X152036Y98729D01*
X151741Y99684D01*
X151418Y100630D01*
X151069Y101567D01*
X150693Y102493D01*
X150291Y103408D01*
X149863Y104311D01*
X149409Y105202D01*
X148930Y106079D01*
X148426Y106942D01*
X147898Y107791D01*
X147345Y108624D01*
X146769Y109441D01*
X146170Y110241D01*
X145549Y111024D01*
X144905Y111789D01*
X144240Y112535D01*
X143553Y113261D01*
X142847Y113968D01*
X142120Y114655D01*
X141374Y115320D01*
X140609Y115963D01*
X139826Y116585D01*
X139026Y117184D01*
X138209Y117760D01*
X137376Y118312D01*
X136528Y118841D01*
X135664Y119345D01*
X134787Y119824D01*
X133896Y120278D01*
X132993Y120706D01*
X132078Y121108D01*
X131152Y121484D01*
X130215Y121833D01*
X129269Y122155D01*
X128314Y122451D01*
X127351Y122719D01*
X126381Y122959D01*
X125404Y123171D01*
X124422Y123356D01*
X123435Y123512D01*
X122443Y123640D01*
X121449Y123740D01*
X120452Y123811D01*
X119453Y123854D01*
X118454Y123869D01*
X117454Y123854D01*
X116456Y123811D01*
X115459Y123740D01*
X114464Y123640D01*
X113473Y123512D01*
X112485Y123356D01*
X111503Y123171D01*
X110526Y122959D01*
X109556Y122719D01*
X108593Y122451D01*
X107638Y122155D01*
X106692Y121833D01*
X105755Y121484D01*
X104829Y121108D01*
X103914Y120706D01*
X103011Y120278D01*
X102120Y119824D01*
X101243Y119345D01*
X100380Y118841D01*
X99531Y118312D01*
X98698Y117760D01*
X97881Y117184D01*
X97081Y116585D01*
X96298Y115963D01*
X95534Y115320D01*
X94788Y114655D01*
X94061Y113968D01*
X93354Y113261D01*
X92668Y112535D01*
X92002Y111789D01*
X91359Y111024D01*
X90737Y110241D01*
X90138Y109441D01*
X89562Y108624D01*
X89010Y107791D01*
X88481Y106942D01*
X87978Y106079D01*
X87498Y105202D01*
X87045Y104311D01*
X86616Y103408D01*
X86214Y102493D01*
X85838Y101567D01*
X85489Y100630D01*
X85167Y99684D01*
X84871Y98729D01*
X84604Y97766D01*
X84363Y96796D01*
X84151Y95819D01*
X83966Y94837D01*
X83810Y93850D01*
X83682Y92858D01*
X83582Y91864D01*
X83511Y90867D01*
X83468Y89868D01*
X83454Y88868D01*
X83468Y87869D01*
X83511Y86870D01*
X83582Y85873D01*
X83682Y84879D01*
X83810Y83887D01*
X83966Y82900D01*
X84151Y81918D01*
X84363Y80941D01*
X84604Y79971D01*
X84871Y79008D01*
X85167Y78053D01*
X85489Y77107D01*
X85838Y76170D01*
X86214Y75244D01*
X86616Y74329D01*
X87045Y73426D01*
X87498Y72535D01*
X87978Y71658D01*
X88481Y70795D01*
X89010Y69946D01*
X89562Y69113D01*
X90138Y68296D01*
X90737Y67496D01*
X91359Y66713D01*
X92002Y65948D01*
X92668Y65202D01*
X93354Y64476D01*
X94061Y63769D01*
X94788Y63082D01*
X95534Y62417D01*
X96298Y61774D01*
X97081Y61152D01*
X97881Y60553D01*
X98698Y59977D01*
X99531Y59425D01*
X100380Y58896D01*
X101243Y58392D01*
X102120Y57913D01*
X103011Y57459D01*
X103914Y57031D01*
X104829Y56629D01*
X105755Y56253D01*
X106692Y55904D01*
X107638Y55581D01*
X108593Y55286D01*
X109556Y55018D01*
X110526Y54778D01*
X111503Y54566D01*
X112486Y54381D01*
X113473Y54225D01*
X114464Y54097D01*
X115459Y53997D01*
X116456Y53926D01*
X117454Y53883D01*
X118454Y53869D01*
X119453Y53883D01*
X120452Y53926D01*
X121449Y53997D01*
X122443Y54097D01*
X123435Y54225D01*
X124422Y54381D01*
X125404Y54566D01*
X126381Y54778D01*
X127351Y55018D01*
X128314Y55286D01*
X129269Y55582D01*
X130215Y55904D01*
X131152Y56253D01*
X132078Y56629D01*
X132993Y57031D01*
X133896Y57460D01*
X134787Y57913D01*
X135664Y58392D01*
X136528Y58896D01*
X137376Y59425D01*
X138209Y59977D01*
X139026Y60553D01*
X139826Y61152D01*
X140609Y61774D01*
X141374Y62417D01*
X142120Y63082D01*
X142846Y63769D01*
X143553Y64476D01*
X144239Y65202D01*
X144905Y65948D01*
X145548Y66713D01*
X146170Y67496D01*
X146769Y68296D01*
X147345Y69113D01*
X147897Y69946D01*
X148426Y70794D01*
X148930Y71658D01*
X149409Y72535D01*
X149863Y73426D01*
X150291Y74329D01*
X150693Y75244D01*
X151069Y76170D01*
X151418Y77107D01*
X151741Y78053D01*
X152036Y79008D01*
X152304Y79971D01*
X152544Y80941D01*
X152757Y81918D01*
X152941Y82900D01*
X153097Y83887D01*
X153226Y84878D01*
X153325Y85873D01*
X153397Y86870D01*
X153439Y87869D01*
X153454Y88868D01*
X272284Y89099D02*
X272269Y90098D01*
X272227Y91097D01*
X272155Y92094D01*
X272056Y93088D01*
X271927Y94080D01*
X271771Y95067D01*
X271586Y96049D01*
X271374Y97026D01*
X271134Y97996D01*
X270866Y98959D01*
X270571Y99914D01*
X270248Y100860D01*
X269899Y101797D01*
X269523Y102723D01*
X269121Y103638D01*
X268693Y104541D01*
X268239Y105432D01*
X267760Y106309D01*
X267256Y107172D01*
X266727Y108021D01*
X266175Y108854D01*
X265599Y109671D01*
X265000Y110471D01*
X264379Y111254D01*
X263735Y112019D01*
X263070Y112765D01*
X262383Y113491D01*
X261677Y114198D01*
X260950Y114884D01*
X260204Y115550D01*
X259439Y116193D01*
X258656Y116815D01*
X257856Y117414D01*
X257039Y117990D01*
X256206Y118542D01*
X255358Y119071D01*
X254494Y119575D01*
X253617Y120054D01*
X252726Y120508D01*
X251823Y120936D01*
X250908Y121338D01*
X249982Y121714D01*
X249045Y122063D01*
X248099Y122386D01*
X247144Y122681D01*
X246181Y122949D01*
X245211Y123189D01*
X244234Y123401D01*
X243252Y123586D01*
X242265Y123742D01*
X241273Y123870D01*
X240279Y123970D01*
X239282Y124041D01*
X238283Y124084D01*
X237284Y124099D01*
X236284Y124084D01*
X235286Y124041D01*
X234289Y123970D01*
X233294Y123870D01*
X232303Y123742D01*
X231315Y123586D01*
X230333Y123401D01*
X229356Y123189D01*
X228386Y122949D01*
X227423Y122681D01*
X226468Y122386D01*
X225522Y122063D01*
X224585Y121714D01*
X223659Y121338D01*
X222744Y120936D01*
X221841Y120508D01*
X220950Y120054D01*
X220073Y119575D01*
X219210Y119071D01*
X218361Y118542D01*
X217528Y117990D01*
X216711Y117414D01*
X215911Y116815D01*
X215128Y116193D01*
X214364Y115550D01*
X213618Y114884D01*
X212891Y114198D01*
X212184Y113491D01*
X211498Y112765D01*
X210833Y112019D01*
X210189Y111254D01*
X209567Y110471D01*
X208968Y109671D01*
X208392Y108854D01*
X207840Y108021D01*
X207312Y107173D01*
X206808Y106309D01*
X206329Y105432D01*
X205875Y104541D01*
X205447Y103638D01*
X205044Y102723D01*
X204668Y101797D01*
X204319Y100860D01*
X203997Y99914D01*
X203701Y98959D01*
X203433Y97996D01*
X203193Y97026D01*
X202981Y96049D01*
X202796Y95067D01*
X202640Y94080D01*
X202512Y93088D01*
X202412Y92094D01*
X202341Y91097D01*
X202298Y90098D01*
X202284Y89099D01*
X202298Y88099D01*
X202341Y87100D01*
X202412Y86103D01*
X202512Y85109D01*
X202640Y84118D01*
X202796Y83130D01*
X202981Y82148D01*
X203193Y81171D01*
X203433Y80201D01*
X203701Y79238D01*
X203997Y78283D01*
X204319Y77337D01*
X204668Y76400D01*
X205044Y75474D01*
X205447Y74559D01*
X205875Y73656D01*
X206329Y72765D01*
X206808Y71888D01*
X207312Y71025D01*
X207840Y70176D01*
X208392Y69343D01*
X208968Y68526D01*
X209567Y67726D01*
X210189Y66943D01*
X210833Y66178D01*
X211498Y65432D01*
X212184Y64706D01*
X212891Y63999D01*
X213618Y63313D01*
X214364Y62647D01*
X215128Y62003D01*
X215911Y61382D01*
X216711Y60783D01*
X217528Y60207D01*
X218361Y59655D01*
X219210Y59126D01*
X220073Y58622D01*
X220950Y58143D01*
X221841Y57689D01*
X222744Y57261D01*
X223659Y56859D01*
X224586Y56483D01*
X225522Y56134D01*
X226468Y55812D01*
X227423Y55516D01*
X228386Y55248D01*
X229356Y55008D01*
X230333Y54796D01*
X231315Y54611D01*
X232303Y54455D01*
X233294Y54327D01*
X234289Y54227D01*
X235286Y54156D01*
X236284Y54113D01*
X237284Y54098D01*
X238283Y54113D01*
X239282Y54156D01*
X240279Y54227D01*
X241273Y54327D01*
X242265Y54455D01*
X243252Y54611D01*
X244234Y54796D01*
X245211Y55008D01*
X246181Y55248D01*
X247144Y55516D01*
X248099Y55812D01*
X249045Y56134D01*
X249982Y56483D01*
X250908Y56859D01*
X251823Y57261D01*
X252726Y57690D01*
X253617Y58143D01*
X254494Y58622D01*
X255358Y59126D01*
X256206Y59655D01*
X257039Y60207D01*
X257856Y60783D01*
X258656Y61382D01*
X259439Y62003D01*
X260204Y62647D01*
X260950Y63313D01*
X261676Y63999D01*
X262383Y64706D01*
X263070Y65432D01*
X263735Y66178D01*
X264378Y66943D01*
X265000Y67726D01*
X265599Y68526D01*
X266175Y69343D01*
X266727Y70176D01*
X267256Y71025D01*
X267760Y71888D01*
X268239Y72765D01*
X268692Y73656D01*
X269121Y74559D01*
X269523Y75474D01*
X269899Y76400D01*
X270248Y77337D01*
X270571Y78283D01*
X270866Y79238D01*
X271134Y80201D01*
X271374Y81171D01*
X271586Y82148D01*
X271771Y83130D01*
X271927Y84117D01*
X272056Y85109D01*
X272155Y86103D01*
X272227Y87100D01*
X272269Y88099D01*
X272284Y89098D01*
X66012Y83025D02*
X69949D01*
X82825Y15361D02*
Y19298D01*
X183031Y81755D02*
X186969D01*
X193825Y14821D02*
Y18758D01*
X287071Y22015D02*
X291008D01*
X288912Y47392D02*
X292848D01*
X33334Y2788D02*
Y11784D01*
X-5741Y2788D02*
X33334D01*
X-5741D02*
Y40780D01*
X33334D01*
Y31784D02*
Y40780D01*
Y73585D02*
Y82581D01*
X-5741D02*
X33334D01*
X-5741Y44588D02*
Y82581D01*
Y44588D02*
X33334D01*
Y53584D01*
X307872Y136839D02*
X307872Y136839D01*
X307872Y136839D02*
Y144025D01*
Y65973D02*
X307872Y65973D01*
X307872Y58788D02*
Y65973D01*
Y58788D02*
X346848D01*
Y144025D01*
X307872D02*
X346848D01*
X307434Y46569D02*
Y55566D01*
X346509D01*
Y17573D02*
Y55566D01*
X307434Y17573D02*
X346509D01*
X307434D02*
Y26569D01*
D12*
X-25319Y91268D02*
Y145598D01*
Y91268D02*
X3578D01*
X-25319Y145598D02*
X3578D01*
X43421Y91268D02*
Y145598D01*
X19720D02*
X26413D01*
X19720Y91268D02*
X26413D01*
D13*
X52949Y147848D02*
X50949D01*
X51949D01*
Y142850D01*
X50949Y141850D01*
X49950D01*
X48950Y142850D01*
X54948Y141850D02*
X56947D01*
X55948D01*
Y147848D01*
X54948Y146848D01*
X328019Y13108D02*
X326019D01*
X327019D01*
Y8110D01*
X326019Y7110D01*
X325020D01*
X324020Y8110D01*
X334017Y13108D02*
X330018D01*
Y10109D01*
X332017Y11109D01*
X333017D01*
X334017Y10109D01*
Y8110D01*
X333017Y7110D01*
X331018D01*
X330018Y8110D01*
X50329Y37528D02*
X48329D01*
X49329D01*
Y32530D01*
X48329Y31530D01*
X47330D01*
X46330Y32530D01*
X55327Y31530D02*
Y37528D01*
X52328Y34529D01*
X56327D01*
X79242Y142867D02*
X78243Y143867D01*
X76243D01*
X75244Y142867D01*
Y141867D01*
X76243Y140868D01*
X78243D01*
X79242Y139868D01*
Y138868D01*
X78243Y137868D01*
X76243D01*
X75244Y138868D01*
X81242Y143867D02*
Y137868D01*
X83241Y139868D01*
X85240Y137868D01*
Y143867D01*
X91238Y137868D02*
X87240D01*
X91238Y141867D01*
Y142867D01*
X90239Y143867D01*
X88239D01*
X87240Y142867D01*
X167019Y65178D02*
X166019Y66178D01*
X164020D01*
X163020Y65178D01*
Y64179D01*
X164020Y63179D01*
X166019D01*
X167019Y62179D01*
Y61180D01*
X166019Y60180D01*
X164020D01*
X163020Y61180D01*
X169018Y66178D02*
X173017D01*
X171017D01*
Y60180D01*
X175016D02*
Y66178D01*
X178015D01*
X179015Y65178D01*
Y63179D01*
X178015Y62179D01*
X175016D01*
X177015D02*
X179015Y60180D01*
X181014Y59180D02*
X185013D01*
X187012Y60180D02*
Y66178D01*
X190011D01*
X191011Y65178D01*
Y63179D01*
X190011Y62179D01*
X187012D01*
X193010Y66178D02*
Y60180D01*
X195010Y62179D01*
X197009Y60180D01*
Y66178D01*
X50310Y61360D02*
Y67358D01*
X53309D01*
X54309Y66358D01*
Y64359D01*
X53309Y63359D01*
X50310D01*
X52309D02*
X54309Y61360D01*
X56308Y67358D02*
Y61360D01*
X59307D01*
X60307Y62360D01*
Y63359D01*
X59307Y64359D01*
X56308D01*
X59307D01*
X60307Y65359D01*
Y66358D01*
X59307Y67358D01*
X56308D01*
X62306Y60360D02*
X66305D01*
X68304Y61360D02*
Y67358D01*
X71303D01*
X72303Y66358D01*
Y64359D01*
X71303Y63359D01*
X68304D01*
X74302Y67358D02*
Y61360D01*
X76302Y63359D01*
X78301Y61360D01*
Y67358D01*
X196592Y142837D02*
X195593Y143837D01*
X193593D01*
X192594Y142837D01*
Y141837D01*
X193593Y140838D01*
X195593D01*
X196592Y139838D01*
Y138838D01*
X195593Y137838D01*
X193593D01*
X192594Y138838D01*
X198592Y143837D02*
Y137838D01*
X200591Y139838D01*
X202590Y137838D01*
Y143837D01*
X204590Y137838D02*
X206589D01*
X205589D01*
Y143837D01*
X204590Y142837D01*
X50937Y81677D02*
X48937D01*
X49937D01*
Y76679D01*
X48937Y75679D01*
X47938D01*
X46938Y76679D01*
X52936Y80677D02*
X53936Y81677D01*
X55935D01*
X56935Y80677D01*
Y79678D01*
X55935Y78678D01*
X54935D01*
X55935D01*
X56935Y77678D01*
Y76679D01*
X55935Y75679D01*
X53936D01*
X52936Y76679D01*
X286767Y143404D02*
X284767D01*
X285767D01*
Y138406D01*
X284767Y137406D01*
X283768D01*
X282768Y138406D01*
X292765Y137406D02*
X288766D01*
X292765Y141405D01*
Y142405D01*
X291765Y143404D01*
X289766D01*
X288766Y142405D01*
X269940Y17538D02*
Y11540D01*
X272939D01*
X273939Y12540D01*
Y13539D01*
X272939Y14539D01*
X269940D01*
X272939D01*
X273939Y15539D01*
Y16538D01*
X272939Y17538D01*
X269940D01*
X275938D02*
Y11540D01*
X278937D01*
X279937Y12540D01*
Y13539D01*
X278937Y14539D01*
X275938D01*
X278937D01*
X279937Y15539D01*
Y16538D01*
X278937Y17538D01*
X275938D01*
X281936Y10540D02*
X285935D01*
X287934Y11540D02*
Y17538D01*
X290933D01*
X291933Y16538D01*
Y14539D01*
X290933Y13539D01*
X287934D01*
X293932Y17538D02*
Y11540D01*
X295932Y13539D01*
X297931Y11540D01*
Y17538D01*
X279200Y60100D02*
Y64099D01*
X281199Y66098D01*
X283199Y64099D01*
Y60100D01*
Y63099D01*
X279200D01*
X285198Y66098D02*
Y62099D01*
X287197Y60100D01*
X289197Y62099D01*
Y66098D01*
X291196Y65098D02*
X292196Y66098D01*
X294195D01*
X295195Y65098D01*
Y64099D01*
X294195Y63099D01*
X293196D01*
X294195D01*
X295195Y62099D01*
Y61100D01*
X294195Y60100D01*
X292196D01*
X291196Y61100D01*
X183540Y20660D02*
Y26658D01*
X185539Y24659D01*
X187539Y26658D01*
Y20660D01*
X189538Y26658D02*
Y20660D01*
X192537D01*
X193537Y21660D01*
Y22659D01*
X192537Y23659D01*
X189538D01*
X192537D01*
X193537Y24659D01*
Y25658D01*
X192537Y26658D01*
X189538D01*
X195536Y19660D02*
X199535D01*
X201534Y20660D02*
Y26658D01*
X204533D01*
X205533Y25658D01*
Y23659D01*
X204533Y22659D01*
X201534D01*
X207532Y26658D02*
Y20660D01*
X209532Y22659D01*
X211531Y20660D01*
Y26658D01*
X78429Y26788D02*
X77429Y27788D01*
X75430D01*
X74430Y26788D01*
Y22790D01*
X75430Y21790D01*
X77429D01*
X78429Y22790D01*
Y24789D01*
X76429D01*
X84427Y26788D02*
X83427Y27788D01*
X81428D01*
X80428Y26788D01*
Y25789D01*
X81428Y24789D01*
X83427D01*
X84427Y23789D01*
Y22790D01*
X83427Y21790D01*
X81428D01*
X80428Y22790D01*
X86426Y20790D02*
X90425D01*
X92424Y21790D02*
Y27788D01*
X95423D01*
X96423Y26788D01*
Y24789D01*
X95423Y23789D01*
X92424D01*
X98422Y27788D02*
Y21790D01*
X100422Y23789D01*
X102421Y21790D01*
Y27788D01*
M02*
