G04*
G04 #@! TF.GenerationSoftware,Altium Limited,Altium Designer,20.2.6 (244)*
G04*
G04 Layer_Physical_Order=2*
G04 Layer_Color=36540*
%FSLAX25Y25*%
%MOIN*%
G70*
G04*
G04 #@! TF.SameCoordinates,6757E463-D53E-4A0F-BFD9-6918A9DD6810*
G04*
G04*
G04 #@! TF.FilePolarity,Positive*
G04*
G01*
G75*
%ADD13C,0.01000*%
%ADD30R,0.04756X0.04756*%
%ADD31C,0.04756*%
%ADD35C,0.06024*%
%ADD37C,0.07087*%
%ADD40C,0.05000*%
G36*
X328621Y128985D02*
X327465Y128872D01*
X326240Y128500D01*
X325112Y127897D01*
X324122Y127085D01*
X323311Y126096D01*
X322707Y124967D01*
X322336Y123743D01*
X322211Y122469D01*
X322336Y121196D01*
X322707Y119972D01*
X323311Y118843D01*
X324122Y117854D01*
X325112Y117042D01*
X326240Y116439D01*
X327465Y116067D01*
X328637Y115952D01*
X328673Y86865D01*
X327465Y86746D01*
X326240Y86374D01*
X325112Y85771D01*
X324122Y84959D01*
X323311Y83970D01*
X322707Y82841D01*
X322336Y81617D01*
X322211Y80344D01*
X322336Y79070D01*
X322707Y77846D01*
X323311Y76717D01*
X324122Y75728D01*
X325112Y74916D01*
X326240Y74313D01*
X327465Y73941D01*
X328689Y73821D01*
X328726Y43359D01*
X328438Y43097D01*
X327165Y42972D01*
X325940Y42600D01*
X324812Y41997D01*
X323822Y41185D01*
X323011Y40196D01*
X322407Y39067D01*
X322036Y37843D01*
X321911Y36569D01*
X322036Y35296D01*
X322407Y34071D01*
X323011Y32943D01*
X323822Y31954D01*
X324812Y31142D01*
X325940Y30539D01*
X327165Y30167D01*
X328438Y30042D01*
X328743Y29766D01*
X328780Y354D01*
X328426Y0D01*
X10290Y6D01*
Y15195D01*
X10692Y15493D01*
X11057Y15382D01*
X12330Y15257D01*
X13604Y15382D01*
X14828Y15754D01*
X15957Y16357D01*
X16946Y17169D01*
X17758Y18158D01*
X18361Y19286D01*
X18732Y20511D01*
X18858Y21784D01*
X18732Y23058D01*
X18361Y24283D01*
X17758Y25411D01*
X16946Y26400D01*
X15957Y27212D01*
X14828Y27815D01*
X13604Y28187D01*
X12330Y28312D01*
X11057Y28187D01*
X10692Y28076D01*
X10290Y28374D01*
Y56995D01*
X10692Y57293D01*
X11057Y57182D01*
X12330Y57057D01*
X13604Y57182D01*
X14828Y57554D01*
X15957Y58157D01*
X16946Y58969D01*
X17758Y59958D01*
X18361Y61086D01*
X18732Y62311D01*
X18858Y63585D01*
X18732Y64858D01*
X18361Y66082D01*
X17758Y67211D01*
X16946Y68200D01*
X15957Y69012D01*
X14828Y69615D01*
X13604Y69987D01*
X12330Y70112D01*
X11057Y69987D01*
X10692Y69876D01*
X10290Y70174D01*
X10290Y85114D01*
X10790Y85518D01*
X11846Y85414D01*
X13241Y85552D01*
X14583Y85959D01*
X15820Y86620D01*
X16904Y87509D01*
X17793Y88593D01*
X18454Y89830D01*
X18861Y91171D01*
X18999Y92567D01*
X18861Y93962D01*
X18454Y95304D01*
X17793Y96541D01*
X16904Y97624D01*
X15820Y98514D01*
X14583Y99175D01*
X13241Y99582D01*
X11846Y99719D01*
X10790Y99615D01*
X10290Y100020D01*
Y136846D01*
X10790Y137251D01*
X11846Y137147D01*
X13241Y137284D01*
X14583Y137691D01*
X15820Y138352D01*
X16904Y139242D01*
X17793Y140325D01*
X18454Y141562D01*
X18861Y142904D01*
X18999Y144299D01*
X18861Y145694D01*
X18454Y147036D01*
X17851Y148165D01*
X18044Y148665D01*
X28011D01*
X28203Y148165D01*
X27600Y147036D01*
X27193Y145694D01*
X27056Y144299D01*
X27193Y142904D01*
X27600Y141562D01*
X28261Y140325D01*
X29151Y139242D01*
X30234Y138352D01*
X31471Y137691D01*
X32813Y137284D01*
X34208Y137147D01*
X35604Y137284D01*
X36945Y137691D01*
X38182Y138352D01*
X39266Y139242D01*
X40155Y140325D01*
X40816Y141562D01*
X41223Y142904D01*
X41361Y144299D01*
X41223Y145694D01*
X40816Y147036D01*
X40213Y148165D01*
X40406Y148665D01*
X328596D01*
X328621Y128985D01*
D02*
G37*
%LPC*%
G36*
X127000Y142854D02*
Y139890D01*
X129964D01*
X129910Y140304D01*
X129557Y141155D01*
X128996Y141886D01*
X128265Y142447D01*
X127414Y142800D01*
X127000Y142854D01*
D02*
G37*
G36*
X126000D02*
X125586Y142800D01*
X124735Y142447D01*
X124004Y141886D01*
X123443Y141155D01*
X123090Y140304D01*
X123036Y139890D01*
X126000D01*
Y142854D01*
D02*
G37*
G36*
X249400Y142604D02*
Y139640D01*
X252364D01*
X252310Y140054D01*
X251957Y140905D01*
X251396Y141636D01*
X250665Y142197D01*
X249814Y142550D01*
X249400Y142604D01*
D02*
G37*
G36*
X248400D02*
X247986Y142550D01*
X247135Y142197D01*
X246404Y141636D01*
X245843Y140905D01*
X245490Y140054D01*
X245436Y139640D01*
X248400D01*
Y142604D01*
D02*
G37*
G36*
X129964Y138890D02*
X127000D01*
Y135926D01*
X127414Y135980D01*
X128265Y136333D01*
X128996Y136894D01*
X129557Y137625D01*
X129910Y138476D01*
X129964Y138890D01*
D02*
G37*
G36*
X126000D02*
X123036D01*
X123090Y138476D01*
X123443Y137625D01*
X124004Y136894D01*
X124735Y136333D01*
X125586Y135980D01*
X126000Y135926D01*
Y138890D01*
D02*
G37*
G36*
X252364Y138640D02*
X249400D01*
Y135676D01*
X249814Y135730D01*
X250665Y136083D01*
X251396Y136644D01*
X251957Y137375D01*
X252310Y138226D01*
X252364Y138640D01*
D02*
G37*
G36*
X248400D02*
X245436D01*
X245490Y138226D01*
X245843Y137375D01*
X246404Y136644D01*
X247135Y136083D01*
X247986Y135730D01*
X248400Y135676D01*
Y138640D01*
D02*
G37*
G36*
X38224Y137175D02*
X37449Y137073D01*
X36727Y136774D01*
X36107Y136298D01*
X35631Y135678D01*
X35332Y134956D01*
X35230Y134181D01*
X35240Y134102D01*
X34762Y133904D01*
X34436Y134330D01*
X33816Y134806D01*
X33093Y135105D01*
X32318Y135207D01*
X31543Y135105D01*
X30821Y134806D01*
X30201Y134330D01*
X29725Y133710D01*
X29426Y132987D01*
X29324Y132212D01*
X29426Y131438D01*
X29725Y130716D01*
X30201Y130095D01*
X30821Y129620D01*
X31543Y129320D01*
X32318Y129218D01*
X33093Y129320D01*
X33816Y129620D01*
X34436Y130095D01*
X34911Y130716D01*
X35210Y131438D01*
X35313Y132212D01*
X35302Y132291D01*
X35780Y132489D01*
X36107Y132064D01*
X36727Y131588D01*
X37449Y131289D01*
X38224Y131187D01*
X38999Y131289D01*
X39721Y131588D01*
X40341Y132064D01*
X40817Y132684D01*
X41116Y133406D01*
X41218Y134181D01*
X41116Y134956D01*
X40817Y135678D01*
X40341Y136298D01*
X39721Y136774D01*
X38999Y137073D01*
X38224Y137175D01*
D02*
G37*
G36*
X25626D02*
X24851Y137073D01*
X24128Y136774D01*
X23508Y136298D01*
X23032Y135678D01*
X22983Y135559D01*
X22689Y135181D01*
X16751D01*
Y129244D01*
X21490D01*
X21598Y129223D01*
X21705Y129244D01*
X22689D01*
Y130227D01*
X22710Y130335D01*
X22689Y130442D01*
Y132311D01*
X23189Y132481D01*
X23508Y132064D01*
X24128Y131588D01*
X24851Y131289D01*
X25626Y131187D01*
X26401Y131289D01*
X27123Y131588D01*
X27743Y132064D01*
X28218Y132684D01*
X28518Y133406D01*
X28620Y134181D01*
X28518Y134956D01*
X28218Y135678D01*
X27743Y136298D01*
X27123Y136774D01*
X26401Y137073D01*
X25626Y137175D01*
D02*
G37*
G36*
X315943Y135068D02*
X307675D01*
Y126800D01*
X315943D01*
Y135068D01*
D02*
G37*
G36*
X299998Y135103D02*
X298919Y134961D01*
X297913Y134545D01*
X297050Y133882D01*
X296387Y133019D01*
X295970Y132013D01*
X295828Y130934D01*
X295970Y129855D01*
X296387Y128849D01*
X297050Y127986D01*
X297913Y127323D01*
X298919Y126907D01*
X299998Y126765D01*
X301077Y126907D01*
X302083Y127323D01*
X302946Y127986D01*
X303609Y128849D01*
X304025Y129855D01*
X304167Y130934D01*
X304025Y132013D01*
X303609Y133019D01*
X302946Y133882D01*
X302083Y134545D01*
X301077Y134961D01*
X299998Y135103D01*
D02*
G37*
G36*
X38224Y129301D02*
X37449Y129199D01*
X36727Y128900D01*
X36107Y128424D01*
X35631Y127804D01*
X35332Y127082D01*
X35230Y126307D01*
X35332Y125532D01*
X35631Y124810D01*
X36107Y124190D01*
X36727Y123714D01*
X37449Y123415D01*
X38224Y123313D01*
X38999Y123415D01*
X39721Y123714D01*
X40341Y124190D01*
X40817Y124810D01*
X41116Y125532D01*
X41218Y126307D01*
X41116Y127082D01*
X40817Y127804D01*
X40341Y128424D01*
X39721Y128900D01*
X38999Y129199D01*
X38224Y129301D01*
D02*
G37*
G36*
X25626D02*
X24851Y129199D01*
X24128Y128900D01*
X23508Y128424D01*
X23032Y127804D01*
X22733Y127082D01*
X22631Y126307D01*
X22733Y125532D01*
X23032Y124810D01*
X23508Y124190D01*
X24128Y123714D01*
X24851Y123415D01*
X25626Y123313D01*
X26401Y123415D01*
X27123Y123714D01*
X27743Y124190D01*
X28218Y124810D01*
X28518Y125532D01*
X28620Y126307D01*
X28518Y127082D01*
X28218Y127804D01*
X27743Y128424D01*
X27123Y128900D01*
X26401Y129199D01*
X25626Y129301D01*
D02*
G37*
G36*
X32318Y125364D02*
X31543Y125262D01*
X30821Y124963D01*
X30201Y124487D01*
X29725Y123867D01*
X29426Y123145D01*
X29324Y122370D01*
X29426Y121595D01*
X29725Y120873D01*
X30201Y120253D01*
X30821Y119777D01*
X31543Y119478D01*
X32318Y119376D01*
X33093Y119478D01*
X33816Y119777D01*
X34436Y120253D01*
X34911Y120873D01*
X35210Y121595D01*
X35313Y122370D01*
X35210Y123145D01*
X34911Y123867D01*
X34436Y124487D01*
X33816Y124963D01*
X33093Y125262D01*
X32318Y125364D01*
D02*
G37*
G36*
X19720D02*
X18945Y125262D01*
X18223Y124963D01*
X17603Y124487D01*
X17127Y123867D01*
X16828Y123145D01*
X16726Y122370D01*
X16828Y121595D01*
X17127Y120873D01*
X17603Y120253D01*
X18223Y119777D01*
X18945Y119478D01*
X19720Y119376D01*
X20495Y119478D01*
X21217Y119777D01*
X21837Y120253D01*
X22313Y120873D01*
X22612Y121595D01*
X22714Y122370D01*
X22612Y123145D01*
X22313Y123867D01*
X21837Y124487D01*
X21217Y124963D01*
X20495Y125262D01*
X19720Y125364D01*
D02*
G37*
G36*
X59600Y120134D02*
Y117170D01*
X62564D01*
X62510Y117584D01*
X62157Y118435D01*
X61596Y119166D01*
X60865Y119727D01*
X60014Y120080D01*
X59600Y120134D01*
D02*
G37*
G36*
X58600D02*
X58186Y120080D01*
X57335Y119727D01*
X56604Y119166D01*
X56043Y118435D01*
X55690Y117584D01*
X55636Y117170D01*
X58600D01*
Y120134D01*
D02*
G37*
G36*
X38224Y121427D02*
X37449Y121325D01*
X36727Y121026D01*
X36107Y120550D01*
X35631Y119930D01*
X35332Y119208D01*
X35230Y118433D01*
X35332Y117658D01*
X35631Y116936D01*
X36107Y116316D01*
X36727Y115840D01*
X37449Y115541D01*
X38224Y115439D01*
X38999Y115541D01*
X39721Y115840D01*
X40341Y116316D01*
X40817Y116936D01*
X41116Y117658D01*
X41218Y118433D01*
X41116Y119208D01*
X40817Y119930D01*
X40341Y120550D01*
X39721Y121026D01*
X38999Y121325D01*
X38224Y121427D01*
D02*
G37*
G36*
X25626D02*
X24851Y121325D01*
X24128Y121026D01*
X23508Y120550D01*
X23032Y119930D01*
X22733Y119208D01*
X22631Y118433D01*
X22733Y117658D01*
X23032Y116936D01*
X23508Y116316D01*
X24128Y115840D01*
X24851Y115541D01*
X25626Y115439D01*
X26401Y115541D01*
X27123Y115840D01*
X27743Y116316D01*
X28218Y116936D01*
X28518Y117658D01*
X28620Y118433D01*
X28518Y119208D01*
X28218Y119930D01*
X27743Y120550D01*
X27123Y121026D01*
X26401Y121325D01*
X25626Y121427D01*
D02*
G37*
G36*
X311809Y123293D02*
X310730Y123150D01*
X309724Y122734D01*
X308861Y122071D01*
X308198Y121208D01*
X307781Y120202D01*
X307639Y119123D01*
X307781Y118044D01*
X308198Y117038D01*
X308861Y116175D01*
X309724Y115512D01*
X310730Y115095D01*
X311809Y114953D01*
X312888Y115095D01*
X313894Y115512D01*
X314757Y116175D01*
X315420Y117038D01*
X315836Y118044D01*
X315978Y119123D01*
X315836Y120202D01*
X315420Y121208D01*
X314757Y122071D01*
X313894Y122734D01*
X312888Y123150D01*
X311809Y123293D01*
D02*
G37*
G36*
X299998D02*
X298919Y123150D01*
X297913Y122734D01*
X297050Y122071D01*
X296387Y121208D01*
X295970Y120202D01*
X295828Y119123D01*
X295970Y118044D01*
X296387Y117038D01*
X297050Y116175D01*
X297913Y115512D01*
X298919Y115095D01*
X299998Y114953D01*
X301077Y115095D01*
X302083Y115512D01*
X302946Y116175D01*
X303609Y117038D01*
X304025Y118044D01*
X304167Y119123D01*
X304025Y120202D01*
X303609Y121208D01*
X302946Y122071D01*
X302083Y122734D01*
X301077Y123150D01*
X299998Y123293D01*
D02*
G37*
G36*
X62564Y116170D02*
X59600D01*
Y113206D01*
X60014Y113260D01*
X60865Y113613D01*
X61596Y114174D01*
X62157Y114905D01*
X62510Y115756D01*
X62564Y116170D01*
D02*
G37*
G36*
X58600D02*
X55636D01*
X55690Y115756D01*
X56043Y114905D01*
X56604Y114174D01*
X57335Y113613D01*
X58186Y113260D01*
X58600Y113206D01*
Y116170D01*
D02*
G37*
G36*
X32318Y117490D02*
X31543Y117388D01*
X30821Y117089D01*
X30201Y116613D01*
X29725Y115993D01*
X29426Y115271D01*
X29324Y114496D01*
X29426Y113721D01*
X29725Y112999D01*
X30201Y112379D01*
X30821Y111903D01*
X31543Y111604D01*
X32318Y111502D01*
X33093Y111604D01*
X33816Y111903D01*
X34436Y112379D01*
X34911Y112999D01*
X35210Y113721D01*
X35313Y114496D01*
X35210Y115271D01*
X34911Y115993D01*
X34436Y116613D01*
X33816Y117089D01*
X33093Y117388D01*
X32318Y117490D01*
D02*
G37*
G36*
X19720D02*
X18945Y117388D01*
X18223Y117089D01*
X17603Y116613D01*
X17127Y115993D01*
X16828Y115271D01*
X16726Y114496D01*
X16828Y113721D01*
X17127Y112999D01*
X17603Y112379D01*
X18223Y111903D01*
X18945Y111604D01*
X19720Y111502D01*
X20495Y111604D01*
X21217Y111903D01*
X21837Y112379D01*
X22313Y112999D01*
X22612Y113721D01*
X22714Y114496D01*
X22612Y115271D01*
X22313Y115993D01*
X21837Y116613D01*
X21217Y117089D01*
X20495Y117388D01*
X19720Y117490D01*
D02*
G37*
G36*
X38724Y113900D02*
Y111059D01*
X41565D01*
X41515Y111441D01*
X41175Y112262D01*
X40633Y112968D01*
X39928Y113510D01*
X39106Y113850D01*
X38724Y113900D01*
D02*
G37*
G36*
X26125D02*
Y111059D01*
X28967D01*
X28916Y111441D01*
X28576Y112262D01*
X28035Y112968D01*
X27329Y113510D01*
X26507Y113850D01*
X26125Y113900D01*
D02*
G37*
G36*
X37724D02*
X37342Y113850D01*
X36520Y113510D01*
X35815Y112968D01*
X35273Y112262D01*
X34933Y111441D01*
X34883Y111059D01*
X37724D01*
Y113900D01*
D02*
G37*
G36*
X25126D02*
X24744Y113850D01*
X23922Y113510D01*
X23216Y112968D01*
X22675Y112262D01*
X22334Y111441D01*
X22284Y111059D01*
X25126D01*
Y113900D01*
D02*
G37*
G36*
X179160Y110324D02*
Y107360D01*
X182124D01*
X182070Y107774D01*
X181717Y108625D01*
X181156Y109356D01*
X180425Y109917D01*
X179574Y110270D01*
X179160Y110324D01*
D02*
G37*
G36*
X178160D02*
X177746Y110270D01*
X176895Y109917D01*
X176164Y109356D01*
X175603Y108625D01*
X175250Y107774D01*
X175196Y107360D01*
X178160D01*
Y110324D01*
D02*
G37*
G36*
X41565Y110059D02*
X38724D01*
Y107218D01*
X39106Y107268D01*
X39928Y107608D01*
X40633Y108150D01*
X41175Y108855D01*
X41515Y109677D01*
X41565Y110059D01*
D02*
G37*
G36*
X28967D02*
X26125D01*
Y107218D01*
X26507Y107268D01*
X27329Y107608D01*
X28035Y108150D01*
X28576Y108855D01*
X28916Y109677D01*
X28967Y110059D01*
D02*
G37*
G36*
X37724D02*
X34883D01*
X34933Y109677D01*
X35273Y108855D01*
X35815Y108150D01*
X36520Y107608D01*
X37342Y107268D01*
X37724Y107218D01*
Y110059D01*
D02*
G37*
G36*
X25126D02*
X22284D01*
X22334Y109677D01*
X22675Y108855D01*
X23216Y108150D01*
X23922Y107608D01*
X24744Y107268D01*
X25126Y107218D01*
Y110059D01*
D02*
G37*
G36*
X290460Y106444D02*
Y103480D01*
X293424D01*
X293370Y103894D01*
X293017Y104745D01*
X292456Y105476D01*
X291725Y106037D01*
X290874Y106390D01*
X290460Y106444D01*
D02*
G37*
G36*
X289460D02*
X289046Y106390D01*
X288195Y106037D01*
X287464Y105476D01*
X286903Y104745D01*
X286550Y103894D01*
X286496Y103480D01*
X289460D01*
Y106444D01*
D02*
G37*
G36*
X182124Y106360D02*
X179160D01*
Y103396D01*
X179574Y103450D01*
X180425Y103803D01*
X181156Y104364D01*
X181717Y105095D01*
X182070Y105946D01*
X182124Y106360D01*
D02*
G37*
G36*
X178160D02*
X175196D01*
X175250Y105946D01*
X175603Y105095D01*
X176164Y104364D01*
X176895Y103803D01*
X177746Y103450D01*
X178160Y103396D01*
Y106360D01*
D02*
G37*
G36*
X38724Y106026D02*
Y103185D01*
X41565D01*
X41515Y103567D01*
X41175Y104388D01*
X40633Y105094D01*
X39928Y105636D01*
X39106Y105976D01*
X38724Y106026D01*
D02*
G37*
G36*
X26125D02*
Y103185D01*
X28967D01*
X28916Y103567D01*
X28576Y104388D01*
X28035Y105094D01*
X27329Y105636D01*
X26507Y105976D01*
X26125Y106026D01*
D02*
G37*
G36*
X311809Y111481D02*
X310730Y111339D01*
X309724Y110923D01*
X308861Y110260D01*
X308198Y109397D01*
X307781Y108391D01*
X307639Y107312D01*
X307781Y106233D01*
X308198Y105227D01*
X308861Y104364D01*
X309724Y103701D01*
X310730Y103285D01*
X311809Y103142D01*
X312888Y103285D01*
X313894Y103701D01*
X314757Y104364D01*
X315420Y105227D01*
X315836Y106233D01*
X315978Y107312D01*
X315836Y108391D01*
X315420Y109397D01*
X314757Y110260D01*
X313894Y110923D01*
X312888Y111339D01*
X311809Y111481D01*
D02*
G37*
G36*
X299998D02*
X298919Y111339D01*
X297913Y110923D01*
X297050Y110260D01*
X296387Y109397D01*
X295970Y108391D01*
X295828Y107312D01*
X295970Y106233D01*
X296387Y105227D01*
X297050Y104364D01*
X297913Y103701D01*
X298919Y103285D01*
X299998Y103142D01*
X301077Y103285D01*
X302083Y103701D01*
X302946Y104364D01*
X303609Y105227D01*
X304025Y106233D01*
X304167Y107312D01*
X304025Y108391D01*
X303609Y109397D01*
X302946Y110260D01*
X302083Y110923D01*
X301077Y111339D01*
X299998Y111481D01*
D02*
G37*
G36*
X245320Y115625D02*
X243930Y115488D01*
X242593Y115083D01*
X241362Y114424D01*
X240282Y113538D01*
X239396Y112458D01*
X238738Y111227D01*
X238332Y109890D01*
X238195Y108500D01*
X238332Y107110D01*
X238738Y105773D01*
X239396Y104542D01*
X240282Y103462D01*
X241362Y102576D01*
X242593Y101918D01*
X243930Y101512D01*
X245320Y101375D01*
X246710Y101512D01*
X248047Y101918D01*
X249278Y102576D01*
X250358Y103462D01*
X251244Y104542D01*
X251903Y105773D01*
X252308Y107110D01*
X252445Y108500D01*
X252308Y109890D01*
X251903Y111227D01*
X251244Y112458D01*
X250358Y113538D01*
X249278Y114424D01*
X248047Y115083D01*
X246710Y115488D01*
X245320Y115625D01*
D02*
G37*
G36*
X126490Y115395D02*
X125100Y115258D01*
X123763Y114852D01*
X122532Y114194D01*
X121452Y113308D01*
X120566Y112228D01*
X119907Y110997D01*
X119502Y109660D01*
X119365Y108270D01*
X119502Y106880D01*
X119907Y105543D01*
X120566Y104312D01*
X121452Y103232D01*
X122532Y102346D01*
X123763Y101688D01*
X125100Y101282D01*
X126490Y101145D01*
X127880Y101282D01*
X129217Y101688D01*
X130448Y102346D01*
X131528Y103232D01*
X132414Y104312D01*
X133072Y105543D01*
X133478Y106880D01*
X133615Y108270D01*
X133478Y109660D01*
X133072Y110997D01*
X132414Y112228D01*
X131528Y113308D01*
X130448Y114194D01*
X129217Y114852D01*
X127880Y115258D01*
X126490Y115395D01*
D02*
G37*
G36*
X293424Y102480D02*
X290460D01*
Y99516D01*
X290874Y99570D01*
X291725Y99923D01*
X292456Y100484D01*
X293017Y101215D01*
X293370Y102066D01*
X293424Y102480D01*
D02*
G37*
G36*
X289460D02*
X286496D01*
X286550Y102066D01*
X286903Y101215D01*
X287464Y100484D01*
X288195Y99923D01*
X289046Y99570D01*
X289460Y99516D01*
Y102480D01*
D02*
G37*
G36*
X32318Y107648D02*
X31543Y107546D01*
X30821Y107246D01*
X30201Y106771D01*
X29725Y106150D01*
X29426Y105428D01*
X29324Y104654D01*
X29426Y103878D01*
X29725Y103156D01*
X30201Y102536D01*
X30821Y102060D01*
X31543Y101761D01*
X32318Y101659D01*
X33093Y101761D01*
X33816Y102060D01*
X34342Y102464D01*
X34689Y102387D01*
X34870Y102281D01*
X34933Y101803D01*
X35273Y100981D01*
X35815Y100276D01*
X36322Y99887D01*
X36090Y99435D01*
X35604Y99582D01*
X34208Y99719D01*
X32813Y99582D01*
X31471Y99175D01*
X30234Y98514D01*
X29151Y97624D01*
X28261Y96541D01*
X27600Y95304D01*
X27193Y93962D01*
X27056Y92567D01*
X27193Y91171D01*
X27600Y89830D01*
X28261Y88593D01*
X29151Y87509D01*
X30234Y86620D01*
X31471Y85959D01*
X32813Y85552D01*
X34208Y85414D01*
X35604Y85552D01*
X36945Y85959D01*
X38182Y86620D01*
X39266Y87509D01*
X40155Y88593D01*
X40816Y89830D01*
X41223Y91171D01*
X41361Y92567D01*
X41223Y93962D01*
X40816Y95304D01*
X40155Y96541D01*
X39266Y97624D01*
X38182Y98514D01*
X37524Y98866D01*
X37679Y99349D01*
X37724Y99344D01*
Y102685D01*
Y106026D01*
X37342Y105976D01*
X36520Y105636D01*
X35815Y105094D01*
X35767Y105032D01*
X35244Y105172D01*
X35210Y105428D01*
X34911Y106150D01*
X34436Y106771D01*
X33816Y107246D01*
X33093Y107546D01*
X32318Y107648D01*
D02*
G37*
G36*
X41565Y102185D02*
X38724D01*
Y99344D01*
X39106Y99394D01*
X39928Y99734D01*
X40633Y100276D01*
X41175Y100981D01*
X41515Y101803D01*
X41565Y102185D01*
D02*
G37*
G36*
X28967D02*
X26125D01*
Y99344D01*
X26507Y99394D01*
X27329Y99734D01*
X28035Y100276D01*
X28576Y100981D01*
X28916Y101803D01*
X28967Y102185D01*
D02*
G37*
G36*
X19720Y107648D02*
X18945Y107546D01*
X18223Y107246D01*
X17603Y106771D01*
X17127Y106150D01*
X16828Y105428D01*
X16726Y104654D01*
X16828Y103878D01*
X17127Y103156D01*
X17603Y102536D01*
X18223Y102060D01*
X18945Y101761D01*
X19720Y101659D01*
X20495Y101761D01*
X21217Y102060D01*
X21743Y102464D01*
X22091Y102387D01*
X22272Y102281D01*
X22334Y101803D01*
X22675Y100981D01*
X23216Y100276D01*
X23922Y99734D01*
X24744Y99394D01*
X25126Y99344D01*
Y102685D01*
Y106026D01*
X24744Y105976D01*
X23922Y105636D01*
X23216Y105094D01*
X23169Y105032D01*
X22646Y105172D01*
X22612Y105428D01*
X22313Y106150D01*
X21837Y106771D01*
X21217Y107246D01*
X20495Y107546D01*
X19720Y107648D01*
D02*
G37*
G36*
X311809Y99670D02*
X310730Y99528D01*
X309724Y99112D01*
X308861Y98449D01*
X308198Y97586D01*
X307781Y96580D01*
X307639Y95501D01*
X307781Y94422D01*
X308198Y93416D01*
X308861Y92553D01*
X309724Y91890D01*
X310730Y91474D01*
X311809Y91331D01*
X312888Y91474D01*
X313894Y91890D01*
X314757Y92553D01*
X315420Y93416D01*
X315836Y94422D01*
X315978Y95501D01*
X315836Y96580D01*
X315420Y97586D01*
X314757Y98449D01*
X313894Y99112D01*
X312888Y99528D01*
X311809Y99670D01*
D02*
G37*
G36*
X299998D02*
X298919Y99528D01*
X297913Y99112D01*
X297050Y98449D01*
X296387Y97586D01*
X295970Y96580D01*
X295828Y95501D01*
X295970Y94422D01*
X296387Y93416D01*
X297050Y92553D01*
X297913Y91890D01*
X298919Y91474D01*
X299998Y91331D01*
X301077Y91474D01*
X302083Y91890D01*
X302946Y92553D01*
X303609Y93416D01*
X304025Y94422D01*
X304167Y95501D01*
X304025Y96580D01*
X303609Y97586D01*
X302946Y98449D01*
X302083Y99112D01*
X301077Y99528D01*
X299998Y99670D01*
D02*
G37*
G36*
X224973Y104225D02*
X210792D01*
Y90044D01*
X224973D01*
Y104225D01*
D02*
G37*
G36*
X106143Y103995D02*
X91962D01*
Y89814D01*
X106143D01*
Y103995D01*
D02*
G37*
G36*
X311809Y87859D02*
X310730Y87717D01*
X309724Y87301D01*
X308861Y86638D01*
X308198Y85775D01*
X307781Y84769D01*
X307639Y83690D01*
X307781Y82611D01*
X308198Y81605D01*
X308861Y80742D01*
X309724Y80079D01*
X310730Y79663D01*
X311809Y79520D01*
X312888Y79663D01*
X313894Y80079D01*
X314757Y80742D01*
X315420Y81605D01*
X315836Y82611D01*
X315978Y83690D01*
X315836Y84769D01*
X315420Y85775D01*
X314757Y86638D01*
X313894Y87301D01*
X312888Y87717D01*
X311809Y87859D01*
D02*
G37*
G36*
X299998D02*
X298919Y87717D01*
X297913Y87301D01*
X297050Y86638D01*
X296387Y85775D01*
X295970Y84769D01*
X295828Y83690D01*
X295970Y82611D01*
X296387Y81605D01*
X297050Y80742D01*
X297913Y80079D01*
X298919Y79663D01*
X299998Y79520D01*
X301077Y79663D01*
X302083Y80079D01*
X302946Y80742D01*
X303609Y81605D01*
X304025Y82611D01*
X304167Y83690D01*
X304025Y84769D01*
X303609Y85775D01*
X302946Y86638D01*
X302083Y87301D01*
X301077Y87717D01*
X299998Y87859D01*
D02*
G37*
G36*
X217882Y88187D02*
X216492Y88050D01*
X215156Y87645D01*
X213924Y86986D01*
X212844Y86100D01*
X211958Y85021D01*
X211300Y83789D01*
X210894Y82452D01*
X210757Y81062D01*
X210894Y79672D01*
X211300Y78336D01*
X211958Y77104D01*
X212844Y76024D01*
X213924Y75138D01*
X215156Y74480D01*
X216492Y74074D01*
X217882Y73937D01*
X219272Y74074D01*
X220609Y74480D01*
X221841Y75138D01*
X222920Y76024D01*
X223806Y77104D01*
X224465Y78336D01*
X224870Y79672D01*
X225007Y81062D01*
X224870Y82452D01*
X224465Y83789D01*
X223806Y85021D01*
X222920Y86100D01*
X221841Y86986D01*
X220609Y87645D01*
X219272Y88050D01*
X217882Y88187D01*
D02*
G37*
G36*
X99052Y87957D02*
X97662Y87820D01*
X96326Y87415D01*
X95094Y86756D01*
X94014Y85870D01*
X93128Y84790D01*
X92470Y83559D01*
X92064Y82222D01*
X91927Y80832D01*
X92064Y79442D01*
X92470Y78106D01*
X93128Y76874D01*
X94014Y75794D01*
X95094Y74908D01*
X96326Y74250D01*
X97662Y73844D01*
X99052Y73707D01*
X100442Y73844D01*
X101779Y74250D01*
X103010Y74908D01*
X104090Y75794D01*
X104976Y76874D01*
X105635Y78106D01*
X106040Y79442D01*
X106177Y80832D01*
X106040Y82222D01*
X105635Y83559D01*
X104976Y84790D01*
X104090Y85870D01*
X103010Y86756D01*
X101779Y87415D01*
X100442Y87820D01*
X99052Y87957D01*
D02*
G37*
G36*
X61270Y78087D02*
X60463Y77981D01*
X59711Y77670D01*
X59066Y77174D01*
X58570Y76529D01*
X58259Y75777D01*
X58153Y74970D01*
X58259Y74163D01*
X58570Y73411D01*
X59066Y72766D01*
X59711Y72270D01*
X60463Y71959D01*
X61270Y71853D01*
X62077Y71959D01*
X62829Y72270D01*
X63474Y72766D01*
X63970Y73411D01*
X64281Y74163D01*
X64387Y74970D01*
X64281Y75777D01*
X63970Y76529D01*
X63474Y77174D01*
X62829Y77670D01*
X62077Y77981D01*
X61270Y78087D01*
D02*
G37*
G36*
X176700Y76427D02*
X175893Y76321D01*
X175141Y76010D01*
X174496Y75514D01*
X174000Y74869D01*
X173689Y74117D01*
X173583Y73310D01*
X173689Y72503D01*
X174000Y71751D01*
X174496Y71106D01*
X175141Y70610D01*
X175893Y70299D01*
X176700Y70193D01*
X177507Y70299D01*
X178259Y70610D01*
X178904Y71106D01*
X179400Y71751D01*
X179711Y72503D01*
X179817Y73310D01*
X179711Y74117D01*
X179400Y74869D01*
X178904Y75514D01*
X178259Y76010D01*
X177507Y76321D01*
X176700Y76427D01*
D02*
G37*
G36*
X41649Y73471D02*
Y69990D01*
X45130D01*
X45058Y70537D01*
X44653Y71513D01*
X44010Y72351D01*
X43172Y72994D01*
X42196Y73399D01*
X41649Y73471D01*
D02*
G37*
G36*
X29838D02*
Y69990D01*
X33319D01*
X33247Y70537D01*
X32842Y71513D01*
X32199Y72351D01*
X31361Y72994D01*
X30385Y73399D01*
X29838Y73471D01*
D02*
G37*
G36*
X40649D02*
X40102Y73399D01*
X39126Y72994D01*
X38288Y72351D01*
X37645Y71513D01*
X37240Y70537D01*
X37168Y69990D01*
X40649D01*
Y73471D01*
D02*
G37*
G36*
X28838D02*
X28291Y73399D01*
X27315Y72994D01*
X26477Y72351D01*
X25834Y71513D01*
X25429Y70537D01*
X25357Y69990D01*
X28838D01*
Y73471D01*
D02*
G37*
G36*
X311809Y76048D02*
X310730Y75906D01*
X309724Y75490D01*
X308861Y74827D01*
X308198Y73964D01*
X307781Y72958D01*
X307639Y71879D01*
X307781Y70800D01*
X308198Y69794D01*
X308861Y68931D01*
X309724Y68268D01*
X310730Y67851D01*
X311809Y67709D01*
X312888Y67851D01*
X313894Y68268D01*
X314757Y68931D01*
X315420Y69794D01*
X315836Y70800D01*
X315978Y71879D01*
X315836Y72958D01*
X315420Y73964D01*
X314757Y74827D01*
X313894Y75490D01*
X312888Y75906D01*
X311809Y76048D01*
D02*
G37*
G36*
X299998D02*
X298919Y75906D01*
X297913Y75490D01*
X297050Y74827D01*
X296387Y73964D01*
X295970Y72958D01*
X295828Y71879D01*
X295970Y70800D01*
X296387Y69794D01*
X297050Y68931D01*
X297913Y68268D01*
X298919Y67851D01*
X299998Y67709D01*
X301077Y67851D01*
X302083Y68268D01*
X302946Y68931D01*
X303609Y69794D01*
X304025Y70800D01*
X304167Y71879D01*
X304025Y72958D01*
X303609Y73964D01*
X302946Y74827D01*
X302083Y75490D01*
X301077Y75906D01*
X299998Y76048D01*
D02*
G37*
G36*
X45130Y68990D02*
X41649D01*
Y65509D01*
X42196Y65581D01*
X43172Y65986D01*
X44010Y66629D01*
X44653Y67467D01*
X45058Y68443D01*
X45130Y68990D01*
D02*
G37*
G36*
X33319D02*
X29838D01*
Y65509D01*
X30385Y65581D01*
X31361Y65986D01*
X32199Y66629D01*
X32842Y67467D01*
X33247Y68443D01*
X33319Y68990D01*
D02*
G37*
G36*
X40649D02*
X37168D01*
X37240Y68443D01*
X37645Y67467D01*
X38288Y66629D01*
X39126Y65986D01*
X40102Y65581D01*
X40649Y65509D01*
Y68990D01*
D02*
G37*
G36*
X28838D02*
X25357D01*
X25429Y68443D01*
X25834Y67467D01*
X26477Y66629D01*
X27315Y65986D01*
X28291Y65581D01*
X28838Y65509D01*
Y68990D01*
D02*
G37*
G36*
X32940Y61281D02*
X25736D01*
Y54077D01*
X32940D01*
Y61281D01*
D02*
G37*
G36*
X41149Y61312D02*
X40209Y61189D01*
X39332Y60826D01*
X38580Y60248D01*
X38002Y59496D01*
X37639Y58619D01*
X37516Y57679D01*
X37639Y56739D01*
X38002Y55862D01*
X38580Y55110D01*
X39332Y54532D01*
X40209Y54169D01*
X41149Y54045D01*
X42090Y54169D01*
X42966Y54532D01*
X43718Y55110D01*
X44296Y55862D01*
X44659Y56739D01*
X44783Y57679D01*
X44659Y58619D01*
X44296Y59496D01*
X43718Y60248D01*
X42966Y60826D01*
X42090Y61189D01*
X41149Y61312D01*
D02*
G37*
G36*
X284130Y58777D02*
X283323Y58671D01*
X282571Y58360D01*
X281926Y57864D01*
X281430Y57219D01*
X281119Y56467D01*
X281013Y55660D01*
X281119Y54853D01*
X281430Y54101D01*
X281926Y53456D01*
X282571Y52960D01*
X283323Y52649D01*
X284130Y52543D01*
X284937Y52649D01*
X285689Y52960D01*
X286334Y53456D01*
X286830Y54101D01*
X287141Y54853D01*
X287247Y55660D01*
X287141Y56467D01*
X286830Y57219D01*
X286334Y57864D01*
X285689Y58360D01*
X284937Y58671D01*
X284130Y58777D01*
D02*
G37*
G36*
X51640Y46497D02*
X50833Y46391D01*
X50081Y46080D01*
X49436Y45584D01*
X48940Y44939D01*
X48629Y44187D01*
X48523Y43380D01*
X48629Y42573D01*
X48940Y41821D01*
X49436Y41176D01*
X50081Y40680D01*
X50833Y40369D01*
X51640Y40263D01*
X52447Y40369D01*
X53199Y40680D01*
X53844Y41176D01*
X54340Y41821D01*
X54651Y42573D01*
X54757Y43380D01*
X54651Y44187D01*
X54340Y44939D01*
X53844Y45584D01*
X53199Y46080D01*
X52447Y46391D01*
X51640Y46497D01*
D02*
G37*
G36*
X315033Y46077D02*
X307828D01*
Y38873D01*
X315033D01*
Y46077D01*
D02*
G37*
G36*
X299619Y46108D02*
X298679Y45985D01*
X297802Y45622D01*
X297050Y45044D01*
X296473Y44292D01*
X296110Y43415D01*
X295986Y42475D01*
X296110Y41535D01*
X296473Y40658D01*
X297050Y39906D01*
X297802Y39328D01*
X298679Y38965D01*
X299619Y38842D01*
X300559Y38965D01*
X301436Y39328D01*
X302188Y39906D01*
X302766Y40658D01*
X303129Y41535D01*
X303253Y42475D01*
X303129Y43415D01*
X302766Y44292D01*
X302188Y45044D01*
X301436Y45622D01*
X300559Y45985D01*
X299619Y46108D01*
D02*
G37*
G36*
X91330Y39544D02*
Y36580D01*
X94294D01*
X94240Y36994D01*
X93887Y37845D01*
X93326Y38576D01*
X92595Y39137D01*
X91744Y39490D01*
X91330Y39544D01*
D02*
G37*
G36*
X90330D02*
X89916Y39490D01*
X89065Y39137D01*
X88334Y38576D01*
X87773Y37845D01*
X87420Y36994D01*
X87366Y36580D01*
X90330D01*
Y39544D01*
D02*
G37*
G36*
X219167Y41691D02*
X218706Y41599D01*
X218316Y41338D01*
X218055Y40948D01*
X217963Y40487D01*
X218055Y40026D01*
X218316Y39635D01*
X218706Y39374D01*
X218759Y39364D01*
Y38854D01*
X218706Y38844D01*
X218316Y38583D01*
X218055Y38192D01*
X217963Y37731D01*
X218055Y37270D01*
X218316Y36879D01*
X218706Y36618D01*
X219167Y36527D01*
X219628Y36618D01*
X220019Y36879D01*
X220280Y37270D01*
X220372Y37731D01*
X220280Y38192D01*
X220019Y38583D01*
X219628Y38844D01*
X219575Y38854D01*
Y39364D01*
X219628Y39374D01*
X220019Y39635D01*
X220280Y40026D01*
X220372Y40487D01*
X220280Y40948D01*
X220019Y41338D01*
X219628Y41599D01*
X219167Y41691D01*
D02*
G37*
G36*
X216018D02*
X215557Y41599D01*
X215166Y41338D01*
X214905Y40948D01*
X214813Y40487D01*
X214905Y40026D01*
X215166Y39635D01*
X215557Y39374D01*
X215610Y39364D01*
Y38854D01*
X215557Y38844D01*
X215166Y38583D01*
X214905Y38192D01*
X214813Y37731D01*
X214905Y37270D01*
X215166Y36879D01*
X215557Y36618D01*
X216018Y36527D01*
X216478Y36618D01*
X216869Y36879D01*
X217130Y37270D01*
X217222Y37731D01*
X217130Y38192D01*
X216869Y38583D01*
X216478Y38844D01*
X216426Y38854D01*
Y39364D01*
X216478Y39374D01*
X216869Y39635D01*
X217130Y40026D01*
X217222Y40487D01*
X217130Y40948D01*
X216869Y41338D01*
X216478Y41599D01*
X216018Y41691D01*
D02*
G37*
G36*
X201070Y39054D02*
Y36090D01*
X204034D01*
X203980Y36504D01*
X203627Y37355D01*
X203066Y38086D01*
X202335Y38647D01*
X201484Y39000D01*
X201070Y39054D01*
D02*
G37*
G36*
X200070D02*
X199656Y39000D01*
X198805Y38647D01*
X198074Y38086D01*
X197513Y37355D01*
X197160Y36504D01*
X197106Y36090D01*
X200070D01*
Y39054D01*
D02*
G37*
G36*
X108473Y40602D02*
X108012Y40510D01*
X107622Y40249D01*
X107360Y39859D01*
X107269Y39398D01*
X107360Y38937D01*
X107622Y38546D01*
X108012Y38285D01*
X108065Y38275D01*
Y37765D01*
X108012Y37755D01*
X107622Y37494D01*
X107360Y37103D01*
X107269Y36642D01*
X107360Y36181D01*
X107622Y35791D01*
X108012Y35530D01*
X108473Y35438D01*
X108934Y35530D01*
X109325Y35791D01*
X109586Y36181D01*
X109677Y36642D01*
X109586Y37103D01*
X109325Y37494D01*
X108934Y37755D01*
X108881Y37765D01*
Y38275D01*
X108934Y38285D01*
X109325Y38546D01*
X109586Y38937D01*
X109677Y39398D01*
X109586Y39859D01*
X109325Y40249D01*
X108934Y40510D01*
X108473Y40602D01*
D02*
G37*
G36*
X105323D02*
X104863Y40510D01*
X104472Y40249D01*
X104211Y39859D01*
X104119Y39398D01*
X104211Y38937D01*
X104472Y38546D01*
X104863Y38285D01*
X104915Y38275D01*
Y37765D01*
X104863Y37755D01*
X104472Y37494D01*
X104211Y37103D01*
X104119Y36642D01*
X104211Y36181D01*
X104472Y35791D01*
X104863Y35530D01*
X105323Y35438D01*
X105784Y35530D01*
X106175Y35791D01*
X106436Y36181D01*
X106528Y36642D01*
X106436Y37103D01*
X106175Y37494D01*
X105784Y37755D01*
X105731Y37765D01*
Y38275D01*
X105784Y38285D01*
X106175Y38546D01*
X106436Y38937D01*
X106528Y39398D01*
X106436Y39859D01*
X106175Y40249D01*
X105784Y40510D01*
X105323Y40602D01*
D02*
G37*
G36*
X94294Y35580D02*
X91330D01*
Y32616D01*
X91744Y32670D01*
X92595Y33023D01*
X93326Y33584D01*
X93887Y34315D01*
X94240Y35166D01*
X94294Y35580D01*
D02*
G37*
G36*
X90330D02*
X87366D01*
X87420Y35166D01*
X87773Y34315D01*
X88334Y33584D01*
X89065Y33023D01*
X89916Y32670D01*
X90330Y32616D01*
Y35580D01*
D02*
G37*
G36*
X204034Y35090D02*
X201070D01*
Y32126D01*
X201484Y32180D01*
X202335Y32533D01*
X203066Y33094D01*
X203627Y33825D01*
X203980Y34676D01*
X204034Y35090D01*
D02*
G37*
G36*
X200070D02*
X197106D01*
X197160Y34676D01*
X197513Y33825D01*
X198074Y33094D01*
X198805Y32533D01*
X199656Y32180D01*
X200070Y32126D01*
Y35090D01*
D02*
G37*
G36*
X311930Y34644D02*
Y31164D01*
X315411D01*
X315339Y31711D01*
X314934Y32687D01*
X314291Y33525D01*
X313453Y34168D01*
X312477Y34572D01*
X311930Y34644D01*
D02*
G37*
G36*
X310930D02*
X310383Y34572D01*
X309407Y34168D01*
X308569Y33525D01*
X307926Y32687D01*
X307522Y31711D01*
X307450Y31164D01*
X310930D01*
Y34644D01*
D02*
G37*
G36*
X244960Y31594D02*
Y28630D01*
X247924D01*
X247870Y29044D01*
X247517Y29895D01*
X246956Y30626D01*
X246225Y31187D01*
X245374Y31540D01*
X244960Y31594D01*
D02*
G37*
G36*
X243960D02*
X243546Y31540D01*
X242695Y31187D01*
X241964Y30626D01*
X241403Y29895D01*
X241050Y29044D01*
X240996Y28630D01*
X243960D01*
Y31594D01*
D02*
G37*
G36*
X29838Y31671D02*
Y28190D01*
X33319D01*
X33247Y28737D01*
X32842Y29713D01*
X32199Y30551D01*
X31361Y31194D01*
X30385Y31599D01*
X29838Y31671D01*
D02*
G37*
G36*
X28838D02*
X28291Y31599D01*
X27315Y31194D01*
X26477Y30551D01*
X25834Y29713D01*
X25429Y28737D01*
X25357Y28190D01*
X28838D01*
Y31671D01*
D02*
G37*
G36*
X280890Y33467D02*
X280083Y33361D01*
X279331Y33050D01*
X278686Y32554D01*
X278190Y31909D01*
X277879Y31157D01*
X277773Y30350D01*
X277879Y29543D01*
X278190Y28791D01*
X278686Y28146D01*
X279331Y27650D01*
X280083Y27339D01*
X280890Y27233D01*
X281697Y27339D01*
X282449Y27650D01*
X283094Y28146D01*
X283590Y28791D01*
X283901Y29543D01*
X284007Y30350D01*
X283901Y31157D01*
X283590Y31909D01*
X283094Y32554D01*
X282449Y33050D01*
X281697Y33361D01*
X280890Y33467D01*
D02*
G37*
G36*
X299619Y34297D02*
X298679Y34174D01*
X297802Y33811D01*
X297050Y33233D01*
X296473Y32481D01*
X296110Y31604D01*
X295986Y30664D01*
X296110Y29724D01*
X296473Y28847D01*
X297050Y28095D01*
X297802Y27517D01*
X298679Y27154D01*
X299619Y27031D01*
X300559Y27154D01*
X301436Y27517D01*
X302188Y28095D01*
X302766Y28847D01*
X303129Y29724D01*
X303253Y30664D01*
X303129Y31604D01*
X302766Y32481D01*
X302188Y33233D01*
X301436Y33811D01*
X300559Y34174D01*
X299619Y34297D01*
D02*
G37*
G36*
X315411Y30164D02*
X311930D01*
Y26683D01*
X312477Y26755D01*
X313453Y27160D01*
X314291Y27803D01*
X314934Y28641D01*
X315339Y29617D01*
X315411Y30164D01*
D02*
G37*
G36*
X310930D02*
X307450D01*
X307522Y29617D01*
X307926Y28641D01*
X308569Y27803D01*
X309407Y27160D01*
X310383Y26755D01*
X310930Y26683D01*
Y30164D01*
D02*
G37*
G36*
X137740Y27924D02*
Y24960D01*
X140704D01*
X140650Y25374D01*
X140297Y26225D01*
X139736Y26956D01*
X139005Y27517D01*
X138154Y27870D01*
X137740Y27924D01*
D02*
G37*
G36*
X136740D02*
X136326Y27870D01*
X135475Y27517D01*
X134744Y26956D01*
X134183Y26225D01*
X133830Y25374D01*
X133776Y24960D01*
X136740D01*
Y27924D01*
D02*
G37*
G36*
X247924Y27630D02*
X244960D01*
Y24666D01*
X245374Y24720D01*
X246225Y25073D01*
X246956Y25634D01*
X247517Y26365D01*
X247870Y27216D01*
X247924Y27630D01*
D02*
G37*
G36*
X243960D02*
X240996D01*
X241050Y27216D01*
X241403Y26365D01*
X241964Y25634D01*
X242695Y25073D01*
X243546Y24720D01*
X243960Y24666D01*
Y27630D01*
D02*
G37*
G36*
X41149Y31323D02*
X40209Y31200D01*
X39332Y30837D01*
X38580Y30259D01*
X38002Y29507D01*
X37639Y28630D01*
X37516Y27690D01*
X37639Y26750D01*
X38002Y25873D01*
X38580Y25121D01*
X39332Y24543D01*
X40209Y24180D01*
X41149Y24057D01*
X42090Y24180D01*
X42966Y24543D01*
X43718Y25121D01*
X44296Y25873D01*
X44659Y26750D01*
X44783Y27690D01*
X44659Y28630D01*
X44296Y29507D01*
X43718Y30259D01*
X42966Y30837D01*
X42090Y31200D01*
X41149Y31323D01*
D02*
G37*
G36*
X33319Y27190D02*
X29838D01*
Y23709D01*
X30385Y23781D01*
X31361Y24186D01*
X32199Y24829D01*
X32842Y25667D01*
X33247Y26643D01*
X33319Y27190D01*
D02*
G37*
G36*
X28838D02*
X25357D01*
X25429Y26643D01*
X25834Y25667D01*
X26477Y24829D01*
X27315Y24186D01*
X28291Y23781D01*
X28838Y23709D01*
Y27190D01*
D02*
G37*
G36*
X140704Y23960D02*
X137740D01*
Y20996D01*
X138154Y21050D01*
X139005Y21403D01*
X139736Y21964D01*
X140297Y22695D01*
X140650Y23546D01*
X140704Y23960D01*
D02*
G37*
G36*
X136740D02*
X133776D01*
X133830Y23546D01*
X134183Y22695D01*
X134744Y21964D01*
X135475Y21403D01*
X136326Y21050D01*
X136740Y20996D01*
Y23960D01*
D02*
G37*
G36*
X67510Y20757D02*
X66703Y20651D01*
X65951Y20340D01*
X65306Y19844D01*
X64810Y19199D01*
X64499Y18447D01*
X64393Y17640D01*
X64499Y16833D01*
X64810Y16081D01*
X65306Y15436D01*
X65951Y14940D01*
X66703Y14629D01*
X67510Y14523D01*
X68317Y14629D01*
X69069Y14940D01*
X69714Y15436D01*
X70210Y16081D01*
X70521Y16833D01*
X70627Y17640D01*
X70521Y18447D01*
X70210Y19199D01*
X69714Y19844D01*
X69069Y20340D01*
X68317Y20651D01*
X67510Y20757D01*
D02*
G37*
G36*
X178850Y20117D02*
X178043Y20011D01*
X177291Y19700D01*
X176646Y19204D01*
X176150Y18559D01*
X175839Y17807D01*
X175733Y17000D01*
X175839Y16193D01*
X176150Y15441D01*
X176646Y14796D01*
X177291Y14300D01*
X178043Y13989D01*
X178850Y13883D01*
X179657Y13989D01*
X180409Y14300D01*
X181054Y14796D01*
X181550Y15441D01*
X181861Y16193D01*
X181967Y17000D01*
X181861Y17807D01*
X181550Y18559D01*
X181054Y19204D01*
X180409Y19700D01*
X179657Y20011D01*
X178850Y20117D01*
D02*
G37*
G36*
X131470Y19127D02*
X130663Y19021D01*
X129911Y18710D01*
X129266Y18214D01*
X128770Y17569D01*
X128459Y16817D01*
X128353Y16010D01*
X128459Y15203D01*
X128770Y14451D01*
X129266Y13806D01*
X129911Y13310D01*
X130663Y12999D01*
X131470Y12893D01*
X132277Y12999D01*
X133029Y13310D01*
X133674Y13806D01*
X134170Y14451D01*
X134481Y15203D01*
X134587Y16010D01*
X134481Y16817D01*
X134170Y17569D01*
X133674Y18214D01*
X133029Y18710D01*
X132277Y19021D01*
X131470Y19127D01*
D02*
G37*
G36*
X243310Y18847D02*
X242503Y18741D01*
X241751Y18430D01*
X241106Y17934D01*
X240610Y17289D01*
X240299Y16537D01*
X240193Y15730D01*
X240299Y14923D01*
X240610Y14171D01*
X241106Y13526D01*
X241751Y13030D01*
X242503Y12719D01*
X243310Y12613D01*
X244117Y12719D01*
X244869Y13030D01*
X245514Y13526D01*
X246010Y14171D01*
X246321Y14923D01*
X246427Y15730D01*
X246321Y16537D01*
X246010Y17289D01*
X245514Y17934D01*
X244869Y18430D01*
X244117Y18741D01*
X243310Y18847D01*
D02*
G37*
G36*
X32940Y19481D02*
X25736D01*
Y12277D01*
X32940D01*
Y19481D01*
D02*
G37*
G36*
X41149Y19512D02*
X40209Y19389D01*
X39332Y19026D01*
X38580Y18448D01*
X38002Y17696D01*
X37639Y16819D01*
X37516Y15879D01*
X37639Y14939D01*
X38002Y14062D01*
X38580Y13310D01*
X39332Y12732D01*
X40209Y12369D01*
X41149Y12246D01*
X42090Y12369D01*
X42966Y12732D01*
X43718Y13310D01*
X44296Y14062D01*
X44659Y14939D01*
X44783Y15879D01*
X44659Y16819D01*
X44296Y17696D01*
X43718Y18448D01*
X42966Y19026D01*
X42090Y19389D01*
X41149Y19512D01*
D02*
G37*
%LPD*%
D13*
X299354Y130290D02*
X299998Y130934D01*
X32318Y132212D02*
X33335D01*
X19720D02*
X21598Y130335D01*
D30*
X19720Y132212D02*
D03*
D31*
X32318D02*
D03*
X25626Y102685D02*
D03*
Y110559D02*
D03*
X38224Y102685D02*
D03*
Y110559D02*
D03*
D35*
X29338Y27690D02*
D03*
X41149Y69490D02*
D03*
X29338D02*
D03*
X311430Y30664D02*
D03*
D37*
X299998Y130934D02*
D03*
D40*
X289960Y102980D02*
D03*
X248900Y139140D02*
D03*
X126500Y139390D02*
D03*
X178660Y106860D02*
D03*
X59100Y116670D02*
D03*
X90830Y36080D02*
D03*
X200570Y35590D02*
D03*
X244460Y28130D02*
D03*
X137240Y24460D02*
D03*
M02*
