G04*
G04 #@! TF.GenerationSoftware,Altium Limited,Altium Designer,20.2.6 (244)*
G04*
G04 Layer_Color=16711935*
%FSLAX25Y25*%
%MOIN*%
G70*
G04*
G04 #@! TF.SameCoordinates,6757E463-D53E-4A0F-BFD9-6918A9DD6810*
G04*
G04*
G04 #@! TF.FilePolarity,Negative*
G04*
G01*
G75*
%ADD16R,0.05556X0.05556*%
%ADD17C,0.05556*%
%ADD18C,0.13855*%
%ADD19C,0.01181*%
%ADD20C,0.12205*%
%ADD21R,0.06417X0.06417*%
%ADD22C,0.06417*%
%ADD23R,0.07480X0.07480*%
%ADD24C,0.07480*%
%ADD25C,0.13394*%
%ADD26R,0.13394X0.13394*%
%ADD27C,0.05800*%
G04:AMPARAMS|DCode=42|XSize=23.62mil|YSize=7.87mil|CornerRadius=1.97mil|HoleSize=0mil|Usage=FLASHONLY|Rotation=270.000|XOffset=0mil|YOffset=0mil|HoleType=Round|Shape=RoundedRectangle|*
%AMROUNDEDRECTD42*
21,1,0.02362,0.00394,0,0,270.0*
21,1,0.01968,0.00787,0,0,270.0*
1,1,0.00394,-0.00197,-0.00984*
1,1,0.00394,-0.00197,0.00984*
1,1,0.00394,0.00197,0.00984*
1,1,0.00394,0.00197,-0.00984*
%
%ADD42ROUNDEDRECTD42*%
G04:AMPARAMS|DCode=43|XSize=41.34mil|YSize=15.75mil|CornerRadius=3.94mil|HoleSize=0mil|Usage=FLASHONLY|Rotation=180.000|XOffset=0mil|YOffset=0mil|HoleType=Round|Shape=RoundedRectangle|*
%AMROUNDEDRECTD43*
21,1,0.04134,0.00787,0,0,180.0*
21,1,0.03347,0.01575,0,0,180.0*
1,1,0.00787,-0.01673,0.00394*
1,1,0.00787,0.01673,0.00394*
1,1,0.00787,0.01673,-0.00394*
1,1,0.00787,-0.01673,-0.00394*
%
%ADD43ROUNDEDRECTD43*%
%ADD46R,0.03937X0.03937*%
%ADD47R,0.06194X0.11863*%
%ADD48R,0.03937X0.03937*%
G36*
X106504Y35658D02*
X101977D01*
Y37626D01*
X106504D01*
Y35658D01*
D02*
G37*
G36*
Y32114D02*
X105323D01*
Y34870D01*
X106504D01*
Y32114D01*
D02*
G37*
G36*
X104536D02*
X103355D01*
Y34870D01*
X104536D01*
Y32114D01*
D02*
G37*
G36*
X107292D02*
X108473D01*
Y34870D01*
X107292D01*
Y32114D01*
D02*
G37*
G36*
X109260D02*
X110442D01*
Y34870D01*
X109260D01*
Y32114D01*
D02*
G37*
G36*
X107292Y35658D02*
X111820D01*
Y37626D01*
X107292D01*
Y35658D01*
D02*
G37*
G36*
X106504Y41170D02*
X105323D01*
Y43925D01*
X106504D01*
Y41170D01*
D02*
G37*
G36*
X104536D02*
X103355D01*
Y43925D01*
X104536D01*
Y41170D01*
D02*
G37*
G36*
X106504Y38414D02*
X101977D01*
Y40382D01*
X106504D01*
Y38414D01*
D02*
G37*
G36*
X110442Y41170D02*
X109260D01*
Y43925D01*
X110442D01*
Y41170D01*
D02*
G37*
G36*
X108473D02*
X107292D01*
Y43925D01*
X108473D01*
Y41170D01*
D02*
G37*
G36*
X111820Y38414D02*
X107292D01*
Y40382D01*
X111820D01*
Y38414D01*
D02*
G37*
G36*
X214049Y33203D02*
X215230D01*
Y35959D01*
X214049D01*
Y33203D01*
D02*
G37*
G36*
X216018D02*
X217199D01*
Y35959D01*
X216018D01*
Y33203D01*
D02*
G37*
G36*
X212671Y36747D02*
X217199D01*
Y38715D01*
X212671D01*
Y36747D01*
D02*
G37*
G36*
X217986Y33203D02*
X219167D01*
Y35959D01*
X217986D01*
Y33203D01*
D02*
G37*
G36*
X219955D02*
X221136D01*
Y35959D01*
X219955D01*
Y33203D01*
D02*
G37*
G36*
X217986Y36747D02*
X222514D01*
Y38715D01*
X217986D01*
Y36747D01*
D02*
G37*
G36*
X217199Y42259D02*
X216018D01*
Y45014D01*
X217199D01*
Y42259D01*
D02*
G37*
G36*
X215230D02*
X214049D01*
Y45014D01*
X215230D01*
Y42259D01*
D02*
G37*
G36*
X217199Y39503D02*
X212671D01*
Y41471D01*
X217199D01*
Y39503D01*
D02*
G37*
G36*
X221136Y42259D02*
X219955D01*
Y45014D01*
X221136D01*
Y42259D01*
D02*
G37*
G36*
X219167D02*
X217986D01*
Y45014D01*
X219167D01*
Y42259D01*
D02*
G37*
G36*
X222514Y39503D02*
X217986D01*
Y41471D01*
X222514D01*
Y39503D01*
D02*
G37*
D16*
X19720Y132212D02*
D03*
D17*
Y104654D02*
D03*
Y122370D02*
D03*
Y114496D02*
D03*
X32318Y132212D02*
D03*
Y104654D02*
D03*
Y122370D02*
D03*
Y114496D02*
D03*
X25626Y134181D02*
D03*
Y126307D02*
D03*
Y102685D02*
D03*
Y110559D02*
D03*
Y118433D02*
D03*
X38224Y134181D02*
D03*
Y126307D02*
D03*
Y102685D02*
D03*
Y110559D02*
D03*
Y118433D02*
D03*
D18*
X11846Y144299D02*
D03*
Y92567D02*
D03*
X34208D02*
D03*
Y144299D02*
D03*
D19*
X216018Y40487D02*
D03*
Y37731D02*
D03*
X219167D02*
D03*
Y40487D02*
D03*
X105323Y39398D02*
D03*
Y36642D02*
D03*
X108473D02*
D03*
Y39398D02*
D03*
D20*
X12330Y21784D02*
D03*
Y63585D02*
D03*
X328738Y80344D02*
D03*
Y122469D02*
D03*
X328438Y36569D02*
D03*
D21*
X29338Y15879D02*
D03*
Y57679D02*
D03*
X311430Y42475D02*
D03*
D22*
X29338Y27690D02*
D03*
X41149Y15879D02*
D03*
Y27690D02*
D03*
Y69490D02*
D03*
Y57679D02*
D03*
X29338Y69490D02*
D03*
X311430Y30664D02*
D03*
X299619Y42475D02*
D03*
Y30664D02*
D03*
D23*
X311809Y130934D02*
D03*
D24*
X299998D02*
D03*
X311809Y119123D02*
D03*
X299998D02*
D03*
X311809Y107312D02*
D03*
X299998D02*
D03*
X311809Y95501D02*
D03*
X299998D02*
D03*
X311809Y83690D02*
D03*
X299998D02*
D03*
X311809Y71879D02*
D03*
X299998D02*
D03*
D25*
X99052Y80832D02*
D03*
X126490Y108270D02*
D03*
X245320Y108500D02*
D03*
X217882Y81062D02*
D03*
D26*
X99052Y96905D02*
D03*
X217882Y97135D02*
D03*
D27*
X289960Y102980D02*
D03*
X248900Y139140D02*
D03*
X126500Y139390D02*
D03*
X178660Y106860D02*
D03*
X59100Y116670D02*
D03*
X90830Y36080D02*
D03*
X243310Y15730D02*
D03*
X131470Y16010D02*
D03*
X200570Y35590D02*
D03*
X244460Y28130D02*
D03*
X137240Y24460D02*
D03*
X61270Y74970D02*
D03*
X67510Y17640D02*
D03*
X176700Y73310D02*
D03*
X178850Y17000D02*
D03*
X280890Y30350D02*
D03*
X284130Y55660D02*
D03*
X51640Y43380D02*
D03*
D42*
X220545Y43637D02*
D03*
X218577D02*
D03*
X216608D02*
D03*
X214640D02*
D03*
Y34581D02*
D03*
X216608D02*
D03*
X218577D02*
D03*
X220545D02*
D03*
X109851Y42548D02*
D03*
X107882D02*
D03*
X105914D02*
D03*
X103945D02*
D03*
Y33492D02*
D03*
X105914D02*
D03*
X107882D02*
D03*
X109851D02*
D03*
D43*
X214935Y40487D02*
D03*
Y37731D02*
D03*
X220250D02*
D03*
Y40487D02*
D03*
X104241Y39398D02*
D03*
Y36642D02*
D03*
X109556D02*
D03*
Y39398D02*
D03*
D46*
X127240Y74190D02*
D03*
Y81670D02*
D03*
X195490Y92910D02*
D03*
Y100390D02*
D03*
X281270Y77020D02*
D03*
Y84500D02*
D03*
X168070Y80860D02*
D03*
Y73380D02*
D03*
X84930Y41180D02*
D03*
Y33700D02*
D03*
X272928Y23090D02*
D03*
Y30570D02*
D03*
X262542Y19829D02*
D03*
Y12349D02*
D03*
X254042Y19829D02*
D03*
Y12349D02*
D03*
X251720Y34630D02*
D03*
Y27150D02*
D03*
X224908Y54890D02*
D03*
Y62370D02*
D03*
X218058D02*
D03*
Y54890D02*
D03*
X210908D02*
D03*
Y62370D02*
D03*
X188968Y54310D02*
D03*
Y46830D02*
D03*
X179788Y54390D02*
D03*
Y46910D02*
D03*
X132428Y37210D02*
D03*
Y29730D02*
D03*
X70818Y39660D02*
D03*
Y32180D02*
D03*
X59938Y40010D02*
D03*
Y32530D02*
D03*
X54190Y82410D02*
D03*
Y74930D02*
D03*
X273010Y44630D02*
D03*
Y52110D02*
D03*
X242638Y42500D02*
D03*
Y35020D02*
D03*
X235078Y42420D02*
D03*
Y34940D02*
D03*
X217850Y21450D02*
D03*
Y13970D02*
D03*
X210070Y21690D02*
D03*
Y14210D02*
D03*
X182162Y40589D02*
D03*
Y33109D02*
D03*
X172708Y40570D02*
D03*
Y33090D02*
D03*
X149658Y18650D02*
D03*
Y11170D02*
D03*
X143830Y30950D02*
D03*
Y23470D02*
D03*
X140658Y18650D02*
D03*
Y11170D02*
D03*
X124438Y40870D02*
D03*
Y33390D02*
D03*
X116258Y51310D02*
D03*
Y58790D02*
D03*
X108748Y58430D02*
D03*
Y50950D02*
D03*
X103858Y27050D02*
D03*
Y19570D02*
D03*
X100888Y50940D02*
D03*
Y58420D02*
D03*
X95838Y27700D02*
D03*
Y20220D02*
D03*
X76898Y52260D02*
D03*
Y44780D02*
D03*
X67878Y52210D02*
D03*
Y44730D02*
D03*
D47*
X252570Y71300D02*
D03*
X263751D02*
D03*
D48*
X165038Y17220D02*
D03*
X172518D02*
D03*
X187700Y37780D02*
D03*
X195180D02*
D03*
X53038Y17690D02*
D03*
X60518D02*
D03*
M02*
