M48
;Layer_Color=9474304
;FILE_FORMAT=2:5
INCH,LZ
;TYPE=PLATED
T1F00S00C0.00787
T2F00S00C0.02756
T3F00S00C0.02800
T4F00S00C0.04016
T5F00S00C0.04016
T6F00S00C0.09000
T7F00S00C0.09055
T8F00S00C0.11811
;TYPE=NON_PLATED
T9F00S00C0.11811
%
T01
X0105323Y0036642
Y0039398
X0108473
Y0036642
X0216018Y0037731
Y0040487
X0219167
Y0037731
T02
X001972Y0104654
X0025626Y0102685
Y0110559
Y0118433
Y0126307
Y0134181
X001972Y0132212
Y012237
Y0114496
X0032318
Y012237
Y0132212
X0038224Y0134181
Y0126307
Y0118433
Y0110559
Y0102685
X0032318Y0104654
T03
X006751Y001764
X005164Y004338
X006127Y007497
X00591Y011667
X01265Y013939
X013724Y002446
X013147Y001601
X009083Y003608
X017885Y0017
X020057Y003559
X024446Y002813
X024331Y001573
X028089Y003035
X028413Y005566
X028996Y010298
X02489Y013914
X017866Y010686
X01767Y007331
T04
X0299998Y0071879
Y008369
Y0095501
X0311809
Y008369
Y0071879
Y0107312
Y0119123
X0299998
Y0107312
Y0130934
X0311809
T05
X0029338Y0015879
Y002769
X0041149
Y0015879
Y0057679
Y006949
X0029338
Y0057679
X0299619Y0042475
Y0030664
X031143
Y0042475
T06
X0099052Y0080832
Y0096905
X012649Y010827
X0217882Y0097135
Y0081062
X024532Y01085
T07
X0011846Y0092567
X0034208
Y0144299
X0011846
T08
X0328738Y0080344
Y0122469
T09
X001233Y0021784
Y0063585
X0328438Y0036569
M30
