M48
;Layer_Color=9474304
;FILE_FORMAT=4:4
METRIC,LZ
;TYPE=PLATED
T1F00S00C0.2500
T2F00S00C1.0200
T3F00S00C1.0200
T4F00S00C1.1000
T5F00S00C3.0000
;TYPE=NON_PLATED
T6F00S00C2.9972
T7F00S00C3.0000
%
T01
X0016Y00049
Y00066
X00145Y00075
X0017Y00098
X00198Y00063
X00215Y0005
X00226Y00108
X0022Y00135
X00225Y00175
X0016Y0017
Y00153
X00145Y0018
X0016Y00257
Y00275
X00145Y00284
X00198Y00271
X00199Y00221
X00235Y00306
X00217Y00328
X00252Y00336
X00269
X0026Y00413
X00265Y00451
X00279Y00474
X00234
X0021Y0045
Y0043
X00183Y00443
X00172Y0042
Y00401
X00181Y00382
X00204Y0038
X00143Y00423
Y00482
Y00537
X00174Y00507
X00201Y00497
X0013Y00385
X00007
X00015Y00325
X00026Y00606
X0005Y00643
X00084Y00586
X00118
X00214Y00587
X00205Y00596
X00214Y00567
X00239Y00565
X00246185Y00574293
X00255Y00581
X00239Y00587
X00265Y00596
T02
X000895Y00145
X001195
Y00175
X000895
Y00205
X001195
Y00235
X000895
Y00265
X001195
Y00295
X000895
T03
X000896Y00415
Y00445
X001196
Y00415
Y00475
X000896
T04
X000611Y0002
X000865
X001119
X001373
X001627
X001881
X002135
X002389
X001373Y0063
X001119
X000865
X000611
X001627
X001881
X002135
X002389
T05
X000465Y001665
Y002735
T06
X0004Y0007
X0026Y0015
Y0052
X0004Y0055
T07
X000464Y00445
M30
