G04*
G04 #@! TF.GenerationSoftware,Altium Limited,Altium Designer,20.2.6 (244)*
G04*
G04 Layer_Physical_Order=4*
G04 Layer_Color=16711680*
%FSLAX25Y25*%
%MOIN*%
G70*
G04*
G04 #@! TF.SameCoordinates,7EBD70BA-B8F3-473B-BE4C-BEC84CDD1DDF*
G04*
G04*
G04 #@! TF.FilePolarity,Positive*
G04*
G01*
G75*
%ADD13C,0.01000*%
%ADD14R,0.03543X0.03543*%
%ADD15R,0.03543X0.03543*%
%ADD19C,0.01181*%
%ADD30R,0.04756X0.04756*%
%ADD31C,0.04756*%
%ADD32C,0.13055*%
%ADD33C,0.11811*%
%ADD34R,0.06024X0.06024*%
%ADD35C,0.06024*%
%ADD36R,0.07087X0.07087*%
%ADD37C,0.07087*%
%ADD38C,0.13000*%
%ADD39R,0.13000X0.13000*%
%ADD40C,0.05000*%
%ADD41R,0.05394X0.11063*%
G04:AMPARAMS|DCode=42|XSize=23.62mil|YSize=7.87mil|CornerRadius=1.97mil|HoleSize=0mil|Usage=FLASHONLY|Rotation=270.000|XOffset=0mil|YOffset=0mil|HoleType=Round|Shape=RoundedRectangle|*
%AMROUNDEDRECTD42*
21,1,0.02362,0.00394,0,0,270.0*
21,1,0.01968,0.00787,0,0,270.0*
1,1,0.00394,-0.00197,-0.00984*
1,1,0.00394,-0.00197,0.00984*
1,1,0.00394,0.00197,0.00984*
1,1,0.00394,0.00197,-0.00984*
%
%ADD42ROUNDEDRECTD42*%
G04:AMPARAMS|DCode=43|XSize=41.34mil|YSize=15.75mil|CornerRadius=3.94mil|HoleSize=0mil|Usage=FLASHONLY|Rotation=180.000|XOffset=0mil|YOffset=0mil|HoleType=Round|Shape=RoundedRectangle|*
%AMROUNDEDRECTD43*
21,1,0.04134,0.00787,0,0,180.0*
21,1,0.03347,0.01575,0,0,180.0*
1,1,0.00787,-0.01673,0.00394*
1,1,0.00787,0.01673,0.00394*
1,1,0.00787,0.01673,-0.00394*
1,1,0.00787,-0.01673,-0.00394*
%
%ADD43ROUNDEDRECTD43*%
%ADD44C,0.01575*%
%ADD45C,0.03150*%
G36*
X328780Y148481D02*
Y129035D01*
X328738Y128997D01*
X327465Y128872D01*
X326240Y128500D01*
X325112Y127897D01*
X324122Y127085D01*
X323311Y126096D01*
X322707Y124967D01*
X322336Y123743D01*
X322211Y122469D01*
X322336Y121196D01*
X322707Y119972D01*
X323311Y118843D01*
X324122Y117854D01*
X325112Y117042D01*
X326240Y116439D01*
X327465Y116067D01*
X328738Y115942D01*
X328780Y115904D01*
Y86909D01*
X328738Y86871D01*
X327465Y86746D01*
X326240Y86374D01*
X325112Y85771D01*
X324122Y84959D01*
X323311Y83970D01*
X322707Y82841D01*
X322336Y81617D01*
X322211Y80344D01*
X322336Y79070D01*
X322707Y77846D01*
X323311Y76717D01*
X324122Y75728D01*
X325112Y74916D01*
X326240Y74313D01*
X327465Y73941D01*
X328738Y73816D01*
X328780Y73778D01*
Y43407D01*
X328438Y43097D01*
X327165Y42972D01*
X325940Y42600D01*
X324812Y41997D01*
X323822Y41185D01*
X323011Y40196D01*
X322407Y39067D01*
X322036Y37843D01*
X321911Y36569D01*
X322036Y35296D01*
X322407Y34071D01*
X323011Y32943D01*
X323822Y31954D01*
X324812Y31142D01*
X325940Y30539D01*
X327165Y30167D01*
X328438Y30042D01*
X328780Y29732D01*
Y0D01*
X10592D01*
X10129Y464D01*
X10145Y15239D01*
X10547Y15537D01*
X11057Y15382D01*
X12330Y15257D01*
X13604Y15382D01*
X14828Y15754D01*
X15957Y16357D01*
X16946Y17169D01*
X17758Y18158D01*
X18361Y19286D01*
X18732Y20511D01*
X18858Y21784D01*
X18732Y23058D01*
X18361Y24283D01*
X17758Y25411D01*
X16946Y26400D01*
X15957Y27212D01*
X14828Y27815D01*
X13604Y28187D01*
X12330Y28312D01*
X11057Y28187D01*
X10561Y28036D01*
X10159Y28334D01*
X10190Y57026D01*
X10592Y57323D01*
X11057Y57182D01*
X12330Y57057D01*
X13604Y57182D01*
X14828Y57554D01*
X15957Y58157D01*
X16946Y58969D01*
X17758Y59958D01*
X18361Y61086D01*
X18732Y62311D01*
X18858Y63585D01*
X18732Y64858D01*
X18361Y66082D01*
X17758Y67211D01*
X16946Y68200D01*
X15957Y69012D01*
X14828Y69615D01*
X13604Y69987D01*
X12330Y70112D01*
X11057Y69987D01*
X10606Y69850D01*
X10205Y70148D01*
X10221Y85151D01*
X10721Y85525D01*
X11846Y85414D01*
X13241Y85552D01*
X14583Y85959D01*
X15820Y86620D01*
X16904Y87509D01*
X17793Y88593D01*
X18454Y89830D01*
X18861Y91171D01*
X18999Y92567D01*
X18861Y93962D01*
X18454Y95304D01*
X17793Y96541D01*
X16904Y97624D01*
X15820Y98514D01*
X14583Y99175D01*
X13241Y99582D01*
X11846Y99719D01*
X10737Y99610D01*
X10237Y99992D01*
X10277Y136853D01*
X10778Y137252D01*
X11846Y137147D01*
X13241Y137284D01*
X14583Y137691D01*
X15820Y138352D01*
X16904Y139242D01*
X17793Y140325D01*
X18454Y141562D01*
X18861Y142904D01*
X18999Y144299D01*
X18861Y145694D01*
X18454Y147036D01*
X17851Y148165D01*
X18044Y148665D01*
X28011D01*
X28203Y148165D01*
X27600Y147036D01*
X27193Y145694D01*
X27056Y144299D01*
X27193Y142904D01*
X27600Y141562D01*
X28261Y140325D01*
X29151Y139242D01*
X30234Y138352D01*
X31471Y137691D01*
X32813Y137284D01*
X34208Y137147D01*
X35604Y137284D01*
X36945Y137691D01*
X38182Y138352D01*
X39266Y139242D01*
X40155Y140325D01*
X40816Y141562D01*
X41223Y142904D01*
X41361Y144299D01*
X41223Y145694D01*
X40816Y147036D01*
X40213Y148165D01*
X40406Y148665D01*
X328596D01*
X328780Y148481D01*
D02*
G37*
%LPC*%
G36*
X127000Y142854D02*
Y139890D01*
X129964D01*
X129910Y140304D01*
X129557Y141155D01*
X128996Y141886D01*
X128265Y142447D01*
X127414Y142800D01*
X127000Y142854D01*
D02*
G37*
G36*
X126000D02*
X125586Y142800D01*
X124735Y142447D01*
X124004Y141886D01*
X123443Y141155D01*
X123090Y140304D01*
X123036Y139890D01*
X126000D01*
Y142854D01*
D02*
G37*
G36*
X249400Y142604D02*
Y139640D01*
X252364D01*
X252310Y140054D01*
X251957Y140905D01*
X251396Y141636D01*
X250665Y142197D01*
X249814Y142550D01*
X249400Y142604D01*
D02*
G37*
G36*
X248400D02*
X247986Y142550D01*
X247135Y142197D01*
X246404Y141636D01*
X245843Y140905D01*
X245490Y140054D01*
X245436Y139640D01*
X248400D01*
Y142604D01*
D02*
G37*
G36*
X129964Y138890D02*
X127000D01*
Y135926D01*
X127414Y135980D01*
X128265Y136333D01*
X128996Y136894D01*
X129557Y137625D01*
X129910Y138476D01*
X129964Y138890D01*
D02*
G37*
G36*
X126000D02*
X123036D01*
X123090Y138476D01*
X123443Y137625D01*
X124004Y136894D01*
X124735Y136333D01*
X125586Y135980D01*
X126000Y135926D01*
Y138890D01*
D02*
G37*
G36*
X252364Y138640D02*
X249400D01*
Y135676D01*
X249814Y135730D01*
X250665Y136083D01*
X251396Y136644D01*
X251957Y137375D01*
X252310Y138226D01*
X252364Y138640D01*
D02*
G37*
G36*
X248400D02*
X245436D01*
X245490Y138226D01*
X245843Y137375D01*
X246404Y136644D01*
X247135Y136083D01*
X247986Y135730D01*
X248400Y135676D01*
Y138640D01*
D02*
G37*
G36*
X38224Y137175D02*
X37449Y137073D01*
X36727Y136774D01*
X36107Y136298D01*
X35631Y135678D01*
X35332Y134956D01*
X35230Y134181D01*
X35240Y134102D01*
X34762Y133904D01*
X34436Y134330D01*
X33816Y134806D01*
X33093Y135105D01*
X32318Y135207D01*
X31543Y135105D01*
X30821Y134806D01*
X30201Y134330D01*
X29725Y133710D01*
X29426Y132987D01*
X29324Y132212D01*
X29356Y131970D01*
X28883Y131737D01*
X28095Y132524D01*
X28218Y132684D01*
X28518Y133406D01*
X28620Y134181D01*
X28518Y134956D01*
X28218Y135678D01*
X27743Y136298D01*
X27123Y136774D01*
X26401Y137073D01*
X25626Y137175D01*
X24851Y137073D01*
X24128Y136774D01*
X23508Y136298D01*
X23032Y135678D01*
X22983Y135559D01*
X22689Y135181D01*
X16751D01*
Y130442D01*
X16730Y130335D01*
X16751Y130227D01*
Y129244D01*
X17734D01*
X17842Y129223D01*
X17950Y129244D01*
X21490D01*
X21598Y129223D01*
X21705Y129244D01*
X22689D01*
Y130227D01*
X22710Y130335D01*
X22689Y130442D01*
Y132311D01*
X23189Y132481D01*
X23508Y132064D01*
X24128Y131588D01*
X24851Y131289D01*
X25626Y131187D01*
X26210Y131264D01*
X29926Y127548D01*
X29926Y127548D01*
X30287Y127307D01*
X30712Y127223D01*
X34767D01*
X34767Y127223D01*
X34870Y127243D01*
X34913Y127228D01*
X35298Y126822D01*
X35230Y126307D01*
X35332Y125532D01*
X35631Y124810D01*
X36107Y124190D01*
X36727Y123714D01*
X37449Y123415D01*
X38224Y123313D01*
X38999Y123415D01*
X39721Y123714D01*
X40341Y124190D01*
X40817Y124810D01*
X41116Y125532D01*
X41218Y126307D01*
X41116Y127082D01*
X40817Y127804D01*
X40341Y128424D01*
X40141Y128578D01*
X40310Y129078D01*
X47499D01*
X52325Y124253D01*
X52325Y124252D01*
X52686Y124012D01*
X53111Y123927D01*
X53111Y123927D01*
X300619D01*
X300798Y123691D01*
X300526Y123223D01*
X299998Y123293D01*
X298919Y123150D01*
X297913Y122734D01*
X297050Y122071D01*
X296387Y121208D01*
X295970Y120202D01*
X295828Y119123D01*
X295970Y118044D01*
X296387Y117038D01*
X297050Y116175D01*
X297913Y115512D01*
X298919Y115095D01*
X299998Y114953D01*
X301077Y115095D01*
X302083Y115512D01*
X302946Y116175D01*
X303609Y117038D01*
X304025Y118044D01*
X304167Y119123D01*
X304064Y119910D01*
X304537Y120143D01*
X305254Y119427D01*
Y112755D01*
X305254Y112755D01*
X305338Y112330D01*
X305579Y111969D01*
X308184Y109364D01*
X307781Y108391D01*
X307639Y107312D01*
X307781Y106233D01*
X308198Y105227D01*
X308861Y104364D01*
X309724Y103701D01*
X310730Y103285D01*
X311809Y103142D01*
X312888Y103285D01*
X313894Y103701D01*
X314757Y104364D01*
X315420Y105227D01*
X315836Y106233D01*
X315978Y107312D01*
X315836Y108391D01*
X315420Y109397D01*
X314757Y110260D01*
X313894Y110923D01*
X312888Y111339D01*
X311809Y111481D01*
X310730Y111339D01*
X309757Y110936D01*
X307477Y113216D01*
Y117471D01*
X307978Y117570D01*
X308198Y117038D01*
X308861Y116175D01*
X309724Y115512D01*
X310730Y115095D01*
X311809Y114953D01*
X312888Y115095D01*
X313894Y115512D01*
X314757Y116175D01*
X315420Y117038D01*
X315836Y118044D01*
X315978Y119123D01*
X315836Y120202D01*
X315420Y121208D01*
X314757Y122071D01*
X313894Y122734D01*
X312888Y123150D01*
X311809Y123293D01*
X310730Y123150D01*
X309724Y122734D01*
X308861Y122071D01*
X308198Y121208D01*
X307874Y120425D01*
X307698Y120384D01*
X307327Y120412D01*
X307152Y120674D01*
X307152Y120674D01*
X302001Y125825D01*
X301640Y126066D01*
X301214Y126151D01*
X301214Y126151D01*
X53572D01*
X48746Y130976D01*
X48386Y131217D01*
X47960Y131302D01*
X47960Y131302D01*
X40170D01*
X40000Y131802D01*
X40341Y132064D01*
X40817Y132684D01*
X41116Y133406D01*
X41218Y134181D01*
X41116Y134956D01*
X40817Y135678D01*
X40341Y136298D01*
X39721Y136774D01*
X38999Y137073D01*
X38224Y137175D01*
D02*
G37*
G36*
X25626Y129301D02*
X24851Y129199D01*
X24128Y128900D01*
X23508Y128424D01*
X23269Y128112D01*
X16760D01*
X16760Y128112D01*
X16334Y128027D01*
X15974Y127786D01*
X11104Y122916D01*
X10863Y122555D01*
X10778Y122130D01*
X10778Y122130D01*
Y105510D01*
X10778Y105510D01*
X10863Y105085D01*
X11104Y104724D01*
X22898Y92929D01*
Y87800D01*
X22898Y87800D01*
X22983Y87375D01*
X23224Y87014D01*
X29264Y80974D01*
X29625Y80733D01*
X30050Y80648D01*
X30050Y80648D01*
X39210D01*
X39210Y80648D01*
X39636Y80733D01*
X39996Y80974D01*
X63112Y104089D01*
X63112Y104089D01*
X79691Y120668D01*
X158619D01*
X160194Y119094D01*
X160194Y119094D01*
X160555Y118853D01*
X160980Y118768D01*
X160980Y118768D01*
X285179D01*
X295922Y108025D01*
X295828Y107312D01*
X295970Y106233D01*
X296387Y105227D01*
X297050Y104364D01*
X297913Y103701D01*
X298919Y103285D01*
X299998Y103142D01*
X301077Y103285D01*
X302083Y103701D01*
X302946Y104364D01*
X303609Y105227D01*
X304025Y106233D01*
X304167Y107312D01*
X304025Y108391D01*
X303609Y109397D01*
X302946Y110260D01*
X302083Y110923D01*
X301077Y111339D01*
X299998Y111481D01*
X298919Y111339D01*
X297913Y110923D01*
X297050Y110260D01*
X296846Y110247D01*
X286426Y120666D01*
X286066Y120907D01*
X285640Y120992D01*
X285640Y120992D01*
X161441D01*
X159866Y122566D01*
X159505Y122807D01*
X159080Y122892D01*
X159080Y122892D01*
X79230D01*
X79230Y122892D01*
X78804Y122807D01*
X78444Y122566D01*
X78444Y122566D01*
X61539Y105662D01*
X61539Y105662D01*
X38749Y82872D01*
X30511D01*
X25122Y88261D01*
Y93390D01*
X25122Y93390D01*
X25037Y93815D01*
X24796Y94176D01*
X13002Y105971D01*
Y121669D01*
X17221Y125888D01*
X22686D01*
X22733Y125532D01*
X23032Y124810D01*
X23508Y124190D01*
X24128Y123714D01*
X24851Y123415D01*
X25626Y123313D01*
X26401Y123415D01*
X27123Y123714D01*
X27743Y124190D01*
X28218Y124810D01*
X28518Y125532D01*
X28620Y126307D01*
X28518Y127082D01*
X28218Y127804D01*
X27743Y128424D01*
X27123Y128900D01*
X26401Y129199D01*
X25626Y129301D01*
D02*
G37*
G36*
X315943Y135068D02*
X307675D01*
Y126800D01*
X315943D01*
Y135068D01*
D02*
G37*
G36*
X299998Y135103D02*
X298919Y134961D01*
X297913Y134545D01*
X297050Y133882D01*
X296387Y133019D01*
X295970Y132013D01*
X295828Y130934D01*
X295970Y129855D01*
X296387Y128849D01*
X297050Y127986D01*
X297913Y127323D01*
X298919Y126907D01*
X299998Y126765D01*
X301077Y126907D01*
X302083Y127323D01*
X302946Y127986D01*
X303609Y128849D01*
X304025Y129855D01*
X304167Y130934D01*
X304025Y132013D01*
X303609Y133019D01*
X302946Y133882D01*
X302083Y134545D01*
X301077Y134961D01*
X299998Y135103D01*
D02*
G37*
G36*
X32318Y125364D02*
X31543Y125262D01*
X30821Y124963D01*
X30201Y124487D01*
X29725Y123867D01*
X29426Y123145D01*
X29324Y122370D01*
X29426Y121595D01*
X29725Y120873D01*
X30201Y120253D01*
X30821Y119777D01*
X31543Y119478D01*
X32318Y119376D01*
X33093Y119478D01*
X33816Y119777D01*
X34436Y120253D01*
X34911Y120873D01*
X35210Y121595D01*
X35313Y122370D01*
X35210Y123145D01*
X34911Y123867D01*
X34436Y124487D01*
X33816Y124963D01*
X33093Y125262D01*
X32318Y125364D01*
D02*
G37*
G36*
X19720D02*
X18945Y125262D01*
X18223Y124963D01*
X17603Y124487D01*
X17127Y123867D01*
X16828Y123145D01*
X16726Y122370D01*
X16828Y121595D01*
X17127Y120873D01*
X17603Y120253D01*
X18223Y119777D01*
X18945Y119478D01*
X19720Y119376D01*
X20495Y119478D01*
X21217Y119777D01*
X21837Y120253D01*
X22313Y120873D01*
X22612Y121595D01*
X22714Y122370D01*
X22612Y123145D01*
X22313Y123867D01*
X21837Y124487D01*
X21217Y124963D01*
X20495Y125262D01*
X19720Y125364D01*
D02*
G37*
G36*
X59600Y120134D02*
Y117170D01*
X62564D01*
X62510Y117584D01*
X62157Y118435D01*
X61596Y119166D01*
X60865Y119727D01*
X60014Y120080D01*
X59600Y120134D01*
D02*
G37*
G36*
X58600D02*
X58186Y120080D01*
X57335Y119727D01*
X56604Y119166D01*
X56043Y118435D01*
X55690Y117584D01*
X55636Y117170D01*
X58600D01*
Y120134D01*
D02*
G37*
G36*
X38224Y121427D02*
X37449Y121325D01*
X36727Y121026D01*
X36107Y120550D01*
X35631Y119930D01*
X35332Y119208D01*
X35230Y118433D01*
X35332Y117658D01*
X35631Y116936D01*
X36107Y116316D01*
X36727Y115840D01*
X37449Y115541D01*
X38224Y115439D01*
X38999Y115541D01*
X39721Y115840D01*
X40341Y116316D01*
X40817Y116936D01*
X41116Y117658D01*
X41218Y118433D01*
X41116Y119208D01*
X40817Y119930D01*
X40341Y120550D01*
X39721Y121026D01*
X38999Y121325D01*
X38224Y121427D01*
D02*
G37*
G36*
X25626D02*
X24851Y121325D01*
X24128Y121026D01*
X23508Y120550D01*
X23032Y119930D01*
X22733Y119208D01*
X22631Y118433D01*
X22733Y117658D01*
X23032Y116936D01*
X23508Y116316D01*
X24128Y115840D01*
X24851Y115541D01*
X25626Y115439D01*
X26401Y115541D01*
X27123Y115840D01*
X27743Y116316D01*
X28218Y116936D01*
X28518Y117658D01*
X28620Y118433D01*
X28518Y119208D01*
X28218Y119930D01*
X27743Y120550D01*
X27123Y121026D01*
X26401Y121325D01*
X25626Y121427D01*
D02*
G37*
G36*
X62564Y116170D02*
X59600D01*
Y113206D01*
X60014Y113260D01*
X60865Y113613D01*
X61596Y114174D01*
X62157Y114905D01*
X62510Y115756D01*
X62564Y116170D01*
D02*
G37*
G36*
X58600D02*
X55636D01*
X55690Y115756D01*
X56043Y114905D01*
X56604Y114174D01*
X57335Y113613D01*
X58186Y113260D01*
X58600Y113206D01*
Y116170D01*
D02*
G37*
G36*
X32318Y117490D02*
X31543Y117388D01*
X30821Y117089D01*
X30201Y116613D01*
X29725Y115993D01*
X29426Y115271D01*
X29324Y114496D01*
X29426Y113721D01*
X29725Y112999D01*
X30201Y112379D01*
X30821Y111903D01*
X31543Y111604D01*
X32318Y111502D01*
X33093Y111604D01*
X33816Y111903D01*
X34436Y112379D01*
X34911Y112999D01*
X35210Y113721D01*
X35313Y114496D01*
X35210Y115271D01*
X34911Y115993D01*
X34436Y116613D01*
X33816Y117089D01*
X33093Y117388D01*
X32318Y117490D01*
D02*
G37*
G36*
X19720D02*
X18945Y117388D01*
X18223Y117089D01*
X17603Y116613D01*
X17127Y115993D01*
X16828Y115271D01*
X16726Y114496D01*
X16828Y113721D01*
X17127Y112999D01*
X17603Y112379D01*
X18223Y111903D01*
X18945Y111604D01*
X19720Y111502D01*
X20495Y111604D01*
X21217Y111903D01*
X21837Y112379D01*
X22313Y112999D01*
X22612Y113721D01*
X22714Y114496D01*
X22612Y115271D01*
X22313Y115993D01*
X21837Y116613D01*
X21217Y117089D01*
X20495Y117388D01*
X19720Y117490D01*
D02*
G37*
G36*
X38724Y113900D02*
Y111059D01*
X41565D01*
X41515Y111441D01*
X41175Y112262D01*
X40633Y112968D01*
X39928Y113510D01*
X39106Y113850D01*
X38724Y113900D01*
D02*
G37*
G36*
X26125D02*
Y111059D01*
X28967D01*
X28916Y111441D01*
X28576Y112262D01*
X28035Y112968D01*
X27329Y113510D01*
X26507Y113850D01*
X26125Y113900D01*
D02*
G37*
G36*
X37724D02*
X37342Y113850D01*
X36520Y113510D01*
X35815Y112968D01*
X35273Y112262D01*
X34933Y111441D01*
X34883Y111059D01*
X37724D01*
Y113900D01*
D02*
G37*
G36*
X25126D02*
X24744Y113850D01*
X23922Y113510D01*
X23216Y112968D01*
X22675Y112262D01*
X22334Y111441D01*
X22284Y111059D01*
X25126D01*
Y113900D01*
D02*
G37*
G36*
X179160Y110324D02*
Y107360D01*
X182124D01*
X182070Y107774D01*
X181717Y108625D01*
X181156Y109356D01*
X180425Y109917D01*
X179574Y110270D01*
X179160Y110324D01*
D02*
G37*
G36*
X178160D02*
X177746Y110270D01*
X176895Y109917D01*
X176164Y109356D01*
X175603Y108625D01*
X175250Y107774D01*
X175196Y107360D01*
X178160D01*
Y110324D01*
D02*
G37*
G36*
X41565Y110059D02*
X38724D01*
Y107218D01*
X39106Y107268D01*
X39928Y107608D01*
X40633Y108150D01*
X41175Y108855D01*
X41515Y109677D01*
X41565Y110059D01*
D02*
G37*
G36*
X28967D02*
X26125D01*
Y107218D01*
X26507Y107268D01*
X27329Y107608D01*
X28035Y108150D01*
X28576Y108855D01*
X28916Y109677D01*
X28967Y110059D01*
D02*
G37*
G36*
X37724D02*
X34883D01*
X34933Y109677D01*
X35273Y108855D01*
X35815Y108150D01*
X36520Y107608D01*
X37342Y107268D01*
X37724Y107218D01*
Y110059D01*
D02*
G37*
G36*
X25126D02*
X22284D01*
X22334Y109677D01*
X22675Y108855D01*
X23216Y108150D01*
X23922Y107608D01*
X24744Y107268D01*
X25126Y107218D01*
Y110059D01*
D02*
G37*
G36*
X290460Y106444D02*
Y103480D01*
X293424D01*
X293370Y103894D01*
X293017Y104745D01*
X292456Y105476D01*
X291725Y106037D01*
X290874Y106390D01*
X290460Y106444D01*
D02*
G37*
G36*
X289460D02*
X289046Y106390D01*
X288195Y106037D01*
X287464Y105476D01*
X286903Y104745D01*
X286550Y103894D01*
X286496Y103480D01*
X289460D01*
Y106444D01*
D02*
G37*
G36*
X182124Y106360D02*
X179160D01*
Y103396D01*
X179574Y103450D01*
X180425Y103803D01*
X181156Y104364D01*
X181717Y105095D01*
X182070Y105946D01*
X182124Y106360D01*
D02*
G37*
G36*
X178160D02*
X175196D01*
X175250Y105946D01*
X175603Y105095D01*
X176164Y104364D01*
X176895Y103803D01*
X177746Y103450D01*
X178160Y103396D01*
Y106360D01*
D02*
G37*
G36*
X38724Y106026D02*
Y103185D01*
X41565D01*
X41515Y103567D01*
X41175Y104388D01*
X40633Y105094D01*
X39928Y105636D01*
X39106Y105976D01*
X38724Y106026D01*
D02*
G37*
G36*
X26125D02*
Y103185D01*
X28967D01*
X28916Y103567D01*
X28576Y104388D01*
X28035Y105094D01*
X27329Y105636D01*
X26507Y105976D01*
X26125Y106026D01*
D02*
G37*
G36*
X245320Y115625D02*
X243930Y115488D01*
X242593Y115083D01*
X241362Y114424D01*
X240282Y113538D01*
X239396Y112458D01*
X238738Y111227D01*
X238332Y109890D01*
X238195Y108500D01*
X238332Y107110D01*
X238738Y105773D01*
X239396Y104542D01*
X240282Y103462D01*
X241362Y102576D01*
X242593Y101918D01*
X243930Y101512D01*
X245320Y101375D01*
X246710Y101512D01*
X248047Y101918D01*
X249278Y102576D01*
X250358Y103462D01*
X251244Y104542D01*
X251903Y105773D01*
X252308Y107110D01*
X252445Y108500D01*
X252308Y109890D01*
X251903Y111227D01*
X251244Y112458D01*
X250358Y113538D01*
X249278Y114424D01*
X248047Y115083D01*
X246710Y115488D01*
X245320Y115625D01*
D02*
G37*
G36*
X293424Y102480D02*
X290460D01*
Y99516D01*
X290874Y99570D01*
X291725Y99923D01*
X292456Y100484D01*
X293017Y101215D01*
X293370Y102066D01*
X293424Y102480D01*
D02*
G37*
G36*
X289460D02*
X286496D01*
X286550Y102066D01*
X286903Y101215D01*
X287464Y100484D01*
X288195Y99923D01*
X289046Y99570D01*
X289460Y99516D01*
Y102480D01*
D02*
G37*
G36*
X32318Y107648D02*
X31543Y107546D01*
X30821Y107246D01*
X30201Y106771D01*
X29725Y106150D01*
X29426Y105428D01*
X29324Y104654D01*
X29426Y103878D01*
X29725Y103156D01*
X30201Y102536D01*
X30821Y102060D01*
X31543Y101761D01*
X32318Y101659D01*
X33093Y101761D01*
X33816Y102060D01*
X34342Y102464D01*
X34689Y102387D01*
X34870Y102281D01*
X34933Y101803D01*
X35273Y100981D01*
X35815Y100276D01*
X36322Y99887D01*
X36090Y99435D01*
X35604Y99582D01*
X34208Y99719D01*
X32813Y99582D01*
X31471Y99175D01*
X30234Y98514D01*
X29151Y97624D01*
X28261Y96541D01*
X27600Y95304D01*
X27193Y93962D01*
X27056Y92567D01*
X27193Y91171D01*
X27600Y89830D01*
X28261Y88593D01*
X29151Y87509D01*
X30234Y86620D01*
X31471Y85959D01*
X32813Y85552D01*
X34208Y85414D01*
X35604Y85552D01*
X36945Y85959D01*
X38182Y86620D01*
X39266Y87509D01*
X40155Y88593D01*
X40816Y89830D01*
X41223Y91171D01*
X41361Y92567D01*
X41223Y93962D01*
X40816Y95304D01*
X40155Y96541D01*
X39266Y97624D01*
X38182Y98514D01*
X37524Y98866D01*
X37679Y99349D01*
X37724Y99344D01*
Y102685D01*
Y106026D01*
X37342Y105976D01*
X36520Y105636D01*
X35815Y105094D01*
X35767Y105032D01*
X35244Y105172D01*
X35210Y105428D01*
X34911Y106150D01*
X34436Y106771D01*
X33816Y107246D01*
X33093Y107546D01*
X32318Y107648D01*
D02*
G37*
G36*
X41565Y102185D02*
X38724D01*
Y99344D01*
X39106Y99394D01*
X39928Y99734D01*
X40633Y100276D01*
X41175Y100981D01*
X41515Y101803D01*
X41565Y102185D01*
D02*
G37*
G36*
X28967D02*
X26125D01*
Y99344D01*
X26507Y99394D01*
X27329Y99734D01*
X28035Y100276D01*
X28576Y100981D01*
X28916Y101803D01*
X28967Y102185D01*
D02*
G37*
G36*
X19720Y107648D02*
X18945Y107546D01*
X18223Y107246D01*
X17603Y106771D01*
X17127Y106150D01*
X16828Y105428D01*
X16726Y104654D01*
X16828Y103878D01*
X17127Y103156D01*
X17603Y102536D01*
X18223Y102060D01*
X18945Y101761D01*
X19720Y101659D01*
X20495Y101761D01*
X21217Y102060D01*
X21743Y102464D01*
X22091Y102387D01*
X22272Y102281D01*
X22334Y101803D01*
X22675Y100981D01*
X23216Y100276D01*
X23922Y99734D01*
X24744Y99394D01*
X25126Y99344D01*
Y102685D01*
Y106026D01*
X24744Y105976D01*
X23922Y105636D01*
X23216Y105094D01*
X23169Y105032D01*
X22646Y105172D01*
X22612Y105428D01*
X22313Y106150D01*
X21837Y106771D01*
X21217Y107246D01*
X20495Y107546D01*
X19720Y107648D01*
D02*
G37*
G36*
X198262Y95682D02*
X195990D01*
Y93410D01*
X198262D01*
Y95682D01*
D02*
G37*
G36*
X194990D02*
X192718D01*
Y93410D01*
X194990D01*
Y95682D01*
D02*
G37*
G36*
X311809Y99670D02*
X310730Y99528D01*
X309724Y99112D01*
X308861Y98449D01*
X308198Y97586D01*
X307781Y96580D01*
X307639Y95501D01*
X307781Y94422D01*
X308198Y93416D01*
X308861Y92553D01*
X309724Y91890D01*
X310730Y91474D01*
X311809Y91331D01*
X312888Y91474D01*
X313894Y91890D01*
X314757Y92553D01*
X315420Y93416D01*
X315836Y94422D01*
X315978Y95501D01*
X315836Y96580D01*
X315420Y97586D01*
X314757Y98449D01*
X313894Y99112D01*
X312888Y99528D01*
X311809Y99670D01*
D02*
G37*
G36*
X299998D02*
X298919Y99528D01*
X297913Y99112D01*
X297050Y98449D01*
X296387Y97586D01*
X295970Y96580D01*
X295828Y95501D01*
X295970Y94422D01*
X296387Y93416D01*
X297050Y92553D01*
X297913Y91890D01*
X298919Y91474D01*
X299998Y91331D01*
X301077Y91474D01*
X302083Y91890D01*
X302946Y92553D01*
X303609Y93416D01*
X304025Y94422D01*
X304167Y95501D01*
X304025Y96580D01*
X303609Y97586D01*
X302946Y98449D01*
X302083Y99112D01*
X301077Y99528D01*
X299998Y99670D01*
D02*
G37*
G36*
X224973Y104225D02*
X210792D01*
Y90432D01*
X210292Y90225D01*
X200612Y99905D01*
X200251Y100146D01*
X199826Y100230D01*
X199826Y100230D01*
X197852D01*
Y102752D01*
X193128D01*
Y98028D01*
X196654D01*
X196762Y98007D01*
X196762Y98007D01*
X199365D01*
X212135Y85237D01*
X211958Y85021D01*
X211300Y83789D01*
X210894Y82452D01*
X210757Y81062D01*
X210894Y79672D01*
X211300Y78336D01*
X211958Y77104D01*
X212844Y76024D01*
X213924Y75138D01*
X215156Y74480D01*
X216492Y74074D01*
X217882Y73937D01*
X219272Y74074D01*
X220609Y74480D01*
X221841Y75138D01*
X222920Y76024D01*
X223806Y77104D01*
X224465Y78336D01*
X224870Y79672D01*
X225007Y81062D01*
X224870Y82452D01*
X224465Y83789D01*
X223806Y85021D01*
X222920Y86100D01*
X221841Y86986D01*
X220609Y87645D01*
X219272Y88050D01*
X217882Y88187D01*
X216492Y88050D01*
X215156Y87645D01*
X213924Y86986D01*
X213708Y86809D01*
X210972Y89544D01*
X211180Y90044D01*
X221850D01*
X240885Y71010D01*
Y61023D01*
X236741Y56879D01*
X226671Y46809D01*
X226192Y46093D01*
X226182Y46044D01*
X222393Y42254D01*
X221932Y42501D01*
X221962Y42652D01*
Y43137D01*
X220545D01*
Y43637D01*
X220045D01*
Y46080D01*
X219968Y46377D01*
X224423Y50832D01*
X224423Y50832D01*
X224664Y51193D01*
X224748Y51618D01*
Y52528D01*
X227270D01*
Y57252D01*
X222546D01*
Y53726D01*
X222525Y53618D01*
X222525Y53618D01*
Y52079D01*
X217790Y47345D01*
X217549Y46984D01*
X217007Y46822D01*
X212020Y51809D01*
Y52028D01*
X212180Y52506D01*
X212287Y52528D01*
X213270D01*
Y53511D01*
X213292Y53618D01*
X213270Y53726D01*
Y57252D01*
X208546D01*
Y52528D01*
X209796D01*
Y51349D01*
X209796Y51349D01*
X209881Y50923D01*
X210122Y50562D01*
X214355Y46330D01*
X214187Y45790D01*
X213976Y45748D01*
X213580Y45484D01*
X213315Y45088D01*
X213223Y44621D01*
Y44137D01*
X214640D01*
Y43137D01*
X213223D01*
Y42652D01*
X213276Y42384D01*
X213269Y42138D01*
X212956Y41823D01*
X212878Y41808D01*
X212552Y41590D01*
X212335Y41265D01*
X212258Y40881D01*
Y40606D01*
X211758Y40360D01*
X207996Y43255D01*
X207879Y43429D01*
X195399Y55910D01*
X194682Y56389D01*
X193838Y56557D01*
X191330D01*
Y56672D01*
X186606D01*
Y56557D01*
X182150D01*
Y56752D01*
X177426D01*
Y56598D01*
X175928D01*
X175083Y56430D01*
X174367Y55951D01*
X171147Y52731D01*
X170668Y52015D01*
X170500Y51170D01*
Y46554D01*
X170038Y46362D01*
X165820Y50581D01*
X165103Y51060D01*
X164258Y51228D01*
X124160D01*
X123315Y51060D01*
X122599Y50581D01*
X114879Y42861D01*
X114762Y42686D01*
X111620Y40931D01*
X111233Y41256D01*
X111216Y41303D01*
X111268Y41563D01*
Y42048D01*
X109851D01*
Y43048D01*
X111268D01*
Y43532D01*
X111175Y43999D01*
X110911Y44395D01*
X110603Y44600D01*
X110488Y44984D01*
X110473Y45177D01*
X113469Y48174D01*
X113534Y48201D01*
X114288Y48948D01*
X118620D01*
Y53672D01*
X113896D01*
Y51774D01*
X112634Y50523D01*
X112634Y50521D01*
X112632Y50521D01*
X112605Y50455D01*
X111982Y49832D01*
X111520Y50023D01*
Y50450D01*
X109248D01*
Y48178D01*
X109675D01*
X109866Y47716D01*
X107494Y45344D01*
X106994Y45551D01*
Y45946D01*
X106994Y45946D01*
X106910Y46371D01*
X106669Y46732D01*
X106669Y46732D01*
X103250Y50150D01*
Y53302D01*
X98526D01*
Y48578D01*
X101678D01*
X104692Y45564D01*
X104667Y45028D01*
X104445Y44860D01*
Y42548D01*
X103945D01*
Y42048D01*
X102528D01*
Y41563D01*
X102582Y41295D01*
X102575Y41050D01*
X102262Y40734D01*
X102183Y40719D01*
X101858Y40501D01*
X101640Y40176D01*
X101564Y39792D01*
Y39557D01*
X101123Y39320D01*
X99549Y40362D01*
X99290Y40750D01*
X86219Y53821D01*
X85503Y54300D01*
X84658Y54468D01*
X79260D01*
Y54622D01*
X74536D01*
Y54468D01*
X70240D01*
Y54572D01*
X65516D01*
Y54468D01*
X63398D01*
X62553Y54300D01*
X61837Y53821D01*
X58377Y50361D01*
X57898Y49645D01*
X57730Y48800D01*
Y45763D01*
X57230Y45456D01*
X56568Y45588D01*
X53840D01*
X53199Y46080D01*
X52447Y46391D01*
X51640Y46497D01*
X50833Y46391D01*
X50081Y46080D01*
X49436Y45584D01*
X48940Y44939D01*
X48629Y44187D01*
X48523Y43380D01*
X48629Y42573D01*
X48940Y41821D01*
X49436Y41176D01*
X50081Y40680D01*
X50833Y40369D01*
X51640Y40263D01*
X52447Y40369D01*
X53199Y40680D01*
X53840Y41172D01*
X55654D01*
X57265Y39561D01*
X55779Y37448D01*
X55771Y37416D01*
X52252Y33896D01*
X52011Y33536D01*
X51926Y33110D01*
X51926Y33110D01*
Y20052D01*
X50676D01*
Y15328D01*
X55400D01*
Y20052D01*
X54150D01*
Y32649D01*
X57344Y35844D01*
X57376Y35851D01*
X59931Y37648D01*
X62300D01*
Y37802D01*
X68456D01*
Y37298D01*
X73180D01*
Y42022D01*
X71824D01*
X71783Y42050D01*
X70938Y42218D01*
X70678D01*
X70240Y42368D01*
Y43668D01*
X74536D01*
Y42418D01*
X79260D01*
Y43668D01*
X80870D01*
X82568Y41970D01*
Y38818D01*
X87292D01*
Y42998D01*
X87792Y43205D01*
X90938Y40060D01*
X90697Y39593D01*
X89916Y39490D01*
X89065Y39137D01*
X88334Y38576D01*
X87773Y37845D01*
X87502Y37192D01*
X87310D01*
X86885Y37107D01*
X86524Y36866D01*
X86524Y36866D01*
X86129Y36472D01*
X85430D01*
Y33700D01*
Y30928D01*
X87702D01*
Y33586D01*
X88202Y33756D01*
X88334Y33584D01*
X89065Y33023D01*
X89916Y32670D01*
X90330Y32616D01*
Y36080D01*
X91330D01*
Y32616D01*
X91744Y32670D01*
X92595Y33023D01*
X93326Y33584D01*
X93887Y34315D01*
X94240Y35166D01*
X94343Y35947D01*
X94810Y36188D01*
X98338Y32659D01*
X98699Y32418D01*
X99125Y32333D01*
X101936D01*
X102173Y32381D01*
X102846D01*
X103122Y31943D01*
X103066Y31737D01*
X102934Y31504D01*
X98530D01*
X98530Y31504D01*
X98105Y31420D01*
X97744Y31178D01*
X96628Y30062D01*
X93476D01*
Y28392D01*
X78629D01*
X74055Y32966D01*
X73694Y33207D01*
X73268Y33292D01*
X73180Y33780D01*
Y34542D01*
X68456D01*
Y33542D01*
X62300D01*
Y34892D01*
X57576D01*
Y30168D01*
X62300D01*
Y31318D01*
X68456D01*
Y29818D01*
X73180D01*
Y30042D01*
X73642Y30233D01*
X77382Y26494D01*
X77743Y26253D01*
X78168Y26168D01*
X78168Y26168D01*
X93476D01*
Y25338D01*
X98200D01*
Y28490D01*
X98991Y29280D01*
X101496D01*
Y24688D01*
X106219D01*
X120304Y10604D01*
X120304Y10604D01*
X120665Y10363D01*
X121090Y10278D01*
X121090Y10278D01*
X138296D01*
Y8808D01*
X143020D01*
Y10058D01*
X147296D01*
Y8808D01*
X152020D01*
Y13532D01*
X147296D01*
Y12282D01*
X143020D01*
Y13532D01*
X138296D01*
Y12502D01*
X132331D01*
X132277Y12999D01*
X133029Y13310D01*
X133674Y13806D01*
X134170Y14451D01*
X134481Y15203D01*
X134587Y16010D01*
X134575Y16103D01*
X134975Y16502D01*
X138296D01*
Y16288D01*
X143020D01*
Y16442D01*
X147296D01*
Y16288D01*
X152020D01*
Y17380D01*
X162676D01*
Y14858D01*
X167400D01*
Y19582D01*
X163874D01*
X163766Y19604D01*
X163766Y19604D01*
X152020D01*
Y21012D01*
X151866D01*
Y32652D01*
X151698Y33497D01*
X151219Y34213D01*
X146989Y38443D01*
X146273Y38921D01*
X145428Y39090D01*
X134790D01*
Y39572D01*
X133188D01*
X130329Y42431D01*
X129613Y42910D01*
X128768Y43078D01*
X126800D01*
Y43232D01*
X122202D01*
X121937Y43675D01*
X125075Y46812D01*
X163344D01*
X170346Y39810D01*
Y38208D01*
X175070D01*
Y38362D01*
X179800D01*
Y38227D01*
X184525D01*
Y42951D01*
X179800D01*
Y42778D01*
X175070D01*
Y42932D01*
X174916D01*
Y50256D01*
X176843Y52182D01*
X177426D01*
Y52028D01*
X182150D01*
Y52141D01*
X186606D01*
Y51948D01*
X191330D01*
Y52141D01*
X192923D01*
X204757Y40307D01*
X204984Y40155D01*
X205061Y40023D01*
X209671Y36483D01*
X209773Y36456D01*
X209852Y36386D01*
X210000Y36395D01*
X210143Y36356D01*
X210184Y36380D01*
X210456Y36326D01*
X212994D01*
X213292Y35826D01*
X213221Y35693D01*
X207869D01*
X195907Y47655D01*
X195546Y47896D01*
X195121Y47981D01*
X195121Y47981D01*
X191330D01*
Y49192D01*
X186606D01*
Y48022D01*
X182150D01*
Y49272D01*
X177426D01*
Y44548D01*
X182150D01*
Y45798D01*
X186606D01*
Y44468D01*
X187856D01*
Y40142D01*
X185338D01*
Y35418D01*
X190062D01*
Y38958D01*
X190080Y39048D01*
X190080Y39048D01*
Y44468D01*
X191330D01*
Y45757D01*
X194660D01*
X200857Y39560D01*
X200636Y39112D01*
X200570Y39120D01*
X199656Y39000D01*
X198805Y38647D01*
X198452Y38376D01*
X197952Y38623D01*
Y40552D01*
X195680D01*
Y37780D01*
Y35008D01*
X197116D01*
X197160Y34676D01*
X197513Y33825D01*
X198074Y33094D01*
X198805Y32533D01*
X199656Y32180D01*
X200070Y32126D01*
Y35590D01*
X201070D01*
Y32126D01*
X201484Y32180D01*
X202335Y32533D01*
X203066Y33094D01*
X203627Y33825D01*
X203980Y34676D01*
X204100Y35590D01*
X204092Y35656D01*
X204540Y35877D01*
X206622Y33795D01*
X206622Y33795D01*
X206983Y33554D01*
X207408Y33469D01*
X207408Y33469D01*
X213665D01*
X213701Y33290D01*
X213875Y33029D01*
X214136Y32855D01*
X214443Y32794D01*
X214837D01*
X214921Y32811D01*
X214938Y32804D01*
X215179Y32353D01*
X209284Y26457D01*
X209043Y26096D01*
X208958Y25671D01*
X208958Y25671D01*
Y24052D01*
X207708D01*
Y22802D01*
X194042D01*
X184525Y32319D01*
Y35471D01*
X179800D01*
Y34202D01*
X175070D01*
Y35452D01*
X170346D01*
Y30728D01*
X175070D01*
Y31978D01*
X179800D01*
Y30746D01*
X182952D01*
X192795Y20904D01*
X193156Y20663D01*
X193581Y20578D01*
X207708D01*
Y19328D01*
X212432D01*
Y24052D01*
X211182D01*
Y25210D01*
X216965Y30993D01*
X217465Y30786D01*
Y23812D01*
X215488D01*
Y19088D01*
X220212D01*
Y20338D01*
X221257D01*
X231122Y10474D01*
X231122Y10474D01*
X231483Y10233D01*
X231908Y10148D01*
X251680D01*
Y9986D01*
X256405D01*
Y11237D01*
X260180D01*
Y9986D01*
X264905D01*
Y14711D01*
X260180D01*
Y13461D01*
X256405D01*
Y14711D01*
X251680D01*
Y12372D01*
X244585D01*
X244486Y12872D01*
X244869Y13030D01*
X245514Y13526D01*
X246010Y14171D01*
X246321Y14923D01*
X246427Y15724D01*
X248265Y17562D01*
X251680D01*
Y17467D01*
X256405D01*
Y17621D01*
X260180D01*
Y17467D01*
X264905D01*
Y18717D01*
X269667D01*
X269667Y18717D01*
X270093Y18802D01*
X270454Y19043D01*
X272139Y20728D01*
X275290D01*
Y25452D01*
X270566D01*
Y22300D01*
X269207Y20941D01*
X264905D01*
Y22191D01*
X263302D01*
X260418Y25076D01*
Y36248D01*
X260250Y37093D01*
X259771Y37809D01*
X253519Y44061D01*
X252803Y44540D01*
X251958Y44708D01*
X245000D01*
Y44862D01*
X240276D01*
Y44628D01*
X237440D01*
Y44782D01*
X232716D01*
Y44628D01*
X232627D01*
X231783Y44460D01*
X231066Y43981D01*
X231042Y43944D01*
X231003Y43926D01*
X226722Y39136D01*
X224841D01*
X224668Y39636D01*
X229546Y43488D01*
X229576Y43542D01*
X229793Y43687D01*
X239863Y53757D01*
X240312Y54206D01*
X258801D01*
X268694Y44314D01*
X269055Y44073D01*
X269480Y43988D01*
X269480Y43988D01*
X270648D01*
Y42268D01*
X275372D01*
Y46992D01*
X270648D01*
Y46212D01*
X269941D01*
X260048Y56104D01*
X259687Y56345D01*
X259262Y56430D01*
X259262Y56430D01*
X243189D01*
X242998Y56892D01*
X244654Y58548D01*
X251284Y65178D01*
X255857D01*
Y77422D01*
X253202D01*
Y78209D01*
X258381Y83388D01*
X278908D01*
Y82138D01*
X283632D01*
Y86862D01*
X278908D01*
Y85612D01*
X257920D01*
X257495Y85527D01*
X257134Y85286D01*
X251304Y79456D01*
X251063Y79096D01*
X250978Y78670D01*
X250978Y78670D01*
Y77422D01*
X249282D01*
Y69421D01*
X245762Y65901D01*
X245300Y66092D01*
Y71925D01*
X245132Y72769D01*
X244654Y73486D01*
X224973Y93167D01*
Y104225D01*
D02*
G37*
G36*
X198262Y92410D02*
X195990D01*
Y90138D01*
X198262D01*
Y92410D01*
D02*
G37*
G36*
X194990D02*
X192718D01*
Y90138D01*
X194990D01*
Y92410D01*
D02*
G37*
G36*
X106143Y103995D02*
X91962D01*
Y92937D01*
X83643Y84618D01*
X56552D01*
Y84772D01*
X51828D01*
Y84618D01*
X50000D01*
X49155Y84450D01*
X48439Y83972D01*
X45759Y81291D01*
X45280Y80575D01*
X45112Y79730D01*
Y71708D01*
X44796Y71574D01*
X44612Y71567D01*
X44010Y72351D01*
X43172Y72994D01*
X42196Y73399D01*
X41649Y73471D01*
Y69490D01*
Y65509D01*
X42196Y65581D01*
X43172Y65986D01*
X44010Y66629D01*
X44612Y67413D01*
X44796Y67406D01*
X45112Y67272D01*
Y63835D01*
X42356Y61078D01*
X42090Y61189D01*
X41149Y61312D01*
X40209Y61189D01*
X39332Y60826D01*
X38580Y60248D01*
X38002Y59496D01*
X37639Y58619D01*
X37516Y57679D01*
X37639Y56739D01*
X38002Y55862D01*
X38580Y55110D01*
X39332Y54532D01*
X40209Y54169D01*
X41149Y54045D01*
X42090Y54169D01*
X42966Y54532D01*
X43718Y55110D01*
X44296Y55862D01*
X44659Y56739D01*
X44719Y57197D01*
X48881Y61359D01*
X49360Y62075D01*
X49528Y62920D01*
Y78816D01*
X50915Y80203D01*
X51828D01*
Y80048D01*
X56552D01*
Y80203D01*
X84558D01*
X85403Y80371D01*
X86119Y80849D01*
X95084Y89814D01*
X106143D01*
Y103995D01*
D02*
G37*
G36*
X311809Y87859D02*
X310730Y87717D01*
X309724Y87301D01*
X308861Y86638D01*
X308198Y85775D01*
X307781Y84769D01*
X307639Y83690D01*
X307781Y82611D01*
X308198Y81605D01*
X308861Y80742D01*
X309724Y80079D01*
X310730Y79663D01*
X311809Y79520D01*
X312888Y79663D01*
X313894Y80079D01*
X314757Y80742D01*
X315420Y81605D01*
X315836Y82611D01*
X315978Y83690D01*
X315836Y84769D01*
X315420Y85775D01*
X314757Y86638D01*
X313894Y87301D01*
X312888Y87717D01*
X311809Y87859D01*
D02*
G37*
G36*
X299998D02*
X298919Y87717D01*
X297913Y87301D01*
X297050Y86638D01*
X296387Y85775D01*
X295970Y84769D01*
X295828Y83690D01*
X295970Y82611D01*
X296387Y81605D01*
X297050Y80742D01*
X297913Y80079D01*
X298919Y79663D01*
X299998Y79520D01*
X301077Y79663D01*
X302083Y80079D01*
X302946Y80742D01*
X303609Y81605D01*
X304025Y82611D01*
X304167Y83690D01*
X304025Y84769D01*
X303609Y85775D01*
X302946Y86638D01*
X302083Y87301D01*
X301077Y87717D01*
X299998Y87859D01*
D02*
G37*
G36*
X99052Y87957D02*
X97662Y87820D01*
X96326Y87415D01*
X95094Y86756D01*
X94014Y85870D01*
X93128Y84790D01*
X92470Y83559D01*
X92064Y82222D01*
X91927Y80832D01*
X92064Y79442D01*
X92470Y78106D01*
X93128Y76874D01*
X94014Y75794D01*
X95094Y74908D01*
X96326Y74250D01*
X97662Y73844D01*
X99052Y73707D01*
X100442Y73844D01*
X101779Y74250D01*
X103010Y74908D01*
X104090Y75794D01*
X104976Y76874D01*
X105635Y78106D01*
X106040Y79442D01*
X106068Y79720D01*
X124878D01*
Y79308D01*
X129602D01*
Y84032D01*
X124878D01*
Y81944D01*
X106068D01*
X106040Y82222D01*
X105635Y83559D01*
X104976Y84790D01*
X104090Y85870D01*
X103010Y86756D01*
X101779Y87415D01*
X100442Y87820D01*
X99052Y87957D01*
D02*
G37*
G36*
X126490Y115395D02*
X125100Y115258D01*
X123763Y114852D01*
X122532Y114194D01*
X121452Y113308D01*
X120566Y112228D01*
X119907Y110997D01*
X119502Y109660D01*
X119365Y108270D01*
X119502Y106880D01*
X119907Y105543D01*
X120566Y104312D01*
X121452Y103232D01*
X122532Y102346D01*
X123763Y101688D01*
X125100Y101282D01*
X126490Y101145D01*
X127880Y101282D01*
X129217Y101688D01*
X130448Y102346D01*
X130664Y102523D01*
X153389Y79799D01*
X153389Y79799D01*
X153750Y79558D01*
X154175Y79473D01*
X165708D01*
Y78498D01*
X170432D01*
Y83222D01*
X165708D01*
Y81697D01*
X154636D01*
X132237Y104096D01*
X132414Y104312D01*
X133072Y105543D01*
X133478Y106880D01*
X133615Y108270D01*
X133478Y109660D01*
X133072Y110997D01*
X132414Y112228D01*
X131528Y113308D01*
X130448Y114194D01*
X129217Y114852D01*
X127880Y115258D01*
X126490Y115395D01*
D02*
G37*
G36*
X284042Y79791D02*
X281770D01*
Y77520D01*
X284042D01*
Y79791D01*
D02*
G37*
G36*
X280770D02*
X278498D01*
Y77520D01*
X280770D01*
Y79791D01*
D02*
G37*
G36*
X61270Y78087D02*
X60463Y77981D01*
X59711Y77670D01*
X59066Y77174D01*
X58570Y76529D01*
X58385Y76082D01*
X56552D01*
Y77292D01*
X51828D01*
Y72568D01*
X56552D01*
Y73858D01*
X58385D01*
X58570Y73411D01*
X59066Y72766D01*
X59711Y72270D01*
X60463Y71959D01*
X61270Y71853D01*
X62077Y71959D01*
X62829Y72270D01*
X63474Y72766D01*
X63970Y73411D01*
X64281Y74163D01*
X64387Y74970D01*
X64281Y75777D01*
X63970Y76529D01*
X63474Y77174D01*
X62829Y77670D01*
X62077Y77981D01*
X61270Y78087D01*
D02*
G37*
G36*
X130012Y76961D02*
X127740D01*
Y74690D01*
X130012D01*
Y76961D01*
D02*
G37*
G36*
X126740D02*
X124468D01*
Y74690D01*
X126740D01*
Y76961D01*
D02*
G37*
G36*
X176700Y76427D02*
X175893Y76321D01*
X175141Y76010D01*
X174496Y75514D01*
X174000Y74869D01*
X173815Y74422D01*
X170432D01*
Y75742D01*
X165708D01*
Y71018D01*
X170432D01*
Y72198D01*
X173815D01*
X174000Y71751D01*
X174496Y71106D01*
X175141Y70610D01*
X175893Y70299D01*
X176700Y70193D01*
X177507Y70299D01*
X178259Y70610D01*
X178904Y71106D01*
X179400Y71751D01*
X179711Y72503D01*
X179817Y73310D01*
X179711Y74117D01*
X179400Y74869D01*
X178904Y75514D01*
X178259Y76010D01*
X177507Y76321D01*
X176700Y76427D01*
D02*
G37*
G36*
X284042Y76520D02*
X281770D01*
Y74248D01*
X284042D01*
Y76520D01*
D02*
G37*
G36*
X280770D02*
X278498D01*
Y74248D01*
X280770D01*
Y76520D01*
D02*
G37*
G36*
X267447Y77832D02*
X264251D01*
Y71800D01*
X267447D01*
Y77832D01*
D02*
G37*
G36*
X263251D02*
X260054D01*
Y71800D01*
X263251D01*
Y77832D01*
D02*
G37*
G36*
X130012Y73690D02*
X127740D01*
Y71418D01*
X130012D01*
Y73690D01*
D02*
G37*
G36*
X126740D02*
X124468D01*
Y71418D01*
X126740D01*
Y73690D01*
D02*
G37*
G36*
X29838Y73471D02*
Y69990D01*
X33319D01*
X33247Y70537D01*
X32842Y71513D01*
X32199Y72351D01*
X31361Y72994D01*
X30385Y73399D01*
X29838Y73471D01*
D02*
G37*
G36*
X40649D02*
X40102Y73399D01*
X39126Y72994D01*
X38288Y72351D01*
X37645Y71513D01*
X37240Y70537D01*
X37168Y69990D01*
X40649D01*
Y73471D01*
D02*
G37*
G36*
X28838D02*
X28291Y73399D01*
X27315Y72994D01*
X26477Y72351D01*
X25834Y71513D01*
X25429Y70537D01*
X25357Y69990D01*
X28838D01*
Y73471D01*
D02*
G37*
G36*
X311809Y76048D02*
X310730Y75906D01*
X309724Y75490D01*
X308861Y74827D01*
X308198Y73964D01*
X307781Y72958D01*
X307639Y71879D01*
X307781Y70800D01*
X308198Y69794D01*
X308861Y68931D01*
X309724Y68268D01*
X310730Y67851D01*
X311809Y67709D01*
X312888Y67851D01*
X313894Y68268D01*
X314757Y68931D01*
X315420Y69794D01*
X315836Y70800D01*
X315978Y71879D01*
X315836Y72958D01*
X315420Y73964D01*
X314757Y74827D01*
X313894Y75490D01*
X312888Y75906D01*
X311809Y76048D01*
D02*
G37*
G36*
X299998D02*
X298919Y75906D01*
X297913Y75490D01*
X297050Y74827D01*
X296387Y73964D01*
X295970Y72958D01*
X295828Y71879D01*
X295970Y70800D01*
X296387Y69794D01*
X297050Y68931D01*
X297913Y68268D01*
X298919Y67851D01*
X299998Y67709D01*
X301077Y67851D01*
X302083Y68268D01*
X302946Y68931D01*
X303609Y69794D01*
X304025Y70800D01*
X304167Y71879D01*
X304025Y72958D01*
X303609Y73964D01*
X302946Y74827D01*
X302083Y75490D01*
X301077Y75906D01*
X299998Y76048D01*
D02*
G37*
G36*
X33319Y68990D02*
X29838D01*
Y65509D01*
X30385Y65581D01*
X31361Y65986D01*
X32199Y66629D01*
X32842Y67467D01*
X33247Y68443D01*
X33319Y68990D01*
D02*
G37*
G36*
X40649D02*
X37168D01*
X37240Y68443D01*
X37645Y67467D01*
X38288Y66629D01*
X39126Y65986D01*
X40102Y65581D01*
X40649Y65509D01*
Y68990D01*
D02*
G37*
G36*
X28838D02*
X25357D01*
X25429Y68443D01*
X25834Y67467D01*
X26477Y66629D01*
X27315Y65986D01*
X28291Y65581D01*
X28838Y65509D01*
Y68990D01*
D02*
G37*
G36*
X267447Y70800D02*
X264251D01*
Y64768D01*
X267447D01*
Y70800D01*
D02*
G37*
G36*
X263251D02*
X260054D01*
Y64768D01*
X263251D01*
Y70800D01*
D02*
G37*
G36*
X220420Y64732D02*
X215696D01*
Y63482D01*
X213270D01*
Y64732D01*
X208546D01*
Y60008D01*
X213270D01*
Y61258D01*
X215696D01*
Y60008D01*
X220420D01*
Y64732D01*
D02*
G37*
G36*
X227680Y65142D02*
X225408D01*
Y62870D01*
X227680D01*
Y65142D01*
D02*
G37*
G36*
X224408D02*
X222136D01*
Y62870D01*
X224408D01*
Y65142D01*
D02*
G37*
G36*
X227680Y61870D02*
X225408D01*
Y59598D01*
X227680D01*
Y61870D01*
D02*
G37*
G36*
X224408D02*
X222136D01*
Y59598D01*
X224408D01*
Y61870D01*
D02*
G37*
G36*
X111110Y60792D02*
X106386D01*
Y59532D01*
X103250D01*
Y60782D01*
X98526D01*
Y56058D01*
X103250D01*
Y57308D01*
X106386D01*
Y56068D01*
X111110D01*
Y60792D01*
D02*
G37*
G36*
X119030Y61562D02*
X116758D01*
Y59290D01*
X119030D01*
Y61562D01*
D02*
G37*
G36*
X115758D02*
X113487D01*
Y59290D01*
X115758D01*
Y61562D01*
D02*
G37*
G36*
X119030Y58290D02*
X116758D01*
Y56019D01*
X119030D01*
Y58290D01*
D02*
G37*
G36*
X115758D02*
X113487D01*
Y56019D01*
X115758D01*
Y58290D01*
D02*
G37*
G36*
X220830Y57661D02*
X218558D01*
Y55390D01*
X220830D01*
Y57661D01*
D02*
G37*
G36*
X217558D02*
X215286D01*
Y55390D01*
X217558D01*
Y57661D01*
D02*
G37*
G36*
X32940Y61281D02*
X25736D01*
Y54077D01*
X32940D01*
Y61281D01*
D02*
G37*
G36*
X284130Y58777D02*
X283323Y58671D01*
X282571Y58360D01*
X281926Y57864D01*
X281430Y57219D01*
X281119Y56467D01*
X281013Y55660D01*
X281119Y54853D01*
X281223Y54602D01*
X279843Y53222D01*
X275372D01*
Y54472D01*
X270648D01*
Y49748D01*
X275372D01*
Y50998D01*
X280303D01*
X280303Y50998D01*
X280729Y51083D01*
X281090Y51324D01*
X282681Y52915D01*
X283323Y52649D01*
X284130Y52543D01*
X284937Y52649D01*
X285689Y52960D01*
X286334Y53456D01*
X286830Y54101D01*
X287141Y54853D01*
X287247Y55660D01*
X287141Y56467D01*
X286830Y57219D01*
X286334Y57864D01*
X285689Y58360D01*
X284937Y58671D01*
X284130Y58777D01*
D02*
G37*
G36*
X220830Y54390D02*
X218558D01*
Y52118D01*
X220830D01*
Y54390D01*
D02*
G37*
G36*
X217558D02*
X215286D01*
Y52118D01*
X217558D01*
Y54390D01*
D02*
G37*
G36*
X111520Y53721D02*
X109248D01*
Y51450D01*
X111520D01*
Y53721D01*
D02*
G37*
G36*
X108248D02*
X105976D01*
Y51450D01*
X108248D01*
Y53721D01*
D02*
G37*
G36*
Y50450D02*
X105976D01*
Y48178D01*
X108248D01*
Y50450D01*
D02*
G37*
G36*
X221045Y45781D02*
Y44137D01*
X221962D01*
Y44621D01*
X221869Y45088D01*
X221605Y45484D01*
X221209Y45748D01*
X221045Y45781D01*
D02*
G37*
G36*
X103445Y44692D02*
X103282Y44659D01*
X102886Y44395D01*
X102621Y43999D01*
X102528Y43532D01*
Y43048D01*
X103445D01*
Y44692D01*
D02*
G37*
G36*
X315033Y46077D02*
X307828D01*
Y38873D01*
X315033D01*
Y46077D01*
D02*
G37*
G36*
X299619Y46108D02*
X298679Y45985D01*
X297802Y45622D01*
X297050Y45044D01*
X296473Y44292D01*
X296110Y43415D01*
X295986Y42475D01*
X296110Y41535D01*
X296473Y40658D01*
X297050Y39906D01*
X297802Y39328D01*
X298679Y38965D01*
X299619Y38842D01*
X300559Y38965D01*
X301436Y39328D01*
X302188Y39906D01*
X302766Y40658D01*
X303129Y41535D01*
X303253Y42475D01*
X303129Y43415D01*
X302766Y44292D01*
X302188Y45044D01*
X301436Y45622D01*
X300559Y45985D01*
X299619Y46108D01*
D02*
G37*
G36*
X194680Y40552D02*
X192409D01*
Y38280D01*
X194680D01*
Y40552D01*
D02*
G37*
G36*
Y37280D02*
X192409D01*
Y35008D01*
X194680D01*
Y37280D01*
D02*
G37*
G36*
X84430Y36472D02*
X82158D01*
Y34200D01*
X84430D01*
Y36472D01*
D02*
G37*
G36*
X280890Y33467D02*
X280083Y33361D01*
X279331Y33050D01*
X278686Y32554D01*
X278190Y31909D01*
X278005Y31462D01*
X275290D01*
Y32932D01*
X270566D01*
Y28208D01*
X275290D01*
Y29238D01*
X278005D01*
X278190Y28791D01*
X278686Y28146D01*
X279331Y27650D01*
X280083Y27339D01*
X280890Y27233D01*
X281697Y27339D01*
X282449Y27650D01*
X283094Y28146D01*
X283590Y28791D01*
X283901Y29543D01*
X284007Y30350D01*
X283901Y31157D01*
X283590Y31909D01*
X283094Y32554D01*
X282449Y33050D01*
X281697Y33361D01*
X280890Y33467D01*
D02*
G37*
G36*
X311930Y34644D02*
Y31164D01*
X315411D01*
X315339Y31711D01*
X314934Y32687D01*
X314291Y33525D01*
X313453Y34168D01*
X312477Y34572D01*
X311930Y34644D01*
D02*
G37*
G36*
X310930D02*
X310383Y34572D01*
X309407Y34168D01*
X308569Y33525D01*
X307926Y32687D01*
X307522Y31711D01*
X307450Y31164D01*
X310930D01*
Y34644D01*
D02*
G37*
G36*
X84430Y33200D02*
X82158D01*
Y30928D01*
X84430D01*
Y33200D01*
D02*
G37*
G36*
X29838Y31671D02*
Y28190D01*
X33319D01*
X33247Y28737D01*
X32842Y29713D01*
X32199Y30551D01*
X31361Y31194D01*
X30385Y31599D01*
X29838Y31671D01*
D02*
G37*
G36*
X28838D02*
X28291Y31599D01*
X27315Y31194D01*
X26477Y30551D01*
X25834Y29713D01*
X25429Y28737D01*
X25357Y28190D01*
X28838D01*
Y31671D01*
D02*
G37*
G36*
X299619Y34297D02*
X298679Y34174D01*
X297802Y33811D01*
X297050Y33233D01*
X296473Y32481D01*
X296110Y31604D01*
X295986Y30664D01*
X296110Y29724D01*
X296473Y28847D01*
X297050Y28095D01*
X297802Y27517D01*
X298679Y27154D01*
X299619Y27031D01*
X300559Y27154D01*
X301436Y27517D01*
X302188Y28095D01*
X302766Y28847D01*
X303129Y29724D01*
X303253Y30664D01*
X303129Y31604D01*
X302766Y32481D01*
X302188Y33233D01*
X301436Y33811D01*
X300559Y34174D01*
X299619Y34297D01*
D02*
G37*
G36*
X315411Y30164D02*
X311930D01*
Y26683D01*
X312477Y26755D01*
X313453Y27160D01*
X314291Y27803D01*
X314934Y28641D01*
X315339Y29617D01*
X315411Y30164D01*
D02*
G37*
G36*
X310930D02*
X307450D01*
X307522Y29617D01*
X307926Y28641D01*
X308569Y27803D01*
X309407Y27160D01*
X310383Y26755D01*
X310930Y26683D01*
Y30164D01*
D02*
G37*
G36*
X41149Y31323D02*
X40209Y31200D01*
X39332Y30837D01*
X38580Y30259D01*
X38002Y29507D01*
X37639Y28630D01*
X37516Y27690D01*
X37639Y26750D01*
X38002Y25873D01*
X38580Y25121D01*
X39332Y24543D01*
X40209Y24180D01*
X41149Y24057D01*
X42090Y24180D01*
X42966Y24543D01*
X43718Y25121D01*
X44296Y25873D01*
X44659Y26750D01*
X44783Y27690D01*
X44659Y28630D01*
X44296Y29507D01*
X43718Y30259D01*
X42966Y30837D01*
X42090Y31200D01*
X41149Y31323D01*
D02*
G37*
G36*
X33319Y27190D02*
X29838D01*
Y23709D01*
X30385Y23781D01*
X31361Y24186D01*
X32199Y24829D01*
X32842Y25667D01*
X33247Y26643D01*
X33319Y27190D01*
D02*
G37*
G36*
X28838D02*
X25357D01*
X25429Y26643D01*
X25834Y25667D01*
X26477Y24829D01*
X27315Y24186D01*
X28291Y23781D01*
X28838Y23709D01*
Y27190D01*
D02*
G37*
G36*
X98610Y22991D02*
X96338D01*
Y20720D01*
X98610D01*
Y22991D01*
D02*
G37*
G36*
X95338D02*
X93067D01*
Y20720D01*
X95338D01*
Y22991D01*
D02*
G37*
G36*
X106630Y22342D02*
X104358D01*
Y20070D01*
X106630D01*
Y22342D01*
D02*
G37*
G36*
X103358D02*
X101086D01*
Y20070D01*
X103358D01*
Y22342D01*
D02*
G37*
G36*
X67510Y20757D02*
X66703Y20651D01*
X65951Y20340D01*
X65306Y19844D01*
X64810Y19199D01*
X64625Y18752D01*
X62881D01*
Y20052D01*
X58156D01*
Y15328D01*
X62881D01*
Y16528D01*
X64625D01*
X64810Y16081D01*
X65306Y15436D01*
X65951Y14940D01*
X66703Y14629D01*
X67510Y14523D01*
X68317Y14629D01*
X69069Y14940D01*
X69714Y15436D01*
X70210Y16081D01*
X70521Y16833D01*
X70627Y17640D01*
X70521Y18447D01*
X70210Y19199D01*
X69714Y19844D01*
X69069Y20340D01*
X68317Y20651D01*
X67510Y20757D01*
D02*
G37*
G36*
X178850Y20117D02*
X178043Y20011D01*
X177291Y19700D01*
X176646Y19204D01*
X176150Y18559D01*
X175965Y18112D01*
X174881D01*
Y19582D01*
X170156D01*
Y14858D01*
X174881D01*
Y15888D01*
X175965D01*
X176150Y15441D01*
X176646Y14796D01*
X177291Y14300D01*
X178043Y13989D01*
X178850Y13883D01*
X179657Y13989D01*
X180409Y14300D01*
X181054Y14796D01*
X181550Y15441D01*
X181861Y16193D01*
X181967Y17000D01*
X181861Y17807D01*
X181550Y18559D01*
X181054Y19204D01*
X180409Y19700D01*
X179657Y20011D01*
X178850Y20117D01*
D02*
G37*
G36*
X98610Y19720D02*
X96338D01*
Y17448D01*
X98610D01*
Y19720D01*
D02*
G37*
G36*
X95338D02*
X93067D01*
Y17448D01*
X95338D01*
Y19720D01*
D02*
G37*
G36*
X106630Y19070D02*
X104358D01*
Y16798D01*
X106630D01*
Y19070D01*
D02*
G37*
G36*
X103358D02*
X101086D01*
Y16798D01*
X103358D01*
Y19070D01*
D02*
G37*
G36*
X212842Y16982D02*
X210570D01*
Y14710D01*
X212842D01*
Y16982D01*
D02*
G37*
G36*
X209570D02*
X207298D01*
Y14710D01*
X209570D01*
Y16982D01*
D02*
G37*
G36*
X220622Y16741D02*
X218350D01*
Y14470D01*
X220622D01*
Y16741D01*
D02*
G37*
G36*
X217350D02*
X215078D01*
Y14470D01*
X217350D01*
Y16741D01*
D02*
G37*
G36*
X32940Y19481D02*
X25736D01*
Y12277D01*
X32940D01*
Y19481D01*
D02*
G37*
G36*
X41149Y19512D02*
X40209Y19389D01*
X39332Y19026D01*
X38580Y18448D01*
X38002Y17696D01*
X37639Y16819D01*
X37516Y15879D01*
X37639Y14939D01*
X38002Y14062D01*
X38580Y13310D01*
X39332Y12732D01*
X40209Y12369D01*
X41149Y12246D01*
X42090Y12369D01*
X42966Y12732D01*
X43718Y13310D01*
X44296Y14062D01*
X44659Y14939D01*
X44783Y15879D01*
X44659Y16819D01*
X44296Y17696D01*
X43718Y18448D01*
X42966Y19026D01*
X42090Y19389D01*
X41149Y19512D01*
D02*
G37*
G36*
X212842Y13710D02*
X210570D01*
Y11438D01*
X212842D01*
Y13710D01*
D02*
G37*
G36*
X209570D02*
X207298D01*
Y11438D01*
X209570D01*
Y13710D01*
D02*
G37*
G36*
X220622Y13470D02*
X218350D01*
Y11198D01*
X220622D01*
Y13470D01*
D02*
G37*
G36*
X217350D02*
X215078D01*
Y11198D01*
X217350D01*
Y13470D01*
D02*
G37*
%LPD*%
G36*
X87404Y46392D02*
X87197Y45892D01*
X81330D01*
X81330Y45892D01*
X81330Y45892D01*
X79260D01*
Y47142D01*
X74536D01*
Y45892D01*
X70240D01*
Y47092D01*
X65516D01*
Y42368D01*
X65078Y42218D01*
X62300D01*
Y42372D01*
X62146D01*
Y47886D01*
X64313Y50052D01*
X65516D01*
Y49848D01*
X70240D01*
Y50052D01*
X74536D01*
Y49898D01*
X79260D01*
Y50052D01*
X83744D01*
X87404Y46392D01*
D02*
G37*
G36*
X114511Y50069D02*
X113084Y48655D01*
Y50069D01*
X114511Y51483D01*
Y50069D01*
D02*
G37*
G36*
X253844Y37492D02*
X253637Y36992D01*
X249358D01*
Y36132D01*
X245000D01*
Y37382D01*
X240276D01*
Y36052D01*
X237440D01*
Y37302D01*
X232716D01*
Y35693D01*
X221964D01*
X221893Y35826D01*
X222191Y36326D01*
X227938D01*
X228476Y36433D01*
X228932Y36737D01*
X230361Y38167D01*
X230399Y38179D01*
X232345Y39783D01*
X232716Y40058D01*
Y40058D01*
X232716Y40058D01*
X237440D01*
Y40212D01*
X240276D01*
Y40138D01*
X245000D01*
Y40292D01*
X251044D01*
X253844Y37492D01*
D02*
G37*
G36*
X229150Y43990D02*
X224110Y40010D01*
X221529Y40487D01*
X226851Y45809D01*
X229150Y43990D01*
D02*
G37*
G36*
X116662Y39741D02*
X115095Y38841D01*
X111480Y40120D01*
X115095Y42140D01*
X116662Y39741D01*
D02*
G37*
G36*
X232628Y40845D02*
X229993Y38672D01*
X226850Y38320D01*
X231480Y43500D01*
X232628Y40845D01*
D02*
G37*
G36*
X213140Y38490D02*
X210060Y36990D01*
X205450Y40530D01*
X207240Y43030D01*
X213140Y38490D01*
D02*
G37*
G36*
X59939Y38435D02*
X57009Y36374D01*
X56302Y37081D01*
X58363Y40011D01*
X59939Y38435D01*
D02*
G37*
G36*
X102790Y37450D02*
X99719Y36085D01*
X97005Y37765D01*
X99120Y39880D01*
X102790Y37450D01*
D02*
G37*
G36*
X119332Y37021D02*
X117551Y35770D01*
X116035Y37286D01*
X117551Y38802D01*
X119332Y37021D01*
D02*
G37*
G36*
X256002Y35334D02*
Y24161D01*
X256170Y23317D01*
X256649Y22600D01*
X256666Y22583D01*
X256351Y22191D01*
X251680D01*
Y21978D01*
X247350D01*
X246505Y21810D01*
X245789Y21331D01*
X243304Y18846D01*
X242503Y18741D01*
X241751Y18430D01*
X241106Y17934D01*
X240610Y17289D01*
X240299Y16537D01*
X240193Y15730D01*
X240299Y14923D01*
X240610Y14171D01*
X241106Y13526D01*
X241751Y13030D01*
X242134Y12872D01*
X242035Y12372D01*
X232369D01*
X222504Y22236D01*
X222144Y22477D01*
X221718Y22562D01*
X221718Y22562D01*
X220212D01*
Y23812D01*
X219689D01*
Y32490D01*
X219789Y32594D01*
X220189Y32826D01*
X220348Y32794D01*
X220742D01*
X221049Y32855D01*
X221310Y33029D01*
X221484Y33290D01*
X221519Y33469D01*
X232716D01*
Y32578D01*
X237440D01*
Y33828D01*
X240276D01*
Y32658D01*
X245000D01*
Y33908D01*
X249358D01*
Y32268D01*
X254082D01*
Y36547D01*
X254582Y36754D01*
X256002Y35334D01*
D02*
G37*
G36*
X130066Y36450D02*
Y34848D01*
X131903D01*
X131912Y34842D01*
X132756Y34674D01*
X144514D01*
X145413Y33774D01*
X145222Y33312D01*
X141468D01*
Y31300D01*
X134790D01*
Y32092D01*
X130066D01*
X130066Y32092D01*
Y32092D01*
X129689Y32361D01*
X127875Y34176D01*
X127514Y34417D01*
X127088Y34502D01*
X126800Y34865D01*
Y35752D01*
X122076D01*
Y33786D01*
X110851D01*
Y34477D01*
X110815Y34655D01*
X111031Y35037D01*
X111143Y35155D01*
X117300D01*
X117390Y35173D01*
X117441Y35140D01*
X117497Y35153D01*
X117551Y35131D01*
X117730Y35205D01*
X117918Y35247D01*
X119683Y36486D01*
X119955Y36540D01*
X120671Y37019D01*
X122160Y38508D01*
X126800D01*
Y38662D01*
X127854D01*
X130066Y36450D01*
D02*
G37*
G36*
X147450Y31737D02*
Y21012D01*
X147296D01*
Y20858D01*
X146602D01*
Y22970D01*
X143830D01*
Y23470D01*
X143330D01*
Y26241D01*
X141058D01*
Y25572D01*
X140568D01*
X140297Y26225D01*
X139736Y26956D01*
X139005Y27517D01*
X138154Y27870D01*
X137740Y27924D01*
Y24460D01*
X137240D01*
Y23960D01*
X133776D01*
X133830Y23546D01*
X134183Y22695D01*
X134744Y21964D01*
X135455Y21418D01*
X135460Y21368D01*
X135307Y20918D01*
X134060D01*
X133215Y20750D01*
X132499Y20271D01*
X131337Y19110D01*
X130663Y19021D01*
X129911Y18710D01*
X129266Y18214D01*
X128770Y17569D01*
X128459Y16817D01*
X128353Y16010D01*
X128459Y15203D01*
X128770Y14451D01*
X129266Y13806D01*
X129911Y13310D01*
X130663Y12999D01*
X130610Y12502D01*
X121551D01*
X106244Y27809D01*
X108625Y30191D01*
X108625Y30191D01*
X108866Y30551D01*
X108951Y30977D01*
X108951Y30977D01*
Y31430D01*
X109099Y31555D01*
X109451Y31746D01*
X109654Y31705D01*
X109801D01*
X109889Y31646D01*
X110315Y31562D01*
X122076D01*
Y31028D01*
X126800D01*
Y31452D01*
X127262Y31643D01*
X129962Y28944D01*
X130066Y28874D01*
Y27368D01*
X134459D01*
X134585Y27186D01*
X134676Y26868D01*
X134183Y26225D01*
X133830Y25374D01*
X133776Y24960D01*
X136740D01*
Y27924D01*
X136326Y27870D01*
X135475Y27517D01*
X135290Y27376D01*
X134790Y27622D01*
Y29077D01*
X141468D01*
Y28588D01*
X146192D01*
Y32342D01*
X146654Y32534D01*
X147450Y31737D01*
D02*
G37*
%LPC*%
G36*
X243960Y31594D02*
X243546Y31540D01*
X242695Y31187D01*
X241964Y30626D01*
X241403Y29895D01*
X241050Y29044D01*
X240996Y28630D01*
X243960D01*
Y31594D01*
D02*
G37*
G36*
X254492Y29921D02*
X252220D01*
Y27650D01*
X254492D01*
Y29921D01*
D02*
G37*
G36*
X243960Y27630D02*
X240996D01*
X241050Y27216D01*
X241403Y26365D01*
X241964Y25634D01*
X242695Y25073D01*
X243546Y24720D01*
X243960Y24666D01*
Y27630D01*
D02*
G37*
G36*
X254492Y26650D02*
X252220D01*
Y24378D01*
X254492D01*
Y26650D01*
D02*
G37*
G36*
X244960Y31594D02*
Y28130D01*
Y24666D01*
X245374Y24720D01*
X246225Y25073D01*
X246956Y25634D01*
X247517Y26365D01*
X247788Y27018D01*
X248948D01*
Y24378D01*
X251220D01*
Y27150D01*
Y29921D01*
X248948D01*
Y29242D01*
X247788D01*
X247517Y29895D01*
X246956Y30626D01*
X246225Y31187D01*
X245374Y31540D01*
X244960Y31594D01*
D02*
G37*
G36*
X146602Y26241D02*
X144330D01*
Y23970D01*
X146602D01*
Y26241D01*
D02*
G37*
%LPD*%
D13*
X269667Y19829D02*
X272928Y23090D01*
X262542Y19829D02*
X269667D01*
X16760Y127000D02*
X24933D01*
X25626Y126307D01*
X11890Y122130D02*
X16760Y127000D01*
X11890Y105510D02*
Y122130D01*
Y105510D02*
X24010Y93390D01*
Y87800D02*
Y93390D01*
Y87800D02*
X30050Y81760D01*
X39210D01*
X62326Y104876D01*
X79230Y121780D02*
X159080D01*
X62326Y104876D02*
X79230Y121780D01*
X126402Y80832D02*
X127240Y81670D01*
X99052Y80832D02*
X126402D01*
X199826Y99119D02*
X217882Y81062D01*
X196762Y99119D02*
X199826D01*
X195490Y100390D02*
X196762Y99119D01*
X252090Y78670D02*
X257920Y84500D01*
X281270D01*
X252090Y71779D02*
Y78670D01*
Y71779D02*
X252570Y71300D01*
X87310Y36080D02*
X90830D01*
X84930Y33700D02*
X87310Y36080D01*
X87790Y44780D02*
X99125Y33445D01*
X101936D01*
X81330Y44780D02*
X87790D01*
X252954Y11260D02*
X254042Y12349D01*
X231908Y11260D02*
X252954D01*
X221718Y21450D02*
X231908Y11260D01*
X140598Y18710D02*
X140658Y18650D01*
X131470Y16010D02*
Y16120D01*
X76898Y44780D02*
X81330D01*
X84930Y41180D01*
X199488Y35590D02*
X200570D01*
X198569Y36508D02*
X199488Y35590D01*
X196452Y36508D02*
X198569D01*
X195180Y37780D02*
X196452Y36508D01*
X195121Y46869D02*
X207408Y34581D01*
X187700Y37780D02*
X188968Y39048D01*
Y46830D01*
X181941Y33090D02*
X182162Y32869D01*
X193581Y21690D02*
X210070D01*
X182162Y33109D02*
X193581Y21690D01*
X189007Y46869D02*
X195121D01*
X207408Y34581D02*
X214640D01*
X217850Y21450D02*
X221718D01*
X217850D02*
X218577Y22177D01*
Y34581D01*
X210070Y21690D02*
Y25671D01*
X142840Y24460D02*
X143830Y23470D01*
X137240Y24460D02*
X142840D01*
X143068Y30189D02*
X143830Y30950D01*
X132887Y30189D02*
X143068D01*
X250740Y28130D02*
X251720Y27150D01*
X244460Y28130D02*
X250740D01*
X251330Y35020D02*
X251720Y34630D01*
X242638Y35020D02*
X251330D01*
X47960Y130190D02*
X53111Y125039D01*
X301214D01*
X306366Y119888D01*
Y112755D02*
Y119888D01*
Y112755D02*
X311809Y107312D01*
X36623Y130190D02*
X47960D01*
X34767Y128335D02*
X36623Y130190D01*
X30712Y128335D02*
X34767D01*
X25626Y133421D02*
X30712Y128335D01*
X25626Y133421D02*
Y134181D01*
X159080Y121780D02*
X160980Y119880D01*
X298208Y107312D02*
X299998D01*
X285640Y119880D02*
X298208Y107312D01*
X160980Y119880D02*
X285640D01*
X252570Y69586D02*
Y71300D01*
X32318Y103078D02*
Y104654D01*
X41149Y57679D02*
X42079D01*
X163766Y18492D02*
X165038Y17220D01*
X149817Y18492D02*
X163766D01*
X149658Y18650D02*
X149817Y18492D01*
X143830Y23470D02*
X144590Y24230D01*
X132428Y29730D02*
X132887Y30189D01*
X121090Y11390D02*
X140438D01*
X105430Y27050D02*
X121090Y11390D01*
X54230Y74970D02*
X61270D01*
X54190Y74930D02*
X54230Y74970D01*
X60518Y17690D02*
X60568Y17640D01*
X67510D01*
X168140Y73310D02*
X176700D01*
X168070Y73380D02*
X168140Y73310D01*
X167795Y80585D02*
X168070Y80860D01*
X154175Y80585D02*
X167795D01*
X172738Y17000D02*
X178850D01*
X172518Y17220D02*
X172738Y17000D01*
X273148Y30350D02*
X280890D01*
X272928Y30570D02*
X273148Y30350D01*
X280303Y52110D02*
X283853Y55660D01*
X273010Y52110D02*
X280303D01*
X283853Y55660D02*
X284130D01*
X253983Y19770D02*
X254042Y19829D01*
X25626Y134181D02*
Y135197D01*
X19720Y132212D02*
X21598Y130335D01*
X17842D02*
X19720Y132212D01*
Y121613D02*
Y122370D01*
X269480Y45100D02*
X272540D01*
X273010Y44630D01*
X259262Y55318D02*
X269480Y45100D01*
X238302Y55318D02*
X259262D01*
X221258Y40487D02*
X221365Y40380D01*
X221258Y40487D02*
X221529D01*
X181941Y40570D02*
X182162Y40349D01*
X172436Y40342D02*
Y40842D01*
X103858Y27050D02*
X105430D01*
X132428Y37210D02*
X132756Y36882D01*
X140438Y11390D02*
X140658Y11170D01*
X117300Y36560D02*
Y36770D01*
X102989Y36642D02*
X103111Y36520D01*
X130748Y29730D02*
X132428D01*
X127088Y33390D02*
X130748Y29730D01*
X123722Y32673D02*
X124438Y33390D01*
X110315Y32673D02*
X123722D01*
X110564Y36642D02*
X110646Y36560D01*
X107839Y30977D02*
Y33449D01*
X105254Y28392D02*
X107839Y30977D01*
X126490Y108270D02*
X154175Y80585D01*
X210908Y62370D02*
X218058D01*
X220652Y34581D02*
X234720D01*
X98530Y30392D02*
X104426D01*
X99926Y33492D02*
X103945D01*
X60448Y32430D02*
X71448D01*
X67928Y44780D02*
X76898D01*
X235078Y34940D02*
X242558D01*
X218577Y46558D02*
X223637Y51618D01*
X210908Y51349D02*
X216577Y45680D01*
X107957Y44235D02*
X115032Y51310D01*
X100888Y50940D02*
X105882Y45946D01*
X103858Y27050D02*
X105200Y28392D01*
X100888Y58420D02*
X108738D01*
X78168Y27280D02*
X95478D01*
X53038Y33110D02*
X59938Y40010D01*
X254042Y12349D02*
X262542D01*
X210070Y25671D02*
X216533Y32134D01*
X223637Y51618D02*
Y53618D01*
X224908Y54890D01*
X172708Y33090D02*
X181941D01*
X179788Y46910D02*
X188888D01*
X140658Y11170D02*
X149658D01*
X95838Y27700D02*
X98530Y30392D01*
X70818Y32180D02*
X73268D01*
X210908Y51349D02*
Y54890D01*
X53038Y17690D02*
Y33110D01*
X242558Y34940D02*
X242638Y35020D01*
X242558Y42420D02*
X242638Y42500D01*
X234720Y34581D02*
X235078Y34940D01*
X115032Y51310D02*
X116258D01*
X105882Y43229D02*
Y45946D01*
X107957Y42622D02*
Y44235D01*
X107882Y42548D02*
X107957Y42622D01*
X73268Y32180D02*
X78168Y27280D01*
X273010Y53100D02*
X273195Y53285D01*
X216533Y32134D02*
Y33900D01*
X218577Y43637D02*
Y46558D01*
X216577Y44318D02*
Y45680D01*
X210908Y54890D02*
X212180Y53618D01*
X188888Y46910D02*
X188968Y46830D01*
X189007Y46869D01*
X181903Y32609D02*
X182162Y32869D01*
X181903Y40089D02*
X182162Y40349D01*
X172436Y40842D02*
X172708Y40570D01*
X124438Y33390D02*
X127088D01*
X105200Y28392D02*
X105254D01*
X104426Y30392D02*
X105839Y31805D01*
Y32811D01*
X107839Y33449D02*
X107882Y33492D01*
X110564Y39398D02*
X110686Y39520D01*
X109188Y58200D02*
X109198Y58210D01*
X103111Y36520D02*
X103233Y36642D01*
X76898Y44780D02*
X77668Y44010D01*
X67878Y44730D02*
X67928Y44780D01*
X67828Y52260D02*
X67878Y52210D01*
D14*
X127240Y74190D02*
D03*
Y81670D02*
D03*
X195490Y92910D02*
D03*
Y100390D02*
D03*
X281270Y77020D02*
D03*
Y84500D02*
D03*
X168070Y80860D02*
D03*
Y73380D02*
D03*
X84930Y41180D02*
D03*
Y33700D02*
D03*
X272928Y23090D02*
D03*
Y30570D02*
D03*
X262542Y19829D02*
D03*
Y12349D02*
D03*
X254042Y19829D02*
D03*
Y12349D02*
D03*
X251720Y34630D02*
D03*
Y27150D02*
D03*
X224908Y54890D02*
D03*
Y62370D02*
D03*
X218058D02*
D03*
Y54890D02*
D03*
X210908D02*
D03*
Y62370D02*
D03*
X188968Y54310D02*
D03*
Y46830D02*
D03*
X179788Y54390D02*
D03*
Y46910D02*
D03*
X132428Y37210D02*
D03*
Y29730D02*
D03*
X70818Y39660D02*
D03*
Y32180D02*
D03*
X59938Y40010D02*
D03*
Y32530D02*
D03*
X54190Y82410D02*
D03*
Y74930D02*
D03*
X273010Y44630D02*
D03*
Y52110D02*
D03*
X242638Y42500D02*
D03*
Y35020D02*
D03*
X235078Y42420D02*
D03*
Y34940D02*
D03*
X217850Y21450D02*
D03*
Y13970D02*
D03*
X210070Y21690D02*
D03*
Y14210D02*
D03*
X182162Y40589D02*
D03*
Y33109D02*
D03*
X172708Y40570D02*
D03*
Y33090D02*
D03*
X149658Y18650D02*
D03*
Y11170D02*
D03*
X143830Y30950D02*
D03*
Y23470D02*
D03*
X140658Y18650D02*
D03*
Y11170D02*
D03*
X124438Y40870D02*
D03*
Y33390D02*
D03*
X116258Y51310D02*
D03*
Y58790D02*
D03*
X108748Y58430D02*
D03*
Y50950D02*
D03*
X103858Y27050D02*
D03*
Y19570D02*
D03*
X100888Y50940D02*
D03*
Y58420D02*
D03*
X95838Y27700D02*
D03*
Y20220D02*
D03*
X76898Y52260D02*
D03*
Y44780D02*
D03*
X67878Y52210D02*
D03*
Y44730D02*
D03*
D15*
X165038Y17220D02*
D03*
X172518D02*
D03*
X187700Y37780D02*
D03*
X195180D02*
D03*
X53038Y17690D02*
D03*
X60518D02*
D03*
D19*
X216018Y40487D02*
D03*
Y37731D02*
D03*
X219167D02*
D03*
Y40487D02*
D03*
X105323Y39398D02*
D03*
Y36642D02*
D03*
X108473D02*
D03*
Y39398D02*
D03*
D30*
X19720Y132212D02*
D03*
D31*
Y104654D02*
D03*
Y122370D02*
D03*
Y114496D02*
D03*
X32318Y132212D02*
D03*
Y104654D02*
D03*
Y122370D02*
D03*
Y114496D02*
D03*
X25626Y134181D02*
D03*
Y126307D02*
D03*
Y102685D02*
D03*
Y110559D02*
D03*
Y118433D02*
D03*
X38224Y134181D02*
D03*
Y126307D02*
D03*
Y102685D02*
D03*
Y110559D02*
D03*
Y118433D02*
D03*
D32*
X11846Y144299D02*
D03*
Y92567D02*
D03*
X34208D02*
D03*
Y144299D02*
D03*
D33*
X12330Y21784D02*
D03*
Y63585D02*
D03*
X328738Y80344D02*
D03*
Y122469D02*
D03*
X328438Y36569D02*
D03*
D34*
X29338Y15879D02*
D03*
Y57679D02*
D03*
X311430Y42475D02*
D03*
D35*
X29338Y27690D02*
D03*
X41149Y15879D02*
D03*
Y27690D02*
D03*
Y69490D02*
D03*
Y57679D02*
D03*
X29338Y69490D02*
D03*
X311430Y30664D02*
D03*
X299619Y42475D02*
D03*
Y30664D02*
D03*
D36*
X311809Y130934D02*
D03*
D37*
X299998D02*
D03*
X311809Y119123D02*
D03*
X299998D02*
D03*
X311809Y107312D02*
D03*
X299998D02*
D03*
X311809Y95501D02*
D03*
X299998D02*
D03*
X311809Y83690D02*
D03*
X299998D02*
D03*
X311809Y71879D02*
D03*
X299998D02*
D03*
D38*
X99052Y80832D02*
D03*
X126490Y108270D02*
D03*
X245320Y108500D02*
D03*
X217882Y81062D02*
D03*
D39*
X99052Y96905D02*
D03*
X217882Y97135D02*
D03*
D40*
X289960Y102980D02*
D03*
X248900Y139140D02*
D03*
X126500Y139390D02*
D03*
X178660Y106860D02*
D03*
X59100Y116670D02*
D03*
X90830Y36080D02*
D03*
X243310Y15730D02*
D03*
X131470Y16010D02*
D03*
X200570Y35590D02*
D03*
X244460Y28130D02*
D03*
X137240Y24460D02*
D03*
X61270Y74970D02*
D03*
X67510Y17640D02*
D03*
X176700Y73310D02*
D03*
X178850Y17000D02*
D03*
X280890Y30350D02*
D03*
X284130Y55660D02*
D03*
X51640Y43380D02*
D03*
D41*
X252570Y71300D02*
D03*
X263751D02*
D03*
D42*
X220545Y43637D02*
D03*
X218577D02*
D03*
X216608D02*
D03*
X214640D02*
D03*
Y34581D02*
D03*
X216608D02*
D03*
X218577D02*
D03*
X220545D02*
D03*
X109851Y42548D02*
D03*
X107882D02*
D03*
X105914D02*
D03*
X103945D02*
D03*
Y33492D02*
D03*
X105914D02*
D03*
X107882D02*
D03*
X109851D02*
D03*
D43*
X214935Y40487D02*
D03*
Y37731D02*
D03*
X220250D02*
D03*
Y40487D02*
D03*
X104241Y39398D02*
D03*
Y36642D02*
D03*
X109556D02*
D03*
Y39398D02*
D03*
D44*
X100276Y36642D02*
X102989D01*
X97729Y39189D02*
X100276Y36642D01*
X227938Y37731D02*
X232627Y42420D01*
X221258Y37731D02*
X227938D01*
X221365Y40380D02*
X223363D01*
X228232Y45248D01*
X206318Y41868D02*
X210456Y37731D01*
X213927D01*
X117300Y36770D02*
X119110Y38580D01*
X110646Y36560D02*
X117300D01*
X110564Y39398D02*
X114538D01*
X116440Y41300D01*
D45*
X84658Y52260D02*
X97729Y39189D01*
X251958Y42500D02*
X258210Y36248D01*
Y24161D02*
Y36248D01*
Y24161D02*
X262542Y19829D01*
X247350Y19770D02*
X253983D01*
X243310Y15730D02*
X247350Y19770D01*
X134060Y18710D02*
X140598D01*
X131470Y16120D02*
X134060Y18710D01*
X149658Y18650D02*
Y32652D01*
X145428Y36882D02*
X149658Y32652D01*
X132756Y36882D02*
X145428D01*
X76898Y52260D02*
X84658D01*
X59938Y40010D02*
X70938D01*
X67828Y52260D02*
X76898D01*
X243092Y60109D02*
X252570Y69586D01*
X47320Y62920D02*
Y79730D01*
X42079Y57679D02*
X47320Y62920D01*
X140658Y18650D02*
X149658D01*
X47320Y79730D02*
X50000Y82410D01*
X54190D01*
X84558D01*
X179788Y54349D02*
X193838D01*
X56568Y43380D02*
X59938Y40010D01*
X51640Y43380D02*
X56568D01*
X59938Y40010D02*
Y48800D01*
X128768Y40870D02*
X132428Y37210D01*
X124438Y40870D02*
X128768D01*
X121400D02*
X124438D01*
X119110Y38580D02*
X121400Y40870D01*
X116440Y41300D02*
X124160Y49020D01*
X164258D01*
X84558Y82410D02*
X99052Y96905D01*
X238302Y55318D02*
X243092Y60109D01*
X228232Y45248D02*
X238302Y55318D01*
X243092Y60109D02*
Y71925D01*
X217882Y97135D02*
X243092Y71925D01*
X193838Y54349D02*
X206318Y41868D01*
X164258Y49020D02*
X172436Y40842D01*
X63398Y52260D02*
X67828D01*
X172708Y51170D02*
X175928Y54390D01*
X235078Y42420D02*
X242558D01*
X242638Y42500D02*
X251958D01*
X59938Y48800D02*
X63398Y52260D01*
X254042Y19829D02*
X262542D01*
X172708Y40570D02*
X181941D01*
X175928Y54390D02*
X179788D01*
X232627Y42420D02*
X235078D01*
X172708Y40570D02*
Y51170D01*
M02*
