G04*
G04 #@! TF.GenerationSoftware,Altium Limited,Altium Designer,20.2.6 (244)*
G04*
G04 Layer_Physical_Order=3*
G04 Layer_Color=16440176*
%FSLAX25Y25*%
%MOIN*%
G70*
G04*
G04 #@! TF.SameCoordinates,7EBD70BA-B8F3-473B-BE4C-BEC84CDD1DDF*
G04*
G04*
G04 #@! TF.FilePolarity,Positive*
G04*
G01*
G75*
%ADD13C,0.01000*%
%ADD30R,0.04756X0.04756*%
%ADD31C,0.04756*%
%ADD34R,0.06024X0.06024*%
%ADD37C,0.07087*%
%ADD38C,0.13000*%
%ADD40C,0.05000*%
G36*
X52080Y93930D02*
X64070Y81940D01*
Y77219D01*
X63570Y77049D01*
X63474Y77174D01*
X62829Y77670D01*
X62077Y77981D01*
X61270Y78087D01*
X60463Y77981D01*
X59711Y77670D01*
X59066Y77174D01*
X58570Y76529D01*
X58259Y75777D01*
X58153Y74970D01*
X58259Y74163D01*
X58570Y73411D01*
X59066Y72766D01*
X59711Y72270D01*
X60463Y71959D01*
X61270Y71853D01*
X62077Y71959D01*
X62829Y72270D01*
X63474Y72766D01*
X63570Y72891D01*
X64070Y72721D01*
Y41370D01*
X55106D01*
X54803Y41870D01*
X55050Y42466D01*
X55104Y42880D01*
X48176D01*
X48230Y42466D01*
X48477Y41870D01*
X48174Y41370D01*
X40030D01*
Y53739D01*
X40530Y54127D01*
X41149Y54045D01*
X42090Y54169D01*
X42966Y54532D01*
X43718Y55110D01*
X44296Y55862D01*
X44659Y56739D01*
X44783Y57679D01*
X44659Y58619D01*
X44296Y59496D01*
X43718Y60248D01*
X42966Y60826D01*
X42090Y61189D01*
X41149Y61312D01*
X40530Y61231D01*
X40030Y61619D01*
Y65550D01*
X40530Y65938D01*
X41149Y65857D01*
X42090Y65980D01*
X42966Y66343D01*
X43718Y66921D01*
X44296Y67673D01*
X44659Y68550D01*
X44783Y69490D01*
X44659Y70430D01*
X44296Y71307D01*
X43718Y72059D01*
X42966Y72637D01*
X42090Y73000D01*
X41149Y73123D01*
X40209Y73000D01*
X39332Y72637D01*
X38580Y72059D01*
X38002Y71307D01*
X37639Y70430D01*
X37516Y69490D01*
X37639Y68550D01*
X37695Y68416D01*
X37417Y68000D01*
X33070D01*
X32792Y68416D01*
X32848Y68550D01*
X32972Y69490D01*
X32848Y70430D01*
X32485Y71307D01*
X31907Y72059D01*
X31155Y72637D01*
X30278Y73000D01*
X29338Y73123D01*
X28398Y73000D01*
X27521Y72637D01*
X26769Y72059D01*
X26191Y71307D01*
X26078Y71034D01*
X25591Y70923D01*
X9945Y84912D01*
X9956Y85211D01*
X10436Y85556D01*
X10451Y85552D01*
X11846Y85414D01*
X13241Y85552D01*
X14583Y85959D01*
X15820Y86620D01*
X16904Y87509D01*
X17793Y88593D01*
X18454Y89830D01*
X18861Y91171D01*
X18999Y92567D01*
X18861Y93962D01*
X18454Y95304D01*
X17793Y96541D01*
X16904Y97624D01*
X15820Y98514D01*
X14583Y99175D01*
X13241Y99582D01*
X11846Y99719D01*
X10451Y99582D01*
X10162Y99494D01*
X9760Y99792D01*
Y121270D01*
X16962D01*
X17127Y120873D01*
X17603Y120253D01*
X18223Y119777D01*
X18945Y119478D01*
X19720Y119376D01*
X20495Y119478D01*
X21217Y119777D01*
X21837Y120253D01*
X22313Y120873D01*
X22477Y121270D01*
X23625D01*
X23795Y120770D01*
X23508Y120550D01*
X23032Y119930D01*
X22733Y119208D01*
X22631Y118433D01*
X22733Y117658D01*
X23032Y116936D01*
X23508Y116316D01*
X24128Y115840D01*
X24851Y115541D01*
X25626Y115439D01*
X26401Y115541D01*
X27123Y115840D01*
X27743Y116316D01*
X28218Y116936D01*
X28518Y117658D01*
X28620Y118433D01*
X28518Y119208D01*
X28218Y119930D01*
X27743Y120550D01*
X27456Y120770D01*
X27626Y121270D01*
X29561D01*
X29725Y120873D01*
X30201Y120253D01*
X30821Y119777D01*
X31543Y119478D01*
X32318Y119376D01*
X33093Y119478D01*
X33816Y119777D01*
X34436Y120253D01*
X34911Y120873D01*
X35076Y121270D01*
X36224D01*
X36393Y120770D01*
X36107Y120550D01*
X35631Y119930D01*
X35332Y119208D01*
X35230Y118433D01*
X35332Y117658D01*
X35631Y116936D01*
X36107Y116316D01*
X36727Y115840D01*
X37449Y115541D01*
X38224Y115439D01*
X38999Y115541D01*
X39721Y115840D01*
X40341Y116316D01*
X40817Y116936D01*
X41116Y117658D01*
X41218Y118433D01*
X41116Y119208D01*
X40817Y119930D01*
X40341Y120550D01*
X40055Y120770D01*
X40224Y121270D01*
X52080D01*
Y93930D01*
D02*
G37*
G36*
X257840Y123250D02*
X286260Y94830D01*
X295504D01*
X295571Y94315D01*
X296029Y93210D01*
X296758Y92261D01*
X297707Y91532D01*
X298812Y91075D01*
X299998Y90918D01*
X301184Y91075D01*
X302289Y91532D01*
X303238Y92261D01*
X303966Y93210D01*
X304424Y94315D01*
X304492Y94830D01*
X307315Y94830D01*
X307382Y94315D01*
X307840Y93210D01*
X308569Y92261D01*
X309518Y91532D01*
X310623Y91075D01*
X311809Y90918D01*
X312995Y91075D01*
X314100Y91532D01*
X315049Y92261D01*
X315777Y93210D01*
X316235Y94315D01*
X316303Y94830D01*
X325330D01*
Y86352D01*
X324883Y86113D01*
X323832Y85250D01*
X322969Y84198D01*
X322327Y82999D01*
X321932Y81697D01*
X321799Y80344D01*
X321932Y78990D01*
X322327Y77688D01*
X322969Y76488D01*
X323832Y75437D01*
X324883Y74574D01*
X325330Y74335D01*
Y71600D01*
X316636D01*
X316391Y71879D01*
X316235Y73065D01*
X315777Y74170D01*
X315049Y75119D01*
X314100Y75848D01*
X312995Y76305D01*
X311809Y76461D01*
X310623Y76305D01*
X309518Y75848D01*
X308569Y75119D01*
X307840Y74170D01*
X307382Y73065D01*
X307226Y71879D01*
X306982Y71600D01*
X304825D01*
X304580Y71879D01*
X304424Y73065D01*
X303966Y74170D01*
X303238Y75119D01*
X302289Y75848D01*
X301184Y76305D01*
X299998Y76461D01*
X298812Y76305D01*
X297707Y75848D01*
X296758Y75119D01*
X296029Y74170D01*
X295571Y73065D01*
X295415Y71879D01*
X295171Y71600D01*
X288750D01*
X284860Y75490D01*
X248680Y75490D01*
X226400Y97770D01*
X226400Y123250D01*
X257840Y123250D01*
D02*
G37*
G36*
X188870Y70850D02*
X262600Y70850D01*
X279930Y53520D01*
X281876D01*
X281926Y53456D01*
X282571Y52960D01*
X283323Y52649D01*
X284130Y52543D01*
X284937Y52649D01*
X285689Y52960D01*
X286334Y53456D01*
X286384Y53520D01*
X323080Y53520D01*
X323080Y40281D01*
X323011Y40196D01*
X322407Y39067D01*
X322036Y37843D01*
X321911Y36569D01*
X322036Y35296D01*
X322407Y34071D01*
X323011Y32943D01*
X323080Y32858D01*
Y31740D01*
X314884D01*
X314577Y32481D01*
X313999Y33233D01*
X313247Y33811D01*
X312371Y34174D01*
X311430Y34297D01*
X310490Y34174D01*
X309613Y33811D01*
X308861Y33233D01*
X308283Y32481D01*
X307977Y31740D01*
X303073D01*
X302766Y32481D01*
X302188Y33233D01*
X301436Y33811D01*
X300559Y34174D01*
X299619Y34297D01*
X298679Y34174D01*
X297802Y33811D01*
X297050Y33233D01*
X296473Y32481D01*
X296166Y31740D01*
X283659D01*
X283590Y31909D01*
X283094Y32554D01*
X282449Y33050D01*
X281697Y33361D01*
X280890Y33467D01*
X280083Y33361D01*
X279331Y33050D01*
X278686Y32554D01*
X278190Y31909D01*
X278121Y31740D01*
X272990D01*
X251210Y53520D01*
X151880D01*
X109990Y95410D01*
X109990Y123760D01*
X135960D01*
X188870Y70850D01*
D02*
G37*
G36*
X26736Y24630D02*
X27315Y24186D01*
X28291Y23781D01*
X29338Y23644D01*
X30385Y23781D01*
X31361Y24186D01*
X31940Y24630D01*
X38547D01*
X39126Y24186D01*
X40102Y23781D01*
X41149Y23644D01*
X42196Y23781D01*
X43172Y24186D01*
X43751Y24630D01*
X133561Y24630D01*
X133710Y24460D01*
X133830Y23546D01*
X134183Y22695D01*
X134744Y21964D01*
X135475Y21403D01*
X136326Y21050D01*
X137240Y20930D01*
X138154Y21050D01*
X138890Y21355D01*
X139390Y21134D01*
X139390Y7220D01*
X19590D01*
Y9110D01*
X19590Y24630D01*
X26736D01*
D02*
G37*
G36*
X27498Y65910D02*
X28291Y65581D01*
X29338Y65444D01*
X30385Y65581D01*
X31179Y65910D01*
X38190D01*
Y60413D01*
X37645Y59702D01*
X37240Y58726D01*
X37103Y57679D01*
X37240Y56632D01*
X37645Y55656D01*
X38190Y54945D01*
X38190Y37144D01*
X86974D01*
X87374Y36644D01*
X87300Y36080D01*
X87420Y35166D01*
X87773Y34315D01*
X88334Y33584D01*
X89065Y33023D01*
X89916Y32670D01*
X90830Y32550D01*
X91744Y32670D01*
X92595Y33023D01*
X93326Y33584D01*
X93887Y34315D01*
X94240Y35166D01*
X94360Y36080D01*
X94286Y36644D01*
X94686Y37144D01*
X103408D01*
X103725Y36758D01*
X103702Y36642D01*
X103825Y36021D01*
X104177Y35495D01*
X104703Y35144D01*
X105323Y35020D01*
X105944Y35144D01*
X106470Y35495D01*
X106597Y35686D01*
X107199D01*
X107326Y35495D01*
X107852Y35144D01*
X108473Y35020D01*
X109094Y35144D01*
X109620Y35495D01*
X109971Y36021D01*
X110095Y36642D01*
X110072Y36758D01*
X110389Y37144D01*
X196975D01*
X197253Y36728D01*
X197160Y36504D01*
X197040Y35590D01*
X197160Y34676D01*
X197513Y33825D01*
X198074Y33094D01*
X198805Y32533D01*
X199656Y32180D01*
X200570Y32060D01*
X201484Y32180D01*
X202335Y32533D01*
X203066Y33094D01*
X203627Y33825D01*
X203980Y34676D01*
X204100Y35590D01*
X203980Y36504D01*
X203887Y36728D01*
X204165Y37144D01*
X214513D01*
X214519Y37110D01*
X214871Y36584D01*
X215397Y36233D01*
X216018Y36109D01*
X216638Y36233D01*
X217164Y36584D01*
X217292Y36775D01*
X217893D01*
X218021Y36584D01*
X218547Y36233D01*
X219167Y36109D01*
X219788Y36233D01*
X220314Y36584D01*
X220666Y37110D01*
X220672Y37144D01*
X235446D01*
X241964Y30626D01*
X241403Y29895D01*
X241050Y29044D01*
X240930Y28130D01*
X241050Y27216D01*
X241403Y26365D01*
X241964Y25634D01*
X242695Y25073D01*
X243546Y24720D01*
X244460Y24600D01*
X245374Y24720D01*
X246225Y25073D01*
X246956Y25634D01*
X252900Y19690D01*
X252900Y5870D01*
X235390D01*
X215010Y26250D01*
X140278D01*
X139736Y26956D01*
X139005Y27517D01*
X138154Y27870D01*
X137240Y27990D01*
X136326Y27870D01*
X135475Y27517D01*
X134744Y26956D01*
X134202Y26250D01*
X45364D01*
X45072Y26750D01*
X45195Y27690D01*
X45058Y28737D01*
X44653Y29713D01*
X44010Y30551D01*
X43172Y31194D01*
X42196Y31599D01*
X41149Y31736D01*
X40102Y31599D01*
X39126Y31194D01*
X38288Y30551D01*
X37645Y29713D01*
X37240Y28737D01*
X37103Y27690D01*
X37226Y26750D01*
X36934Y26250D01*
X33553D01*
X33261Y26750D01*
X33384Y27690D01*
X33247Y28737D01*
X32842Y29713D01*
X32199Y30551D01*
X31361Y31194D01*
X30385Y31599D01*
X29338Y31736D01*
X28291Y31599D01*
X27315Y31194D01*
X26477Y30551D01*
X25834Y29713D01*
X25429Y28737D01*
X25292Y27690D01*
X25415Y26750D01*
X25123Y26250D01*
X19680D01*
Y65910D01*
X20640Y65910D01*
X27498D01*
D02*
G37*
%LPC*%
G36*
X32818Y117837D02*
Y114996D01*
X35660D01*
X35609Y115378D01*
X35269Y116200D01*
X34728Y116905D01*
X34022Y117447D01*
X33200Y117787D01*
X32818Y117837D01*
D02*
G37*
G36*
X20220D02*
Y114996D01*
X23061D01*
X23011Y115378D01*
X22671Y116200D01*
X22129Y116905D01*
X21424Y117447D01*
X20602Y117787D01*
X20220Y117837D01*
D02*
G37*
G36*
X31818D02*
X31437Y117787D01*
X30615Y117447D01*
X29909Y116905D01*
X29368Y116200D01*
X29027Y115378D01*
X28977Y114996D01*
X31818D01*
Y117837D01*
D02*
G37*
G36*
X19220D02*
X18838Y117787D01*
X18016Y117447D01*
X17311Y116905D01*
X16769Y116200D01*
X16429Y115378D01*
X16379Y114996D01*
X19220D01*
Y117837D01*
D02*
G37*
G36*
X35660Y113996D02*
X32818D01*
Y111155D01*
X33200Y111205D01*
X34022Y111545D01*
X34728Y112087D01*
X35269Y112792D01*
X35609Y113614D01*
X35660Y113996D01*
D02*
G37*
G36*
X23061D02*
X20220D01*
Y111155D01*
X20602Y111205D01*
X21424Y111545D01*
X22129Y112087D01*
X22671Y112792D01*
X23011Y113614D01*
X23061Y113996D01*
D02*
G37*
G36*
X31818D02*
X28977D01*
X29027Y113614D01*
X29368Y112792D01*
X29909Y112087D01*
X30615Y111545D01*
X31437Y111205D01*
X31818Y111155D01*
Y113996D01*
D02*
G37*
G36*
X19220D02*
X16379D01*
X16429Y113614D01*
X16769Y112792D01*
X17311Y112087D01*
X18016Y111545D01*
X18838Y111205D01*
X19220Y111155D01*
Y113996D01*
D02*
G37*
G36*
X38224Y113553D02*
X37449Y113451D01*
X36727Y113152D01*
X36107Y112676D01*
X35631Y112056D01*
X35332Y111334D01*
X35230Y110559D01*
X35332Y109784D01*
X35631Y109062D01*
X36107Y108442D01*
X36727Y107966D01*
X37449Y107667D01*
X38224Y107565D01*
X38999Y107667D01*
X39721Y107966D01*
X40341Y108442D01*
X40817Y109062D01*
X41116Y109784D01*
X41218Y110559D01*
X41116Y111334D01*
X40817Y112056D01*
X40341Y112676D01*
X39721Y113152D01*
X38999Y113451D01*
X38224Y113553D01*
D02*
G37*
G36*
X25626D02*
X24851Y113451D01*
X24128Y113152D01*
X23508Y112676D01*
X23032Y112056D01*
X22733Y111334D01*
X22631Y110559D01*
X22733Y109784D01*
X23032Y109062D01*
X23508Y108442D01*
X24128Y107966D01*
X24851Y107667D01*
X25626Y107565D01*
X26401Y107667D01*
X27123Y107966D01*
X27743Y108442D01*
X28218Y109062D01*
X28518Y109784D01*
X28620Y110559D01*
X28518Y111334D01*
X28218Y112056D01*
X27743Y112676D01*
X27123Y113152D01*
X26401Y113451D01*
X25626Y113553D01*
D02*
G37*
G36*
X31818Y107995D02*
X31437Y107945D01*
X30615Y107604D01*
X29909Y107063D01*
X29368Y106357D01*
X29027Y105535D01*
X28977Y105154D01*
X31818D01*
Y107995D01*
D02*
G37*
G36*
X19220D02*
X18838Y107945D01*
X18016Y107604D01*
X17311Y107063D01*
X16769Y106357D01*
X16429Y105535D01*
X16379Y105154D01*
X19220D01*
Y107995D01*
D02*
G37*
G36*
X31818Y104154D02*
X28977D01*
X29027Y103772D01*
X29368Y102950D01*
X29909Y102244D01*
X30615Y101703D01*
X31437Y101363D01*
X31818Y101312D01*
Y104154D01*
D02*
G37*
G36*
X19220D02*
X16379D01*
X16429Y103772D01*
X16769Y102950D01*
X17311Y102244D01*
X18016Y101703D01*
X18838Y101363D01*
X19220Y101312D01*
Y104154D01*
D02*
G37*
G36*
X32818Y107995D02*
Y104654D01*
Y101312D01*
X33200Y101363D01*
X34022Y101703D01*
X34728Y102244D01*
X34775Y102306D01*
X35298Y102166D01*
X35332Y101910D01*
X35631Y101188D01*
X36107Y100568D01*
X36727Y100092D01*
X37449Y99793D01*
X38224Y99691D01*
X38999Y99793D01*
X39721Y100092D01*
X40341Y100568D01*
X40817Y101188D01*
X41116Y101910D01*
X41218Y102685D01*
X41116Y103460D01*
X40817Y104182D01*
X40341Y104802D01*
X39721Y105278D01*
X38999Y105577D01*
X38224Y105679D01*
X37449Y105577D01*
X36727Y105278D01*
X36201Y104874D01*
X35853Y104951D01*
X35672Y105057D01*
X35609Y105535D01*
X35269Y106357D01*
X34728Y107063D01*
X34022Y107604D01*
X33200Y107945D01*
X32818Y107995D01*
D02*
G37*
G36*
X20220D02*
Y104654D01*
Y101312D01*
X20602Y101363D01*
X21424Y101703D01*
X22129Y102244D01*
X22177Y102306D01*
X22700Y102166D01*
X22733Y101910D01*
X23032Y101188D01*
X23508Y100568D01*
X24128Y100092D01*
X24851Y99793D01*
X25626Y99691D01*
X26401Y99793D01*
X27123Y100092D01*
X27743Y100568D01*
X28218Y101188D01*
X28518Y101910D01*
X28620Y102685D01*
X28518Y103460D01*
X28218Y104182D01*
X27743Y104802D01*
X27123Y105278D01*
X26401Y105577D01*
X25626Y105679D01*
X24851Y105577D01*
X24128Y105278D01*
X23602Y104874D01*
X23255Y104951D01*
X23074Y105057D01*
X23011Y105535D01*
X22671Y106357D01*
X22129Y107063D01*
X21424Y107604D01*
X20602Y107945D01*
X20220Y107995D01*
D02*
G37*
G36*
X34208Y99719D02*
X32813Y99582D01*
X31471Y99175D01*
X30234Y98514D01*
X29151Y97624D01*
X28261Y96541D01*
X27600Y95304D01*
X27193Y93962D01*
X27056Y92567D01*
X27193Y91171D01*
X27600Y89830D01*
X28261Y88593D01*
X29151Y87509D01*
X30234Y86620D01*
X31471Y85959D01*
X32813Y85552D01*
X34208Y85414D01*
X35604Y85552D01*
X36945Y85959D01*
X38182Y86620D01*
X39266Y87509D01*
X40155Y88593D01*
X40816Y89830D01*
X41223Y91171D01*
X41361Y92567D01*
X41223Y93962D01*
X40816Y95304D01*
X40155Y96541D01*
X39266Y97624D01*
X38182Y98514D01*
X36945Y99175D01*
X35604Y99582D01*
X34208Y99719D01*
D02*
G37*
G36*
X52140Y46844D02*
Y43880D01*
X55104D01*
X55050Y44294D01*
X54697Y45145D01*
X54136Y45876D01*
X53405Y46437D01*
X52554Y46790D01*
X52140Y46844D01*
D02*
G37*
G36*
X51140D02*
X50726Y46790D01*
X49875Y46437D01*
X49144Y45876D01*
X48583Y45145D01*
X48230Y44294D01*
X48176Y43880D01*
X51140D01*
Y46844D01*
D02*
G37*
G36*
X245820Y115987D02*
Y109000D01*
X252807D01*
X252712Y109970D01*
X252283Y111384D01*
X251586Y112687D01*
X250649Y113829D01*
X249507Y114766D01*
X248204Y115463D01*
X246790Y115892D01*
X245820Y115987D01*
D02*
G37*
G36*
X244820D02*
X243850Y115892D01*
X242436Y115463D01*
X241133Y114766D01*
X239991Y113829D01*
X239054Y112687D01*
X238357Y111384D01*
X237929Y109970D01*
X237833Y109000D01*
X244820D01*
Y115987D01*
D02*
G37*
G36*
X252807Y108000D02*
X245820D01*
Y101013D01*
X246790Y101109D01*
X248204Y101537D01*
X249507Y102234D01*
X250649Y103171D01*
X251586Y104313D01*
X252283Y105616D01*
X252712Y107030D01*
X252807Y108000D01*
D02*
G37*
G36*
X244820D02*
X237833D01*
X237929Y107030D01*
X238357Y105616D01*
X239054Y104313D01*
X239991Y103171D01*
X241133Y102234D01*
X242436Y101537D01*
X243850Y101109D01*
X244820Y101013D01*
Y108000D01*
D02*
G37*
G36*
X312309Y88207D02*
Y84190D01*
X316326D01*
X316235Y84876D01*
X315777Y85981D01*
X315049Y86930D01*
X314100Y87659D01*
X312995Y88116D01*
X312309Y88207D01*
D02*
G37*
G36*
X311309D02*
X310623Y88116D01*
X309518Y87659D01*
X308569Y86930D01*
X307840Y85981D01*
X307382Y84876D01*
X307292Y84190D01*
X311309D01*
Y88207D01*
D02*
G37*
G36*
X316326Y83190D02*
X312309D01*
Y79173D01*
X312995Y79264D01*
X314100Y79721D01*
X315049Y80450D01*
X315777Y81399D01*
X316235Y82504D01*
X316326Y83190D01*
D02*
G37*
G36*
X311309D02*
X307292D01*
X307382Y82504D01*
X307840Y81399D01*
X308569Y80450D01*
X309518Y79721D01*
X310623Y79264D01*
X311309Y79173D01*
Y83190D01*
D02*
G37*
G36*
X299998Y88272D02*
X298812Y88116D01*
X297707Y87659D01*
X296758Y86930D01*
X296029Y85981D01*
X295571Y84876D01*
X295415Y83690D01*
X295571Y82504D01*
X296029Y81399D01*
X296758Y80450D01*
X297707Y79721D01*
X298812Y79264D01*
X299998Y79107D01*
X301184Y79264D01*
X302289Y79721D01*
X303238Y80450D01*
X303966Y81399D01*
X304424Y82504D01*
X304580Y83690D01*
X304424Y84876D01*
X303966Y85981D01*
X303238Y86930D01*
X302289Y87659D01*
X301184Y88116D01*
X299998Y88272D01*
D02*
G37*
G36*
X126990Y115757D02*
Y108770D01*
X133977D01*
X133881Y109740D01*
X133453Y111154D01*
X132756Y112457D01*
X131819Y113599D01*
X130677Y114536D01*
X129374Y115233D01*
X127960Y115662D01*
X126990Y115757D01*
D02*
G37*
G36*
X125990D02*
X125020Y115662D01*
X123606Y115233D01*
X122303Y114536D01*
X121161Y113599D01*
X120224Y112457D01*
X119527Y111154D01*
X119098Y109740D01*
X119003Y108770D01*
X125990D01*
Y115757D01*
D02*
G37*
G36*
X133977Y107770D02*
X126990D01*
Y100783D01*
X127960Y100879D01*
X129374Y101307D01*
X130677Y102004D01*
X131819Y102941D01*
X132756Y104083D01*
X133453Y105386D01*
X133881Y106800D01*
X133977Y107770D01*
D02*
G37*
G36*
X125990D02*
X119003D01*
X119098Y106800D01*
X119527Y105386D01*
X120224Y104083D01*
X121161Y102941D01*
X122303Y102004D01*
X123606Y101307D01*
X125020Y100879D01*
X125990Y100783D01*
Y107770D01*
D02*
G37*
G36*
X176700Y76427D02*
X175893Y76321D01*
X175141Y76010D01*
X174496Y75514D01*
X174000Y74869D01*
X173689Y74117D01*
X173583Y73310D01*
X173689Y72503D01*
X174000Y71751D01*
X174496Y71106D01*
X175141Y70610D01*
X175893Y70299D01*
X176700Y70193D01*
X177507Y70299D01*
X178259Y70610D01*
X178904Y71106D01*
X179400Y71751D01*
X179711Y72503D01*
X179817Y73310D01*
X179711Y74117D01*
X179400Y74869D01*
X178904Y75514D01*
X178259Y76010D01*
X177507Y76321D01*
X176700Y76427D01*
D02*
G37*
G36*
X315442Y46487D02*
X311930D01*
Y42975D01*
X315442D01*
Y46487D01*
D02*
G37*
G36*
X310930D02*
X307418D01*
Y42975D01*
X310930D01*
Y46487D01*
D02*
G37*
G36*
X299619Y46108D02*
X298679Y45985D01*
X297802Y45622D01*
X297050Y45044D01*
X296473Y44292D01*
X296110Y43415D01*
X295986Y42475D01*
X296110Y41535D01*
X296473Y40658D01*
X297050Y39906D01*
X297802Y39328D01*
X298679Y38965D01*
X299619Y38842D01*
X300559Y38965D01*
X301436Y39328D01*
X302188Y39906D01*
X302766Y40658D01*
X303129Y41535D01*
X303253Y42475D01*
X303129Y43415D01*
X302766Y44292D01*
X302188Y45044D01*
X301436Y45622D01*
X300559Y45985D01*
X299619Y46108D01*
D02*
G37*
G36*
X315442Y41975D02*
X311930D01*
Y38463D01*
X315442D01*
Y41975D01*
D02*
G37*
G36*
X310930D02*
X307418D01*
Y38463D01*
X310930D01*
Y41975D01*
D02*
G37*
G36*
X131970Y19474D02*
Y16510D01*
X134934D01*
X134880Y16924D01*
X134527Y17775D01*
X133966Y18506D01*
X133235Y19067D01*
X132384Y19420D01*
X131970Y19474D01*
D02*
G37*
G36*
X130970D02*
X130556Y19420D01*
X129705Y19067D01*
X128974Y18506D01*
X128413Y17775D01*
X128060Y16924D01*
X128006Y16510D01*
X130970D01*
Y19474D01*
D02*
G37*
G36*
X33350Y19891D02*
X29838D01*
Y16379D01*
X33350D01*
Y19891D01*
D02*
G37*
G36*
X28838D02*
X25326D01*
Y16379D01*
X28838D01*
Y19891D01*
D02*
G37*
G36*
X67510Y21170D02*
X66596Y21050D01*
X65745Y20697D01*
X65014Y20136D01*
X64453Y19405D01*
X64100Y18554D01*
X63980Y17640D01*
X64100Y16726D01*
X64453Y15875D01*
X65014Y15144D01*
X65745Y14583D01*
X66596Y14230D01*
X67510Y14110D01*
X68424Y14230D01*
X69275Y14583D01*
X70006Y15144D01*
X70567Y15875D01*
X70920Y16726D01*
X71040Y17640D01*
X70920Y18554D01*
X70567Y19405D01*
X70006Y20136D01*
X69275Y20697D01*
X68424Y21050D01*
X67510Y21170D01*
D02*
G37*
G36*
X134934Y15510D02*
X131970D01*
Y12546D01*
X132384Y12600D01*
X133235Y12953D01*
X133966Y13514D01*
X134527Y14245D01*
X134880Y15096D01*
X134934Y15510D01*
D02*
G37*
G36*
X130970D02*
X128006D01*
X128060Y15096D01*
X128413Y14245D01*
X128974Y13514D01*
X129705Y12953D01*
X130556Y12600D01*
X130970Y12546D01*
Y15510D01*
D02*
G37*
G36*
X33350Y15379D02*
X29838D01*
Y11867D01*
X33350D01*
Y15379D01*
D02*
G37*
G36*
X28838D02*
X25326D01*
Y11867D01*
X28838D01*
Y15379D01*
D02*
G37*
G36*
X41149Y19925D02*
X40102Y19787D01*
X39126Y19383D01*
X38288Y18740D01*
X37645Y17902D01*
X37240Y16926D01*
X37103Y15879D01*
X37240Y14832D01*
X37645Y13856D01*
X38288Y13018D01*
X39126Y12375D01*
X40102Y11970D01*
X41149Y11833D01*
X42196Y11970D01*
X43172Y12375D01*
X44010Y13018D01*
X44653Y13856D01*
X45058Y14832D01*
X45195Y15879D01*
X45058Y16926D01*
X44653Y17902D01*
X44010Y18740D01*
X43172Y19383D01*
X42196Y19787D01*
X41149Y19925D01*
D02*
G37*
G36*
X33350Y61691D02*
X29838D01*
Y58179D01*
X33350D01*
Y61691D01*
D02*
G37*
G36*
X28838D02*
X25326D01*
Y58179D01*
X28838D01*
Y61691D01*
D02*
G37*
G36*
X33350Y57179D02*
X29838D01*
Y53667D01*
X33350D01*
Y57179D01*
D02*
G37*
G36*
X28838D02*
X25326D01*
Y53667D01*
X28838D01*
Y57179D01*
D02*
G37*
G36*
X243810Y19194D02*
Y16230D01*
X246774D01*
X246720Y16644D01*
X246367Y17495D01*
X245806Y18226D01*
X245075Y18787D01*
X244224Y19140D01*
X243810Y19194D01*
D02*
G37*
G36*
X242810D02*
X242396Y19140D01*
X241545Y18787D01*
X240814Y18226D01*
X240253Y17495D01*
X239900Y16644D01*
X239846Y16230D01*
X242810D01*
Y19194D01*
D02*
G37*
G36*
X246774Y15230D02*
X243810D01*
Y12266D01*
X244224Y12320D01*
X245075Y12673D01*
X245806Y13234D01*
X246367Y13965D01*
X246720Y14816D01*
X246774Y15230D01*
D02*
G37*
G36*
X242810D02*
X239846D01*
X239900Y14816D01*
X240253Y13965D01*
X240814Y13234D01*
X241545Y12673D01*
X242396Y12320D01*
X242810Y12266D01*
Y15230D01*
D02*
G37*
%LPD*%
D13*
X283613Y126307D02*
X296280Y113640D01*
X38224Y126307D02*
X283613D01*
X287841Y131280D02*
X299998Y119123D01*
X167750Y131280D02*
X287841D01*
X166655Y130185D02*
X167750Y131280D01*
X289619Y134181D02*
X297909Y125891D01*
X38224Y134181D02*
X289619D01*
X24609Y135197D02*
X25626D01*
X36618Y130185D02*
X166655D01*
X34767Y128335D02*
X36618Y130185D01*
X29082Y128335D02*
X34767D01*
X27114Y130303D02*
X29082Y128335D01*
X24019Y130303D02*
X27114D01*
X297909Y125891D02*
X305041D01*
X311809Y119123D01*
X24629Y134181D02*
X25626D01*
X311444Y106947D02*
X311809Y107312D01*
X301700Y113640D02*
X306230Y109110D01*
X296280Y113640D02*
X301700D01*
X306230Y101733D02*
Y109110D01*
X299998Y95501D02*
X306230Y101733D01*
X23988Y130335D02*
X24019Y130303D01*
X21598Y130335D02*
X23988D01*
X19720Y132212D02*
X21598Y130335D01*
D30*
X19720Y132212D02*
D03*
D31*
Y104654D02*
D03*
Y114496D02*
D03*
X32318Y104654D02*
D03*
Y114496D02*
D03*
X25626Y134181D02*
D03*
X38224D02*
D03*
Y126307D02*
D03*
D34*
X29338Y15879D02*
D03*
Y57679D02*
D03*
X311430Y42475D02*
D03*
D37*
X311809Y119123D02*
D03*
X299998D02*
D03*
X311809Y107312D02*
D03*
X299998Y95501D02*
D03*
X311809Y83690D02*
D03*
D38*
X126490Y108270D02*
D03*
X245320Y108500D02*
D03*
D40*
X243310Y15730D02*
D03*
X131470Y16010D02*
D03*
X51640Y43380D02*
D03*
M02*
