G04*
G04 #@! TF.GenerationSoftware,Altium Limited,Altium Designer,20.2.6 (244)*
G04*
G04 Layer_Color=255*
%FSLAX25Y25*%
%MOIN*%
G70*
G04*
G04 #@! TF.SameCoordinates,7EBD70BA-B8F3-473B-BE4C-BEC84CDD1DDF*
G04*
G04*
G04 #@! TF.FilePolarity,Positive*
G04*
G01*
G75*
%ADD19C,0.01181*%
%ADD28R,0.03150X0.03150*%
%ADD29R,0.03150X0.03150*%
%ADD30R,0.04756X0.04756*%
%ADD31C,0.04756*%
%ADD32C,0.13055*%
%ADD33C,0.11811*%
%ADD34R,0.06024X0.06024*%
%ADD35C,0.06024*%
%ADD36R,0.07087X0.07087*%
%ADD37C,0.07087*%
%ADD38C,0.13000*%
%ADD39R,0.13000X0.13000*%
D19*
X216018Y40487D02*
D03*
Y37731D02*
D03*
X219167D02*
D03*
Y40487D02*
D03*
X105323Y39398D02*
D03*
Y36642D02*
D03*
X108473D02*
D03*
Y39398D02*
D03*
D28*
X67980Y80663D02*
D03*
Y74757D02*
D03*
X185000Y79393D02*
D03*
Y73487D02*
D03*
X289040Y24377D02*
D03*
Y30283D02*
D03*
X290880Y49755D02*
D03*
Y55660D02*
D03*
D29*
X80463Y17330D02*
D03*
X74557D02*
D03*
X191463Y16790D02*
D03*
X185557D02*
D03*
D30*
X19720Y132212D02*
D03*
D31*
Y104654D02*
D03*
Y122370D02*
D03*
Y114496D02*
D03*
X32318Y132212D02*
D03*
Y104654D02*
D03*
Y122370D02*
D03*
Y114496D02*
D03*
X25626Y134181D02*
D03*
Y126307D02*
D03*
Y102685D02*
D03*
Y110559D02*
D03*
Y118433D02*
D03*
X38224Y134181D02*
D03*
Y126307D02*
D03*
Y102685D02*
D03*
Y110559D02*
D03*
Y118433D02*
D03*
D32*
X11846Y144299D02*
D03*
Y92567D02*
D03*
X34208D02*
D03*
Y144299D02*
D03*
D33*
X12330Y21784D02*
D03*
Y63585D02*
D03*
X328738Y80344D02*
D03*
Y122469D02*
D03*
X328438Y36569D02*
D03*
D34*
X29338Y15879D02*
D03*
Y57679D02*
D03*
X311430Y42475D02*
D03*
D35*
X29338Y27690D02*
D03*
X41149Y15879D02*
D03*
Y27690D02*
D03*
Y69490D02*
D03*
Y57679D02*
D03*
X29338Y69490D02*
D03*
X311430Y30664D02*
D03*
X299619Y42475D02*
D03*
Y30664D02*
D03*
D36*
X311809Y130934D02*
D03*
D37*
X299998D02*
D03*
X311809Y119123D02*
D03*
X299998D02*
D03*
X311809Y107312D02*
D03*
X299998D02*
D03*
X311809Y95501D02*
D03*
X299998D02*
D03*
X311809Y83690D02*
D03*
X299998D02*
D03*
X311809Y71879D02*
D03*
X299998D02*
D03*
D38*
X99052Y80832D02*
D03*
X126490Y108270D02*
D03*
X245320Y108500D02*
D03*
X217882Y81062D02*
D03*
D39*
X99052Y96905D02*
D03*
X217882Y97135D02*
D03*
M02*
