G04*
G04 #@! TF.GenerationSoftware,Altium Limited,Altium Designer,20.0.11 (256)*
G04*
G04 Layer_Physical_Order=1*
G04 Layer_Color=255*
%FSLAX44Y44*%
%MOMM*%
G71*
G01*
G75*
%ADD10C,0.2000*%
%ADD12C,0.2500*%
%ADD15R,0.5300X1.3100*%
%ADD16R,0.9000X0.9000*%
%ADD17R,2.0000X3.0000*%
%ADD18C,1.0000*%
%ADD19O,1.4500X0.6000*%
%ADD20R,0.3000X0.5200*%
%ADD21R,0.9000X0.9000*%
%ADD22R,0.5300X0.2800*%
%ADD23R,0.2800X0.5300*%
%ADD24R,2.1000X5.6000*%
%ADD25R,0.5000X1.6500*%
%ADD26R,1.2000X0.3000*%
%ADD27R,0.3000X1.2000*%
%ADD28R,0.8000X0.5000*%
%ADD50C,0.5000*%
%ADD51R,0.8000X0.8000*%
%ADD52R,0.8000X0.8000*%
%ADD53C,0.5000*%
%ADD54C,1.2000*%
%ADD55C,0.3000*%
%ADD56C,3.0480*%
%ADD57C,1.5300*%
%ADD58R,1.5300X1.5300*%
%ADD59C,3.0000*%
%ADD60R,1.8000X1.8000*%
%ADD61C,1.8000*%
%ADD62R,1.8000X1.8000*%
G36*
X530000Y607513D02*
X528492Y605547D01*
X527383Y602872D01*
X527005Y600000D01*
X527383Y597128D01*
X528492Y594453D01*
X530000Y592487D01*
Y580000D01*
X405000D01*
Y567565D01*
X403980Y566808D01*
X403380Y566991D01*
X400000Y567323D01*
X396620Y566991D01*
X393371Y566005D01*
X390376Y564404D01*
X387751Y562249D01*
X385596Y559624D01*
X383995Y556629D01*
X383009Y553380D01*
X382677Y550000D01*
X383009Y546620D01*
X383995Y543371D01*
X385596Y540376D01*
X387751Y537751D01*
X390376Y535596D01*
X393371Y533995D01*
X396620Y533009D01*
X400000Y532677D01*
X403380Y533009D01*
X403980Y533191D01*
X405000Y532435D01*
Y385814D01*
X381001D01*
Y390500D01*
X377845D01*
X377360Y391673D01*
X379037Y393351D01*
X380001Y394020D01*
Y394020D01*
X380001Y394020D01*
X393001D01*
Y394515D01*
X394271Y395557D01*
X395000Y395412D01*
X396756Y395761D01*
X398244Y396756D01*
X399239Y398244D01*
X399588Y400000D01*
X399239Y401756D01*
X398244Y403244D01*
X396756Y404239D01*
X395000Y404588D01*
X394271Y404443D01*
X393001Y405485D01*
Y407020D01*
X380001D01*
Y403115D01*
X379732Y403061D01*
X378657Y402343D01*
X375714Y399400D01*
X374541Y399886D01*
Y407560D01*
X368771D01*
Y400520D01*
X366231D01*
Y407560D01*
X361406D01*
X360422Y407649D01*
X359996Y408637D01*
X359839Y409426D01*
X358844Y410914D01*
X357356Y411909D01*
X356278Y412123D01*
X355428Y412578D01*
X354973Y413428D01*
X354759Y414506D01*
X353764Y415994D01*
X352703Y416704D01*
X352399Y418139D01*
X352885Y418746D01*
X368060D01*
X369328Y418999D01*
X370403Y419717D01*
X393343Y442657D01*
X394061Y443732D01*
X394314Y445000D01*
Y462000D01*
X394061Y463268D01*
X393343Y464343D01*
X383793Y473893D01*
X382718Y474611D01*
X381450Y474864D01*
X373850D01*
Y485350D01*
Y496450D01*
X367743D01*
X366850Y497350D01*
X366822Y498620D01*
X367239Y499244D01*
X367588Y501000D01*
X367239Y502756D01*
X366244Y504244D01*
X364756Y505239D01*
X363000Y505588D01*
X361244Y505239D01*
X359756Y504244D01*
X359635Y504064D01*
X358365D01*
X358244Y504244D01*
X356756Y505239D01*
X355000Y505588D01*
X353244Y505239D01*
X351756Y504244D01*
X350761Y502756D01*
X350412Y501000D01*
X350761Y499244D01*
X351178Y498620D01*
X350523Y497350D01*
X348501D01*
X347822Y498620D01*
X348239Y499244D01*
X348588Y501000D01*
X348239Y502756D01*
X347244Y504244D01*
X345756Y505239D01*
X344000Y505588D01*
X342244Y505239D01*
X340756Y504244D01*
X339761Y502756D01*
X339412Y501000D01*
X339761Y499244D01*
X340686Y497859D01*
Y496450D01*
X340150D01*
Y489650D01*
Y483059D01*
X336500D01*
Y486500D01*
X323500D01*
Y474770D01*
X323500Y473500D01*
X323500D01*
Y473500D01*
X323500D01*
Y460982D01*
X322261Y460425D01*
X320920Y461767D01*
X321239Y462244D01*
X321588Y464000D01*
X321239Y465756D01*
X320244Y467244D01*
X318756Y468239D01*
X317000Y468588D01*
X315244Y468239D01*
X313756Y467244D01*
X312761Y465756D01*
X312412Y464000D01*
X312761Y462244D01*
X313726Y460800D01*
X313939Y459732D01*
X314657Y458657D01*
X323500Y449814D01*
Y447385D01*
X322327Y446899D01*
X304304Y464922D01*
Y481860D01*
X305229Y483244D01*
X305578Y485000D01*
X305229Y486756D01*
X304234Y488244D01*
X302746Y489239D01*
X300990Y489588D01*
X299234Y489239D01*
X297746Y488244D01*
X296751Y486756D01*
X296402Y485000D01*
X296751Y483244D01*
X297676Y481860D01*
Y465589D01*
X296503Y465103D01*
X293314Y468293D01*
Y481860D01*
X294239Y483244D01*
X294588Y485000D01*
X294239Y486756D01*
X293244Y488244D01*
X291756Y489239D01*
X290000Y489588D01*
X288244Y489239D01*
X286756Y488244D01*
X285761Y486756D01*
X285647Y486184D01*
X284353D01*
X284239Y486756D01*
X283244Y488244D01*
X281756Y489239D01*
X280000Y489588D01*
X278244Y489239D01*
X276756Y488244D01*
X275761Y486756D01*
X275412Y485000D01*
X275761Y483244D01*
X276686Y481860D01*
Y471339D01*
X275513Y470853D01*
X258314Y488052D01*
Y491860D01*
X259239Y493244D01*
X259588Y495000D01*
X259239Y496756D01*
X258244Y498244D01*
X256756Y499239D01*
X255000Y499588D01*
X253244Y499239D01*
X251756Y498244D01*
X250761Y496756D01*
X250412Y495000D01*
X250761Y493244D01*
X251686Y491860D01*
Y486680D01*
X251939Y485412D01*
X252657Y484337D01*
X308801Y428193D01*
X308314Y427020D01*
X301001D01*
Y423834D01*
X297362D01*
X296756Y424239D01*
X295000Y424588D01*
X293244Y424239D01*
X291756Y423244D01*
X290761Y421756D01*
X290412Y420000D01*
X290761Y418244D01*
X291756Y416756D01*
X293244Y415761D01*
X295000Y415412D01*
X296756Y415761D01*
X298244Y416756D01*
X298545Y417206D01*
X301001D01*
Y414020D01*
X314000D01*
X314187Y412827D01*
Y409213D01*
X314000Y408020D01*
X301001D01*
Y395020D01*
X304187D01*
Y391040D01*
X303771D01*
Y382500D01*
Y373960D01*
X306541D01*
Y374500D01*
X309187D01*
Y371552D01*
X309176Y371544D01*
X308181Y370056D01*
X307832Y368300D01*
X308181Y366544D01*
X309176Y365056D01*
X310664Y364061D01*
X311985Y363798D01*
X312880Y362824D01*
X313029Y362538D01*
X312936Y362072D01*
X306677Y355814D01*
X290501D01*
Y366000D01*
X274501D01*
Y354000D01*
Y344000D01*
Y334000D01*
Y325894D01*
X249520D01*
X248181Y326789D01*
X248008Y326934D01*
X247738Y328142D01*
X256343Y336747D01*
X257061Y337822D01*
X257314Y339090D01*
Y344020D01*
X259526D01*
Y340300D01*
X258601Y338916D01*
X258252Y337160D01*
X258601Y335404D01*
X259596Y333916D01*
X261084Y332921D01*
X262840Y332572D01*
X264596Y332921D01*
X266084Y333916D01*
X267079Y335404D01*
X267428Y337160D01*
X267079Y338916D01*
X266154Y340300D01*
Y344020D01*
X269340D01*
Y357020D01*
X257314D01*
Y365720D01*
X257061Y366988D01*
X256343Y368063D01*
X256197Y368209D01*
X256782Y369420D01*
X269340D01*
Y372606D01*
X291979D01*
X293244Y371761D01*
X295000Y371412D01*
X296756Y371761D01*
X298244Y372756D01*
X299049Y373960D01*
X301231D01*
Y381230D01*
X298461D01*
Y380627D01*
X297191Y379948D01*
X296756Y380239D01*
X295000Y380588D01*
X293244Y380239D01*
X291756Y379244D01*
X291749Y379234D01*
X269340D01*
Y382420D01*
X256340D01*
Y369862D01*
X255129Y369277D01*
X250340Y374066D01*
Y382420D01*
X237340D01*
Y379214D01*
X235549D01*
X235355Y379505D01*
X233701Y380610D01*
X231750Y380998D01*
X223250D01*
X221299Y380610D01*
X219645Y379505D01*
X218540Y377851D01*
X218152Y375900D01*
X218540Y373949D01*
X219645Y372295D01*
X221299Y371190D01*
X223250Y370802D01*
X231750D01*
X233701Y371190D01*
X235355Y372295D01*
X235549Y372586D01*
X237340D01*
Y369420D01*
X245614D01*
X250686Y364347D01*
Y358147D01*
X250340Y357020D01*
X249416Y357020D01*
X237340D01*
Y353814D01*
X235549D01*
X235355Y354105D01*
X233701Y355210D01*
X231750Y355598D01*
X223250D01*
X221299Y355210D01*
X219645Y354105D01*
X218540Y352451D01*
X218152Y350500D01*
X218540Y348549D01*
X219645Y346895D01*
X221299Y345790D01*
X223250Y345402D01*
X224186D01*
Y343173D01*
X182778Y301764D01*
X152557D01*
X151290Y301511D01*
X150214Y300793D01*
X130333Y280912D01*
X130108Y280845D01*
X128784Y281006D01*
X128724Y281050D01*
X127346Y282845D01*
X125048Y284608D01*
X122814Y285534D01*
Y295128D01*
X139122Y311436D01*
X140756Y311761D01*
X142244Y312756D01*
X143239Y314244D01*
X143588Y316000D01*
X143239Y317756D01*
X142244Y319244D01*
X140756Y320239D01*
X139000Y320588D01*
X137244Y320239D01*
X135756Y319244D01*
X134761Y317756D01*
X134436Y316122D01*
X117157Y298844D01*
X116439Y297769D01*
X116187Y296501D01*
Y285534D01*
X113953Y284608D01*
X111655Y282845D01*
X109892Y280547D01*
X109694Y280070D01*
X108424Y280322D01*
Y310748D01*
X154396Y356720D01*
X162710D01*
Y359906D01*
X164937D01*
X165145Y359595D01*
X166799Y358490D01*
X168750Y358102D01*
X177250D01*
X179201Y358490D01*
X180855Y359595D01*
X181960Y361249D01*
X182104Y361975D01*
X182138Y362141D01*
X183372Y361950D01*
X183410Y361759D01*
X183721Y360194D01*
X184646Y358810D01*
Y348581D01*
X183721Y347196D01*
X183372Y345440D01*
X183721Y343684D01*
X184716Y342196D01*
X186204Y341201D01*
X186543Y341134D01*
X186418Y339864D01*
X177021D01*
X176497Y341134D01*
X177239Y342244D01*
X177588Y344000D01*
X177307Y345413D01*
X179201Y345790D01*
X180855Y346895D01*
X181960Y348549D01*
X182348Y350500D01*
X181960Y352451D01*
X180855Y354105D01*
X179201Y355210D01*
X177250Y355598D01*
X168750D01*
X166799Y355210D01*
X165145Y354105D01*
X164040Y352451D01*
X163652Y350500D01*
X164040Y348549D01*
X165145Y346895D01*
X166799Y345790D01*
X168693Y345413D01*
X168412Y344000D01*
X168761Y342244D01*
X169503Y341134D01*
X168979Y339864D01*
X149191D01*
X147806Y340789D01*
X146050Y341138D01*
X144294Y340789D01*
X142806Y339794D01*
X141811Y338306D01*
X141462Y336550D01*
X141811Y334794D01*
X142806Y333306D01*
X144294Y332311D01*
X146050Y331962D01*
X147806Y332311D01*
X149191Y333236D01*
X189230D01*
X190498Y333489D01*
X191573Y334207D01*
X217253Y359886D01*
X219451D01*
X219645Y359595D01*
X221299Y358490D01*
X223250Y358102D01*
X231750D01*
X233701Y358490D01*
X235355Y359595D01*
X236460Y361249D01*
X236848Y363200D01*
X236460Y365151D01*
X235355Y366805D01*
X233701Y367910D01*
X231750Y368298D01*
X223250D01*
X221299Y367910D01*
X219645Y366805D01*
X219451Y366514D01*
X215880D01*
X214612Y366261D01*
X213537Y365543D01*
X193775Y345781D01*
X192397Y346199D01*
X192199Y347196D01*
X191274Y348581D01*
Y358810D01*
X192199Y360194D01*
X192548Y361950D01*
X192199Y363706D01*
X191204Y365194D01*
X189716Y366189D01*
X187960Y366538D01*
X186204Y366189D01*
X184716Y365194D01*
X183721Y363706D01*
X183616Y363175D01*
X183582Y363008D01*
X182348Y363200D01*
X182310Y363391D01*
X181960Y365151D01*
X180855Y366805D01*
X179201Y367910D01*
X177250Y368298D01*
X168750D01*
X166799Y367910D01*
X165145Y366805D01*
X164964Y366534D01*
X162710D01*
Y369720D01*
X149710D01*
Y361406D01*
X144949Y356645D01*
X143710Y357202D01*
Y369720D01*
X130710D01*
Y356720D01*
X131753D01*
X132559Y355738D01*
X132412Y355000D01*
X132761Y353244D01*
X133756Y351756D01*
X135244Y350761D01*
X136933Y350425D01*
X137116Y350148D01*
X137525Y349221D01*
X102767Y314464D01*
X102049Y313389D01*
X101797Y312121D01*
Y275604D01*
X100527Y275521D01*
X100217Y277872D01*
X99109Y280547D01*
X97346Y282845D01*
X95048Y284608D01*
X92372Y285717D01*
X89501Y286095D01*
X86629Y285717D01*
X83953Y284608D01*
X81655Y282845D01*
X79892Y280547D01*
X79339Y279212D01*
X78069Y279465D01*
Y317350D01*
X77794Y319438D01*
X76988Y321385D01*
X76350Y322216D01*
Y324000D01*
X74521D01*
X73885Y324488D01*
X71938Y325294D01*
X70000Y325549D01*
Y341953D01*
X78478Y350431D01*
X98500D01*
X99866Y350703D01*
X101023Y351477D01*
X114650Y365103D01*
X116628Y364283D01*
X119500Y363905D01*
X122372Y364283D01*
X125048Y365392D01*
X127345Y367155D01*
X129108Y369453D01*
X130217Y372128D01*
X130595Y375000D01*
X130217Y377872D01*
X129108Y380547D01*
X127345Y382845D01*
X125048Y384608D01*
X123363Y385306D01*
X123615Y386576D01*
X124460D01*
X125728Y386829D01*
X126803Y387547D01*
X129537Y390280D01*
X130710Y389794D01*
Y382120D01*
X131593D01*
X132581Y380850D01*
X132412Y380000D01*
X132761Y378244D01*
X133756Y376756D01*
X135244Y375761D01*
X137000Y375412D01*
X138756Y375761D01*
X140244Y376756D01*
X141239Y378244D01*
X141588Y380000D01*
X141419Y380850D01*
X142407Y382120D01*
X143710D01*
Y394196D01*
X145948D01*
X149710Y390434D01*
Y382120D01*
X162710D01*
Y385306D01*
X164937D01*
X165145Y384995D01*
X166799Y383890D01*
X168750Y383502D01*
X177250D01*
X179201Y383890D01*
X180855Y384995D01*
X181960Y386649D01*
X182348Y388600D01*
X181960Y390551D01*
X180855Y392205D01*
X179201Y393310D01*
X177250Y393698D01*
X168750D01*
X166799Y393310D01*
X165145Y392205D01*
X164964Y391934D01*
X162710D01*
Y395120D01*
X154396D01*
X151275Y398242D01*
X151761Y399415D01*
X164027D01*
X164040Y399349D01*
X165145Y397695D01*
X166799Y396590D01*
X168750Y396202D01*
X177250D01*
X179201Y396590D01*
X180855Y397695D01*
X181049Y397986D01*
X185400D01*
X186668Y398239D01*
X187743Y398957D01*
X188201Y399415D01*
X205109D01*
X205595Y398242D01*
X186567Y379214D01*
X181049D01*
X180855Y379505D01*
X179201Y380610D01*
X177250Y380998D01*
X168750D01*
X166799Y380610D01*
X165145Y379505D01*
X164040Y377851D01*
X163652Y375900D01*
X164040Y373949D01*
X165145Y372295D01*
X166799Y371190D01*
X168750Y370802D01*
X177250D01*
X179201Y371190D01*
X180855Y372295D01*
X181049Y372586D01*
X187940D01*
X189208Y372839D01*
X190283Y373557D01*
X197385Y380659D01*
X198763Y380241D01*
X198961Y379244D01*
X199956Y377756D01*
X201444Y376761D01*
X203200Y376412D01*
X204956Y376761D01*
X206444Y377756D01*
X207439Y379244D01*
X207764Y380878D01*
X212173Y385286D01*
X219451D01*
X219645Y384995D01*
X221299Y383890D01*
X223250Y383502D01*
X231750D01*
X233701Y383890D01*
X235355Y384995D01*
X236460Y386649D01*
X236848Y388600D01*
X236460Y390551D01*
X235355Y392205D01*
X233701Y393310D01*
X231750Y393698D01*
X223250D01*
X221299Y393310D01*
X219645Y392205D01*
X219451Y391914D01*
X210800D01*
X210346Y391823D01*
X209720Y392994D01*
X214433Y397707D01*
X215151Y398782D01*
X215404Y400050D01*
Y503910D01*
X215151Y505178D01*
X214518Y506126D01*
Y614518D01*
X215000Y615000D01*
X441853D01*
X450900Y605953D01*
Y589000D01*
X472900D01*
Y611000D01*
X455947D01*
X453120Y613827D01*
X453606Y615000D01*
X530000D01*
Y607513D01*
D02*
G37*
G36*
X184761Y508244D02*
X185756Y506756D01*
X187244Y505761D01*
X188878Y505436D01*
X200000Y494314D01*
Y430039D01*
X181032D01*
X180855Y430305D01*
X179201Y431410D01*
X177250Y431798D01*
X168750D01*
X166799Y431410D01*
X165145Y430305D01*
X164968Y430039D01*
X141477D01*
X141033Y431111D01*
Y432920D01*
X143710D01*
Y445920D01*
X141033D01*
Y448967D01*
X140524Y449476D01*
Y458320D01*
X143710D01*
Y466634D01*
X147900Y470824D01*
X149170Y470298D01*
Y466090D01*
X154940D01*
Y471860D01*
X150732D01*
X150206Y473130D01*
X159002Y481926D01*
X185186D01*
X186571Y481001D01*
X188326Y480652D01*
X190082Y481001D01*
X191571Y481995D01*
X192565Y483484D01*
X192915Y485240D01*
X192565Y486996D01*
X191571Y488484D01*
X190082Y489479D01*
X188326Y489828D01*
X186571Y489479D01*
X185186Y488553D01*
X157630D01*
X156362Y488301D01*
X155287Y487583D01*
X139024Y471320D01*
X130710D01*
Y470000D01*
X129440Y469747D01*
X129108Y470547D01*
X127345Y472845D01*
X125048Y474608D01*
X122372Y475717D01*
X119500Y476095D01*
X116628Y475717D01*
X113953Y474608D01*
X111655Y472845D01*
X109892Y470547D01*
X108783Y467872D01*
X108405Y465000D01*
X108783Y462128D01*
X109892Y459453D01*
X111655Y457155D01*
X113953Y455392D01*
X116628Y454283D01*
X119500Y453905D01*
X122372Y454283D01*
X125048Y455392D01*
X127345Y457155D01*
X129108Y459453D01*
X129440Y460253D01*
X130710Y460000D01*
Y458320D01*
X133896D01*
Y450039D01*
X101647D01*
X100343Y451343D01*
X99268Y452061D01*
X98000Y452314D01*
X48000D01*
X46732Y452061D01*
X45657Y451343D01*
X18878Y424564D01*
X17244Y424239D01*
X15756Y423244D01*
X14761Y421756D01*
X14412Y420000D01*
X14761Y418244D01*
X15756Y416756D01*
X17244Y415761D01*
X19000Y415412D01*
X20756Y415761D01*
X22244Y416756D01*
X23239Y418244D01*
X23564Y419878D01*
X49373Y445686D01*
X59961D01*
Y422314D01*
X41000D01*
X39732Y422061D01*
X38657Y421343D01*
X24657Y407343D01*
X23939Y406268D01*
X23686Y405000D01*
Y353140D01*
X22761Y351756D01*
X22412Y350000D01*
X22761Y348244D01*
X23756Y346756D01*
X25244Y345761D01*
X27000Y345412D01*
X28756Y345761D01*
X30244Y346756D01*
X31239Y348244D01*
X31588Y350000D01*
X31239Y351756D01*
X30314Y353140D01*
Y388025D01*
X31584Y388344D01*
X32297Y387010D01*
X34421Y384421D01*
X37010Y382297D01*
X39963Y380718D01*
X43168Y379746D01*
X46500Y379418D01*
X49833Y379746D01*
X53037Y380718D01*
X55990Y382297D01*
X58579Y384421D01*
X58765Y384648D01*
X59961Y384220D01*
Y343569D01*
X12759D01*
X11756Y344239D01*
X10000Y344588D01*
X8244Y344239D01*
X6756Y343244D01*
X5761Y341756D01*
X5412Y340000D01*
X5761Y338244D01*
X6756Y336756D01*
X8244Y335761D01*
X10000Y335412D01*
X11756Y335761D01*
X12759Y336431D01*
X59961D01*
Y265781D01*
X58765Y265353D01*
X58580Y265579D01*
X55991Y267703D01*
X53038Y269282D01*
X49833Y270254D01*
X46501Y270582D01*
X43168Y270254D01*
X39964Y269282D01*
X37010Y267703D01*
X34422Y265579D01*
X32297Y262990D01*
X30719Y260037D01*
X29747Y256833D01*
X29418Y253500D01*
X29747Y250167D01*
X30719Y246963D01*
X32297Y244010D01*
X34422Y241421D01*
X37010Y239297D01*
X39964Y237718D01*
X43168Y236746D01*
X46501Y236418D01*
X49833Y236746D01*
X53038Y237718D01*
X55991Y239297D01*
X58580Y241421D01*
X58765Y241647D01*
X59961Y241219D01*
Y158781D01*
X58765Y158353D01*
X58580Y158579D01*
X55991Y160703D01*
X53038Y162282D01*
X49833Y163254D01*
X46501Y163582D01*
X43168Y163254D01*
X39964Y162282D01*
X37010Y160703D01*
X34422Y158579D01*
X32297Y155990D01*
X30719Y153037D01*
X29747Y149833D01*
X29418Y146500D01*
X29747Y143167D01*
X30719Y139963D01*
X32297Y137010D01*
X34422Y134421D01*
X37010Y132297D01*
X39964Y130718D01*
X43168Y129746D01*
X46501Y129418D01*
X49833Y129746D01*
X53038Y130718D01*
X55991Y132297D01*
X58580Y134421D01*
X58765Y134647D01*
X59961Y134219D01*
Y80039D01*
X83183D01*
Y30534D01*
X80949Y29609D01*
X78651Y27845D01*
X76888Y25547D01*
X75780Y22872D01*
X75402Y20000D01*
X75780Y17128D01*
X76888Y14453D01*
X78651Y12155D01*
X80949Y10391D01*
X83625Y9283D01*
X86497Y8905D01*
X89368Y9283D01*
X92044Y10391D01*
X94342Y12155D01*
X96105Y14453D01*
X97213Y17128D01*
X97591Y20000D01*
X97213Y22872D01*
X96105Y25547D01*
X94342Y27845D01*
X92044Y29609D01*
X89810Y30534D01*
Y80039D01*
X321000D01*
X321453Y79691D01*
X324129Y78583D01*
X327001Y78205D01*
X329872Y78583D01*
X332548Y79691D01*
X333002Y80039D01*
X347618D01*
X348423Y79057D01*
X348412Y79000D01*
Y65563D01*
X348330Y65500D01*
X346500D01*
Y63671D01*
X346012Y63035D01*
X345206Y61088D01*
X344931Y59000D01*
Y43000D01*
X341000D01*
Y9000D01*
X365000D01*
Y43000D01*
X361069D01*
Y59000D01*
X360794Y61088D01*
X359988Y63035D01*
X359500Y63671D01*
Y65500D01*
X357671D01*
X357588Y65563D01*
Y79000D01*
X357577Y79057D01*
X358382Y80039D01*
X360900D01*
Y69000D01*
X363831D01*
Y59100D01*
X364106Y57012D01*
X364912Y55065D01*
X365500Y54299D01*
Y52500D01*
X367330D01*
X367966Y52012D01*
X369912Y51206D01*
X372000Y50931D01*
X374088Y51206D01*
X376035Y52012D01*
X376670Y52500D01*
X378500D01*
Y54330D01*
X378988Y54966D01*
X379794Y56912D01*
X380069Y59000D01*
X379969Y59759D01*
Y69000D01*
X382900D01*
Y80039D01*
X386171D01*
X386205Y80000D01*
X386583Y77128D01*
X387691Y74453D01*
X389231Y72446D01*
Y61149D01*
X389206Y61088D01*
X388931Y59000D01*
X389206Y56912D01*
X390012Y54966D01*
X390500Y54330D01*
Y52500D01*
X392330D01*
X392966Y52012D01*
X394912Y51206D01*
X397000Y50931D01*
X399088Y51206D01*
X401035Y52012D01*
X401670Y52500D01*
X403500D01*
Y54239D01*
X404288Y55265D01*
X405094Y57212D01*
X405369Y59300D01*
Y72446D01*
X406908Y74453D01*
X408017Y77128D01*
X408395Y80000D01*
X408429Y80039D01*
X411571D01*
X411605Y80000D01*
X411983Y77128D01*
X413092Y74453D01*
X414855Y72155D01*
X417152Y70392D01*
X419828Y69283D01*
X422700Y68905D01*
X425572Y69283D01*
X428247Y70392D01*
X430545Y72155D01*
X432309Y74453D01*
X433417Y77128D01*
X433795Y80000D01*
X433829Y80039D01*
X436971D01*
X437005Y80000D01*
X437383Y77128D01*
X438492Y74453D01*
X440255Y72155D01*
X442552Y70392D01*
X445228Y69283D01*
X448100Y68905D01*
X450972Y69283D01*
X453647Y70392D01*
X455945Y72155D01*
X457709Y74453D01*
X458817Y77128D01*
X459195Y80000D01*
X459229Y80039D01*
X509961D01*
Y39D01*
X-39D01*
Y510000D01*
X29641D01*
X30397Y508980D01*
X29746Y506833D01*
X29418Y503500D01*
X29746Y500167D01*
X30718Y496963D01*
X32297Y494010D01*
X34421Y491421D01*
X37010Y489297D01*
X39963Y487718D01*
X43168Y486746D01*
X46500Y486418D01*
X49833Y486746D01*
X53037Y487718D01*
X55990Y489297D01*
X58579Y491421D01*
X60703Y494010D01*
X62282Y496963D01*
X63254Y500167D01*
X63582Y503500D01*
X63254Y506833D01*
X62603Y508980D01*
X63359Y510000D01*
X184412D01*
X184761Y508244D01*
D02*
G37*
G36*
X364550Y481050D02*
Y467950D01*
X358790D01*
Y468490D01*
X356120D01*
Y467951D01*
X355749D01*
Y463300D01*
X353950D01*
Y467951D01*
X353580D01*
Y468490D01*
X350910D01*
X349990Y469335D01*
Y470280D01*
X349450D01*
Y470650D01*
X344800D01*
Y472820D01*
X349990D01*
Y474580D01*
X344800D01*
Y476749D01*
X349450D01*
Y477120D01*
X349990D01*
Y479520D01*
X350913Y480628D01*
X352000Y480412D01*
X353756Y480761D01*
X355244Y481756D01*
X356239Y483244D01*
X356588Y485000D01*
X356239Y486756D01*
X356123Y486930D01*
X356721Y488050D01*
X364550D01*
Y481050D01*
D02*
G37*
G36*
X387686Y460627D02*
Y446373D01*
X366688Y425374D01*
X350940D01*
X349672Y425121D01*
X348597Y424403D01*
X340158Y415964D01*
X339439Y414889D01*
X339187Y413621D01*
Y390500D01*
X335814D01*
Y432039D01*
X335562Y433307D01*
X334844Y434383D01*
X328899Y440327D01*
X329386Y441500D01*
X336500D01*
Y454500D01*
X328186D01*
X323425Y459261D01*
X323982Y460500D01*
X336500D01*
Y463941D01*
X339610D01*
Y459010D01*
X343530D01*
Y462950D01*
X346070D01*
Y459010D01*
X347150D01*
Y458650D01*
X347206D01*
Y451451D01*
X346281Y450066D01*
X345932Y448310D01*
X346281Y446554D01*
X347276Y445066D01*
X348764Y444071D01*
X350520Y443722D01*
X352276Y444071D01*
X353764Y445066D01*
X354626Y446355D01*
X355495Y446532D01*
X356046Y446515D01*
X356166Y446336D01*
X357654Y445341D01*
X359410Y444992D01*
X361166Y445341D01*
X362654Y446336D01*
X363649Y447824D01*
X363843Y448798D01*
X365137D01*
X365331Y447824D01*
X366326Y446336D01*
X367814Y445341D01*
X369570Y444992D01*
X371326Y445341D01*
X372814Y446336D01*
X373809Y447824D01*
X374158Y449580D01*
X373809Y451336D01*
X372884Y452720D01*
Y458198D01*
X374154Y458323D01*
X374221Y457984D01*
X375216Y456496D01*
X376704Y455501D01*
X378460Y455152D01*
X380216Y455501D01*
X381704Y456496D01*
X382699Y457984D01*
X383048Y459740D01*
X382699Y461496D01*
X381774Y462881D01*
Y464744D01*
X381946Y464897D01*
X382963Y465351D01*
X387686Y460627D01*
D02*
G37*
G36*
X100686Y398890D02*
X100939Y397622D01*
X101657Y396547D01*
X110657Y387547D01*
X111732Y386829D01*
X113000Y386576D01*
X115385D01*
X115637Y385306D01*
X113953Y384608D01*
X111655Y382845D01*
X109892Y380547D01*
X108783Y377872D01*
X108405Y375000D01*
X108783Y372128D01*
X109603Y370150D01*
X97022Y357569D01*
X77000D01*
X75634Y357297D01*
X74477Y356523D01*
X71173Y353220D01*
X70000Y353706D01*
Y399265D01*
X70062Y399415D01*
X79920D01*
X81655Y397155D01*
X83953Y395392D01*
X86629Y394283D01*
X89500Y393905D01*
X92372Y394283D01*
X95048Y395392D01*
X97345Y397155D01*
X99080Y399415D01*
X100686D01*
Y398890D01*
D02*
G37*
G36*
X368771Y373960D02*
X371541D01*
Y374500D01*
X381001D01*
Y379186D01*
X405000D01*
Y370000D01*
X423344D01*
X423830Y368827D01*
X420817Y365814D01*
X405500D01*
Y366000D01*
X389501D01*
Y355814D01*
X387112D01*
X386784Y356304D01*
X385296Y357299D01*
X383540Y357648D01*
X381784Y357299D01*
X380296Y356304D01*
X379301Y354816D01*
X378952Y353060D01*
X379301Y351304D01*
X380296Y349816D01*
X381784Y348821D01*
X383540Y348472D01*
X385296Y348821D01*
X385842Y349186D01*
X388961D01*
Y348770D01*
X397501D01*
Y346230D01*
X388961D01*
Y343460D01*
X389501D01*
Y342152D01*
X388231Y341626D01*
X385883Y343973D01*
X384808Y344691D01*
X383540Y344944D01*
X375251D01*
X373866Y345869D01*
X372110Y346218D01*
X370354Y345869D01*
X368866Y344874D01*
X367871Y343386D01*
X367522Y341630D01*
X367871Y339874D01*
X368866Y338386D01*
X370354Y337391D01*
X372110Y337042D01*
X373866Y337391D01*
X375251Y338316D01*
X380728D01*
X380853Y337046D01*
X380514Y336979D01*
X379026Y335984D01*
X378031Y334496D01*
X377682Y332740D01*
X378031Y330984D01*
X379026Y329496D01*
X380514Y328501D01*
X382270Y328152D01*
X384026Y328501D01*
X385051Y329186D01*
X389501D01*
Y320814D01*
X385410D01*
X384026Y321739D01*
X382270Y322088D01*
X380514Y321739D01*
X379026Y320744D01*
X378031Y319256D01*
X377682Y317500D01*
X378031Y315744D01*
X379026Y314256D01*
X380514Y313261D01*
X382270Y312912D01*
X384026Y313261D01*
X385410Y314186D01*
X389501D01*
Y304000D01*
Y291540D01*
X388961D01*
Y288770D01*
X397501D01*
X406040D01*
Y291540D01*
X405500D01*
Y304186D01*
X432648D01*
X450000Y286834D01*
Y241500D01*
X449000D01*
Y228500D01*
X450000D01*
Y220000D01*
X520000Y220000D01*
X520000Y115643D01*
X518730Y114882D01*
X516629Y116005D01*
X513380Y116990D01*
X510000Y117323D01*
X506620Y116990D01*
X503371Y116005D01*
X500376Y114404D01*
X497751Y112249D01*
X495596Y109624D01*
X493995Y106629D01*
X493009Y103380D01*
X492677Y100000D01*
X493009Y96620D01*
X493995Y93371D01*
X495596Y90376D01*
X497751Y87751D01*
X499554Y86270D01*
X499100Y85000D01*
X457935D01*
X457709Y85547D01*
X455945Y87845D01*
X453647Y89608D01*
X450972Y90717D01*
X448100Y91095D01*
X445228Y90717D01*
X442552Y89608D01*
X440255Y87845D01*
X438492Y85547D01*
X438265Y85000D01*
X432535D01*
X432309Y85547D01*
X430545Y87845D01*
X428247Y89608D01*
X425572Y90717D01*
X422700Y91095D01*
X419828Y90717D01*
X417152Y89608D01*
X414855Y87845D01*
X413092Y85547D01*
X412865Y85000D01*
X407135D01*
X406908Y85547D01*
X405145Y87845D01*
X402848Y89608D01*
X400172Y90717D01*
X397300Y91095D01*
X394428Y90717D01*
X391753Y89608D01*
X389455Y87845D01*
X387691Y85547D01*
X387465Y85000D01*
X382900D01*
Y91000D01*
X360900D01*
Y85000D01*
X338269D01*
X337564Y86056D01*
X337718Y86428D01*
X338096Y89300D01*
X337718Y92171D01*
X336609Y94847D01*
X334846Y97145D01*
X332548Y98908D01*
X329872Y100016D01*
X327001Y100394D01*
X324129Y100016D01*
X321453Y98908D01*
X319156Y97145D01*
X317392Y94847D01*
X316284Y92171D01*
X315906Y89300D01*
X316284Y86428D01*
X316438Y86056D01*
X315732Y85000D01*
X70000D01*
Y251430D01*
X71173Y251916D01*
X78454Y244636D01*
X78784Y242128D01*
X79892Y239453D01*
X81655Y237155D01*
X83953Y235392D01*
X86629Y234283D01*
X89501Y233905D01*
X92372Y234283D01*
X95048Y235392D01*
X97346Y237155D01*
X99109Y239453D01*
X100217Y242128D01*
X100527Y244479D01*
X101797Y244396D01*
Y215604D01*
X100527Y215521D01*
X100502Y215710D01*
X100217Y217872D01*
X99109Y220548D01*
X97346Y222845D01*
X95048Y224608D01*
X92372Y225717D01*
X89501Y226095D01*
X86629Y225717D01*
X83953Y224608D01*
X81655Y222845D01*
X79892Y220548D01*
X78784Y217872D01*
X78406Y215000D01*
X78784Y212129D01*
X79892Y209453D01*
X81655Y207155D01*
X83953Y205392D01*
X86629Y204283D01*
X89501Y203905D01*
X92372Y204283D01*
X95048Y205392D01*
X97346Y207155D01*
X99109Y209453D01*
X100217Y212129D01*
X100502Y214290D01*
X100527Y214479D01*
X101797Y214396D01*
Y199390D01*
X102049Y198122D01*
X102767Y197047D01*
X109709Y190105D01*
X108784Y187872D01*
X108406Y185000D01*
X108784Y182128D01*
X109892Y179453D01*
X111655Y177155D01*
X113953Y175392D01*
X116629Y174283D01*
X119501Y173905D01*
X122372Y174283D01*
X125048Y175392D01*
X127346Y177155D01*
X129109Y179453D01*
X130217Y182128D01*
X130596Y185000D01*
X130217Y187872D01*
X129109Y190547D01*
X127346Y192845D01*
X125048Y194608D01*
X122372Y195717D01*
X119501Y196095D01*
X116629Y195717D01*
X114395Y194792D01*
X108424Y200763D01*
Y209678D01*
X109694Y209930D01*
X109892Y209453D01*
X111655Y207155D01*
X113953Y205392D01*
X116629Y204283D01*
X119501Y203905D01*
X122372Y204283D01*
X125048Y205392D01*
X127346Y207155D01*
X129109Y209453D01*
X130217Y212129D01*
X130596Y215000D01*
X130217Y217872D01*
X129292Y220105D01*
X134423Y225236D01*
X135141Y226311D01*
X135394Y227579D01*
Y233480D01*
X139230D01*
Y240520D01*
Y247560D01*
X135394D01*
Y276600D01*
X153930Y295136D01*
X184150D01*
X185418Y295389D01*
X186493Y296107D01*
X229843Y339457D01*
X230561Y340532D01*
X230814Y341800D01*
Y345402D01*
X231750D01*
X233701Y345790D01*
X235355Y346895D01*
X235549Y347186D01*
X237340D01*
Y344020D01*
X250340Y344020D01*
X250686Y342893D01*
Y340463D01*
X213557Y303333D01*
X212839Y302258D01*
X212586Y300990D01*
X212686Y300487D01*
Y270028D01*
X211416Y269306D01*
X210000Y269588D01*
X208244Y269239D01*
X206756Y268244D01*
X205761Y266756D01*
X205412Y265000D01*
X205511Y264504D01*
X204705Y263522D01*
X196500D01*
Y260834D01*
X192001D01*
Y264020D01*
X181314D01*
Y270860D01*
X182239Y272244D01*
X182588Y274000D01*
X182239Y275756D01*
X181244Y277244D01*
X179756Y278239D01*
X178000Y278588D01*
X176244Y278239D01*
X174756Y277244D01*
X173761Y275756D01*
X173412Y274000D01*
X173761Y272244D01*
X174686Y270860D01*
Y255573D01*
X171328Y252214D01*
X169694Y251889D01*
X168206Y250894D01*
X167211Y249406D01*
X166910Y247891D01*
X166397Y247399D01*
X165692Y247020D01*
X162814D01*
Y250609D01*
X163239Y251244D01*
X163588Y253000D01*
X163239Y254756D01*
X162244Y256244D01*
X160756Y257239D01*
X159000Y257588D01*
X157244Y257239D01*
X155756Y256244D01*
X154761Y254756D01*
X154412Y253000D01*
X154761Y251244D01*
X155756Y249756D01*
X156187Y249468D01*
Y247020D01*
X153000D01*
Y234020D01*
X156187D01*
Y229810D01*
X154270D01*
Y219020D01*
Y208230D01*
X158041D01*
Y208770D01*
X162687D01*
Y199123D01*
X139578Y176014D01*
X137944Y175689D01*
X136456Y174694D01*
X135461Y173206D01*
X135112Y171450D01*
X135461Y169694D01*
X136456Y168206D01*
X137944Y167211D01*
X139700Y166862D01*
X141456Y167211D01*
X142944Y168206D01*
X143939Y169694D01*
X144264Y171328D01*
X165781Y192844D01*
X166951Y192219D01*
X166862Y191770D01*
X167211Y190014D01*
X168136Y188629D01*
Y174590D01*
X167211Y173206D01*
X166862Y171450D01*
X167211Y169694D01*
X168206Y168206D01*
X169694Y167211D01*
X169900Y167170D01*
X170269Y165955D01*
X170157Y165844D01*
X169439Y164769D01*
X169187Y163500D01*
Y156770D01*
X142001D01*
Y151982D01*
X141448Y151529D01*
X139692Y151180D01*
X138204Y150185D01*
X137209Y148697D01*
X136860Y146941D01*
X137209Y145185D01*
X138204Y143697D01*
X139692Y142702D01*
X141448Y142353D01*
X142001Y141900D01*
Y136270D01*
X145424D01*
X145911Y135097D01*
X144814Y134000D01*
X136500D01*
Y121000D01*
X149500D01*
Y129314D01*
X151826Y131640D01*
X153000Y131154D01*
Y121062D01*
X155868D01*
X156454Y119792D01*
X155761Y118756D01*
X155412Y117000D01*
X155545Y116333D01*
X154502Y115063D01*
X153000D01*
Y102063D01*
X160853D01*
X161483Y100793D01*
X161119Y100314D01*
X149006D01*
X148695Y100730D01*
X149332Y102000D01*
X149500D01*
Y115000D01*
X136500D01*
Y102000D01*
X139686D01*
Y101000D01*
X139939Y99732D01*
X140657Y98657D01*
X144657Y94657D01*
X145732Y93939D01*
X147000Y93686D01*
X163000D01*
X164268Y93939D01*
X165343Y94657D01*
X170343Y99657D01*
X171061Y100732D01*
X171314Y102000D01*
Y133000D01*
X171061Y134268D01*
X170572Y135000D01*
X171068Y136270D01*
X182187D01*
Y134062D01*
X179000D01*
Y121062D01*
X192001D01*
Y134062D01*
X188814D01*
Y136270D01*
X196500D01*
Y156770D01*
X195314D01*
Y159764D01*
X196009Y160804D01*
X196358Y162560D01*
X196009Y164316D01*
X195902Y164476D01*
X196500Y165596D01*
X200718D01*
X206640Y159673D01*
X206154Y158500D01*
X205500D01*
Y145500D01*
X218342D01*
X218575Y144261D01*
X213814Y139500D01*
X205500D01*
Y126500D01*
X218500D01*
Y134814D01*
X224343Y140657D01*
X225061Y141732D01*
X225314Y143000D01*
Y158000D01*
X225061Y159268D01*
X224343Y160343D01*
X208343Y176343D01*
X207268Y177061D01*
X206000Y177314D01*
X183000D01*
X181732Y177061D01*
X180657Y176343D01*
X176945Y172631D01*
X175730Y173000D01*
X175689Y173206D01*
X174764Y174590D01*
Y188629D01*
X175689Y190014D01*
X176038Y191770D01*
X175689Y193526D01*
X174694Y195014D01*
X173206Y196009D01*
X171450Y196358D01*
X170228Y196115D01*
X169212Y197047D01*
X169186Y197104D01*
X169314Y197750D01*
Y208770D01*
X175687D01*
Y206236D01*
X174831Y204956D01*
X174482Y203200D01*
X174831Y201444D01*
X175826Y199956D01*
X177314Y198961D01*
X179070Y198612D01*
X180826Y198961D01*
X182314Y199956D01*
X183309Y201444D01*
X183658Y203200D01*
X183309Y204956D01*
X182314Y206444D01*
X182314Y206444D01*
Y208770D01*
X196500D01*
Y215706D01*
X206581D01*
X207449Y215126D01*
X209205Y214777D01*
X210961Y215126D01*
X211416Y215431D01*
X212686Y214752D01*
Y209140D01*
X211761Y207756D01*
X211412Y206000D01*
X211761Y204244D01*
X212756Y202756D01*
X214244Y201761D01*
X216000Y201412D01*
X217756Y201761D01*
X219244Y202756D01*
X220239Y204244D01*
X220588Y206000D01*
X220239Y207756D01*
X219314Y209140D01*
Y228883D01*
X220299Y229410D01*
X220584Y229423D01*
X222250Y229092D01*
X222838Y229209D01*
X224012Y228600D01*
X224361Y226844D01*
X225356Y225356D01*
X226844Y224361D01*
X228600Y224012D01*
X230356Y224361D01*
X231844Y225356D01*
X232839Y226844D01*
X233164Y228478D01*
X238343Y233657D01*
X239061Y234732D01*
X239314Y236000D01*
Y286698D01*
X261803Y309186D01*
X274501D01*
Y300494D01*
X262220D01*
X260836Y301419D01*
X259080Y301768D01*
X257324Y301419D01*
X255836Y300424D01*
X254841Y298936D01*
X254492Y297180D01*
X254841Y295424D01*
X255836Y293936D01*
X257324Y292941D01*
X257461Y292914D01*
Y288790D01*
X264501D01*
X271541D01*
Y293866D01*
X274501D01*
Y291540D01*
X273961D01*
Y288770D01*
X282501D01*
Y287500D01*
X283771D01*
Y283460D01*
X291040D01*
X291686Y282458D01*
Y263392D01*
X284314Y256020D01*
X276001D01*
Y243020D01*
X289000D01*
Y251334D01*
X297343Y259676D01*
X298803Y259635D01*
X299000Y259500D01*
X298864Y258287D01*
X298021Y257026D01*
X297672Y255270D01*
X298021Y253514D01*
X299016Y252026D01*
X300504Y251031D01*
X302260Y250682D01*
X304016Y251031D01*
X304916Y251633D01*
X306186Y250954D01*
Y245550D01*
X304850D01*
Y228450D01*
X314150D01*
Y245489D01*
X315066Y246404D01*
X315744Y245951D01*
X316208Y245859D01*
X317350Y245550D01*
Y228450D01*
X326650D01*
Y243584D01*
X327823Y244070D01*
X329786Y242108D01*
Y238400D01*
X329850Y238080D01*
Y228450D01*
X339150D01*
Y245550D01*
X335626D01*
X335443Y245823D01*
X322939Y258327D01*
X323425Y259500D01*
X334187D01*
Y255590D01*
X334439Y254321D01*
X335157Y253246D01*
X341805Y246599D01*
X342350Y245550D01*
X342350D01*
X342350Y245550D01*
Y228450D01*
X343686D01*
Y221550D01*
X342350D01*
Y204450D01*
X343686D01*
Y200989D01*
X342416Y200864D01*
X342239Y201756D01*
X341244Y203244D01*
X339756Y204239D01*
X339467Y204296D01*
X339150Y204450D01*
Y221550D01*
X329850D01*
Y216314D01*
X326650D01*
Y221550D01*
X317350D01*
Y204450D01*
X316401Y203675D01*
X315756Y203244D01*
X314761Y201756D01*
X314420Y200040D01*
X311270D01*
Y194270D01*
X317040D01*
Y194507D01*
X318310Y195549D01*
X319000Y195412D01*
X319690Y195549D01*
X320960Y194507D01*
Y194270D01*
X328000D01*
X335040D01*
Y195106D01*
X336087Y195757D01*
X336310Y195748D01*
X338000Y195412D01*
X339230Y195657D01*
X340500Y194847D01*
Y186500D01*
X353500D01*
Y199500D01*
X350314D01*
Y204450D01*
X351650D01*
Y221550D01*
X350314D01*
Y228450D01*
X351650D01*
Y243868D01*
X352920Y244394D01*
X361686Y235627D01*
Y221000D01*
X361939Y219732D01*
X362657Y218657D01*
X405857Y175457D01*
X406932Y174739D01*
X408200Y174486D01*
X417050D01*
Y172140D01*
X409000D01*
X408890Y172140D01*
X407730D01*
X407620Y172140D01*
X401960D01*
Y165100D01*
Y158060D01*
X407620D01*
X407730Y158060D01*
X408890D01*
X409000Y158060D01*
X414660D01*
Y165100D01*
X415930D01*
Y166370D01*
X422970D01*
Y171300D01*
X424637D01*
X424710Y170060D01*
X424710D01*
Y166190D01*
X428750D01*
Y164920D01*
X430020D01*
Y159780D01*
X432790D01*
Y160320D01*
X447250D01*
Y161606D01*
X448770D01*
X450038Y161859D01*
X451113Y162577D01*
X456373Y167837D01*
X457091Y168912D01*
X457344Y170180D01*
Y171300D01*
X460530D01*
Y173379D01*
X461800Y174058D01*
X462244Y173761D01*
X464000Y173412D01*
X465756Y173761D01*
X467244Y174756D01*
X468239Y176244D01*
X468588Y178000D01*
X468239Y179756D01*
X467244Y181244D01*
X465756Y182239D01*
X464000Y182588D01*
X462244Y182239D01*
X461800Y181942D01*
X460530Y182621D01*
Y184300D01*
X447530D01*
Y171300D01*
X448566D01*
X449059Y170135D01*
X448384Y169374D01*
X447250Y169520D01*
Y169520D01*
X442064D01*
Y171300D01*
X445290D01*
Y184300D01*
X442254D01*
X442061Y185268D01*
X441343Y186343D01*
X439100Y188587D01*
X439585Y189760D01*
X445720D01*
X445830Y189760D01*
X446990D01*
X447100Y189760D01*
X452760D01*
Y196800D01*
Y203840D01*
X447100D01*
X446990Y203840D01*
X445830D01*
X445720Y203840D01*
X440060D01*
Y196800D01*
X438790D01*
Y195530D01*
X431750D01*
Y191314D01*
X430050D01*
Y203300D01*
X417050D01*
Y201150D01*
X415780Y200555D01*
X414756Y201239D01*
X413000Y201588D01*
X411244Y201239D01*
X409756Y200244D01*
X408761Y198756D01*
X408412Y197000D01*
X408761Y195244D01*
X409756Y193756D01*
X411244Y192761D01*
X412136Y192584D01*
X412011Y191314D01*
X407373D01*
X374314Y224373D01*
Y240000D01*
X374272Y240210D01*
X375314Y241480D01*
X376231D01*
Y248520D01*
Y255560D01*
X375042D01*
X374516Y256830D01*
X374844Y257157D01*
X375562Y258232D01*
X375707Y258960D01*
X376231D01*
Y267500D01*
Y276040D01*
X373461D01*
Y275500D01*
X370814D01*
Y281128D01*
X372122Y282436D01*
X373756Y282761D01*
X375244Y283756D01*
X376239Y285244D01*
X376588Y287000D01*
X376239Y288756D01*
X375244Y290244D01*
X373756Y291239D01*
X372000Y291588D01*
X370244Y291239D01*
X368756Y290244D01*
X367761Y288756D01*
X367436Y287122D01*
X365158Y284844D01*
X364439Y283769D01*
X364187Y282501D01*
Y275500D01*
X361651D01*
X361244Y276756D01*
X362239Y278244D01*
X362588Y280000D01*
X362239Y281756D01*
X361244Y283244D01*
X359756Y284239D01*
X358000Y284588D01*
X356244Y284239D01*
X354756Y283244D01*
X353761Y281756D01*
X353412Y280000D01*
X353761Y278244D01*
X354187Y277607D01*
Y275500D01*
X345814D01*
Y278529D01*
X345562Y279797D01*
X344844Y280873D01*
X343654Y282062D01*
X343329Y283696D01*
X342334Y285184D01*
X340846Y286179D01*
X339090Y286528D01*
X337334Y286179D01*
X337084Y286012D01*
X335814Y286691D01*
Y290393D01*
X335766Y290633D01*
X336058Y292100D01*
X335709Y293856D01*
X334714Y295344D01*
X333226Y296339D01*
X331470Y296688D01*
X329714Y296339D01*
X328226Y295344D01*
X327231Y293856D01*
X326882Y292100D01*
X327048Y291265D01*
X325968Y290185D01*
X325199Y290338D01*
X323444Y289989D01*
X321955Y288994D01*
X320961Y287506D01*
X320611Y285750D01*
X319441Y285125D01*
X318770Y285258D01*
X317014Y284909D01*
X315526Y283914D01*
X314531Y282426D01*
X314182Y280670D01*
X314531Y278914D01*
X315526Y277426D01*
X316507Y276770D01*
X316122Y275500D01*
X299584D01*
X299001Y275500D01*
X298314Y276486D01*
Y288000D01*
X298061Y289268D01*
X297343Y290343D01*
X292843Y294843D01*
X291768Y295561D01*
X290501Y295814D01*
Y309000D01*
Y319000D01*
Y329000D01*
Y339186D01*
X323450D01*
X324718Y339439D01*
X325793Y340157D01*
X330322Y344686D01*
X331956Y345011D01*
X332917Y345653D01*
X334187Y345005D01*
Y326173D01*
X304678Y296664D01*
X303044Y296339D01*
X301556Y295344D01*
X300561Y293856D01*
X300212Y292100D01*
X300561Y290344D01*
X301556Y288856D01*
X303044Y287861D01*
X304800Y287512D01*
X306556Y287861D01*
X308044Y288856D01*
X309039Y290344D01*
X309364Y291978D01*
X339844Y322457D01*
X340562Y323532D01*
X340814Y324800D01*
Y374500D01*
X354187D01*
Y372843D01*
X351668Y370324D01*
X350034Y369999D01*
X348546Y369004D01*
X347551Y367516D01*
X347202Y365760D01*
X347551Y364004D01*
X348546Y362516D01*
X350034Y361521D01*
X351790Y361172D01*
X353546Y361521D01*
X355034Y362516D01*
X356029Y364004D01*
X356354Y365638D01*
X358851Y368135D01*
X359707Y368050D01*
X360308Y367796D01*
X362466Y365638D01*
X362791Y364004D01*
X363786Y362516D01*
X365274Y361521D01*
X367030Y361172D01*
X368786Y361521D01*
X370274Y362516D01*
X371269Y364004D01*
X371618Y365760D01*
X371269Y367516D01*
X370274Y369004D01*
X368786Y369999D01*
X367152Y370324D01*
X365814Y371662D01*
Y373960D01*
X366231D01*
Y382500D01*
X368771D01*
Y373960D01*
D02*
G37*
G36*
X450000Y351764D02*
Y333485D01*
X448730Y332443D01*
X448000Y332588D01*
X446244Y332239D01*
X445638Y331834D01*
X444001D01*
Y335020D01*
X431001D01*
Y332862D01*
X429880Y332263D01*
X429732Y332362D01*
X427976Y332711D01*
X426270Y332372D01*
X426214Y332366D01*
X425000Y333074D01*
Y335020D01*
X416687D01*
X412497Y339210D01*
X413023Y340480D01*
X417230D01*
Y347520D01*
X418501D01*
Y348790D01*
X425541D01*
Y354186D01*
X430461D01*
Y348790D01*
X437500D01*
X444540D01*
Y354186D01*
X447578D01*
X450000Y351764D01*
D02*
G37*
%LPC*%
G36*
X513970Y611472D02*
Y601270D01*
X524172D01*
X523943Y603013D01*
X522780Y605820D01*
X520930Y608230D01*
X518520Y610080D01*
X515713Y611243D01*
X513970Y611472D01*
D02*
G37*
G36*
X511430Y611472D02*
X509687Y611243D01*
X506880Y610080D01*
X504470Y608230D01*
X502620Y605820D01*
X501457Y603013D01*
X501228Y601270D01*
X511430D01*
Y611472D01*
D02*
G37*
G36*
X487300Y611095D02*
X484428Y610717D01*
X481753Y609608D01*
X479455Y607845D01*
X477691Y605547D01*
X476583Y602872D01*
X476205Y600000D01*
X476583Y597128D01*
X477691Y594453D01*
X479455Y592155D01*
X481753Y590392D01*
X484428Y589283D01*
X487300Y588905D01*
X490172Y589283D01*
X492847Y590392D01*
X495145Y592155D01*
X496908Y594453D01*
X498017Y597128D01*
X498395Y600000D01*
X498017Y602872D01*
X496908Y605547D01*
X495145Y607845D01*
X492847Y609608D01*
X490172Y610717D01*
X487300Y611095D01*
D02*
G37*
G36*
X511430Y598730D02*
X501228D01*
X501457Y596987D01*
X502620Y594180D01*
X504470Y591770D01*
X506880Y589920D01*
X509687Y588757D01*
X511430Y588528D01*
Y598730D01*
D02*
G37*
G36*
X524172D02*
X513970D01*
Y588528D01*
X515713Y588757D01*
X518520Y589920D01*
X520930Y591770D01*
X522780Y594180D01*
X523943Y596987D01*
X524172Y598730D01*
D02*
G37*
G36*
X348000Y599060D02*
X346173Y598820D01*
X344470Y598115D01*
X343008Y596992D01*
X341885Y595530D01*
X341180Y593827D01*
X340940Y592000D01*
X341180Y590173D01*
X341885Y588470D01*
X343008Y587007D01*
X344470Y585886D01*
X346173Y585180D01*
X348000Y584940D01*
X349827Y585180D01*
X351530Y585886D01*
X352993Y587007D01*
X354114Y588470D01*
X354820Y590173D01*
X355060Y592000D01*
X354820Y593827D01*
X354114Y595530D01*
X352993Y596992D01*
X351530Y598115D01*
X349827Y598820D01*
X348000Y599060D01*
D02*
G37*
G36*
X260000Y537323D02*
X256620Y536991D01*
X253371Y536005D01*
X250376Y534404D01*
X247750Y532249D01*
X245596Y529624D01*
X243995Y526629D01*
X243009Y523380D01*
X242677Y520000D01*
X243009Y516620D01*
X243995Y513371D01*
X245596Y510376D01*
X247750Y507751D01*
X250376Y505596D01*
X253371Y503995D01*
X256620Y503009D01*
X260000Y502677D01*
X263380Y503009D01*
X266629Y503995D01*
X269624Y505596D01*
X272250Y507751D01*
X274404Y510376D01*
X276005Y513371D01*
X276991Y516620D01*
X277323Y520000D01*
X276991Y523380D01*
X276005Y526629D01*
X274404Y529624D01*
X272250Y532249D01*
X269624Y534404D01*
X266629Y536005D01*
X263380Y536991D01*
X260000Y537323D01*
D02*
G37*
G36*
X330000Y514588D02*
X328244Y514239D01*
X326756Y513244D01*
X325761Y511756D01*
X325412Y510000D01*
X325761Y508244D01*
X326686Y506860D01*
Y505500D01*
X323500D01*
Y492500D01*
X336500D01*
Y505500D01*
X333314D01*
Y506860D01*
X334239Y508244D01*
X334588Y510000D01*
X334239Y511756D01*
X333244Y513244D01*
X331756Y514239D01*
X330000Y514588D01*
D02*
G37*
G36*
X242570Y446460D02*
X236800D01*
Y443926D01*
X235530Y443537D01*
X233912Y444619D01*
X231750Y445048D01*
X228770D01*
Y439400D01*
Y433751D01*
X231750D01*
X233912Y434182D01*
X235530Y435263D01*
X236800Y434874D01*
Y432380D01*
X242570D01*
Y439420D01*
Y446460D01*
D02*
G37*
G36*
X250880D02*
X245110D01*
Y440690D01*
X250880D01*
Y446460D01*
D02*
G37*
G36*
X226230Y445048D02*
X223250D01*
X221088Y444619D01*
X219256Y443394D01*
X218031Y441562D01*
X217854Y440670D01*
X226230D01*
Y445048D01*
D02*
G37*
G36*
X269340Y445920D02*
X256340D01*
Y432920D01*
X269340D01*
Y436106D01*
X270728D01*
X271244Y435761D01*
X273000Y435412D01*
X274756Y435761D01*
X276244Y436756D01*
X277239Y438244D01*
X277588Y440000D01*
X277239Y441756D01*
X276244Y443244D01*
X274756Y444239D01*
X273000Y444588D01*
X271244Y444239D01*
X270610Y443815D01*
X269340Y444494D01*
Y445920D01*
D02*
G37*
G36*
X226230Y438130D02*
X217854D01*
X218031Y437238D01*
X219256Y435406D01*
X221088Y434182D01*
X223250Y433751D01*
X226230D01*
Y438130D01*
D02*
G37*
G36*
X250880Y438150D02*
X245110D01*
Y432380D01*
X250880D01*
Y438150D01*
D02*
G37*
G36*
X231750Y431798D02*
X223250D01*
X221299Y431410D01*
X219645Y430305D01*
X218540Y428651D01*
X218152Y426700D01*
X218540Y424749D01*
X219645Y423095D01*
X221299Y421990D01*
X223250Y421602D01*
X231750D01*
X233701Y421990D01*
X235355Y423095D01*
X236460Y424749D01*
X236848Y426700D01*
X236460Y428651D01*
X235355Y430305D01*
X233701Y431410D01*
X231750Y431798D01*
D02*
G37*
G36*
X248000Y428588D02*
X246244Y428239D01*
X244756Y427244D01*
X243761Y425756D01*
X243436Y424122D01*
X236726Y417412D01*
X235431Y417491D01*
X235355Y417605D01*
X233701Y418710D01*
X231750Y419098D01*
X223250D01*
X221299Y418710D01*
X219645Y417605D01*
X218540Y415951D01*
X218152Y414000D01*
X218540Y412049D01*
X219645Y410395D01*
X221299Y409290D01*
X223250Y408902D01*
X224186D01*
Y406398D01*
X223250D01*
X221299Y406010D01*
X219645Y404905D01*
X218540Y403251D01*
X218152Y401300D01*
X218540Y399349D01*
X219645Y397695D01*
X221299Y396590D01*
X223250Y396202D01*
X231750D01*
X233701Y396590D01*
X235355Y397695D01*
X236460Y399349D01*
X236848Y401300D01*
X236460Y403251D01*
X235355Y404905D01*
X233701Y406010D01*
X231750Y406398D01*
X230814D01*
Y408902D01*
X231750D01*
X233701Y409290D01*
X235355Y410395D01*
X235549Y410686D01*
X238000D01*
X239268Y410939D01*
X240343Y411657D01*
X248122Y419436D01*
X249756Y419761D01*
X251244Y420756D01*
X252239Y422244D01*
X252588Y424000D01*
X252239Y425756D01*
X251244Y427244D01*
X249756Y428239D01*
X248000Y428588D01*
D02*
G37*
G36*
X298541Y409560D02*
X292771D01*
Y403790D01*
X298541D01*
Y409560D01*
D02*
G37*
G36*
X290231D02*
X284461D01*
Y403790D01*
X290231D01*
Y409560D01*
D02*
G37*
G36*
X273000Y419588D02*
X271244Y419239D01*
X269756Y418244D01*
X268761Y416756D01*
X268412Y415000D01*
X268761Y413244D01*
X269187Y412607D01*
Y409020D01*
X266001D01*
Y396020D01*
X279000D01*
Y409020D01*
X275814D01*
Y411468D01*
X276244Y411756D01*
X277239Y413244D01*
X277588Y415000D01*
X277239Y416756D01*
X276244Y418244D01*
X274756Y419239D01*
X273000Y419588D01*
D02*
G37*
G36*
X298541Y401250D02*
X292771D01*
Y395480D01*
X298541D01*
Y401250D01*
D02*
G37*
G36*
X290231D02*
X284461D01*
Y395480D01*
X290231D01*
Y401250D01*
D02*
G37*
G36*
X301231Y391040D02*
X298461D01*
Y383770D01*
X301231D01*
Y391040D01*
D02*
G37*
G36*
X114300Y341138D02*
X112544Y340789D01*
X111056Y339794D01*
X110735Y339314D01*
X86140D01*
X84756Y340239D01*
X83000Y340588D01*
X81244Y340239D01*
X79756Y339244D01*
X78761Y337756D01*
X78412Y336000D01*
X78761Y334244D01*
X79756Y332756D01*
X81244Y331761D01*
X83000Y331412D01*
X84756Y331761D01*
X86140Y332686D01*
X111983D01*
X112544Y332311D01*
X114300Y331962D01*
X116056Y332311D01*
X117544Y333306D01*
X118539Y334794D01*
X118888Y336550D01*
X118539Y338306D01*
X117544Y339794D01*
X116056Y340789D01*
X114300Y341138D01*
D02*
G37*
G36*
X119500Y506095D02*
X116628Y505717D01*
X113953Y504608D01*
X111655Y502845D01*
X109892Y500547D01*
X108783Y497872D01*
X108405Y495000D01*
X108783Y492128D01*
X109892Y489453D01*
X111655Y487155D01*
X113953Y485392D01*
X116628Y484283D01*
X119500Y483905D01*
X122372Y484283D01*
X125048Y485392D01*
X127345Y487155D01*
X129108Y489453D01*
X130158Y491986D01*
X161959D01*
X163344Y491061D01*
X165100Y490712D01*
X166856Y491061D01*
X168344Y492056D01*
X169339Y493544D01*
X169688Y495300D01*
X169339Y497056D01*
X168344Y498544D01*
X166856Y499539D01*
X165100Y499888D01*
X163344Y499539D01*
X161959Y498614D01*
X129909D01*
X129108Y500547D01*
X127345Y502845D01*
X125048Y504608D01*
X122372Y505717D01*
X119500Y506095D01*
D02*
G37*
G36*
X89500D02*
X86629Y505717D01*
X83953Y504608D01*
X81655Y502845D01*
X79892Y500547D01*
X78783Y497872D01*
X78405Y495000D01*
X78783Y492128D01*
X79892Y489453D01*
X81655Y487155D01*
X83953Y485392D01*
X86629Y484283D01*
X89500Y483905D01*
X92372Y484283D01*
X95048Y485392D01*
X97345Y487155D01*
X99108Y489453D01*
X100217Y492128D01*
X100595Y495000D01*
X100217Y497872D01*
X99108Y500547D01*
X97345Y502845D01*
X95048Y504608D01*
X92372Y505717D01*
X89500Y506095D01*
D02*
G37*
G36*
X163250Y471860D02*
X157480D01*
Y466090D01*
X163250D01*
Y471860D01*
D02*
G37*
G36*
Y463550D02*
X157480D01*
Y457780D01*
X163250D01*
Y463550D01*
D02*
G37*
G36*
X154940D02*
X149170D01*
Y457780D01*
X154940D01*
Y463550D01*
D02*
G37*
G36*
X89500Y476095D02*
X86629Y475717D01*
X83953Y474608D01*
X81655Y472845D01*
X79892Y470547D01*
X78783Y467872D01*
X78405Y465000D01*
X78783Y462128D01*
X79892Y459453D01*
X81655Y457155D01*
X83953Y455392D01*
X86629Y454283D01*
X89500Y453905D01*
X92372Y454283D01*
X95048Y455392D01*
X97345Y457155D01*
X99108Y459453D01*
X100217Y462128D01*
X100595Y465000D01*
X100217Y467872D01*
X99108Y470547D01*
X97345Y472845D01*
X95048Y474608D01*
X92372Y475717D01*
X89500Y476095D01*
D02*
G37*
G36*
X154940Y446460D02*
X149170D01*
Y440690D01*
X154940D01*
Y446460D01*
D02*
G37*
G36*
X177250Y445048D02*
X174270D01*
Y440670D01*
X182646D01*
X182469Y441562D01*
X181244Y443394D01*
X179412Y444619D01*
X177250Y445048D01*
D02*
G37*
G36*
X182646Y438130D02*
X174270D01*
Y433751D01*
X177250D01*
X179412Y434182D01*
X181244Y435406D01*
X182469Y437238D01*
X182646Y438130D01*
D02*
G37*
G36*
X163250Y446460D02*
X157480D01*
Y439420D01*
Y432380D01*
X163250D01*
Y435374D01*
X164520Y435759D01*
X164756Y435406D01*
X166588Y434182D01*
X168750Y433751D01*
X171730D01*
Y439400D01*
Y445048D01*
X168750D01*
X166588Y444619D01*
X164756Y443394D01*
X164520Y443041D01*
X163250Y443426D01*
Y446460D01*
D02*
G37*
G36*
X154940Y438150D02*
X149170D01*
Y432380D01*
X154940D01*
Y438150D01*
D02*
G37*
G36*
X35000Y333588D02*
X33244Y333239D01*
X31860Y332314D01*
X23000D01*
X21732Y332061D01*
X20657Y331343D01*
X13942Y324629D01*
X13224Y323554D01*
X12972Y322285D01*
Y322000D01*
X10150D01*
Y313000D01*
X22150D01*
Y322000D01*
X22150D01*
X21721Y323035D01*
X24373Y325686D01*
X31860D01*
X33244Y324761D01*
X35000Y324412D01*
X36756Y324761D01*
X38244Y325756D01*
X39239Y327244D01*
X39588Y329000D01*
X39239Y330756D01*
X38244Y332244D01*
X36756Y333239D01*
X35000Y333588D01*
D02*
G37*
G36*
X36880Y322540D02*
X31610D01*
Y318770D01*
X36880D01*
Y322540D01*
D02*
G37*
G36*
X57890Y324540D02*
X52120D01*
Y318770D01*
X57890D01*
Y324540D01*
D02*
G37*
G36*
X36880Y316230D02*
X31610D01*
Y312460D01*
X36880D01*
Y316230D01*
D02*
G37*
G36*
X57890Y316230D02*
X52120D01*
Y310460D01*
X57890D01*
Y316230D01*
D02*
G37*
G36*
X49580Y324540D02*
X43810D01*
Y322540D01*
X39420D01*
Y317500D01*
Y312460D01*
X43810D01*
Y310460D01*
X49580D01*
Y317500D01*
Y324540D01*
D02*
G37*
G36*
X162000Y75708D02*
X160244Y75359D01*
X158756Y74364D01*
X157761Y72876D01*
X157412Y71120D01*
X157761Y69364D01*
X158756Y67876D01*
X160244Y66881D01*
X162000Y66532D01*
X163756Y66881D01*
X165140Y67806D01*
X181722D01*
X181756Y67756D01*
X183244Y66761D01*
X185000Y66412D01*
X186756Y66761D01*
X188244Y67756D01*
X189239Y69244D01*
X189588Y71000D01*
X189239Y72756D01*
X188244Y74244D01*
X186756Y75239D01*
X185000Y75588D01*
X183244Y75239D01*
X182039Y74434D01*
X165140D01*
X163756Y75359D01*
X162000Y75708D01*
D02*
G37*
G36*
X423040Y66040D02*
X417270D01*
Y60270D01*
X423040D01*
Y66040D01*
D02*
G37*
G36*
X414730D02*
X408960D01*
Y60270D01*
X414730D01*
Y66040D01*
D02*
G37*
G36*
X327001Y74995D02*
X324129Y74616D01*
X321453Y73508D01*
X319156Y71745D01*
X317392Y69447D01*
X316284Y66771D01*
X315906Y63900D01*
X316284Y61028D01*
X317392Y58352D01*
X319156Y56054D01*
X321453Y54291D01*
X324129Y53183D01*
X327001Y52805D01*
X329872Y53183D01*
X332548Y54291D01*
X334846Y56054D01*
X336609Y58352D01*
X337718Y61028D01*
X338096Y63900D01*
X337718Y66771D01*
X336609Y69447D01*
X334846Y71745D01*
X332548Y73508D01*
X329872Y74616D01*
X327001Y74995D01*
D02*
G37*
G36*
X423040Y57730D02*
X417270D01*
Y51960D01*
X423040D01*
Y57730D01*
D02*
G37*
G36*
X414730D02*
X408960D01*
Y51960D01*
X414730D01*
Y57730D01*
D02*
G37*
G36*
X35000Y66060D02*
X33173Y65820D01*
X31470Y65114D01*
X30008Y63992D01*
X28886Y62530D01*
X28180Y60827D01*
X27940Y59000D01*
X28180Y57173D01*
X28886Y55470D01*
X30008Y54008D01*
X31470Y52885D01*
X33173Y52180D01*
X35000Y51940D01*
X36827Y52180D01*
X38530Y52885D01*
X39992Y54008D01*
X41115Y55470D01*
X41820Y57173D01*
X42060Y59000D01*
X41820Y60827D01*
X41115Y62530D01*
X39992Y63992D01*
X38530Y65114D01*
X36827Y65820D01*
X35000Y66060D01*
D02*
G37*
G36*
X338001Y49500D02*
X316001D01*
Y27500D01*
X338001D01*
Y49500D01*
D02*
G37*
G36*
X429000Y43000D02*
X405000D01*
Y9000D01*
X429000D01*
Y21861D01*
X430270Y22412D01*
X431244Y21761D01*
X433000Y21412D01*
X434756Y21761D01*
X436244Y22756D01*
X437239Y24244D01*
X437588Y26000D01*
X437239Y27756D01*
X436244Y29244D01*
X434756Y30239D01*
X433000Y30588D01*
X431244Y30239D01*
X430270Y29588D01*
X429000Y30139D01*
Y43000D01*
D02*
G37*
G36*
X189367Y31472D02*
Y21269D01*
X199569D01*
X199340Y23012D01*
X198177Y25819D01*
X196327Y28230D01*
X193917Y30079D01*
X191110Y31242D01*
X189367Y31472D01*
D02*
G37*
G36*
X186827D02*
X185084Y31242D01*
X182277Y30079D01*
X179867Y28230D01*
X178017Y25819D01*
X176854Y23012D01*
X176625Y21269D01*
X186827D01*
Y31472D01*
D02*
G37*
G36*
X249897Y30999D02*
X227897D01*
Y8999D01*
X249897D01*
Y30999D01*
D02*
G37*
G36*
X137295Y31096D02*
X134424Y30718D01*
X131748Y29609D01*
X129450Y27846D01*
X127687Y25548D01*
X126579Y22872D01*
X126201Y20001D01*
X126579Y17129D01*
X127687Y14453D01*
X129450Y12156D01*
X131748Y10392D01*
X134424Y9284D01*
X137295Y8906D01*
X140167Y9284D01*
X142843Y10392D01*
X145141Y12156D01*
X146904Y14453D01*
X148012Y17129D01*
X148390Y20001D01*
X148012Y22872D01*
X146904Y25548D01*
X145141Y27846D01*
X142843Y29609D01*
X140167Y30718D01*
X137295Y31096D01*
D02*
G37*
G36*
X111896Y31095D02*
X109025Y30717D01*
X106349Y29609D01*
X104051Y27845D01*
X102288Y25547D01*
X101179Y22872D01*
X100801Y20000D01*
X101179Y17128D01*
X102288Y14453D01*
X104051Y12155D01*
X106349Y10391D01*
X109025Y9283D01*
X111896Y8905D01*
X114768Y9283D01*
X117444Y10391D01*
X119741Y12155D01*
X121505Y14453D01*
X122613Y17128D01*
X122991Y20000D01*
X122613Y22872D01*
X121505Y25547D01*
X119741Y27845D01*
X117444Y29609D01*
X114768Y30717D01*
X111896Y31095D01*
D02*
G37*
G36*
X61097D02*
X58225Y30717D01*
X55549Y29609D01*
X53251Y27845D01*
X51488Y25547D01*
X50380Y22872D01*
X50002Y20000D01*
X50380Y17128D01*
X51488Y14453D01*
X53251Y12155D01*
X55549Y10391D01*
X58225Y9283D01*
X61097Y8905D01*
X63968Y9283D01*
X66644Y10391D01*
X68942Y12155D01*
X70705Y14453D01*
X71814Y17128D01*
X72192Y20000D01*
X71814Y22872D01*
X70705Y25547D01*
X68942Y27845D01*
X66644Y29609D01*
X63968Y30717D01*
X61097Y31095D01*
D02*
G37*
G36*
X213497Y31094D02*
X210625Y30716D01*
X207950Y29608D01*
X205652Y27845D01*
X203889Y25547D01*
X202780Y22871D01*
X202402Y19999D01*
X202780Y17128D01*
X203889Y14452D01*
X205652Y12154D01*
X207950Y10391D01*
X210625Y9282D01*
X213497Y8904D01*
X216369Y9282D01*
X219044Y10391D01*
X221342Y12154D01*
X223106Y14452D01*
X224214Y17128D01*
X224592Y19999D01*
X224214Y22871D01*
X223106Y25547D01*
X221342Y27845D01*
X219044Y29608D01*
X216369Y30716D01*
X213497Y31094D01*
D02*
G37*
G36*
X162697D02*
X159825Y30716D01*
X157150Y29608D01*
X154852Y27845D01*
X153089Y25547D01*
X151980Y22871D01*
X151602Y19999D01*
X151980Y17128D01*
X153089Y14452D01*
X154852Y12154D01*
X157150Y10391D01*
X159825Y9282D01*
X162697Y8904D01*
X165569Y9282D01*
X168244Y10391D01*
X170542Y12154D01*
X172306Y14452D01*
X173414Y17128D01*
X173792Y19999D01*
X173414Y22871D01*
X172306Y25547D01*
X170542Y27845D01*
X168244Y29608D01*
X165569Y30716D01*
X162697Y31094D01*
D02*
G37*
G36*
X199569Y18729D02*
X189367D01*
Y8527D01*
X191110Y8756D01*
X193917Y9919D01*
X196327Y11769D01*
X198177Y14179D01*
X199340Y16987D01*
X199569Y18729D01*
D02*
G37*
G36*
X186827D02*
X176625D01*
X176854Y16987D01*
X178017Y14179D01*
X179867Y11769D01*
X182277Y9919D01*
X185084Y8756D01*
X186827Y8527D01*
Y18729D01*
D02*
G37*
G36*
X101040Y386540D02*
X90770D01*
Y376270D01*
X101040D01*
Y386540D01*
D02*
G37*
G36*
X88230D02*
X77960D01*
Y376270D01*
X88230D01*
Y386540D01*
D02*
G37*
G36*
X101040Y373730D02*
X90770D01*
Y363460D01*
X101040D01*
Y373730D01*
D02*
G37*
G36*
X88230D02*
X77960D01*
Y363460D01*
X88230D01*
Y373730D01*
D02*
G37*
G36*
X424541Y294560D02*
X418771D01*
Y288790D01*
X424541D01*
Y294560D01*
D02*
G37*
G36*
X416231D02*
X410461D01*
Y288790D01*
X416231D01*
Y294560D01*
D02*
G37*
G36*
X406040Y286230D02*
X398771D01*
Y283460D01*
X406040D01*
Y286230D01*
D02*
G37*
G36*
X396231D02*
X388961D01*
Y283460D01*
X396231D01*
Y286230D01*
D02*
G37*
G36*
X281231Y286230D02*
X273961D01*
Y283460D01*
X281231D01*
Y286230D01*
D02*
G37*
G36*
X424541Y286250D02*
X418771D01*
Y280480D01*
X424541D01*
Y286250D01*
D02*
G37*
G36*
X416231D02*
X410461D01*
Y280480D01*
X416231D01*
Y286250D01*
D02*
G37*
G36*
X271541D02*
X265770D01*
Y280480D01*
X271541D01*
Y286250D01*
D02*
G37*
G36*
X263230D02*
X257461D01*
Y280480D01*
X263230D01*
Y286250D01*
D02*
G37*
G36*
X271001Y275020D02*
X258001D01*
Y272917D01*
X256961Y272199D01*
X256731Y272244D01*
X255000Y272588D01*
X253244Y272239D01*
X251756Y271244D01*
X250761Y269756D01*
X250412Y268000D01*
X250761Y266244D01*
X251756Y264756D01*
X253244Y263761D01*
X255000Y263412D01*
X256731Y263756D01*
X256961Y263801D01*
X258001Y263083D01*
Y262020D01*
X271001D01*
Y275020D01*
D02*
G37*
G36*
X381540Y276040D02*
X378770D01*
Y268770D01*
X381540D01*
Y276040D01*
D02*
G37*
G36*
Y266230D02*
X378770D01*
Y258960D01*
X381540D01*
Y266230D01*
D02*
G37*
G36*
X384540Y255560D02*
X378770D01*
Y249790D01*
X384540D01*
Y255560D01*
D02*
G37*
G36*
X396000Y262588D02*
X394244Y262239D01*
X392756Y261244D01*
X391761Y259756D01*
X391412Y258000D01*
X391752Y256290D01*
X391779Y256064D01*
X391098Y255020D01*
X390001D01*
Y242020D01*
X403000D01*
Y255020D01*
X400902D01*
X400221Y256064D01*
X400248Y256290D01*
X400588Y258000D01*
X400239Y259756D01*
X399244Y261244D01*
X397756Y262239D01*
X396000Y262588D01*
D02*
G37*
G36*
X147541Y247560D02*
X141770D01*
Y241790D01*
X147541D01*
Y247560D01*
D02*
G37*
G36*
X384540Y247250D02*
X378770D01*
Y241480D01*
X384540D01*
Y247250D01*
D02*
G37*
G36*
X424001Y259062D02*
X411001D01*
Y246063D01*
X414187D01*
Y244393D01*
X413761Y243756D01*
X413412Y242000D01*
X413761Y240244D01*
X414756Y238756D01*
X416244Y237761D01*
X418000Y237412D01*
X419756Y237761D01*
X421244Y238756D01*
X422239Y240244D01*
X422588Y242000D01*
X422239Y243756D01*
X421546Y244792D01*
X422132Y246063D01*
X424001D01*
Y259062D01*
D02*
G37*
G36*
X147541Y239250D02*
X141770D01*
Y233480D01*
X147541D01*
Y239250D01*
D02*
G37*
G36*
X424001Y275020D02*
X411001D01*
Y262020D01*
X424001D01*
Y263774D01*
X425271Y264412D01*
X426244Y263761D01*
X428000Y263412D01*
X429756Y263761D01*
X431244Y264756D01*
X431352Y264916D01*
X431918Y264929D01*
X432769Y264752D01*
X433566Y263559D01*
Y259062D01*
X430001D01*
Y246063D01*
X433187D01*
Y241500D01*
X430000D01*
Y228500D01*
X443000D01*
Y241500D01*
X439814D01*
Y246063D01*
X443001D01*
Y259062D01*
X440194D01*
Y263559D01*
X441119Y264944D01*
X441468Y266700D01*
X441119Y268456D01*
X440124Y269944D01*
X438636Y270939D01*
X436880Y271288D01*
X435124Y270939D01*
X433636Y269944D01*
X433528Y269784D01*
X432962Y269771D01*
X432111Y269948D01*
X431244Y271244D01*
X429756Y272239D01*
X428000Y272588D01*
X426244Y272239D01*
X425638Y271834D01*
X424001D01*
Y275020D01*
D02*
G37*
G36*
X145230Y229810D02*
X141461D01*
Y220290D01*
X145230D01*
Y229810D01*
D02*
G37*
G36*
X289000Y237020D02*
X276001D01*
Y224020D01*
X279187D01*
Y222393D01*
X278761Y221756D01*
X278412Y220000D01*
X278761Y218244D01*
X279756Y216756D01*
X281244Y215761D01*
X283000Y215412D01*
X284756Y215761D01*
X286244Y216756D01*
X287239Y218244D01*
X287588Y220000D01*
X287239Y221756D01*
X286575Y222750D01*
X287195Y224020D01*
X289000D01*
Y237020D01*
D02*
G37*
G36*
X314690Y222090D02*
X310770D01*
Y214270D01*
X314690D01*
Y222090D01*
D02*
G37*
G36*
X308230D02*
X304310D01*
Y214270D01*
X308230D01*
Y222090D01*
D02*
G37*
G36*
X266700Y258588D02*
X264944Y258239D01*
X263456Y257244D01*
X262461Y255756D01*
X262112Y254000D01*
X262461Y252244D01*
X263386Y250860D01*
Y244484D01*
X238878Y219976D01*
X237244Y219651D01*
X235756Y218656D01*
X234761Y217168D01*
X234412Y215412D01*
X234761Y213656D01*
X235756Y212167D01*
X237244Y211173D01*
X239000Y210824D01*
X240756Y211173D01*
X242244Y212167D01*
X243239Y213656D01*
X243564Y215289D01*
X269043Y240769D01*
X269761Y241844D01*
X270014Y243112D01*
Y250860D01*
X270939Y252244D01*
X271288Y254000D01*
X270939Y255756D01*
X269944Y257244D01*
X268456Y258239D01*
X266700Y258588D01*
D02*
G37*
G36*
X151730Y229810D02*
X147770D01*
Y219020D01*
Y208230D01*
X151730D01*
Y219020D01*
Y229810D01*
D02*
G37*
G36*
X145230Y217750D02*
X141461D01*
Y208230D01*
X145230D01*
Y217750D01*
D02*
G37*
G36*
X314690Y211730D02*
X310770D01*
Y203910D01*
X314690D01*
Y211730D01*
D02*
G37*
G36*
X308230D02*
X304310D01*
Y203910D01*
X308230D01*
Y211730D01*
D02*
G37*
G36*
X455300Y203840D02*
Y198070D01*
X461070D01*
Y203840D01*
X455300D01*
D02*
G37*
G36*
X437520D02*
X431750D01*
Y198070D01*
X437520D01*
Y203840D01*
D02*
G37*
G36*
X308730Y200040D02*
X302960D01*
Y194270D01*
X308730D01*
Y200040D01*
D02*
G37*
G36*
X461070Y195530D02*
X455300D01*
Y189760D01*
X461070D01*
Y195530D01*
D02*
G37*
G36*
X291000Y209588D02*
X289244Y209239D01*
X287756Y208244D01*
X286761Y206756D01*
X286412Y205000D01*
X286761Y203244D01*
X287686Y201859D01*
Y199500D01*
X284500D01*
Y186500D01*
X297500D01*
Y199500D01*
X294314D01*
Y201859D01*
X295239Y203244D01*
X295588Y205000D01*
X295239Y206756D01*
X294244Y208244D01*
X292756Y209239D01*
X291000Y209588D01*
D02*
G37*
G36*
X335040Y191730D02*
X329270D01*
Y185960D01*
X335040D01*
Y191730D01*
D02*
G37*
G36*
X326730D02*
X320960D01*
Y185960D01*
X326730D01*
Y191730D01*
D02*
G37*
G36*
X317040Y191730D02*
X311270D01*
Y185960D01*
X317040D01*
Y191730D01*
D02*
G37*
G36*
X308730D02*
X302960D01*
Y185960D01*
X308730D01*
Y191730D01*
D02*
G37*
G36*
X89501Y196095D02*
X86629Y195717D01*
X83953Y194608D01*
X81655Y192845D01*
X79892Y190547D01*
X78784Y187872D01*
X78406Y185000D01*
X78784Y182128D01*
X79892Y179453D01*
X81655Y177155D01*
X83953Y175392D01*
X86629Y174283D01*
X89501Y173905D01*
X92372Y174283D01*
X95048Y175392D01*
X97346Y177155D01*
X99109Y179453D01*
X100217Y182128D01*
X100596Y185000D01*
X100217Y187872D01*
X99109Y190547D01*
X97346Y192845D01*
X95048Y194608D01*
X92372Y195717D01*
X89501Y196095D01*
D02*
G37*
G36*
X399420Y172140D02*
X393650D01*
Y166370D01*
X399420D01*
Y172140D01*
D02*
G37*
G36*
X427480Y163650D02*
X424710D01*
Y159780D01*
X427480D01*
Y163650D01*
D02*
G37*
G36*
X422970Y163830D02*
X417200D01*
Y158060D01*
X422970D01*
Y163830D01*
D02*
G37*
G36*
X399420D02*
X393650D01*
Y158060D01*
X399420D01*
Y163830D01*
D02*
G37*
G36*
X327000Y176595D02*
X324128Y176217D01*
X321452Y175109D01*
X319155Y173346D01*
X317391Y171048D01*
X316283Y168372D01*
X315905Y165500D01*
X316283Y162629D01*
X317391Y159953D01*
X319155Y157655D01*
X321452Y155892D01*
X324128Y154784D01*
X327000Y154405D01*
X329871Y154784D01*
X332547Y155892D01*
X334845Y157655D01*
X336608Y159953D01*
X337717Y162629D01*
X338095Y165500D01*
X337717Y168372D01*
X336608Y171048D01*
X334845Y173346D01*
X332547Y175109D01*
X329871Y176217D01*
X327000Y176595D01*
D02*
G37*
G36*
X422430Y152600D02*
X409430D01*
Y149414D01*
X407190D01*
Y152600D01*
X394190D01*
Y139600D01*
X397376D01*
Y136987D01*
X397592Y135904D01*
X397412Y135000D01*
X397761Y133244D01*
X398756Y131756D01*
X400244Y130761D01*
X402000Y130412D01*
X403756Y130761D01*
X405244Y131756D01*
X406239Y133244D01*
X406588Y135000D01*
X406239Y136756D01*
X405244Y138244D01*
X405116Y138330D01*
X405501Y139600D01*
X407190D01*
Y142786D01*
X409430D01*
Y139600D01*
X422430D01*
Y152600D01*
D02*
G37*
G36*
X119501Y166095D02*
X116629Y165717D01*
X113953Y164608D01*
X111655Y162845D01*
X109892Y160548D01*
X108784Y157872D01*
X108406Y155000D01*
X108784Y152128D01*
X109892Y149453D01*
X111655Y147155D01*
X113953Y145392D01*
X116629Y144283D01*
X119501Y143905D01*
X122372Y144283D01*
X125048Y145392D01*
X127346Y147155D01*
X129109Y149453D01*
X130217Y152128D01*
X130596Y155000D01*
X130217Y157872D01*
X129109Y160548D01*
X127346Y162845D01*
X125048Y164608D01*
X122372Y165717D01*
X119501Y166095D01*
D02*
G37*
G36*
X89501D02*
X86629Y165717D01*
X83953Y164608D01*
X81655Y162845D01*
X79892Y160548D01*
X78784Y157872D01*
X78406Y155000D01*
X78784Y152128D01*
X79892Y149453D01*
X81655Y147155D01*
X83953Y145392D01*
X86629Y144283D01*
X89501Y143905D01*
X92372Y144283D01*
X95048Y145392D01*
X97346Y147155D01*
X99109Y149453D01*
X100217Y152128D01*
X100596Y155000D01*
X100217Y157872D01*
X99109Y160548D01*
X97346Y162845D01*
X95048Y164608D01*
X92372Y165717D01*
X89501Y166095D01*
D02*
G37*
G36*
X427480Y147560D02*
X424710D01*
Y143690D01*
X427480D01*
Y147560D01*
D02*
G37*
G36*
X328269Y151574D02*
Y141371D01*
X338471D01*
X338242Y143114D01*
X337079Y145921D01*
X335230Y148332D01*
X332819Y150181D01*
X330012Y151344D01*
X328269Y151574D01*
D02*
G37*
G36*
X325729D02*
X323987Y151344D01*
X321179Y150181D01*
X318769Y148332D01*
X316919Y145921D01*
X315756Y143114D01*
X315527Y141371D01*
X325729D01*
Y151574D01*
D02*
G37*
G36*
X437790Y147560D02*
X435020D01*
Y142420D01*
Y137280D01*
X437790D01*
Y137820D01*
X447250D01*
Y139106D01*
X448521D01*
X448756Y138756D01*
X450244Y137761D01*
X452000Y137412D01*
X453756Y137761D01*
X455244Y138756D01*
X456239Y140244D01*
X456588Y142000D01*
X456239Y143756D01*
X455244Y145244D01*
X453756Y146239D01*
X452000Y146588D01*
X450244Y146239D01*
X449488Y145734D01*
X447250D01*
Y147020D01*
X437790D01*
Y147560D01*
D02*
G37*
G36*
X432480D02*
X430020D01*
Y142420D01*
Y137280D01*
X432480D01*
Y142420D01*
Y147560D01*
D02*
G37*
G36*
X427480Y141150D02*
X424710D01*
Y137280D01*
X427480D01*
Y141150D01*
D02*
G37*
G36*
X260000Y167323D02*
X256620Y166991D01*
X253371Y166005D01*
X250376Y164404D01*
X247750Y162250D01*
X245596Y159624D01*
X243995Y156629D01*
X243009Y153380D01*
X242677Y150000D01*
X243009Y146620D01*
X243995Y143371D01*
X245596Y140376D01*
X247750Y137751D01*
X250376Y135596D01*
X253371Y133995D01*
X256620Y133010D01*
X260000Y132677D01*
X263380Y133010D01*
X266629Y133995D01*
X269624Y135596D01*
X272250Y137751D01*
X274404Y140376D01*
X276005Y143371D01*
X276991Y146620D01*
X277323Y150000D01*
X276991Y153380D01*
X276005Y156629D01*
X274404Y159624D01*
X272250Y162250D01*
X269624Y164404D01*
X266629Y166005D01*
X263380Y166991D01*
X260000Y167323D01*
D02*
G37*
G36*
X338471Y138831D02*
X328269D01*
Y128629D01*
X330012Y128858D01*
X332819Y130021D01*
X335230Y131871D01*
X337079Y134281D01*
X338242Y137089D01*
X338471Y138831D01*
D02*
G37*
G36*
X325729D02*
X315527D01*
X315756Y137089D01*
X316919Y134281D01*
X318769Y131871D01*
X321179Y130021D01*
X323987Y128858D01*
X325729Y128629D01*
Y138831D01*
D02*
G37*
G36*
X456720Y136040D02*
X443720D01*
Y123040D01*
X456720D01*
Y136040D01*
D02*
G37*
G36*
X440210Y135990D02*
X427210D01*
Y122990D01*
X440210D01*
Y135990D01*
D02*
G37*
G36*
X423700D02*
X410700D01*
Y122990D01*
X423700D01*
Y135990D01*
D02*
G37*
G36*
X119501Y136095D02*
X116629Y135717D01*
X113953Y134608D01*
X111655Y132845D01*
X109892Y130547D01*
X108784Y127872D01*
X108406Y125000D01*
X108784Y122128D01*
X109892Y119453D01*
X111655Y117155D01*
X113953Y115392D01*
X116629Y114283D01*
X119501Y113905D01*
X122372Y114283D01*
X125048Y115392D01*
X127346Y117155D01*
X129109Y119453D01*
X130217Y122128D01*
X130596Y125000D01*
X130217Y127872D01*
X129109Y130547D01*
X127346Y132845D01*
X125048Y134608D01*
X122372Y135717D01*
X119501Y136095D01*
D02*
G37*
G36*
X456720Y117040D02*
X443720D01*
Y113804D01*
X440210D01*
Y116990D01*
X427210D01*
Y113804D01*
X423700D01*
Y116990D01*
X410700D01*
Y113804D01*
X409407D01*
X408756Y114239D01*
X407000Y114588D01*
X405244Y114239D01*
X403756Y113244D01*
X402761Y111756D01*
X402412Y110000D01*
X402761Y108244D01*
X403756Y106756D01*
X405244Y105761D01*
X407000Y105412D01*
X408756Y105761D01*
X409430Y106212D01*
X410700Y105533D01*
Y103990D01*
X423700D01*
Y107176D01*
X427210D01*
Y103990D01*
X428513D01*
X429555Y102720D01*
X429412Y102000D01*
X429761Y100244D01*
X430756Y98756D01*
X432244Y97761D01*
X434000Y97412D01*
X435756Y97761D01*
X437244Y98756D01*
X438239Y100244D01*
X438588Y102000D01*
X438445Y102720D01*
X439487Y103990D01*
X440210D01*
Y107176D01*
X443720D01*
Y104040D01*
X456720D01*
Y107280D01*
X457990Y107599D01*
X459244Y106761D01*
X461000Y106412D01*
X462756Y106761D01*
X464244Y107756D01*
X465239Y109244D01*
X465588Y111000D01*
X465239Y112756D01*
X464244Y114244D01*
X462756Y115239D01*
X461000Y115588D01*
X459244Y115239D01*
X457990Y114401D01*
X456720Y114720D01*
Y117040D01*
D02*
G37*
G36*
X192001Y115063D02*
X179000D01*
Y102063D01*
X192001D01*
Y105249D01*
X193514D01*
X194244Y104761D01*
X196000Y104412D01*
X197756Y104761D01*
X199244Y105756D01*
X200239Y107244D01*
X200588Y109000D01*
X200239Y110756D01*
X199244Y112244D01*
X197756Y113239D01*
X196000Y113588D01*
X194244Y113239D01*
X193270Y112588D01*
X192001Y113226D01*
Y115063D01*
D02*
G37*
G36*
X327001Y125794D02*
X324129Y125416D01*
X321453Y124308D01*
X319156Y122545D01*
X317392Y120247D01*
X316284Y117571D01*
X315906Y114700D01*
X316284Y111828D01*
X317392Y109152D01*
X319156Y106854D01*
X321453Y105091D01*
X324129Y103983D01*
X327001Y103605D01*
X329872Y103983D01*
X332548Y105091D01*
X334846Y106854D01*
X336609Y109152D01*
X337718Y111828D01*
X338096Y114700D01*
X337718Y117571D01*
X336609Y120247D01*
X334846Y122545D01*
X332548Y124308D01*
X329872Y125416D01*
X327001Y125794D01*
D02*
G37*
G36*
X100501Y136000D02*
X78501D01*
Y114000D01*
X95814D01*
X111877Y97938D01*
X112202Y96304D01*
X113196Y94816D01*
X114685Y93821D01*
X116441Y93472D01*
X118196Y93821D01*
X119685Y94816D01*
X120680Y96304D01*
X121029Y98060D01*
X120680Y99816D01*
X119685Y101304D01*
X118196Y102299D01*
X116563Y102624D01*
X100501Y118686D01*
Y136000D01*
D02*
G37*
G36*
X444540Y346250D02*
X438770D01*
Y340480D01*
X444540D01*
Y346250D01*
D02*
G37*
G36*
X436231D02*
X430461D01*
Y340480D01*
X436231D01*
Y346250D01*
D02*
G37*
G36*
X425541D02*
X419771D01*
Y340480D01*
X425541D01*
Y346250D01*
D02*
G37*
%LPD*%
D10*
X344800Y471550D02*
Y475850D01*
X356850D01*
X357000Y476000D01*
X330000Y467000D02*
X344550D01*
X344800Y467250D01*
X330000Y480000D02*
X344650D01*
X344800Y480150D01*
D12*
X400690Y165100D02*
X415930D01*
X408200Y177800D02*
X423550D01*
X365000Y221000D02*
Y237000D01*
Y221000D02*
X408200Y177800D01*
X406000Y188000D02*
X435000D01*
X371000Y223000D02*
Y240000D01*
Y223000D02*
X406000Y188000D01*
X86497Y20000D02*
Y89820D01*
X87000Y90323D01*
Y91000D01*
X159501Y240520D02*
Y251823D01*
X159000Y252323D02*
X159501Y251823D01*
X159000Y252323D02*
Y253000D01*
X168000Y102000D02*
Y133000D01*
X163000Y97000D02*
X168000Y102000D01*
X147000Y97000D02*
X163000D01*
X143000Y101000D02*
Y108500D01*
Y101000D02*
X147000Y97000D01*
X151984Y145503D02*
X153000Y146520D01*
X151984Y136484D02*
Y145503D01*
X143000Y127500D02*
X151984Y136484D01*
X212000Y133000D02*
X222000Y143000D01*
X206000Y174000D02*
X222000Y158000D01*
Y143000D02*
Y158000D01*
X172500Y163500D02*
X183000Y174000D01*
X206000D01*
X172500Y146520D02*
Y163500D01*
X202090Y168910D02*
X212000Y159000D01*
X185420Y168910D02*
X202090D01*
X212000Y152000D02*
Y159000D01*
X166000Y135000D02*
Y146520D01*
Y135000D02*
X168000Y133000D01*
X89501Y125000D02*
X116441Y98060D01*
X162000Y71120D02*
X185000D01*
X119501Y296501D02*
X139000Y316000D01*
X119501Y275000D02*
Y296501D01*
X178000Y254200D02*
Y274000D01*
X171450Y247650D02*
X178000Y254200D01*
X239000Y215412D02*
Y215412D01*
X266700Y243112D01*
Y254000D01*
X228600Y228600D02*
X236000Y236000D01*
Y288070D02*
X260430Y312500D01*
X236000Y236000D02*
Y288070D01*
X222250Y233680D02*
X227000Y238430D01*
Y290500D02*
X254000Y317500D01*
X227000Y238430D02*
Y290500D01*
X370000Y437000D02*
X385000Y452000D01*
X349000Y437000D02*
X370000D01*
X342000Y444000D02*
Y450000D01*
Y444000D02*
X349000Y437000D01*
X344800Y452800D02*
Y462950D01*
X342000Y450000D02*
X344800Y452800D01*
X391000Y445000D02*
Y462000D01*
X381450Y471550D02*
X391000Y462000D01*
X369200Y471550D02*
X381450D01*
X368060Y422060D02*
X391000Y445000D01*
X342501Y413621D02*
X350940Y422060D01*
X368060D01*
X397501Y347500D02*
X418481D01*
X418501Y347520D01*
X367501Y382500D02*
Y400520D01*
X227500Y414000D02*
X238000D01*
X248000Y424000D01*
X227500Y401300D02*
Y414000D01*
X210000Y250022D02*
Y265000D01*
X202500Y242522D02*
X210000Y250022D01*
X216000Y206000D02*
Y300890D01*
X215900Y300990D02*
X216000Y300890D01*
X141448Y146941D02*
X141869Y146520D01*
X146501D01*
X157630Y485240D02*
X188326D01*
X137210Y464820D02*
X157630Y485240D01*
X137210Y439420D02*
Y464820D01*
X137000Y405000D02*
X137210Y405210D01*
Y414020D01*
X137067Y388477D02*
X137210Y388620D01*
X137067Y380067D02*
Y388477D01*
X137000Y380000D02*
X137067Y380067D01*
X137000Y355000D02*
X137210Y355210D01*
Y363220D01*
X173000Y344000D02*
Y350500D01*
X262840Y337160D02*
Y350520D01*
X195562Y108562D02*
X196000Y109000D01*
X185501Y108562D02*
X195562D01*
X159500Y116500D02*
X160000Y117000D01*
X159500Y108562D02*
Y116500D01*
X417000Y26000D02*
X433000D01*
X397501Y342500D02*
X397751Y342250D01*
X404771D01*
X418501Y328520D01*
X317000Y461000D02*
Y464000D01*
Y461000D02*
X330000Y448000D01*
X159501Y219020D02*
Y240520D01*
X166480D01*
X172500Y219020D02*
Y234499D01*
X166480Y240520D02*
X172500Y234499D01*
X23000Y329000D02*
X35000D01*
X16286Y322285D02*
X23000Y329000D01*
X16286Y317635D02*
Y322285D01*
X16150Y317500D02*
X16286Y317635D01*
X400690Y136987D02*
Y146100D01*
Y136987D02*
X402000Y135676D01*
Y135000D02*
Y135676D01*
X367501Y267500D02*
Y282501D01*
X372000Y287000D01*
X454030Y177800D02*
X463800D01*
X464000Y178000D01*
X435000Y188000D02*
X439000Y184000D01*
X438790Y177800D02*
X439000Y178010D01*
Y184000D01*
X438790Y196800D02*
X454030D01*
X377500Y233500D02*
X381000Y230000D01*
X377500Y233500D02*
Y248520D01*
X362500Y248500D02*
X371000Y240000D01*
X352500Y249499D02*
X365000Y237000D01*
X377500Y248520D02*
Y267500D01*
X433710Y102290D02*
X434000Y102000D01*
X433710Y102290D02*
Y110490D01*
X408166D02*
X417200D01*
X407677Y110000D02*
X408166Y110490D01*
X407000Y110000D02*
X407677D01*
X450680Y111000D02*
X461000D01*
X450220Y110540D02*
X450680Y111000D01*
X433710Y110490D02*
X450170D01*
X417200D02*
X433710D01*
X450170D02*
X450220Y110540D01*
X443750Y142420D02*
X451580D01*
X452000Y142000D01*
X438750Y142420D02*
X443750D01*
X400690Y146100D02*
X415930D01*
X413200Y196800D02*
X423550D01*
X413000Y197000D02*
X413200Y196800D01*
X469000Y395000D02*
X469501Y394500D01*
Y385020D02*
Y394500D01*
X447480Y328520D02*
X448000Y328000D01*
X437500Y328520D02*
X447480D01*
X427579D02*
X427976Y328123D01*
X418501Y328520D02*
X427579D01*
X470500Y252020D02*
X470533Y251987D01*
Y243467D02*
Y251987D01*
Y243467D02*
X471000Y243000D01*
X357501Y279501D02*
X358000Y280000D01*
X357501Y267500D02*
Y279501D01*
X372501Y259501D02*
Y267500D01*
X369000Y256000D02*
X372501Y259501D01*
X417501Y243176D02*
Y252563D01*
Y243176D02*
X418000Y242677D01*
Y242000D02*
Y242677D01*
X427480Y268520D02*
X428000Y268000D01*
X417501Y268520D02*
X427480D01*
X396000Y249021D02*
Y258000D01*
Y249021D02*
X396501Y248520D01*
X334500Y203500D02*
Y213000D01*
Y203500D02*
X338000Y200000D01*
X322000Y203000D02*
Y213000D01*
X319000Y200000D02*
X322000Y203000D01*
Y213000D02*
X334500D01*
X291000Y205000D02*
X291000Y205000D01*
X291000Y193000D02*
Y205000D01*
X282501Y220499D02*
X283000Y220000D01*
X282501Y220499D02*
Y230520D01*
X255000Y268000D02*
X263981D01*
X264501Y268520D01*
X262840Y375920D02*
X294920D01*
X295000Y376000D01*
X262840Y439420D02*
X271744D01*
X272323Y440000D01*
X273000D01*
X272500Y402520D02*
Y413824D01*
X273000Y414324D01*
Y415000D01*
X295000Y420000D02*
X295520Y420520D01*
X307501D01*
X351450Y484450D02*
X352000Y485000D01*
X344800Y484450D02*
X351450D01*
X363000Y501000D02*
X363450Y500550D01*
Y492700D02*
Y500550D01*
X354850Y500850D02*
X355000Y501000D01*
X354850Y492700D02*
Y500850D01*
X344150Y493050D02*
X344800D01*
X344000Y493200D02*
X344150Y493050D01*
X344000Y493200D02*
Y501000D01*
X344800Y493050D02*
X344950Y492900D01*
X350400D01*
X350550Y492750D01*
Y492700D02*
Y492750D01*
X344800Y488750D02*
Y493050D01*
Y484450D02*
Y488750D01*
X359150Y492700D02*
X363450D01*
X354850D02*
X359150D01*
X350550D02*
X354850D01*
X330000Y499000D02*
Y510000D01*
X385981Y400000D02*
X386501Y400520D01*
X381000Y400000D02*
X385981D01*
X372501Y391501D02*
X381000Y400000D01*
X372501Y382500D02*
Y391501D01*
X394480Y400520D02*
X395000Y400000D01*
X386501Y400520D02*
X394480D01*
X561000Y396000D02*
X561340Y396340D01*
Y406400D01*
X561000Y425000D02*
X561340Y425340D01*
Y433070D01*
Y450340D02*
Y459740D01*
X561000Y450000D02*
X561340Y450340D01*
X362500Y248500D02*
Y267500D01*
X352500Y249499D02*
Y267500D01*
X27000Y405000D02*
X41000Y419000D01*
X27000Y350000D02*
Y405000D01*
X19000Y420000D02*
X48000Y449000D01*
X86497Y630000D02*
X146000Y570497D01*
Y570000D02*
Y570497D01*
X206000Y510000D02*
X212090Y503910D01*
X189000Y510000D02*
X207010Y491990D01*
X212090Y400050D02*
Y503910D01*
X207010Y422910D02*
Y491990D01*
X255000Y486680D02*
Y495000D01*
Y486680D02*
X317501Y424179D01*
Y382500D02*
Y424179D01*
X280000Y468030D02*
Y485000D01*
X290000Y466920D02*
Y485000D01*
X300990Y463550D02*
Y485000D01*
X290000Y466920D02*
X327500Y429420D01*
X280000Y468030D02*
X322500Y425530D01*
X41000Y419000D02*
X97000D01*
X48000Y449000D02*
X98000D01*
X113000Y389890D02*
X124460D01*
X104000Y398890D02*
Y412000D01*
Y398890D02*
X113000Y389890D01*
X97000Y419000D02*
X104000Y412000D01*
Y428830D02*
X112830Y420000D01*
X125360D02*
X130810Y425450D01*
X112830Y420000D02*
X125360D01*
X104000Y428830D02*
Y443000D01*
X98000Y449000D02*
X104000Y443000D01*
X83000Y336000D02*
X112850D01*
X113850Y337000D01*
X114300Y336550D01*
X443750Y164920D02*
X448770D01*
X454030Y170180D02*
Y177800D01*
X448770Y164920D02*
X454030Y170180D01*
X438750Y164920D02*
Y177760D01*
X438790Y177800D01*
X423550D02*
X424820D01*
X433523Y169097D01*
Y165147D02*
Y169097D01*
Y165147D02*
X433750Y164920D01*
X495300Y459740D02*
X512340D01*
X308050Y352500D02*
X317500Y361950D01*
X282501Y352500D02*
X308050D01*
X495300Y433070D02*
X512340D01*
X315750Y347500D02*
X323850Y355600D01*
X282501Y347500D02*
X315750D01*
X495300Y406400D02*
X512340D01*
X323450Y342500D02*
X330200Y349250D01*
X282501Y342500D02*
X323450D01*
X282421Y322580D02*
X282501Y322500D01*
X246380Y322580D02*
X282421D01*
X203200Y381000D02*
X210800Y388600D01*
X227500D01*
Y375900D02*
X243860D01*
X259080Y297180D02*
X276448D01*
X282251Y297250D02*
X282501Y297500D01*
X276518Y297250D02*
X282251D01*
X276448Y297180D02*
X276518Y297250D01*
X192001Y219020D02*
X208860D01*
X209205Y219365D01*
X254000Y317500D02*
X282501D01*
X179000Y203270D02*
X179070Y203200D01*
X179000Y203270D02*
Y219020D01*
X260430Y312500D02*
X282501D01*
X384776Y352500D02*
X397501D01*
X384216Y353060D02*
X384776Y352500D01*
X383540Y353060D02*
X384216D01*
X448950Y357500D02*
X457200Y349250D01*
X397501Y357500D02*
X448950D01*
X431800Y526400D02*
X450400Y545000D01*
X431800Y400050D02*
Y526400D01*
X377500Y382500D02*
X414250D01*
X431800Y400050D01*
X450400Y390710D02*
Y515000D01*
X422190Y362500D02*
X450400Y390710D01*
X397501Y362500D02*
X422190D01*
X304800Y292100D02*
X337500Y324800D01*
Y382500D01*
X171450Y171450D02*
Y191770D01*
X187960Y345440D02*
Y361950D01*
X187946Y412764D02*
X187960Y412750D01*
X187946Y412764D02*
Y416574D01*
X177820Y426700D02*
X187946Y416574D01*
X173000Y426700D02*
X177820D01*
X185400Y401300D02*
X207010Y422910D01*
X187940Y375900D02*
X212090Y400050D01*
X173000Y375900D02*
X187940D01*
X146050Y336550D02*
X189230D01*
X215880Y363200D02*
X227500D01*
X189230Y336550D02*
X215880Y363200D01*
X173000Y401300D02*
X185400D01*
X137160Y629865D02*
X137295Y630001D01*
X312500Y368381D02*
Y382500D01*
X312420Y368300D02*
X312500Y368381D01*
X322500Y382500D02*
Y425530D01*
X327500Y382500D02*
Y429420D01*
X300990Y463550D02*
X332501Y432039D01*
Y382500D02*
Y432039D01*
X351790Y365760D02*
X357501Y371471D01*
Y382500D01*
X378460Y459740D02*
Y464820D01*
X369200Y467250D02*
X376030D01*
X378460Y464820D01*
X362500Y370289D02*
Y382500D01*
Y370289D02*
X367030Y365760D01*
X350520Y463270D02*
X350550Y463300D01*
X350520Y448310D02*
Y463270D01*
X369050Y463100D02*
X369200Y462950D01*
X363600Y463100D02*
X369050D01*
X363450Y463250D02*
X363600Y463100D01*
X363450Y463250D02*
Y463300D01*
X369200Y462950D02*
X369420D01*
X369570Y462800D01*
Y449580D02*
Y462800D01*
X352500Y382500D02*
Y404571D01*
X355600Y407670D01*
X359150Y449840D02*
Y463300D01*
Y449840D02*
X359410Y449580D01*
X347500Y382500D02*
Y409730D01*
X350520Y412750D01*
X342501Y382500D02*
Y413621D01*
X531340Y406400D02*
X546340D01*
X531340Y433070D02*
X546340D01*
X531340Y459740D02*
X546340D01*
X436501Y252563D02*
X436880Y252942D01*
Y266700D01*
X397501Y322500D02*
X409020D01*
X412750Y318770D01*
X469501Y336151D02*
Y366020D01*
X445850Y312500D02*
X469501Y336151D01*
X397501Y312500D02*
X445850D01*
X469501Y366020D02*
X505793D01*
X469501Y366020D02*
X469501Y366020D01*
X470500Y271020D02*
X505793D01*
X505793Y271020D01*
X397501Y307500D02*
X434021D01*
X470500Y271020D01*
X436501Y237520D02*
Y252563D01*
X436501Y252563D01*
X347000Y193000D02*
Y213000D01*
Y237000D01*
X342501Y267500D02*
Y278529D01*
X339090Y281940D02*
X342501Y278529D01*
X317500Y250190D02*
X321855Y245835D01*
Y237146D02*
X322000Y237000D01*
X321855Y237146D02*
Y245835D01*
X333100Y238400D02*
Y243480D01*
Y238400D02*
X334500Y237000D01*
X317750Y258829D02*
X333100Y243480D01*
X317750Y258829D02*
Y267250D01*
X317501Y267500D02*
X317750Y267250D01*
X322500Y267500D02*
Y276940D01*
X318770Y280670D02*
X322500Y276940D01*
X337500Y255590D02*
Y267500D01*
X347000Y237000D02*
Y246090D01*
X337500Y255590D02*
X347000Y246090D01*
X309500Y237000D02*
Y253620D01*
X312500Y256621D02*
Y267500D01*
X309500Y253620D02*
X312500Y256621D01*
X119500Y495000D02*
X119800Y495300D01*
X165100D01*
X372110Y341630D02*
X383540D01*
X387670Y337500D01*
X397501D01*
X382510Y332500D02*
X397501D01*
X382270Y332740D02*
X382510Y332500D01*
X332501Y267500D02*
Y290393D01*
X331470Y291423D02*
X332501Y290393D01*
X331470Y291423D02*
Y292100D01*
X382270Y317500D02*
X397501D01*
X325199Y285352D02*
Y285750D01*
Y285352D02*
X327500Y283050D01*
Y267500D02*
Y283050D01*
X302260Y255270D02*
X302501Y255511D01*
Y267500D01*
X166000Y197750D02*
Y219020D01*
X139700Y171450D02*
X166000Y197750D01*
X179000Y162491D02*
X185420Y168910D01*
X179000Y146520D02*
Y162491D01*
X192001Y146520D02*
Y162330D01*
X191770Y162560D02*
X192001Y162330D01*
X243860Y375900D02*
X247090Y372670D01*
Y372630D02*
Y372670D01*
Y372630D02*
X254000Y365720D01*
Y339090D02*
Y365720D01*
X215900Y300990D02*
X254000Y339090D01*
X105111Y312121D02*
X156210Y363220D01*
X105111Y199390D02*
Y312121D01*
X152557Y298450D02*
X184150D01*
X132080Y277973D02*
X152557Y298450D01*
X119501Y215000D02*
X132080Y227579D01*
Y277973D01*
X144780Y425450D02*
X156210Y414020D01*
X130810Y425450D02*
X144780D01*
X124460Y389890D02*
X132080Y397510D01*
X147320D02*
X156210Y388620D01*
X132080Y397510D02*
X147320D01*
X105111Y199390D02*
X119501Y185000D01*
X184150Y298450D02*
X227500Y341800D01*
Y350500D01*
X156210Y414020D02*
X172980D01*
X173000Y414000D01*
X243820Y350500D02*
X243840Y350520D01*
X227500Y350500D02*
X243820D01*
X172980Y363220D02*
X173000Y363200D01*
X156210Y363220D02*
X172980D01*
X156210Y388620D02*
X172980D01*
X173000Y388600D01*
X307501Y382500D02*
Y401520D01*
X282501Y249520D02*
X295000Y262019D01*
Y288000D01*
X282501Y292500D02*
X290500D01*
X295000Y288000D01*
X185501Y257520D02*
X202498D01*
X202500Y257522D01*
X185501Y219020D02*
Y238520D01*
Y127563D02*
Y146520D01*
X159501Y127563D02*
Y146520D01*
X159500Y127563D02*
X159501Y127563D01*
D15*
X322000Y237000D02*
D03*
X334500D02*
D03*
X347000D02*
D03*
Y213000D02*
D03*
X334500D02*
D03*
X322000D02*
D03*
X309500Y237000D02*
D03*
Y213000D02*
D03*
D16*
X156210Y388620D02*
D03*
X137210D02*
D03*
X156210Y363220D02*
D03*
X137210D02*
D03*
X243840Y350520D02*
D03*
X262840D02*
D03*
X243840Y375920D02*
D03*
X262840D02*
D03*
X243840Y439420D02*
D03*
X262840D02*
D03*
X156210D02*
D03*
X137210D02*
D03*
Y464820D02*
D03*
X156210D02*
D03*
X137210Y414020D02*
D03*
X156210D02*
D03*
X416000Y59000D02*
D03*
X397000D02*
D03*
X50850Y317500D02*
D03*
X69850D02*
D03*
X353000Y59000D02*
D03*
X372000D02*
D03*
X310000Y193000D02*
D03*
X291000D02*
D03*
X328000Y193000D02*
D03*
X347000D02*
D03*
X512340Y459740D02*
D03*
X531340D02*
D03*
X512340Y433070D02*
D03*
X531340D02*
D03*
X512340Y406400D02*
D03*
X531340D02*
D03*
X436501Y252563D02*
D03*
X417501D02*
D03*
X455500Y235000D02*
D03*
X436500D02*
D03*
X140500Y240520D02*
D03*
X159501D02*
D03*
X377500Y248520D02*
D03*
X396501D02*
D03*
X367501Y400520D02*
D03*
X386501D02*
D03*
X291501Y402520D02*
D03*
X272500D02*
D03*
D17*
X353000Y26000D02*
D03*
X417000D02*
D03*
D18*
X348000Y592000D02*
D03*
X548000Y332000D02*
D03*
X35000Y59000D02*
D03*
D19*
X227500Y350500D02*
D03*
Y363200D02*
D03*
Y375900D02*
D03*
Y388600D02*
D03*
Y401300D02*
D03*
Y414000D02*
D03*
Y426700D02*
D03*
Y439400D02*
D03*
X173000Y350500D02*
D03*
Y363200D02*
D03*
Y375900D02*
D03*
Y388600D02*
D03*
Y401300D02*
D03*
Y414000D02*
D03*
Y426700D02*
D03*
Y439400D02*
D03*
D20*
X443750Y164920D02*
D03*
X438750D02*
D03*
X433750D02*
D03*
X428750D02*
D03*
X443750Y142420D02*
D03*
X438750D02*
D03*
X433750D02*
D03*
X428750D02*
D03*
D21*
X454030Y177800D02*
D03*
Y196800D02*
D03*
X438790Y177800D02*
D03*
Y196800D02*
D03*
X417200Y129490D02*
D03*
Y110490D02*
D03*
X433710Y129490D02*
D03*
Y110490D02*
D03*
X450220Y129540D02*
D03*
Y110540D02*
D03*
X423550Y196800D02*
D03*
Y177800D02*
D03*
X330000Y480000D02*
D03*
Y499000D02*
D03*
Y467000D02*
D03*
Y448000D02*
D03*
X400690Y165100D02*
D03*
Y146100D02*
D03*
X415930Y165100D02*
D03*
Y146100D02*
D03*
X185501Y257520D02*
D03*
Y238520D02*
D03*
Y127563D02*
D03*
Y108562D02*
D03*
X159500Y127563D02*
D03*
Y108562D02*
D03*
X212000Y133000D02*
D03*
Y152000D02*
D03*
X143000Y127500D02*
D03*
Y108500D02*
D03*
X282501Y249520D02*
D03*
Y230520D02*
D03*
X307501Y401520D02*
D03*
Y420520D02*
D03*
X469501Y385020D02*
D03*
Y366020D02*
D03*
X470500Y252020D02*
D03*
Y271020D02*
D03*
X437500Y347520D02*
D03*
Y328520D02*
D03*
X418501Y347520D02*
D03*
Y328520D02*
D03*
X417501Y287520D02*
D03*
Y268520D02*
D03*
X264501Y287520D02*
D03*
Y268520D02*
D03*
D22*
X344800Y462950D02*
D03*
X369200D02*
D03*
Y467250D02*
D03*
Y471550D02*
D03*
Y475850D02*
D03*
Y480150D02*
D03*
Y484450D02*
D03*
Y488750D02*
D03*
Y493050D02*
D03*
X344800D02*
D03*
Y488750D02*
D03*
Y484450D02*
D03*
Y480150D02*
D03*
Y475850D02*
D03*
Y471550D02*
D03*
Y467250D02*
D03*
D23*
X350550Y463300D02*
D03*
X354850D02*
D03*
X359150D02*
D03*
X363450D02*
D03*
Y492700D02*
D03*
X359150D02*
D03*
X354850D02*
D03*
X350550D02*
D03*
D24*
X505793Y271020D02*
D03*
Y366020D02*
D03*
D25*
X192001Y219020D02*
D03*
X185501D02*
D03*
X179000D02*
D03*
X172500D02*
D03*
X166000D02*
D03*
X159501D02*
D03*
X153000D02*
D03*
X146501D02*
D03*
X192001Y146520D02*
D03*
X185501D02*
D03*
X179000D02*
D03*
X172500D02*
D03*
X166000D02*
D03*
X159501D02*
D03*
X153000D02*
D03*
X146501D02*
D03*
D26*
X397501Y287500D02*
D03*
Y292500D02*
D03*
Y297500D02*
D03*
Y302500D02*
D03*
Y307500D02*
D03*
Y312500D02*
D03*
Y317500D02*
D03*
Y322500D02*
D03*
Y327500D02*
D03*
Y332500D02*
D03*
Y337500D02*
D03*
Y342500D02*
D03*
Y347500D02*
D03*
Y352500D02*
D03*
Y357500D02*
D03*
Y362500D02*
D03*
X282501D02*
D03*
Y357500D02*
D03*
Y352500D02*
D03*
Y347500D02*
D03*
Y342500D02*
D03*
Y337500D02*
D03*
Y332500D02*
D03*
Y327500D02*
D03*
Y322500D02*
D03*
Y317500D02*
D03*
Y312500D02*
D03*
Y307500D02*
D03*
Y302500D02*
D03*
Y297500D02*
D03*
Y292500D02*
D03*
Y287500D02*
D03*
D27*
X377500Y382500D02*
D03*
X372501D02*
D03*
X367501D02*
D03*
X362500D02*
D03*
X357501D02*
D03*
X352500D02*
D03*
X347500D02*
D03*
X342501D02*
D03*
X337500D02*
D03*
X332501D02*
D03*
X327500D02*
D03*
X322500D02*
D03*
X317501D02*
D03*
X312500D02*
D03*
X307501D02*
D03*
X302501D02*
D03*
Y267500D02*
D03*
X307501D02*
D03*
X312500D02*
D03*
X317501D02*
D03*
X322500D02*
D03*
X327500D02*
D03*
X332501D02*
D03*
X337500D02*
D03*
X342501D02*
D03*
X347500D02*
D03*
X352500D02*
D03*
X357501D02*
D03*
X362500D02*
D03*
X367501D02*
D03*
X372501D02*
D03*
X377500D02*
D03*
D28*
X38150Y317500D02*
D03*
X16150D02*
D03*
D50*
X353000Y79000D02*
D03*
X480000Y235000D02*
D03*
X87000Y91000D02*
D03*
X159000Y253000D02*
D03*
X116441Y98060D02*
D03*
X162000Y71120D02*
D03*
X139000Y316000D02*
D03*
X178000Y274000D02*
D03*
X239000Y215412D02*
D03*
X400000Y454000D02*
D03*
X385000Y452000D02*
D03*
X248000Y424000D02*
D03*
X210000Y265000D02*
D03*
X216000Y206000D02*
D03*
X141448Y146941D02*
D03*
X21000Y620000D02*
D03*
X188326Y485240D02*
D03*
X137000Y405000D02*
D03*
Y380000D02*
D03*
Y355000D02*
D03*
X173000Y344000D02*
D03*
X262840Y337160D02*
D03*
X196000Y109000D02*
D03*
X160000Y117000D02*
D03*
X433000Y26000D02*
D03*
X317000Y464000D02*
D03*
X35000Y329000D02*
D03*
X113000Y352000D02*
D03*
X10000Y340000D02*
D03*
X402000Y135000D02*
D03*
X372000Y287000D02*
D03*
X464000Y178000D02*
D03*
X408000Y236000D02*
D03*
X381000Y230000D02*
D03*
X384886Y483270D02*
D03*
X357000Y476000D02*
D03*
X434000Y102000D02*
D03*
X407000Y110000D02*
D03*
X461000Y111000D02*
D03*
X452000Y142000D02*
D03*
X413000Y197000D02*
D03*
X469000Y395000D02*
D03*
X448000Y328000D02*
D03*
X427976Y328123D02*
D03*
X471000Y243000D02*
D03*
X358000Y280000D02*
D03*
X369000Y256000D02*
D03*
X418000Y242000D02*
D03*
X428000Y268000D02*
D03*
X396000Y258000D02*
D03*
X338000Y200000D02*
D03*
X319000D02*
D03*
X291000Y205000D02*
D03*
X283000Y220000D02*
D03*
X255000Y268000D02*
D03*
X295000Y376000D02*
D03*
X273000Y440000D02*
D03*
Y415000D02*
D03*
X295000Y420000D02*
D03*
X352000Y485000D02*
D03*
X363000Y501000D02*
D03*
X355000D02*
D03*
X344000D02*
D03*
X330000Y510000D02*
D03*
X395000Y400000D02*
D03*
X561000Y396000D02*
D03*
Y425000D02*
D03*
Y450000D02*
D03*
X27000Y350000D02*
D03*
X19000Y420000D02*
D03*
X146000Y570000D02*
D03*
X206000Y510000D02*
D03*
X189000Y510000D02*
D03*
X255000Y495000D02*
D03*
X280000Y485000D02*
D03*
X290000D02*
D03*
X300990D02*
D03*
X83000Y336000D02*
D03*
X185000Y71000D02*
D03*
X495300Y459740D02*
D03*
X317500Y361950D02*
D03*
X495300Y433070D02*
D03*
X323850Y355600D02*
D03*
X495300Y406400D02*
D03*
X330200Y349250D02*
D03*
X246380Y322580D02*
D03*
X203200Y381000D02*
D03*
X259080Y297180D02*
D03*
X209205Y219365D02*
D03*
X222250Y233680D02*
D03*
X179070Y203200D02*
D03*
X228600Y228600D02*
D03*
X383540Y353060D02*
D03*
X457200Y349250D02*
D03*
X266700Y254000D02*
D03*
X304800Y292100D02*
D03*
X171450Y171450D02*
D03*
Y191770D02*
D03*
Y247650D02*
D03*
X187960Y345440D02*
D03*
Y361950D02*
D03*
Y412750D02*
D03*
X114300Y336550D02*
D03*
X146050D02*
D03*
X312420Y368300D02*
D03*
X378460Y459740D02*
D03*
X367030Y365760D02*
D03*
X351790D02*
D03*
X350520Y448310D02*
D03*
X369570Y449580D02*
D03*
X355600Y407670D02*
D03*
X359410Y449580D02*
D03*
X350520Y412750D02*
D03*
X436880Y266700D02*
D03*
X412750Y318770D02*
D03*
X339090Y281940D02*
D03*
X317500Y250190D02*
D03*
X318770Y280670D02*
D03*
X165100Y495300D02*
D03*
X372110Y341630D02*
D03*
X382270Y332740D02*
D03*
X331470Y292100D02*
D03*
X382270Y317500D02*
D03*
X325199Y285750D02*
D03*
X302260Y255270D02*
D03*
X139700Y171450D02*
D03*
X191770Y162560D02*
D03*
D51*
X202500Y242522D02*
D03*
Y257522D02*
D03*
D52*
X561340Y459740D02*
D03*
X546340D02*
D03*
X561340Y433070D02*
D03*
X546340D02*
D03*
X561340Y406400D02*
D03*
X546340D02*
D03*
D53*
X353000Y59000D02*
Y79000D01*
X455500Y235000D02*
X480000D01*
X455500D02*
X456001Y234499D01*
D54*
X70000Y264501D02*
X89501Y245000D01*
X70000Y264501D02*
Y317350D01*
X69850Y317500D02*
X70000Y317350D01*
X353000Y26000D02*
Y59000D01*
X371900Y59100D02*
Y80000D01*
Y59100D02*
X372000Y59000D01*
X397300Y59300D02*
Y80000D01*
X397000Y59000D02*
X397300Y59300D01*
D55*
X418900Y643000D02*
X461900Y600000D01*
X44000Y643000D02*
X418900D01*
X21000Y620000D02*
X44000Y643000D01*
X98500Y354000D02*
X119500Y375000D01*
X77000Y354000D02*
X98500D01*
X63000Y340000D02*
X77000Y354000D01*
X10000Y340000D02*
X63000D01*
X227520Y439420D02*
X243840D01*
X227500Y439400D02*
X227520Y439420D01*
X146501Y219020D02*
Y234520D01*
X140500Y240520D02*
X146501Y234520D01*
Y219020D02*
X153000D01*
D56*
X400000Y550000D02*
D03*
X510000Y100000D02*
D03*
X260000Y150000D02*
D03*
Y520000D02*
D03*
D57*
X450400Y515000D02*
D03*
Y545000D02*
D03*
X480400Y515000D02*
D03*
D58*
Y545000D02*
D03*
D59*
X523600Y530000D02*
D03*
X46501Y253500D02*
D03*
Y146500D02*
D03*
X46500Y503500D02*
D03*
Y396500D02*
D03*
D60*
X327001Y38500D02*
D03*
X555601D02*
D03*
X89501Y125000D02*
D03*
X89500Y375000D02*
D03*
D61*
X327001Y63900D02*
D03*
Y89300D02*
D03*
Y114700D02*
D03*
X326999Y140101D02*
D03*
X327000Y165500D02*
D03*
X555601Y63900D02*
D03*
Y89300D02*
D03*
Y114700D02*
D03*
X555599Y140101D02*
D03*
X555600Y165500D02*
D03*
X538100Y600000D02*
D03*
X512700D02*
D03*
X487300D02*
D03*
X448100Y80000D02*
D03*
X422700D02*
D03*
X397300D02*
D03*
X61097Y630000D02*
D03*
X86497D02*
D03*
X213497Y629999D02*
D03*
X188097D02*
D03*
X162697D02*
D03*
X137295Y630001D02*
D03*
X111896Y630000D02*
D03*
X61097Y20000D02*
D03*
X86497D02*
D03*
X213497Y19999D02*
D03*
X188097D02*
D03*
X162697D02*
D03*
X137295Y20001D02*
D03*
X111896Y20000D02*
D03*
X119501Y125000D02*
D03*
X89501Y155000D02*
D03*
X119501D02*
D03*
X89501Y185000D02*
D03*
X119501D02*
D03*
X89501Y215000D02*
D03*
X119501D02*
D03*
X89501Y245000D02*
D03*
X119501D02*
D03*
X89501Y275000D02*
D03*
X119501D02*
D03*
X119500Y375000D02*
D03*
X89500Y405000D02*
D03*
X119500D02*
D03*
X89500Y435000D02*
D03*
X119500D02*
D03*
X89500Y465000D02*
D03*
X119500D02*
D03*
X89500Y495000D02*
D03*
X119500D02*
D03*
X89500Y525000D02*
D03*
X119500D02*
D03*
D62*
X461900Y600000D02*
D03*
X371900Y80000D02*
D03*
X238897Y629999D02*
D03*
Y19999D02*
D03*
M02*
