G04*
G04 #@! TF.GenerationSoftware,Altium Limited,Altium Designer,20.0.11 (256)*
G04*
G04 Layer_Color=8388736*
%FSLAX44Y44*%
%MOMM*%
G71*
G01*
G75*
%ADD16R,0.9000X0.9000*%
%ADD21R,0.9000X0.9000*%
%ADD29R,0.6300X1.4100*%
%ADD30R,1.0000X1.0000*%
%ADD31R,2.1000X3.1000*%
%ADD32C,3.0000*%
%ADD33O,1.5500X0.7000*%
%ADD34R,0.4000X0.6200*%
%ADD35R,1.0000X1.0000*%
%ADD36R,0.6300X0.3800*%
%ADD37R,0.3800X0.6300*%
%ADD38R,2.2000X5.7000*%
%ADD39R,0.6000X1.7500*%
%ADD40R,1.3000X0.4000*%
%ADD41R,0.4000X1.3000*%
%ADD42R,0.9000X0.6000*%
%ADD43C,3.1480*%
%ADD44C,1.6300*%
%ADD45R,1.6300X1.6300*%
%ADD46C,3.1000*%
%ADD47R,1.9000X1.9000*%
%ADD48C,1.9000*%
%ADD49R,1.9000X1.9000*%
%ADD50C,0.5000*%
D16*
X561340Y459740D02*
D03*
X546340D02*
D03*
X561340Y433070D02*
D03*
X546340D02*
D03*
X561340Y406400D02*
D03*
X546340D02*
D03*
D21*
X202500Y242522D02*
D03*
Y257522D02*
D03*
D29*
X322000Y237000D02*
D03*
X334500D02*
D03*
X347000D02*
D03*
Y213000D02*
D03*
X334500D02*
D03*
X322000D02*
D03*
X309500Y237000D02*
D03*
Y213000D02*
D03*
D30*
X156210Y388620D02*
D03*
X137210D02*
D03*
X156210Y363220D02*
D03*
X137210D02*
D03*
X243840Y350520D02*
D03*
X262840D02*
D03*
X243840Y375920D02*
D03*
X262840D02*
D03*
X243840Y439420D02*
D03*
X262840D02*
D03*
X156210D02*
D03*
X137210D02*
D03*
Y464820D02*
D03*
X156210D02*
D03*
X137210Y414020D02*
D03*
X156210D02*
D03*
X416000Y59000D02*
D03*
X397000D02*
D03*
X50850Y317500D02*
D03*
X69850D02*
D03*
X353000Y59000D02*
D03*
X372000D02*
D03*
X310000Y193000D02*
D03*
X291000D02*
D03*
X328000Y193000D02*
D03*
X347000D02*
D03*
X512340Y459740D02*
D03*
X531340D02*
D03*
X512340Y433070D02*
D03*
X531340D02*
D03*
X512340Y406400D02*
D03*
X531340D02*
D03*
X436501Y252563D02*
D03*
X417501D02*
D03*
X455500Y235000D02*
D03*
X436500D02*
D03*
X140500Y240520D02*
D03*
X159501D02*
D03*
X377500Y248520D02*
D03*
X396501D02*
D03*
X367501Y400520D02*
D03*
X386501D02*
D03*
X291501Y402520D02*
D03*
X272500D02*
D03*
D31*
X353000Y26000D02*
D03*
X417000D02*
D03*
D32*
X348000Y592000D02*
D03*
X548000Y332000D02*
D03*
X35000Y59000D02*
D03*
D33*
X227500Y350500D02*
D03*
Y363200D02*
D03*
Y375900D02*
D03*
Y388600D02*
D03*
Y401300D02*
D03*
Y414000D02*
D03*
Y426700D02*
D03*
Y439400D02*
D03*
X173000Y350500D02*
D03*
Y363200D02*
D03*
Y375900D02*
D03*
Y388600D02*
D03*
Y401300D02*
D03*
Y414000D02*
D03*
Y426700D02*
D03*
Y439400D02*
D03*
D34*
X443750Y164920D02*
D03*
X438750D02*
D03*
X433750D02*
D03*
X428750D02*
D03*
X443750Y142420D02*
D03*
X438750D02*
D03*
X433750D02*
D03*
X428750D02*
D03*
D35*
X454030Y177800D02*
D03*
Y196800D02*
D03*
X438790Y177800D02*
D03*
Y196800D02*
D03*
X417200Y129490D02*
D03*
Y110490D02*
D03*
X433710Y129490D02*
D03*
Y110490D02*
D03*
X450220Y129540D02*
D03*
Y110540D02*
D03*
X423550Y196800D02*
D03*
Y177800D02*
D03*
X330000Y480000D02*
D03*
Y499000D02*
D03*
Y467000D02*
D03*
Y448000D02*
D03*
X400690Y165100D02*
D03*
Y146100D02*
D03*
X415930Y165100D02*
D03*
Y146100D02*
D03*
X185501Y257520D02*
D03*
Y238520D02*
D03*
Y127563D02*
D03*
Y108562D02*
D03*
X159500Y127563D02*
D03*
Y108562D02*
D03*
X212000Y133000D02*
D03*
Y152000D02*
D03*
X143000Y127500D02*
D03*
Y108500D02*
D03*
X282501Y249520D02*
D03*
Y230520D02*
D03*
X307501Y401520D02*
D03*
Y420520D02*
D03*
X469501Y385020D02*
D03*
Y366020D02*
D03*
X470500Y252020D02*
D03*
Y271020D02*
D03*
X437500Y347520D02*
D03*
Y328520D02*
D03*
X418501Y347520D02*
D03*
Y328520D02*
D03*
X417501Y287520D02*
D03*
Y268520D02*
D03*
X264501Y287520D02*
D03*
Y268520D02*
D03*
D36*
X344800Y462950D02*
D03*
X369200D02*
D03*
Y467250D02*
D03*
Y471550D02*
D03*
Y475850D02*
D03*
Y480150D02*
D03*
Y484450D02*
D03*
Y488750D02*
D03*
Y493050D02*
D03*
X344800D02*
D03*
Y488750D02*
D03*
Y484450D02*
D03*
Y480150D02*
D03*
Y475850D02*
D03*
Y471550D02*
D03*
Y467250D02*
D03*
D37*
X350550Y463300D02*
D03*
X354850D02*
D03*
X359150D02*
D03*
X363450D02*
D03*
Y492700D02*
D03*
X359150D02*
D03*
X354850D02*
D03*
X350550D02*
D03*
D38*
X505793Y271020D02*
D03*
Y366020D02*
D03*
D39*
X192001Y219020D02*
D03*
X185501D02*
D03*
X179000D02*
D03*
X172500D02*
D03*
X166000D02*
D03*
X159501D02*
D03*
X153000D02*
D03*
X146501D02*
D03*
X192001Y146520D02*
D03*
X185501D02*
D03*
X179000D02*
D03*
X172500D02*
D03*
X166000D02*
D03*
X159501D02*
D03*
X153000D02*
D03*
X146501D02*
D03*
D40*
X397501Y287500D02*
D03*
Y292500D02*
D03*
Y297500D02*
D03*
Y302500D02*
D03*
Y307500D02*
D03*
Y312500D02*
D03*
Y317500D02*
D03*
Y322500D02*
D03*
Y327500D02*
D03*
Y332500D02*
D03*
Y337500D02*
D03*
Y342500D02*
D03*
Y347500D02*
D03*
Y352500D02*
D03*
Y357500D02*
D03*
Y362500D02*
D03*
X282501D02*
D03*
Y357500D02*
D03*
Y352500D02*
D03*
Y347500D02*
D03*
Y342500D02*
D03*
Y337500D02*
D03*
Y332500D02*
D03*
Y327500D02*
D03*
Y322500D02*
D03*
Y317500D02*
D03*
Y312500D02*
D03*
Y307500D02*
D03*
Y302500D02*
D03*
Y297500D02*
D03*
Y292500D02*
D03*
Y287500D02*
D03*
D41*
X377500Y382500D02*
D03*
X372501D02*
D03*
X367501D02*
D03*
X362500D02*
D03*
X357501D02*
D03*
X352500D02*
D03*
X347500D02*
D03*
X342501D02*
D03*
X337500D02*
D03*
X332501D02*
D03*
X327500D02*
D03*
X322500D02*
D03*
X317501D02*
D03*
X312500D02*
D03*
X307501D02*
D03*
X302501D02*
D03*
Y267500D02*
D03*
X307501D02*
D03*
X312500D02*
D03*
X317501D02*
D03*
X322500D02*
D03*
X327500D02*
D03*
X332501D02*
D03*
X337500D02*
D03*
X342501D02*
D03*
X347500D02*
D03*
X352500D02*
D03*
X357501D02*
D03*
X362500D02*
D03*
X367501D02*
D03*
X372501D02*
D03*
X377500D02*
D03*
D42*
X38150Y317500D02*
D03*
X16150D02*
D03*
D43*
X400000Y550000D02*
D03*
X510000Y100000D02*
D03*
X260000Y150000D02*
D03*
Y520000D02*
D03*
D44*
X450400Y515000D02*
D03*
Y545000D02*
D03*
X480400Y515000D02*
D03*
D45*
Y545000D02*
D03*
D46*
X523600Y530000D02*
D03*
X46501Y253500D02*
D03*
Y146500D02*
D03*
X46500Y503500D02*
D03*
Y396500D02*
D03*
D47*
X327001Y38500D02*
D03*
X555601D02*
D03*
X89501Y125000D02*
D03*
X89500Y375000D02*
D03*
D48*
X327001Y63900D02*
D03*
Y89300D02*
D03*
Y114700D02*
D03*
X326999Y140101D02*
D03*
X327000Y165500D02*
D03*
X555601Y63900D02*
D03*
Y89300D02*
D03*
Y114700D02*
D03*
X555599Y140101D02*
D03*
X555600Y165500D02*
D03*
X538100Y600000D02*
D03*
X512700D02*
D03*
X487300D02*
D03*
X448100Y80000D02*
D03*
X422700D02*
D03*
X397300D02*
D03*
X61097Y630000D02*
D03*
X86497D02*
D03*
X213497Y629999D02*
D03*
X188097D02*
D03*
X162697D02*
D03*
X137295Y630001D02*
D03*
X111896Y630000D02*
D03*
X61097Y20000D02*
D03*
X86497D02*
D03*
X213497Y19999D02*
D03*
X188097D02*
D03*
X162697D02*
D03*
X137295Y20001D02*
D03*
X111896Y20000D02*
D03*
X119501Y125000D02*
D03*
X89501Y155000D02*
D03*
X119501D02*
D03*
X89501Y185000D02*
D03*
X119501D02*
D03*
X89501Y215000D02*
D03*
X119501D02*
D03*
X89501Y245000D02*
D03*
X119501D02*
D03*
X89501Y275000D02*
D03*
X119501D02*
D03*
X119500Y375000D02*
D03*
X89500Y405000D02*
D03*
X119500D02*
D03*
X89500Y435000D02*
D03*
X119500D02*
D03*
X89500Y465000D02*
D03*
X119500D02*
D03*
X89500Y495000D02*
D03*
X119500D02*
D03*
X89500Y525000D02*
D03*
X119500D02*
D03*
D49*
X461900Y600000D02*
D03*
X371900Y80000D02*
D03*
X238897Y629999D02*
D03*
Y19999D02*
D03*
D50*
X353000Y79000D02*
D03*
X480000Y235000D02*
D03*
X87000Y91000D02*
D03*
X159000Y253000D02*
D03*
X116441Y98060D02*
D03*
X162000Y71120D02*
D03*
X139000Y316000D02*
D03*
X178000Y274000D02*
D03*
X239000Y215412D02*
D03*
X400000Y454000D02*
D03*
X385000Y452000D02*
D03*
X248000Y424000D02*
D03*
X210000Y265000D02*
D03*
X216000Y206000D02*
D03*
X141448Y146941D02*
D03*
X21000Y620000D02*
D03*
X188326Y485240D02*
D03*
X137000Y405000D02*
D03*
Y380000D02*
D03*
Y355000D02*
D03*
X173000Y344000D02*
D03*
X262840Y337160D02*
D03*
X196000Y109000D02*
D03*
X160000Y117000D02*
D03*
X433000Y26000D02*
D03*
X317000Y464000D02*
D03*
X35000Y329000D02*
D03*
X113000Y352000D02*
D03*
X10000Y340000D02*
D03*
X402000Y135000D02*
D03*
X372000Y287000D02*
D03*
X464000Y178000D02*
D03*
X408000Y236000D02*
D03*
X381000Y230000D02*
D03*
X384886Y483270D02*
D03*
X357000Y476000D02*
D03*
X434000Y102000D02*
D03*
X407000Y110000D02*
D03*
X461000Y111000D02*
D03*
X452000Y142000D02*
D03*
X413000Y197000D02*
D03*
X469000Y395000D02*
D03*
X448000Y328000D02*
D03*
X427976Y328123D02*
D03*
X471000Y243000D02*
D03*
X358000Y280000D02*
D03*
X369000Y256000D02*
D03*
X418000Y242000D02*
D03*
X428000Y268000D02*
D03*
X396000Y258000D02*
D03*
X338000Y200000D02*
D03*
X319000D02*
D03*
X291000Y205000D02*
D03*
X283000Y220000D02*
D03*
X255000Y268000D02*
D03*
X295000Y376000D02*
D03*
X273000Y440000D02*
D03*
Y415000D02*
D03*
X295000Y420000D02*
D03*
X352000Y485000D02*
D03*
X363000Y501000D02*
D03*
X355000D02*
D03*
X344000D02*
D03*
X330000Y510000D02*
D03*
X395000Y400000D02*
D03*
X561000Y396000D02*
D03*
Y425000D02*
D03*
Y450000D02*
D03*
X27000Y350000D02*
D03*
X19000Y420000D02*
D03*
X146000Y570000D02*
D03*
X206000Y510000D02*
D03*
X189000Y510000D02*
D03*
X255000Y495000D02*
D03*
X280000Y485000D02*
D03*
X290000D02*
D03*
X300990D02*
D03*
X83000Y336000D02*
D03*
X185000Y71000D02*
D03*
X495300Y459740D02*
D03*
X317500Y361950D02*
D03*
X495300Y433070D02*
D03*
X323850Y355600D02*
D03*
X495300Y406400D02*
D03*
X330200Y349250D02*
D03*
X246380Y322580D02*
D03*
X203200Y381000D02*
D03*
X259080Y297180D02*
D03*
X209205Y219365D02*
D03*
X222250Y233680D02*
D03*
X179070Y203200D02*
D03*
X228600Y228600D02*
D03*
X383540Y353060D02*
D03*
X457200Y349250D02*
D03*
X266700Y254000D02*
D03*
X304800Y292100D02*
D03*
X171450Y171450D02*
D03*
Y191770D02*
D03*
Y247650D02*
D03*
X187960Y345440D02*
D03*
Y361950D02*
D03*
Y412750D02*
D03*
X114300Y336550D02*
D03*
X146050D02*
D03*
X312420Y368300D02*
D03*
X378460Y459740D02*
D03*
X367030Y365760D02*
D03*
X351790D02*
D03*
X350520Y448310D02*
D03*
X369570Y449580D02*
D03*
X355600Y407670D02*
D03*
X359410Y449580D02*
D03*
X350520Y412750D02*
D03*
X436880Y266700D02*
D03*
X412750Y318770D02*
D03*
X339090Y281940D02*
D03*
X317500Y250190D02*
D03*
X318770Y280670D02*
D03*
X165100Y495300D02*
D03*
X372110Y341630D02*
D03*
X382270Y332740D02*
D03*
X331470Y292100D02*
D03*
X382270Y317500D02*
D03*
X325199Y285750D02*
D03*
X302260Y255270D02*
D03*
X139700Y171450D02*
D03*
X191770Y162560D02*
D03*
M02*
