G04*
G04 #@! TF.GenerationSoftware,Altium Limited,Altium Designer,20.0.11 (256)*
G04*
G04 Layer_Color=16711935*
%FSLAX44Y44*%
%MOMM*%
G71*
G01*
G75*
%ADD32C,3.0000*%
%ADD43C,3.1480*%
%ADD44C,1.6300*%
%ADD45R,1.6300X1.6300*%
%ADD46C,3.1000*%
%ADD47R,1.9000X1.9000*%
%ADD48C,1.9000*%
%ADD49R,1.9000X1.9000*%
%ADD50C,0.5000*%
D32*
X348000Y592000D02*
D03*
X548000Y332000D02*
D03*
X35000Y59000D02*
D03*
D43*
X400000Y550000D02*
D03*
X510000Y100000D02*
D03*
X260000Y150000D02*
D03*
Y520000D02*
D03*
D44*
X450400Y515000D02*
D03*
Y545000D02*
D03*
X480400Y515000D02*
D03*
D45*
Y545000D02*
D03*
D46*
X523600Y530000D02*
D03*
X46501Y253500D02*
D03*
Y146500D02*
D03*
X46500Y503500D02*
D03*
Y396500D02*
D03*
D47*
X327001Y38500D02*
D03*
X555601D02*
D03*
X89501Y125000D02*
D03*
X89500Y375000D02*
D03*
D48*
X327001Y63900D02*
D03*
Y89300D02*
D03*
Y114700D02*
D03*
X326999Y140101D02*
D03*
X327000Y165500D02*
D03*
X555601Y63900D02*
D03*
Y89300D02*
D03*
Y114700D02*
D03*
X555599Y140101D02*
D03*
X555600Y165500D02*
D03*
X538100Y600000D02*
D03*
X512700D02*
D03*
X487300D02*
D03*
X448100Y80000D02*
D03*
X422700D02*
D03*
X397300D02*
D03*
X61097Y630000D02*
D03*
X86497D02*
D03*
X213497Y629999D02*
D03*
X188097D02*
D03*
X162697D02*
D03*
X137295Y630001D02*
D03*
X111896Y630000D02*
D03*
X61097Y20000D02*
D03*
X86497D02*
D03*
X213497Y19999D02*
D03*
X188097D02*
D03*
X162697D02*
D03*
X137295Y20001D02*
D03*
X111896Y20000D02*
D03*
X119501Y125000D02*
D03*
X89501Y155000D02*
D03*
X119501D02*
D03*
X89501Y185000D02*
D03*
X119501D02*
D03*
X89501Y215000D02*
D03*
X119501D02*
D03*
X89501Y245000D02*
D03*
X119501D02*
D03*
X89501Y275000D02*
D03*
X119501D02*
D03*
X119500Y375000D02*
D03*
X89500Y405000D02*
D03*
X119500D02*
D03*
X89500Y435000D02*
D03*
X119500D02*
D03*
X89500Y465000D02*
D03*
X119500D02*
D03*
X89500Y495000D02*
D03*
X119500D02*
D03*
X89500Y525000D02*
D03*
X119500D02*
D03*
D49*
X461900Y600000D02*
D03*
X371900Y80000D02*
D03*
X238897Y629999D02*
D03*
Y19999D02*
D03*
D50*
X353000Y79000D02*
D03*
X480000Y235000D02*
D03*
X87000Y91000D02*
D03*
X159000Y253000D02*
D03*
X116441Y98060D02*
D03*
X162000Y71120D02*
D03*
X139000Y316000D02*
D03*
X178000Y274000D02*
D03*
X239000Y215412D02*
D03*
X400000Y454000D02*
D03*
X385000Y452000D02*
D03*
X248000Y424000D02*
D03*
X210000Y265000D02*
D03*
X216000Y206000D02*
D03*
X141448Y146941D02*
D03*
X21000Y620000D02*
D03*
X188326Y485240D02*
D03*
X137000Y405000D02*
D03*
Y380000D02*
D03*
Y355000D02*
D03*
X173000Y344000D02*
D03*
X262840Y337160D02*
D03*
X196000Y109000D02*
D03*
X160000Y117000D02*
D03*
X433000Y26000D02*
D03*
X317000Y464000D02*
D03*
X35000Y329000D02*
D03*
X113000Y352000D02*
D03*
X10000Y340000D02*
D03*
X402000Y135000D02*
D03*
X372000Y287000D02*
D03*
X464000Y178000D02*
D03*
X408000Y236000D02*
D03*
X381000Y230000D02*
D03*
X384886Y483270D02*
D03*
X357000Y476000D02*
D03*
X434000Y102000D02*
D03*
X407000Y110000D02*
D03*
X461000Y111000D02*
D03*
X452000Y142000D02*
D03*
X413000Y197000D02*
D03*
X469000Y395000D02*
D03*
X448000Y328000D02*
D03*
X427976Y328123D02*
D03*
X471000Y243000D02*
D03*
X358000Y280000D02*
D03*
X369000Y256000D02*
D03*
X418000Y242000D02*
D03*
X428000Y268000D02*
D03*
X396000Y258000D02*
D03*
X338000Y200000D02*
D03*
X319000D02*
D03*
X291000Y205000D02*
D03*
X283000Y220000D02*
D03*
X255000Y268000D02*
D03*
X295000Y376000D02*
D03*
X273000Y440000D02*
D03*
Y415000D02*
D03*
X295000Y420000D02*
D03*
X352000Y485000D02*
D03*
X363000Y501000D02*
D03*
X355000D02*
D03*
X344000D02*
D03*
X330000Y510000D02*
D03*
X395000Y400000D02*
D03*
X561000Y396000D02*
D03*
Y425000D02*
D03*
Y450000D02*
D03*
X27000Y350000D02*
D03*
X19000Y420000D02*
D03*
X146000Y570000D02*
D03*
X206000Y510000D02*
D03*
X189000Y510000D02*
D03*
X255000Y495000D02*
D03*
X280000Y485000D02*
D03*
X290000D02*
D03*
X300990D02*
D03*
X83000Y336000D02*
D03*
X185000Y71000D02*
D03*
X495300Y459740D02*
D03*
X317500Y361950D02*
D03*
X495300Y433070D02*
D03*
X323850Y355600D02*
D03*
X495300Y406400D02*
D03*
X330200Y349250D02*
D03*
X246380Y322580D02*
D03*
X203200Y381000D02*
D03*
X259080Y297180D02*
D03*
X209205Y219365D02*
D03*
X222250Y233680D02*
D03*
X179070Y203200D02*
D03*
X228600Y228600D02*
D03*
X383540Y353060D02*
D03*
X457200Y349250D02*
D03*
X266700Y254000D02*
D03*
X304800Y292100D02*
D03*
X171450Y171450D02*
D03*
Y191770D02*
D03*
Y247650D02*
D03*
X187960Y345440D02*
D03*
Y361950D02*
D03*
Y412750D02*
D03*
X114300Y336550D02*
D03*
X146050D02*
D03*
X312420Y368300D02*
D03*
X378460Y459740D02*
D03*
X367030Y365760D02*
D03*
X351790D02*
D03*
X350520Y448310D02*
D03*
X369570Y449580D02*
D03*
X355600Y407670D02*
D03*
X359410Y449580D02*
D03*
X350520Y412750D02*
D03*
X436880Y266700D02*
D03*
X412750Y318770D02*
D03*
X339090Y281940D02*
D03*
X317500Y250190D02*
D03*
X318770Y280670D02*
D03*
X165100Y495300D02*
D03*
X372110Y341630D02*
D03*
X382270Y332740D02*
D03*
X331470Y292100D02*
D03*
X382270Y317500D02*
D03*
X325199Y285750D02*
D03*
X302260Y255270D02*
D03*
X139700Y171450D02*
D03*
X191770Y162560D02*
D03*
M02*
