G04*
G04 #@! TF.GenerationSoftware,Altium Limited,Altium Designer,20.0.11 (256)*
G04*
G04 Layer_Physical_Order=2*
G04 Layer_Color=16711680*
%FSLAX44Y44*%
%MOMM*%
G71*
G01*
G75*
%ADD10C,0.2000*%
%ADD12C,0.2500*%
%ADD18C,1.0000*%
%ADD50C,0.5000*%
%ADD53C,0.5000*%
%ADD55C,0.3000*%
%ADD56C,3.0480*%
%ADD57C,1.5300*%
%ADD58R,1.5300X1.5300*%
%ADD59C,3.0000*%
%ADD60R,1.8000X1.8000*%
%ADD61C,1.8000*%
%ADD62R,1.8000X1.8000*%
G36*
X570000Y0D02*
X0D01*
Y116157D01*
X1270Y116683D01*
X47477Y70477D01*
X48634Y69703D01*
X50000Y69431D01*
X82818D01*
X127398Y24851D01*
X126579Y22872D01*
X126201Y20001D01*
X126579Y17129D01*
X127687Y14453D01*
X129450Y12156D01*
X131748Y10392D01*
X134424Y9284D01*
X137295Y8906D01*
X140167Y9284D01*
X142843Y10392D01*
X145141Y12156D01*
X146904Y14453D01*
X148012Y17129D01*
X148390Y20001D01*
X148012Y22872D01*
X146904Y25548D01*
X145141Y27846D01*
X142843Y29609D01*
X140167Y30718D01*
X137295Y31096D01*
X134424Y30718D01*
X132445Y29898D01*
X86820Y75523D01*
X85662Y76297D01*
X84296Y76569D01*
X51478D01*
X6569Y121478D01*
Y335353D01*
X7839Y336032D01*
X8244Y335761D01*
X10000Y335412D01*
X11756Y335761D01*
X13244Y336756D01*
X14239Y338244D01*
X14416Y339136D01*
X15686Y339011D01*
Y141000D01*
X15939Y139732D01*
X16657Y138657D01*
X57657Y97657D01*
X58732Y96939D01*
X60000Y96686D01*
X86011D01*
X86136Y95416D01*
X85244Y95239D01*
X83756Y94244D01*
X82761Y92756D01*
X82412Y91000D01*
X82761Y89244D01*
X83756Y87756D01*
X85244Y86761D01*
X87000Y86412D01*
X88756Y86761D01*
X90244Y87756D01*
X91239Y89244D01*
X91588Y91000D01*
X91239Y92756D01*
X90244Y94244D01*
X88756Y95239D01*
X87864Y95416D01*
X87989Y96686D01*
X110000D01*
X110799Y96845D01*
X111712Y96594D01*
X112326Y96118D01*
X113196Y94816D01*
X114685Y93821D01*
X116318Y93496D01*
X141038Y68777D01*
X142113Y68059D01*
X143381Y67806D01*
X158860D01*
X160244Y66881D01*
X162000Y66532D01*
X163756Y66881D01*
X165244Y67876D01*
X166239Y69364D01*
X166588Y71120D01*
X166239Y72876D01*
X165244Y74364D01*
X163756Y75359D01*
X162000Y75708D01*
X160244Y75359D01*
X158860Y74434D01*
X144753D01*
X121004Y98182D01*
X120680Y99816D01*
X119685Y101304D01*
X118547Y102065D01*
X118184Y103498D01*
X121844Y107157D01*
X122562Y108232D01*
X122814Y109501D01*
Y114466D01*
X125048Y115392D01*
X127346Y117155D01*
X129109Y119453D01*
X130217Y122128D01*
X130596Y125000D01*
X130217Y127872D01*
X129109Y130547D01*
X127346Y132845D01*
X125048Y134608D01*
X122372Y135717D01*
X119501Y136095D01*
X116629Y135717D01*
X113953Y134608D01*
X111655Y132845D01*
X109892Y130547D01*
X108784Y127872D01*
X108406Y125000D01*
X108784Y122128D01*
X109892Y119453D01*
X111655Y117155D01*
X113953Y115392D01*
X116187Y114466D01*
Y110873D01*
X108628Y103314D01*
X61372D01*
X22314Y142373D01*
Y345154D01*
X23584Y345793D01*
X23686Y345717D01*
Y193000D01*
X23939Y191732D01*
X24657Y190657D01*
X51181Y164132D01*
X50528Y163043D01*
X49833Y163254D01*
X46501Y163582D01*
X43168Y163254D01*
X39964Y162282D01*
X37010Y160703D01*
X34422Y158579D01*
X32297Y155990D01*
X30719Y153037D01*
X29747Y149833D01*
X29418Y146500D01*
X29747Y143167D01*
X30719Y139963D01*
X32297Y137010D01*
X34422Y134421D01*
X37010Y132297D01*
X39964Y130718D01*
X43168Y129746D01*
X46501Y129418D01*
X49833Y129746D01*
X53038Y130718D01*
X55991Y132297D01*
X58580Y134421D01*
X60704Y137010D01*
X62283Y139963D01*
X63255Y143167D01*
X63583Y146500D01*
X63255Y149833D01*
X63044Y150528D01*
X64133Y151181D01*
X77657Y137657D01*
X78337Y137202D01*
X78501Y136000D01*
X78501Y135690D01*
Y114000D01*
X100501D01*
Y135416D01*
X100501Y136000D01*
X101486Y136686D01*
X104501D01*
X105769Y136939D01*
X106844Y137657D01*
X114395Y145208D01*
X116629Y144283D01*
X119501Y143905D01*
X122372Y144283D01*
X125048Y145392D01*
X127346Y147155D01*
X129109Y149453D01*
X130217Y152128D01*
X130596Y155000D01*
X130217Y157872D01*
X129109Y160548D01*
X127346Y162845D01*
X125048Y164608D01*
X122372Y165717D01*
X119501Y166095D01*
X116629Y165717D01*
X113953Y164608D01*
X111655Y162845D01*
X109892Y160548D01*
X108784Y157872D01*
X108406Y155000D01*
X108784Y152128D01*
X109709Y149895D01*
X103128Y143314D01*
X93350D01*
X93098Y144584D01*
X95048Y145392D01*
X97346Y147155D01*
X99109Y149453D01*
X100217Y152128D01*
X100596Y155000D01*
X100217Y157872D01*
X99292Y160105D01*
X107323Y168136D01*
X136559D01*
X137944Y167211D01*
X139700Y166862D01*
X141456Y167211D01*
X142944Y168206D01*
X143939Y169694D01*
X144288Y171450D01*
X143939Y173206D01*
X142944Y174694D01*
X141456Y175689D01*
X139700Y176038D01*
X137944Y175689D01*
X136559Y174764D01*
X126316D01*
X125885Y176034D01*
X127346Y177155D01*
X129109Y179453D01*
X130217Y182128D01*
X130596Y185000D01*
X130217Y187872D01*
X129109Y190547D01*
X127346Y192845D01*
X125048Y194608D01*
X122372Y195717D01*
X119642Y196076D01*
X119725Y197346D01*
X152297D01*
X172525Y177119D01*
X171899Y175949D01*
X171450Y176038D01*
X169694Y175689D01*
X168206Y174694D01*
X167211Y173206D01*
X166862Y171450D01*
X167211Y169694D01*
X168136Y168309D01*
Y62046D01*
X168389Y60778D01*
X169107Y59703D01*
X203706Y25104D01*
X202780Y22871D01*
X202402Y19999D01*
X202780Y17128D01*
X203889Y14452D01*
X205652Y12154D01*
X207950Y10391D01*
X210625Y9282D01*
X213497Y8904D01*
X216369Y9282D01*
X219044Y10391D01*
X221342Y12154D01*
X223106Y14452D01*
X224214Y17128D01*
X224592Y19999D01*
X224214Y22871D01*
X223106Y25547D01*
X221342Y27845D01*
X219044Y29608D01*
X216369Y30716D01*
X213497Y31094D01*
X210625Y30716D01*
X208392Y29791D01*
X174764Y63419D01*
Y168309D01*
X175689Y169694D01*
X176038Y171450D01*
X175949Y171899D01*
X177119Y172525D01*
X187206Y162438D01*
X187531Y160804D01*
X188526Y159316D01*
X190014Y158321D01*
X191770Y157972D01*
X193526Y158321D01*
X195014Y159316D01*
X196009Y160804D01*
X196358Y162560D01*
X196009Y164316D01*
X195014Y165804D01*
X193526Y166799D01*
X191892Y167124D01*
X172808Y186208D01*
X173078Y187416D01*
X173251Y187561D01*
X174694Y188526D01*
X175689Y190014D01*
X176038Y191770D01*
X175689Y193526D01*
X174764Y194911D01*
Y199259D01*
X175256Y199582D01*
X176034Y199817D01*
X177314Y198961D01*
X179070Y198612D01*
X180826Y198961D01*
X182314Y199956D01*
X183309Y201444D01*
X183658Y203200D01*
X183309Y204956D01*
X182384Y206341D01*
Y213258D01*
X199493Y230366D01*
X219109D01*
X220494Y229441D01*
X222250Y229092D01*
X222699Y229181D01*
X223325Y228011D01*
X217992Y222679D01*
X212346D01*
X210961Y223604D01*
X209205Y223953D01*
X207449Y223604D01*
X205961Y222609D01*
X204966Y221121D01*
X204617Y219365D01*
X204966Y217609D01*
X205961Y216121D01*
X207449Y215126D01*
X209205Y214777D01*
X210961Y215126D01*
X212346Y216051D01*
X219365D01*
X220633Y216304D01*
X221708Y217022D01*
X228722Y224036D01*
X230356Y224361D01*
X231844Y225356D01*
X232839Y226844D01*
X233188Y228600D01*
X232839Y230356D01*
X231844Y231844D01*
X230356Y232839D01*
X228600Y233188D01*
X228012Y233071D01*
X226838Y233680D01*
X226489Y235436D01*
X226382Y235596D01*
X226980Y236716D01*
X299720D01*
X300988Y236969D01*
X302063Y237687D01*
X310953Y246577D01*
X311671Y247652D01*
X311924Y248920D01*
X313174Y248872D01*
X313261Y248434D01*
X314256Y246946D01*
X315744Y245951D01*
X317500Y245602D01*
X319256Y245951D01*
X320744Y246946D01*
X321739Y248434D01*
X322088Y250190D01*
X321739Y251946D01*
X320814Y253330D01*
Y267868D01*
X331573Y278626D01*
X335950D01*
X337334Y277701D01*
X339090Y277352D01*
X340846Y277701D01*
X342334Y278696D01*
X343329Y280184D01*
X343678Y281940D01*
X343329Y283696D01*
X342334Y285184D01*
X340846Y286179D01*
X339090Y286528D01*
X337334Y286179D01*
X335950Y285254D01*
X330984D01*
X330230Y285567D01*
X329873Y286807D01*
X330702Y287665D01*
X331470Y287512D01*
X333226Y287861D01*
X334714Y288856D01*
X335709Y290344D01*
X336058Y292100D01*
X335709Y293856D01*
X334714Y295344D01*
X334191Y295694D01*
X334053Y296387D01*
X333335Y297461D01*
X317690Y313106D01*
X318316Y314277D01*
X318770Y314186D01*
X379129D01*
X380514Y313261D01*
X382270Y312912D01*
X384026Y313261D01*
X385514Y314256D01*
X386509Y315744D01*
X386858Y317500D01*
X386509Y319256D01*
X385514Y320744D01*
X384026Y321739D01*
X382270Y322088D01*
X380514Y321739D01*
X379129Y320814D01*
X320143D01*
X312800Y328156D01*
X313326Y329426D01*
X379129D01*
X380514Y328501D01*
X382270Y328152D01*
X384026Y328501D01*
X385514Y329496D01*
X386509Y330984D01*
X386858Y332740D01*
X386509Y334496D01*
X385514Y335984D01*
X384026Y336979D01*
X382270Y337328D01*
X380514Y336979D01*
X379129Y336054D01*
X373652D01*
X373527Y337324D01*
X373866Y337391D01*
X375354Y338386D01*
X376349Y339874D01*
X376698Y341630D01*
X376349Y343386D01*
X375354Y344874D01*
X373866Y345869D01*
X373783Y345885D01*
X373511Y347234D01*
X377978Y351702D01*
X379186Y351432D01*
X379331Y351259D01*
X380296Y349816D01*
X381784Y348821D01*
X383540Y348472D01*
X385296Y348821D01*
X386680Y349746D01*
X438047D01*
X526686Y261107D01*
Y108048D01*
X525416Y107730D01*
X524404Y109624D01*
X522249Y112249D01*
X519624Y114404D01*
X516629Y116005D01*
X513380Y116990D01*
X510000Y117323D01*
X506620Y116990D01*
X503371Y116005D01*
X500376Y114404D01*
X497751Y112249D01*
X495596Y109624D01*
X493995Y106629D01*
X493009Y103380D01*
X492677Y100000D01*
X493009Y96620D01*
X493995Y93371D01*
X495596Y90376D01*
X497751Y87751D01*
X500376Y85596D01*
X503371Y83995D01*
X506620Y83010D01*
X510000Y82677D01*
X513380Y83010D01*
X516629Y83995D01*
X519624Y85596D01*
X522249Y87751D01*
X524404Y90376D01*
X525416Y92270D01*
X526686Y91952D01*
Y64100D01*
X526939Y62832D01*
X527657Y61757D01*
X544601Y44813D01*
Y27500D01*
X566601D01*
Y49500D01*
X549287D01*
X533314Y65473D01*
Y262480D01*
X533061Y263748D01*
X532343Y264823D01*
X441763Y355403D01*
X440688Y356121D01*
X439420Y356374D01*
X386680D01*
X385341Y357269D01*
X385168Y357414D01*
X384898Y358622D01*
X429363Y403086D01*
X492160D01*
X493544Y402161D01*
X495300Y401812D01*
X497056Y402161D01*
X498544Y403156D01*
X499539Y404644D01*
X499888Y406400D01*
X499539Y408156D01*
X498544Y409644D01*
X497056Y410639D01*
X495300Y410988D01*
X493544Y410639D01*
X492160Y409714D01*
X430029D01*
X429543Y410887D01*
X448413Y429756D01*
X492160D01*
X493544Y428831D01*
X495300Y428482D01*
X497056Y428831D01*
X498544Y429826D01*
X499539Y431314D01*
X499888Y433070D01*
X499539Y434826D01*
X498544Y436314D01*
X497056Y437309D01*
X495300Y437658D01*
X493544Y437309D01*
X492160Y436384D01*
X447040D01*
X445772Y436131D01*
X444697Y435413D01*
X382947Y373663D01*
X381774Y374149D01*
Y447397D01*
X382894Y447995D01*
X383244Y447761D01*
X385000Y447412D01*
X386756Y447761D01*
X388244Y448756D01*
X389239Y450244D01*
X389327Y450686D01*
X396860D01*
X398244Y449761D01*
X400000Y449412D01*
X401756Y449761D01*
X403244Y450756D01*
X404239Y452244D01*
X404588Y454000D01*
X404239Y455756D01*
X403244Y457244D01*
X401756Y458239D01*
X400000Y458588D01*
X398244Y458239D01*
X396860Y457314D01*
X387677D01*
X386408Y457061D01*
X385540Y456481D01*
X385000Y456588D01*
X383244Y456239D01*
X382912Y456017D01*
X381996Y456932D01*
X382699Y457984D01*
X383048Y459740D01*
X382699Y461496D01*
X381843Y462776D01*
X382078Y463554D01*
X382401Y464046D01*
X486307D01*
X490736Y459618D01*
X491061Y457984D01*
X492056Y456496D01*
X493544Y455501D01*
X495300Y455152D01*
X497056Y455501D01*
X498544Y456496D01*
X499539Y457984D01*
X499888Y459740D01*
X499539Y461496D01*
X498544Y462984D01*
X497056Y463979D01*
X495422Y464304D01*
X490023Y469703D01*
X488948Y470421D01*
X487680Y470674D01*
X359303D01*
X359029Y471944D01*
X360244Y472756D01*
X361239Y474244D01*
X361588Y476000D01*
X361545Y476219D01*
X365537Y480211D01*
X381518D01*
X381642Y480026D01*
X383130Y479031D01*
X384886Y478682D01*
X386642Y479031D01*
X388130Y480026D01*
X389125Y481514D01*
X389474Y483270D01*
X389125Y485026D01*
X388130Y486514D01*
X386642Y487509D01*
X384886Y487858D01*
X383130Y487509D01*
X381642Y486514D01*
X381518Y486329D01*
X364270D01*
X364270Y486329D01*
X363100Y486096D01*
X362107Y485433D01*
X362107Y485433D01*
X357219Y480545D01*
X357000Y480588D01*
X355244Y480239D01*
X353756Y479244D01*
X352761Y477756D01*
X352412Y476000D01*
X352761Y474244D01*
X353756Y472756D01*
X354971Y471944D01*
X354697Y470674D01*
X351790D01*
X350522Y470421D01*
X349447Y469703D01*
X322777Y443033D01*
X322059Y441958D01*
X321806Y440690D01*
Y370942D01*
X318089Y367225D01*
X316919Y367851D01*
X317008Y368300D01*
X316659Y370056D01*
X315734Y371441D01*
Y420370D01*
X315481Y421638D01*
X314763Y422713D01*
X140474Y597002D01*
Y619411D01*
X142843Y620392D01*
X145141Y622156D01*
X146904Y624453D01*
X148012Y627129D01*
X148390Y630001D01*
X148012Y632872D01*
X146904Y635548D01*
X145141Y637846D01*
X142843Y639609D01*
X140167Y640718D01*
X137295Y641096D01*
X134424Y640718D01*
X131748Y639609D01*
X129450Y637846D01*
X127687Y635548D01*
X126579Y632872D01*
X126201Y630001D01*
X126579Y627129D01*
X127687Y624453D01*
X129450Y622156D01*
X131748Y620392D01*
X133846Y619523D01*
Y595630D01*
X134099Y594362D01*
X134817Y593287D01*
X309106Y418997D01*
Y371441D01*
X308181Y370056D01*
X307832Y368300D01*
X308181Y366544D01*
X309176Y365056D01*
X310664Y364061D01*
X312420Y363712D01*
X313029Y362538D01*
X312912Y361950D01*
X313261Y360194D01*
X314256Y358706D01*
X315744Y357711D01*
X317500Y357362D01*
X318351Y357531D01*
X319431Y356451D01*
X319262Y355600D01*
X319611Y353844D01*
X320606Y352356D01*
X322094Y351361D01*
X323850Y351012D01*
X324701Y351181D01*
X325781Y350101D01*
X325612Y349250D01*
X325961Y347494D01*
X326817Y346214D01*
X326582Y345435D01*
X326259Y344944D01*
X320143D01*
X169664Y495422D01*
X169339Y497056D01*
X168344Y498544D01*
X166856Y499539D01*
X165100Y499888D01*
X163344Y499539D01*
X161856Y498544D01*
X160861Y497056D01*
X160512Y495300D01*
X160861Y493544D01*
X161856Y492056D01*
X163344Y491061D01*
X164978Y490736D01*
X316427Y339287D01*
X317502Y338569D01*
X318770Y338316D01*
X368969D01*
X370354Y337391D01*
X370693Y337324D01*
X370568Y336054D01*
X313132D01*
X129292Y519895D01*
X130217Y522128D01*
X130595Y525000D01*
X130217Y527872D01*
X129108Y530547D01*
X127345Y532845D01*
X125048Y534608D01*
X122372Y535717D01*
X119500Y536095D01*
X116628Y535717D01*
X113953Y534608D01*
X111655Y532845D01*
X109892Y530547D01*
X108783Y527872D01*
X108405Y525000D01*
X108783Y522128D01*
X109892Y519453D01*
X111655Y517155D01*
X113953Y515392D01*
X116628Y514283D01*
X119500Y513905D01*
X122372Y514283D01*
X124605Y515208D01*
X125960Y513854D01*
X125434Y512584D01*
X103770D01*
X102502Y512331D01*
X101427Y511613D01*
X94605Y504792D01*
X92372Y505717D01*
X89500Y506095D01*
X86629Y505717D01*
X83953Y504608D01*
X81655Y502845D01*
X79892Y500547D01*
X78783Y497872D01*
X78405Y495000D01*
X78535Y494012D01*
X77351Y493280D01*
X76974Y493536D01*
Y507787D01*
X84395Y515208D01*
X86629Y514283D01*
X89500Y513905D01*
X92372Y514283D01*
X95048Y515392D01*
X97345Y517155D01*
X99108Y519453D01*
X100217Y522128D01*
X100595Y525000D01*
X100217Y527872D01*
X99108Y530547D01*
X97345Y532845D01*
X95048Y534608D01*
X92372Y535717D01*
X89500Y536095D01*
X86629Y535717D01*
X83953Y534608D01*
X81655Y532845D01*
X79892Y530547D01*
X78783Y527872D01*
X78405Y525000D01*
X78783Y522128D01*
X79708Y519895D01*
X71317Y511503D01*
X70599Y510428D01*
X70346Y509160D01*
Y491490D01*
X70599Y490222D01*
X71317Y489147D01*
X82747Y477717D01*
X83822Y476999D01*
X85090Y476746D01*
X85795D01*
X86048Y475476D01*
X83953Y474608D01*
X81655Y472845D01*
X79892Y470547D01*
X78783Y467872D01*
X78405Y465000D01*
X78783Y462128D01*
X79892Y459453D01*
X81655Y457155D01*
X83953Y455392D01*
X86629Y454283D01*
X89500Y453905D01*
X92372Y454283D01*
X94605Y455208D01*
X100157Y449657D01*
X101232Y448939D01*
X102500Y448686D01*
X133628D01*
X145276Y437038D01*
Y368935D01*
X145529Y367667D01*
X146247Y366592D01*
X159582Y353257D01*
X160657Y352539D01*
X161925Y352286D01*
X185317D01*
X186602Y351002D01*
X186332Y349794D01*
X186159Y349649D01*
X184716Y348684D01*
X183721Y347196D01*
X183372Y345440D01*
X183721Y343684D01*
X184646Y342299D01*
Y301969D01*
X175657Y292979D01*
X174939Y291904D01*
X174686Y290636D01*
Y277141D01*
X173761Y275756D01*
X173412Y274000D01*
X173761Y272244D01*
X174756Y270756D01*
X176244Y269761D01*
X178000Y269412D01*
X179756Y269761D01*
X181244Y270756D01*
X182239Y272244D01*
X182588Y274000D01*
X182239Y275756D01*
X181314Y277141D01*
Y289264D01*
X190303Y298253D01*
X191021Y299328D01*
X191274Y300596D01*
Y342299D01*
X192169Y343639D01*
X192314Y343812D01*
X193522Y344082D01*
X242767Y294837D01*
X243842Y294119D01*
X245110Y293866D01*
X255940D01*
X257324Y292941D01*
X259080Y292592D01*
X260836Y292941D01*
X262324Y293936D01*
X263319Y295424D01*
X263668Y297180D01*
X263319Y298936D01*
X262324Y300424D01*
X260836Y301419D01*
X259080Y301768D01*
X257324Y301419D01*
X255940Y300494D01*
X246483D01*
X190338Y356638D01*
X190522Y358250D01*
X191204Y358706D01*
X192199Y360194D01*
X192548Y361950D01*
X192199Y363706D01*
X191274Y365090D01*
Y409609D01*
X192199Y410994D01*
X192397Y411991D01*
X193775Y412409D01*
X319844Y286339D01*
X319219Y285169D01*
X318770Y285258D01*
X317014Y284909D01*
X315630Y283984D01*
X313690D01*
X312422Y283731D01*
X311347Y283013D01*
X306267Y277933D01*
X305549Y276858D01*
X305296Y275590D01*
Y260000D01*
X304176Y259402D01*
X304016Y259509D01*
X302260Y259858D01*
X300504Y259509D01*
X299016Y258514D01*
X298021Y257026D01*
X297696Y255392D01*
X291998Y249694D01*
X270641D01*
X270318Y250186D01*
X270083Y250964D01*
X270939Y252244D01*
X271264Y253878D01*
X304922Y287536D01*
X306556Y287861D01*
X308044Y288856D01*
X309039Y290344D01*
X309388Y292100D01*
X309039Y293856D01*
X308044Y295344D01*
X306556Y296339D01*
X304800Y296688D01*
X303044Y296339D01*
X301556Y295344D01*
X300561Y293856D01*
X300236Y292222D01*
X266578Y258564D01*
X264944Y258239D01*
X263456Y257244D01*
X262461Y255756D01*
X262112Y254000D01*
X262461Y252244D01*
X263317Y250964D01*
X263082Y250186D01*
X262759Y249694D01*
X193143D01*
X111062Y331774D01*
X111872Y332760D01*
X112544Y332311D01*
X114300Y331962D01*
X116056Y332311D01*
X117441Y333236D01*
X142909D01*
X144294Y332311D01*
X146050Y331962D01*
X147806Y332311D01*
X149294Y333306D01*
X150289Y334794D01*
X150638Y336550D01*
X150289Y338306D01*
X149294Y339794D01*
X147806Y340789D01*
X146050Y341138D01*
X144294Y340789D01*
X142909Y339864D01*
X117441D01*
X116056Y340789D01*
X114300Y341138D01*
X112544Y340789D01*
X111056Y339794D01*
X110061Y338306D01*
X109712Y336550D01*
X110061Y334794D01*
X110510Y334122D01*
X109524Y333312D01*
X80106Y362730D01*
X80632Y364000D01*
X95814D01*
X108560Y351254D01*
X108761Y350244D01*
X109756Y348756D01*
X111244Y347761D01*
X113000Y347412D01*
X114756Y347761D01*
X116244Y348756D01*
X117239Y350244D01*
X117588Y352000D01*
X117239Y353756D01*
X116244Y355244D01*
X114756Y356239D01*
X113000Y356588D01*
X112665Y356521D01*
X100500Y368686D01*
Y386000D01*
X79514D01*
Y390327D01*
X84395Y395208D01*
X86629Y394283D01*
X89500Y393905D01*
X92372Y394283D01*
X95048Y395392D01*
X97345Y397155D01*
X99108Y399453D01*
X100217Y402128D01*
X100595Y405000D01*
X100217Y407872D01*
X99108Y410547D01*
X97345Y412845D01*
X95048Y414608D01*
X92372Y415717D01*
X89500Y416095D01*
X86629Y415717D01*
X83953Y414608D01*
X81655Y412845D01*
X79892Y410547D01*
X78783Y407872D01*
X78405Y405000D01*
X78783Y402128D01*
X79708Y399895D01*
X73857Y394043D01*
X73139Y392968D01*
X72886Y391700D01*
Y362856D01*
X71616Y362330D01*
X70624Y363322D01*
Y407567D01*
X81383Y418326D01*
X106140D01*
X107408Y418579D01*
X108483Y419297D01*
X114395Y425208D01*
X116628Y424283D01*
X119500Y423905D01*
X122372Y424283D01*
X125048Y425392D01*
X127345Y427155D01*
X129108Y429453D01*
X130217Y432128D01*
X130595Y435000D01*
X130217Y437872D01*
X129108Y440547D01*
X127345Y442845D01*
X125048Y444608D01*
X122372Y445717D01*
X119500Y446095D01*
X116628Y445717D01*
X113953Y444608D01*
X111655Y442845D01*
X109892Y440547D01*
X108783Y437872D01*
X108405Y435000D01*
X108783Y432128D01*
X109708Y429895D01*
X104768Y424954D01*
X97339D01*
X96931Y426156D01*
X97730Y426770D01*
X99580Y429180D01*
X100743Y431987D01*
X100972Y433730D01*
X89500D01*
X78028D01*
X78257Y431987D01*
X79420Y429180D01*
X81270Y426770D01*
X82069Y426156D01*
X81661Y424954D01*
X80010D01*
X78742Y424701D01*
X77667Y423983D01*
X64967Y411283D01*
X64249Y410208D01*
X63996Y408940D01*
Y401761D01*
X62726Y401572D01*
X62282Y403037D01*
X60703Y405990D01*
X58579Y408579D01*
X55990Y410703D01*
X53037Y412282D01*
X49833Y413254D01*
X46500Y413582D01*
X43168Y413254D01*
X39963Y412282D01*
X37010Y410703D01*
X34421Y408579D01*
X32297Y405990D01*
X30718Y403037D01*
X29746Y399833D01*
X29584Y398184D01*
X28314Y398246D01*
Y501754D01*
X29584Y501816D01*
X29746Y500167D01*
X30718Y496963D01*
X32297Y494010D01*
X34421Y491421D01*
X37010Y489297D01*
X39963Y487718D01*
X43168Y486746D01*
X46500Y486418D01*
X49833Y486746D01*
X53037Y487718D01*
X55990Y489297D01*
X58579Y491421D01*
X60703Y494010D01*
X62282Y496963D01*
X63254Y500167D01*
X63582Y503500D01*
X63254Y506833D01*
X62282Y510037D01*
X60703Y512990D01*
X58579Y515579D01*
X55990Y517703D01*
X53037Y519282D01*
X49833Y520254D01*
X46500Y520582D01*
X43168Y520254D01*
X39963Y519282D01*
X37010Y517703D01*
X34421Y515579D01*
X32297Y512990D01*
X30718Y510037D01*
X29746Y506833D01*
X29584Y505184D01*
X28314Y505247D01*
Y592531D01*
X55991Y620208D01*
X58225Y619283D01*
X61097Y618905D01*
X63968Y619283D01*
X66644Y620392D01*
X68942Y622155D01*
X70705Y624453D01*
X71814Y627128D01*
X72192Y630000D01*
X71814Y632872D01*
X70705Y635547D01*
X68942Y637845D01*
X66644Y639608D01*
X63968Y640717D01*
X61097Y641095D01*
X58225Y640717D01*
X55549Y639608D01*
X53251Y637845D01*
X51488Y635547D01*
X50380Y632872D01*
X50002Y630000D01*
X50380Y627128D01*
X51305Y624895D01*
X22657Y596246D01*
X21939Y595172D01*
X21686Y593903D01*
Y425028D01*
X20416Y424306D01*
X19000Y424588D01*
X17244Y424239D01*
X15756Y423244D01*
X14761Y421756D01*
X14412Y420000D01*
X14761Y418244D01*
X15686Y416860D01*
Y340989D01*
X14416Y340864D01*
X14239Y341756D01*
X13244Y343244D01*
X11756Y344239D01*
X10000Y344588D01*
X8244Y344239D01*
X7839Y343968D01*
X6569Y344647D01*
Y600522D01*
X21572Y615526D01*
X22756Y615761D01*
X24244Y616756D01*
X25239Y618244D01*
X25588Y620000D01*
X25239Y621756D01*
X24244Y623244D01*
X22756Y624239D01*
X21000Y624588D01*
X19244Y624239D01*
X17756Y623244D01*
X16761Y621756D01*
X16526Y620572D01*
X1270Y605317D01*
X0Y605843D01*
Y650000D01*
X570000D01*
Y0D01*
D02*
G37*
G36*
X49007Y333657D02*
X50082Y332939D01*
X51350Y332686D01*
X79859D01*
X81244Y331761D01*
X83000Y331412D01*
X84756Y331761D01*
X86244Y332756D01*
X87239Y334244D01*
X87454Y335324D01*
X88832Y335742D01*
X171109Y253465D01*
X170691Y252087D01*
X169694Y251889D01*
X168206Y250894D01*
X167211Y249406D01*
X166862Y247650D01*
X167211Y245894D01*
X168136Y244510D01*
Y194911D01*
X167241Y193571D01*
X167096Y193398D01*
X165888Y193128D01*
X156013Y203003D01*
X154938Y203721D01*
X153670Y203974D01*
X124944D01*
X124691Y205244D01*
X125048Y205392D01*
X127346Y207155D01*
X129109Y209453D01*
X130217Y212129D01*
X130596Y215000D01*
X130217Y217872D01*
X129109Y220548D01*
X127346Y222845D01*
X125048Y224608D01*
X122372Y225717D01*
X119501Y226095D01*
X116629Y225717D01*
X113953Y224608D01*
X111655Y222845D01*
X109892Y220548D01*
X108784Y217872D01*
X108406Y215000D01*
X108784Y212129D01*
X109892Y209453D01*
X111655Y207155D01*
X113953Y205392D01*
X114310Y205244D01*
X114058Y203974D01*
X105161D01*
X103892Y203721D01*
X102817Y203003D01*
X94606Y194792D01*
X92372Y195717D01*
X89501Y196095D01*
X86629Y195717D01*
X83953Y194608D01*
X81655Y192845D01*
X79892Y190547D01*
X78784Y187872D01*
X78406Y185000D01*
X78784Y182128D01*
X79892Y179453D01*
X81655Y177155D01*
X83953Y175392D01*
X86629Y174283D01*
X89501Y173905D01*
X92372Y174283D01*
X95048Y175392D01*
X97346Y177155D01*
X99109Y179453D01*
X100217Y182128D01*
X100596Y185000D01*
X100217Y187872D01*
X99292Y190105D01*
X106533Y197346D01*
X119276D01*
X119360Y196076D01*
X116629Y195717D01*
X113953Y194608D01*
X111655Y192845D01*
X109892Y190547D01*
X108784Y187872D01*
X108406Y185000D01*
X108784Y182128D01*
X109892Y179453D01*
X111655Y177155D01*
X113116Y176034D01*
X112685Y174764D01*
X105951D01*
X104683Y174511D01*
X103608Y173793D01*
X94606Y164792D01*
X92372Y165717D01*
X89501Y166095D01*
X86629Y165717D01*
X83953Y164608D01*
X81655Y162845D01*
X79892Y160548D01*
X78784Y157872D01*
X78406Y155000D01*
X78784Y152128D01*
X79892Y149453D01*
X81655Y147155D01*
X83953Y145392D01*
X85904Y144584D01*
X85651Y143314D01*
X81373D01*
X30314Y194373D01*
Y245026D01*
X31584Y245345D01*
X32297Y244010D01*
X34422Y241421D01*
X37010Y239297D01*
X39964Y237718D01*
X43168Y236746D01*
X46501Y236418D01*
X49833Y236746D01*
X53038Y237718D01*
X55991Y239297D01*
X58580Y241421D01*
X60704Y244010D01*
X62283Y246963D01*
X63255Y250167D01*
X63583Y253500D01*
X63255Y256833D01*
X62283Y260037D01*
X60704Y262990D01*
X58580Y265579D01*
X55991Y267703D01*
X53038Y269282D01*
X49833Y270254D01*
X46501Y270582D01*
X43168Y270254D01*
X39964Y269282D01*
X37010Y267703D01*
X34422Y265579D01*
X32297Y262990D01*
X31584Y261655D01*
X30314Y261973D01*
Y346860D01*
X31239Y348244D01*
X31469Y349399D01*
X32814Y349849D01*
X49007Y333657D01*
D02*
G37*
%LPC*%
G36*
X86497Y641095D02*
X83625Y640717D01*
X80949Y639608D01*
X78651Y637845D01*
X76888Y635547D01*
X75780Y632872D01*
X75402Y630000D01*
X75780Y627128D01*
X76888Y624453D01*
X78651Y622155D01*
X80949Y620392D01*
X83625Y619283D01*
X86497Y618905D01*
X89368Y619283D01*
X92044Y620392D01*
X94342Y622155D01*
X96105Y624453D01*
X97213Y627128D01*
X97591Y630000D01*
X97213Y632872D01*
X96105Y635547D01*
X94342Y637845D01*
X92044Y639608D01*
X89368Y640717D01*
X86497Y641095D01*
D02*
G37*
G36*
X539370Y611472D02*
Y601270D01*
X549572D01*
X549343Y603013D01*
X548180Y605820D01*
X546330Y608230D01*
X543920Y610080D01*
X541113Y611243D01*
X539370Y611472D01*
D02*
G37*
G36*
X488570D02*
Y601270D01*
X498772D01*
X498543Y603013D01*
X497380Y605820D01*
X495530Y608230D01*
X493120Y610080D01*
X490312Y611243D01*
X488570Y611472D01*
D02*
G37*
G36*
X536830Y611472D02*
X535087Y611243D01*
X532280Y610080D01*
X529870Y608230D01*
X528020Y605820D01*
X526857Y603013D01*
X526628Y601270D01*
X536830D01*
Y611472D01*
D02*
G37*
G36*
X486030D02*
X484287Y611243D01*
X481480Y610080D01*
X479070Y608230D01*
X477220Y605820D01*
X476057Y603013D01*
X475828Y601270D01*
X486030D01*
Y611472D01*
D02*
G37*
G36*
X512700Y611095D02*
X509828Y610717D01*
X507153Y609608D01*
X504855Y607845D01*
X503092Y605547D01*
X501983Y602872D01*
X501605Y600000D01*
X501983Y597128D01*
X503092Y594453D01*
X504855Y592155D01*
X507153Y590392D01*
X509828Y589283D01*
X512700Y588905D01*
X515572Y589283D01*
X518247Y590392D01*
X520545Y592155D01*
X522309Y594453D01*
X523417Y597128D01*
X523795Y600000D01*
X523417Y602872D01*
X522309Y605547D01*
X520545Y607845D01*
X518247Y609608D01*
X515572Y610717D01*
X512700Y611095D01*
D02*
G37*
G36*
X536830Y598730D02*
X526628D01*
X526857Y596987D01*
X528020Y594180D01*
X529870Y591770D01*
X532280Y589920D01*
X535087Y588757D01*
X536830Y588528D01*
Y598730D01*
D02*
G37*
G36*
X486030D02*
X475828D01*
X476057Y596987D01*
X477220Y594180D01*
X479070Y591770D01*
X481480Y589920D01*
X484287Y588757D01*
X486030Y588528D01*
Y598730D01*
D02*
G37*
G36*
X549572D02*
X539370D01*
Y588528D01*
X541113Y588757D01*
X543920Y589920D01*
X546330Y591770D01*
X548180Y594180D01*
X549343Y596987D01*
X549572Y598730D01*
D02*
G37*
G36*
X498772D02*
X488570D01*
Y588528D01*
X490312Y588757D01*
X493120Y589920D01*
X495530Y591770D01*
X497380Y594180D01*
X498543Y596987D01*
X498772Y598730D01*
D02*
G37*
G36*
X348000Y599060D02*
X346173Y598820D01*
X344470Y598115D01*
X343008Y596992D01*
X341885Y595530D01*
X341180Y593827D01*
X340940Y592000D01*
X341180Y590173D01*
X341885Y588470D01*
X343008Y587007D01*
X344470Y585886D01*
X346173Y585180D01*
X348000Y584940D01*
X349827Y585180D01*
X351530Y585886D01*
X352993Y587007D01*
X354114Y588470D01*
X354820Y590173D01*
X355060Y592000D01*
X354820Y593827D01*
X354114Y595530D01*
X352993Y596992D01*
X351530Y598115D01*
X349827Y598820D01*
X348000Y599060D01*
D02*
G37*
G36*
X472900Y611000D02*
X450900D01*
Y589000D01*
X467853D01*
X476831Y580022D01*
Y554650D01*
X470750D01*
Y535350D01*
X490050D01*
Y554650D01*
X483969D01*
Y581500D01*
X483697Y582866D01*
X482923Y584023D01*
X472900Y594047D01*
Y611000D01*
D02*
G37*
G36*
X450400Y554733D02*
X447881Y554402D01*
X445533Y553429D01*
X443517Y551883D01*
X441971Y549867D01*
X440998Y547519D01*
X440667Y545000D01*
X440998Y542481D01*
X441971Y540133D01*
X443517Y538118D01*
X445533Y536571D01*
X447881Y535598D01*
X450400Y535267D01*
X452919Y535598D01*
X455267Y536571D01*
X457282Y538118D01*
X458829Y540133D01*
X459802Y542481D01*
X460133Y545000D01*
X459802Y547519D01*
X458829Y549867D01*
X457282Y551883D01*
X455267Y553429D01*
X452919Y554402D01*
X450400Y554733D01*
D02*
G37*
G36*
X400000Y567323D02*
X396620Y566991D01*
X393371Y566005D01*
X390376Y564404D01*
X387751Y562249D01*
X385596Y559624D01*
X383995Y556629D01*
X383009Y553380D01*
X382677Y550000D01*
X383009Y546620D01*
X383995Y543371D01*
X385596Y540376D01*
X387751Y537751D01*
X390376Y535596D01*
X393371Y533995D01*
X396620Y533009D01*
X400000Y532677D01*
X403380Y533009D01*
X406629Y533995D01*
X409624Y535596D01*
X412249Y537751D01*
X414404Y540376D01*
X416005Y543371D01*
X416991Y546620D01*
X417323Y550000D01*
X416991Y553380D01*
X416005Y556629D01*
X414404Y559624D01*
X412249Y562249D01*
X409624Y564404D01*
X406629Y566005D01*
X403380Y566991D01*
X400000Y567323D01*
D02*
G37*
G36*
X481670Y525111D02*
Y516270D01*
X490511D01*
X490328Y517660D01*
X489301Y520139D01*
X487668Y522268D01*
X485539Y523901D01*
X483060Y524928D01*
X481670Y525111D01*
D02*
G37*
G36*
X479130D02*
X477740Y524928D01*
X475261Y523901D01*
X473132Y522268D01*
X471499Y520139D01*
X470472Y517660D01*
X470289Y516270D01*
X479130D01*
Y525111D01*
D02*
G37*
G36*
X523600Y547082D02*
X520267Y546754D01*
X517063Y545782D01*
X514110Y544203D01*
X511521Y542079D01*
X509397Y539490D01*
X507818Y536537D01*
X506846Y533333D01*
X506518Y530000D01*
X506846Y526668D01*
X507818Y523463D01*
X509397Y520510D01*
X511521Y517921D01*
X514110Y515797D01*
X517063Y514218D01*
X520267Y513246D01*
X523600Y512918D01*
X526933Y513246D01*
X530137Y514218D01*
X533090Y515797D01*
X535679Y517921D01*
X537803Y520510D01*
X539382Y523463D01*
X540354Y526668D01*
X540682Y530000D01*
X540354Y533333D01*
X539382Y536537D01*
X537803Y539490D01*
X535679Y542079D01*
X533090Y544203D01*
X530137Y545782D01*
X526933Y546754D01*
X523600Y547082D01*
D02*
G37*
G36*
X146000Y574588D02*
X144244Y574239D01*
X142756Y573244D01*
X141761Y571756D01*
X141412Y570000D01*
X141761Y568244D01*
X142756Y566756D01*
X144244Y565761D01*
X145878Y565436D01*
X201436Y509878D01*
X201761Y508244D01*
X202756Y506756D01*
X204244Y505761D01*
X206000Y505412D01*
X207756Y505761D01*
X209244Y506756D01*
X210239Y508244D01*
X210588Y510000D01*
X210239Y511756D01*
X209244Y513244D01*
X207756Y514239D01*
X206122Y514564D01*
X150564Y570122D01*
X150239Y571756D01*
X149244Y573244D01*
X147756Y574239D01*
X146000Y574588D01*
D02*
G37*
G36*
X111896Y641095D02*
X109025Y640717D01*
X106349Y639608D01*
X104051Y637845D01*
X102288Y635547D01*
X101179Y632872D01*
X100801Y630000D01*
X101179Y627128D01*
X102288Y624453D01*
X104051Y622155D01*
X106349Y620392D01*
X108583Y619466D01*
Y587104D01*
X108835Y585836D01*
X109553Y584761D01*
X184436Y509878D01*
X184761Y508244D01*
X185756Y506756D01*
X187244Y505761D01*
X189000Y505412D01*
X190756Y505761D01*
X192244Y506756D01*
X193239Y508244D01*
X193588Y510000D01*
X193239Y511756D01*
X192244Y513244D01*
X190756Y514239D01*
X189123Y514564D01*
X115210Y588476D01*
Y619466D01*
X117444Y620392D01*
X119741Y622155D01*
X121505Y624453D01*
X122613Y627128D01*
X122991Y630000D01*
X122613Y632872D01*
X121505Y635547D01*
X119741Y637845D01*
X117444Y639608D01*
X114768Y640717D01*
X111896Y641095D01*
D02*
G37*
G36*
X450400Y524733D02*
X447881Y524402D01*
X445533Y523429D01*
X443517Y521883D01*
X441971Y519867D01*
X440998Y517519D01*
X440667Y515000D01*
X440998Y512481D01*
X441971Y510133D01*
X443517Y508118D01*
X445533Y506571D01*
X447881Y505598D01*
X450400Y505267D01*
X452919Y505598D01*
X455267Y506571D01*
X457282Y508118D01*
X458829Y510133D01*
X459802Y512481D01*
X460133Y515000D01*
X459802Y517519D01*
X458829Y519867D01*
X457282Y521883D01*
X455267Y523429D01*
X452919Y524402D01*
X450400Y524733D01*
D02*
G37*
G36*
X479130Y513730D02*
X470289D01*
X470472Y512340D01*
X471499Y509861D01*
X473132Y507732D01*
X475261Y506099D01*
X477740Y505072D01*
X479130Y504889D01*
Y513730D01*
D02*
G37*
G36*
X490511D02*
X481670D01*
Y504889D01*
X483060Y505072D01*
X485539Y506099D01*
X487668Y507732D01*
X489301Y509861D01*
X490328Y512340D01*
X490511Y513730D01*
D02*
G37*
G36*
X213497Y641094D02*
X210625Y640716D01*
X207950Y639608D01*
X205652Y637845D01*
X203889Y635547D01*
X202780Y632871D01*
X202402Y629999D01*
X202780Y627128D01*
X203889Y624452D01*
X205652Y622154D01*
X207950Y620391D01*
X210625Y619282D01*
X213497Y618904D01*
X216369Y619282D01*
X218602Y620208D01*
X286686Y552124D01*
Y488140D01*
X285761Y486756D01*
X285647Y486184D01*
X284353D01*
X284239Y486756D01*
X283314Y488140D01*
Y538096D01*
X283061Y539364D01*
X282343Y540439D01*
X197889Y624894D01*
X198814Y627128D01*
X199192Y629999D01*
X198814Y632871D01*
X197705Y635547D01*
X195942Y637845D01*
X193645Y639608D01*
X190969Y640716D01*
X188097Y641094D01*
X185226Y640716D01*
X182550Y639608D01*
X180252Y637845D01*
X178489Y635547D01*
X177380Y632871D01*
X177002Y629999D01*
X177380Y627128D01*
X178489Y624452D01*
X180252Y622154D01*
X182550Y620391D01*
X185226Y619282D01*
X188097Y618904D01*
X190969Y619282D01*
X193202Y620208D01*
X276686Y536724D01*
Y528048D01*
X275416Y527730D01*
X274404Y529624D01*
X272250Y532249D01*
X269624Y534404D01*
X266629Y536005D01*
X263380Y536991D01*
X260000Y537323D01*
X256620Y536991D01*
X253371Y536005D01*
X250376Y534404D01*
X247750Y532249D01*
X245596Y529624D01*
X243995Y526629D01*
X243009Y523380D01*
X242677Y520000D01*
X243009Y516620D01*
X243995Y513371D01*
X245010Y511472D01*
X243979Y510708D01*
X166011Y588675D01*
Y619465D01*
X168244Y620391D01*
X170542Y622154D01*
X172306Y624452D01*
X173414Y627128D01*
X173792Y629999D01*
X173414Y632871D01*
X172306Y635547D01*
X170542Y637845D01*
X168244Y639608D01*
X165569Y640716D01*
X162697Y641094D01*
X159825Y640716D01*
X157150Y639608D01*
X154852Y637845D01*
X153089Y635547D01*
X151980Y632871D01*
X151602Y629999D01*
X151980Y627128D01*
X153089Y624452D01*
X154852Y622154D01*
X157150Y620391D01*
X159383Y619465D01*
Y587303D01*
X159636Y586035D01*
X160354Y584960D01*
X250436Y494878D01*
X250761Y493244D01*
X251756Y491756D01*
X253244Y490761D01*
X255000Y490412D01*
X256756Y490761D01*
X258244Y491756D01*
X259239Y493244D01*
X259588Y495000D01*
X259239Y496756D01*
X258244Y498244D01*
X256756Y499239D01*
X255122Y499564D01*
X250708Y503979D01*
X251472Y505010D01*
X253371Y503995D01*
X256620Y503009D01*
X260000Y502677D01*
X263380Y503009D01*
X266629Y503995D01*
X269624Y505596D01*
X272250Y507751D01*
X274404Y510376D01*
X275416Y512270D01*
X276686Y511952D01*
Y488140D01*
X275761Y486756D01*
X275412Y485000D01*
X275761Y483244D01*
X276756Y481756D01*
X278244Y480761D01*
X280000Y480412D01*
X281756Y480761D01*
X283244Y481756D01*
X284239Y483244D01*
X284353Y483816D01*
X285647D01*
X285761Y483244D01*
X286756Y481756D01*
X288244Y480761D01*
X290000Y480412D01*
X291756Y480761D01*
X293244Y481756D01*
X294239Y483244D01*
X294588Y485000D01*
X294239Y486756D01*
X293314Y488140D01*
Y553496D01*
X293061Y554764D01*
X292343Y555839D01*
X230357Y617826D01*
X230843Y618999D01*
X245211D01*
X297676Y566534D01*
Y488140D01*
X296751Y486756D01*
X296402Y485000D01*
X296751Y483244D01*
X297746Y481756D01*
X299234Y480761D01*
X300990Y480412D01*
X302746Y480761D01*
X304234Y481756D01*
X305229Y483244D01*
X305578Y485000D01*
X305229Y486756D01*
X304304Y488140D01*
Y567906D01*
X304051Y569174D01*
X303333Y570249D01*
X249897Y623685D01*
Y640999D01*
X227897D01*
Y621945D01*
X226724Y621459D01*
X223289Y624894D01*
X224214Y627128D01*
X224592Y629999D01*
X224214Y632871D01*
X223106Y635547D01*
X221342Y637845D01*
X219044Y639608D01*
X216369Y640716D01*
X213497Y641094D01*
D02*
G37*
G36*
X90770Y446472D02*
Y436270D01*
X100972D01*
X100743Y438013D01*
X99580Y440820D01*
X97730Y443230D01*
X95320Y445080D01*
X92513Y446243D01*
X90770Y446472D01*
D02*
G37*
G36*
X88230Y446472D02*
X86488Y446243D01*
X83680Y445080D01*
X81270Y443230D01*
X79420Y440820D01*
X78257Y438013D01*
X78028Y436270D01*
X88230D01*
Y446472D01*
D02*
G37*
G36*
X120770Y416472D02*
Y406270D01*
X130972D01*
X130743Y408013D01*
X129580Y410820D01*
X127730Y413230D01*
X125320Y415080D01*
X122513Y416243D01*
X120770Y416472D01*
D02*
G37*
G36*
X118230Y416472D02*
X116488Y416243D01*
X113680Y415080D01*
X111270Y413230D01*
X109420Y410820D01*
X108257Y408013D01*
X108028Y406270D01*
X118230D01*
Y416472D01*
D02*
G37*
G36*
X130972Y403730D02*
X120770D01*
Y393528D01*
X122513Y393757D01*
X125320Y394920D01*
X127730Y396770D01*
X129580Y399180D01*
X130743Y401987D01*
X130972Y403730D01*
D02*
G37*
G36*
X118230D02*
X108028D01*
X108257Y401987D01*
X109420Y399180D01*
X111270Y396770D01*
X113680Y394920D01*
X116488Y393757D01*
X118230Y393528D01*
Y403730D01*
D02*
G37*
G36*
X119500Y386095D02*
X116628Y385717D01*
X113953Y384608D01*
X111655Y382845D01*
X109892Y380547D01*
X108783Y377872D01*
X108405Y375000D01*
X108783Y372128D01*
X109892Y369453D01*
X111655Y367155D01*
X113953Y365392D01*
X116628Y364283D01*
X119500Y363905D01*
X122372Y364283D01*
X125048Y365392D01*
X127345Y367155D01*
X129108Y369453D01*
X130217Y372128D01*
X130595Y375000D01*
X130217Y377872D01*
X129108Y380547D01*
X127345Y382845D01*
X125048Y384608D01*
X122372Y385717D01*
X119500Y386095D01*
D02*
G37*
G36*
X548000Y339060D02*
X546173Y338820D01*
X544470Y338115D01*
X543008Y336992D01*
X541885Y335530D01*
X541180Y333827D01*
X540940Y332000D01*
X541180Y330173D01*
X541885Y328470D01*
X543008Y327008D01*
X544470Y325886D01*
X546173Y325180D01*
X548000Y324940D01*
X549827Y325180D01*
X551530Y325886D01*
X552992Y327008D01*
X554114Y328470D01*
X554820Y330173D01*
X555060Y332000D01*
X554820Y333827D01*
X554114Y335530D01*
X552992Y336992D01*
X551530Y338115D01*
X549827Y338820D01*
X548000Y339060D01*
D02*
G37*
G36*
X203200Y385588D02*
X201444Y385239D01*
X199956Y384244D01*
X198961Y382756D01*
X198612Y381000D01*
X198961Y379244D01*
X199886Y377859D01*
Y356870D01*
X200139Y355602D01*
X200857Y354527D01*
X235147Y320237D01*
X236222Y319519D01*
X237490Y319266D01*
X243239D01*
X244624Y318341D01*
X246380Y317992D01*
X248136Y318341D01*
X249624Y319336D01*
X250619Y320824D01*
X250968Y322580D01*
X250619Y324336D01*
X249624Y325824D01*
X248136Y326819D01*
X246380Y327168D01*
X244624Y326819D01*
X243239Y325894D01*
X238863D01*
X206514Y358242D01*
Y377859D01*
X207439Y379244D01*
X207788Y381000D01*
X207439Y382756D01*
X206444Y384244D01*
X204956Y385239D01*
X203200Y385588D01*
D02*
G37*
G36*
X412750Y323358D02*
X410994Y323009D01*
X409506Y322014D01*
X408511Y320526D01*
X408162Y318770D01*
X408511Y317014D01*
X409506Y315526D01*
X410994Y314531D01*
X412628Y314206D01*
X433566Y293267D01*
Y269841D01*
X432641Y268456D01*
X432292Y266700D01*
X432641Y264944D01*
X433636Y263456D01*
X435124Y262461D01*
X436880Y262112D01*
X438636Y262461D01*
X440124Y263456D01*
X441119Y264944D01*
X441468Y266700D01*
X441119Y268456D01*
X440194Y269841D01*
Y294640D01*
X439941Y295908D01*
X439223Y296983D01*
X417314Y318892D01*
X416989Y320526D01*
X415994Y322014D01*
X414506Y323009D01*
X412750Y323358D01*
D02*
G37*
G36*
X408000Y240588D02*
X406244Y240239D01*
X404756Y239244D01*
X403761Y237756D01*
X403436Y236122D01*
X400627Y233314D01*
X384141D01*
X382756Y234239D01*
X381000Y234588D01*
X379244Y234239D01*
X377756Y233244D01*
X376761Y231756D01*
X376412Y230000D01*
X376761Y228244D01*
X377756Y226756D01*
X379244Y225761D01*
X381000Y225412D01*
X382756Y225761D01*
X384141Y226686D01*
X402000D01*
X403268Y226939D01*
X404343Y227657D01*
X408122Y231436D01*
X409756Y231761D01*
X411244Y232756D01*
X412239Y234244D01*
X412588Y236000D01*
X412239Y237756D01*
X411244Y239244D01*
X409756Y240239D01*
X408000Y240588D01*
D02*
G37*
G36*
X372000Y291588D02*
X370244Y291239D01*
X368756Y290244D01*
X367761Y288756D01*
X367412Y287000D01*
X367761Y285244D01*
X368756Y283756D01*
X370244Y282761D01*
X372000Y282412D01*
X373756Y282761D01*
X375140Y283686D01*
X391627D01*
X464686Y210627D01*
Y183373D01*
X463878Y182564D01*
X462244Y182239D01*
X460756Y181244D01*
X459761Y179756D01*
X459412Y178000D01*
X459761Y176244D01*
X460756Y174756D01*
X462244Y173761D01*
X464000Y173412D01*
X465756Y173761D01*
X467244Y174756D01*
X468239Y176244D01*
X468564Y177878D01*
X470343Y179657D01*
X471061Y180732D01*
X471314Y182000D01*
Y212000D01*
X471061Y213268D01*
X470343Y214343D01*
X395343Y289343D01*
X394268Y290061D01*
X393000Y290314D01*
X375140D01*
X373756Y291239D01*
X372000Y291588D01*
D02*
G37*
G36*
X328270Y176973D02*
Y166770D01*
X338472D01*
X338243Y168513D01*
X337080Y171320D01*
X335230Y173731D01*
X332820Y175581D01*
X330013Y176743D01*
X328270Y176973D01*
D02*
G37*
G36*
X325730D02*
X323987Y176743D01*
X321180Y175581D01*
X318769Y173731D01*
X316920Y171320D01*
X315757Y168513D01*
X315528Y166770D01*
X325730D01*
Y176973D01*
D02*
G37*
G36*
X457200Y353838D02*
X455444Y353489D01*
X453956Y352494D01*
X452961Y351006D01*
X452612Y349250D01*
X452961Y347494D01*
X453956Y346006D01*
X455444Y345011D01*
X457078Y344686D01*
X538976Y262787D01*
Y77210D01*
X539229Y75942D01*
X539947Y74867D01*
X545809Y69005D01*
X544884Y66771D01*
X544506Y63900D01*
X544884Y61028D01*
X545992Y58352D01*
X547756Y56054D01*
X550053Y54291D01*
X552729Y53183D01*
X555601Y52805D01*
X558472Y53183D01*
X561148Y54291D01*
X563446Y56054D01*
X565209Y58352D01*
X566318Y61028D01*
X566696Y63900D01*
X566318Y66771D01*
X565209Y69447D01*
X563446Y71745D01*
X561148Y73508D01*
X558472Y74616D01*
X555601Y74995D01*
X552729Y74616D01*
X550495Y73691D01*
X545604Y78583D01*
Y82172D01*
X546874Y82604D01*
X547756Y81454D01*
X550053Y79691D01*
X552729Y78583D01*
X555601Y78205D01*
X558472Y78583D01*
X561148Y79691D01*
X563446Y81454D01*
X565209Y83752D01*
X566318Y86428D01*
X566696Y89300D01*
X566318Y92171D01*
X565209Y94847D01*
X563446Y97145D01*
X561148Y98908D01*
X558472Y100016D01*
X555601Y100394D01*
X552729Y100016D01*
X550053Y98908D01*
X547756Y97145D01*
X546874Y95996D01*
X545604Y96427D01*
Y107572D01*
X546874Y108004D01*
X547756Y106854D01*
X550053Y105091D01*
X552729Y103983D01*
X555601Y103605D01*
X558472Y103983D01*
X561148Y105091D01*
X563446Y106854D01*
X565209Y109152D01*
X566318Y111828D01*
X566696Y114700D01*
X566318Y117571D01*
X565209Y120247D01*
X563446Y122545D01*
X561148Y124308D01*
X558472Y125416D01*
X555601Y125794D01*
X552729Y125416D01*
X550053Y124308D01*
X547756Y122545D01*
X546874Y121396D01*
X545604Y121827D01*
Y132972D01*
X546874Y133403D01*
X547754Y132256D01*
X550052Y130493D01*
X552728Y129384D01*
X555599Y129006D01*
X558471Y129384D01*
X561147Y130493D01*
X563444Y132256D01*
X565208Y134554D01*
X566316Y137230D01*
X566694Y140101D01*
X566316Y142973D01*
X565208Y145649D01*
X563444Y147947D01*
X561147Y149710D01*
X558471Y150818D01*
X555599Y151196D01*
X552728Y150818D01*
X550052Y149710D01*
X547754Y147947D01*
X546874Y146799D01*
X545604Y147231D01*
Y158372D01*
X546874Y158803D01*
X547755Y157655D01*
X550052Y155892D01*
X552728Y154784D01*
X555600Y154405D01*
X558471Y154784D01*
X561147Y155892D01*
X563445Y157655D01*
X565208Y159953D01*
X566317Y162629D01*
X566695Y165500D01*
X566317Y168372D01*
X565208Y171048D01*
X563445Y173346D01*
X561147Y175109D01*
X558471Y176217D01*
X555600Y176595D01*
X552728Y176217D01*
X550052Y175109D01*
X547755Y173346D01*
X546874Y172197D01*
X545604Y172629D01*
Y264160D01*
X545351Y265428D01*
X544633Y266503D01*
X461764Y349372D01*
X461439Y351006D01*
X460444Y352494D01*
X458956Y353489D01*
X457200Y353838D01*
D02*
G37*
G36*
X338472Y164230D02*
X328270D01*
Y154028D01*
X330013Y154257D01*
X332820Y155420D01*
X335230Y157270D01*
X337080Y159681D01*
X338243Y162488D01*
X338472Y164230D01*
D02*
G37*
G36*
X325730D02*
X315528D01*
X315757Y162488D01*
X316920Y159681D01*
X318769Y157270D01*
X321180Y155420D01*
X323987Y154257D01*
X325730Y154028D01*
Y164230D01*
D02*
G37*
G36*
X239000Y220000D02*
X237244Y219651D01*
X235756Y218656D01*
X234761Y217168D01*
X234412Y215412D01*
X234761Y213656D01*
X235686Y212271D01*
Y30999D01*
X227897D01*
Y8999D01*
X249897D01*
Y30999D01*
X242314D01*
Y144539D01*
X243584Y144727D01*
X243995Y143371D01*
X245596Y140376D01*
X247750Y137751D01*
X250376Y135596D01*
X253371Y133995D01*
X256620Y133010D01*
X260000Y132677D01*
X263380Y133010D01*
X266629Y133995D01*
X269624Y135596D01*
X272250Y137751D01*
X274404Y140376D01*
X276005Y143371D01*
X276991Y146620D01*
X277323Y150000D01*
X276991Y153380D01*
X276005Y156629D01*
X274404Y159624D01*
X272250Y162250D01*
X269624Y164404D01*
X266629Y166005D01*
X263380Y166991D01*
X260000Y167323D01*
X256620Y166991D01*
X253371Y166005D01*
X250376Y164404D01*
X247750Y162250D01*
X245596Y159624D01*
X243995Y156629D01*
X243584Y155273D01*
X242314Y155461D01*
Y212271D01*
X243239Y213656D01*
X243588Y215412D01*
X243239Y217168D01*
X242244Y218656D01*
X240756Y219651D01*
X239000Y220000D01*
D02*
G37*
G36*
X326999Y151196D02*
X324128Y150818D01*
X321452Y149710D01*
X319154Y147947D01*
X317391Y145649D01*
X316282Y142973D01*
X315904Y140101D01*
X316282Y137230D01*
X317391Y134554D01*
X319154Y132256D01*
X321452Y130493D01*
X324128Y129384D01*
X326999Y129006D01*
X329871Y129384D01*
X332547Y130493D01*
X334844Y132256D01*
X336608Y134554D01*
X337716Y137230D01*
X338094Y140101D01*
X337716Y142973D01*
X336608Y145649D01*
X334844Y147947D01*
X332547Y149710D01*
X329871Y150818D01*
X326999Y151196D01*
D02*
G37*
G36*
X327001Y125794D02*
X324129Y125416D01*
X321453Y124308D01*
X319156Y122545D01*
X317392Y120247D01*
X316284Y117571D01*
X315906Y114700D01*
X316284Y111828D01*
X317392Y109152D01*
X319156Y106854D01*
X321453Y105091D01*
X324129Y103983D01*
X327001Y103605D01*
X329872Y103983D01*
X332548Y105091D01*
X334846Y106854D01*
X336609Y109152D01*
X337718Y111828D01*
X338096Y114700D01*
X337718Y117571D01*
X336609Y120247D01*
X334846Y122545D01*
X332548Y124308D01*
X329872Y125416D01*
X327001Y125794D01*
D02*
G37*
G36*
X449370Y91472D02*
Y81270D01*
X459572D01*
X459343Y83013D01*
X458180Y85820D01*
X456330Y88230D01*
X453920Y90080D01*
X451113Y91243D01*
X449370Y91472D01*
D02*
G37*
G36*
X423970D02*
Y81270D01*
X434172D01*
X433943Y83013D01*
X432780Y85820D01*
X430930Y88230D01*
X428520Y90080D01*
X425713Y91243D01*
X423970Y91472D01*
D02*
G37*
G36*
X446830Y91472D02*
X445088Y91243D01*
X442280Y90080D01*
X439870Y88230D01*
X438020Y85820D01*
X436857Y83013D01*
X436628Y81270D01*
X446830D01*
Y91472D01*
D02*
G37*
G36*
X421430D02*
X419688Y91243D01*
X416880Y90080D01*
X414470Y88230D01*
X412620Y85820D01*
X411457Y83013D01*
X411228Y81270D01*
X421430D01*
Y91472D01*
D02*
G37*
G36*
X327001Y100394D02*
X324129Y100016D01*
X321453Y98908D01*
X319156Y97145D01*
X317392Y94847D01*
X316284Y92171D01*
X315906Y89300D01*
X316284Y86428D01*
X317392Y83752D01*
X319156Y81454D01*
X321453Y79691D01*
X324129Y78583D01*
X327001Y78205D01*
X329872Y78583D01*
X332548Y79691D01*
X334846Y81454D01*
X336609Y83752D01*
X337718Y86428D01*
X338096Y89300D01*
X337718Y92171D01*
X336609Y94847D01*
X334846Y97145D01*
X332548Y98908D01*
X329872Y100016D01*
X327001Y100394D01*
D02*
G37*
G36*
X480000Y239588D02*
X478244Y239239D01*
X476756Y238244D01*
X475761Y236756D01*
X475412Y235000D01*
X475761Y233244D01*
X476756Y231756D01*
X490412Y218099D01*
Y161901D01*
X459100Y130588D01*
X384000D01*
X382244Y130239D01*
X380756Y129244D01*
X349756Y98244D01*
X348761Y96756D01*
X348412Y95000D01*
Y79000D01*
X348761Y77244D01*
X349756Y75756D01*
X351244Y74761D01*
X353000Y74412D01*
X354756Y74761D01*
X356244Y75756D01*
X357239Y77244D01*
X357588Y79000D01*
Y93099D01*
X385900Y121412D01*
X461000D01*
X462756Y121761D01*
X464244Y122756D01*
X498244Y156756D01*
X499239Y158244D01*
X499588Y160000D01*
Y220000D01*
X499239Y221756D01*
X498244Y223244D01*
X483244Y238244D01*
X481756Y239239D01*
X480000Y239588D01*
D02*
G37*
G36*
X216000Y210588D02*
X214244Y210239D01*
X212756Y209244D01*
X211761Y207756D01*
X211412Y206000D01*
X211761Y204244D01*
X212686Y202859D01*
Y93373D01*
X193627Y74314D01*
X188141D01*
X186756Y75239D01*
X185000Y75588D01*
X183244Y75239D01*
X181756Y74244D01*
X180761Y72756D01*
X180412Y71000D01*
X180761Y69244D01*
X181756Y67756D01*
X183244Y66761D01*
X185000Y66412D01*
X186756Y66761D01*
X188141Y67686D01*
X195000D01*
X196268Y67939D01*
X197343Y68657D01*
X218343Y89657D01*
X219061Y90732D01*
X219314Y92000D01*
Y202859D01*
X220239Y204244D01*
X220588Y206000D01*
X220239Y207756D01*
X219244Y209244D01*
X217756Y210239D01*
X216000Y210588D01*
D02*
G37*
G36*
X382900Y91000D02*
X360900D01*
Y69000D01*
X382900D01*
Y91000D01*
D02*
G37*
G36*
X397300Y91095D02*
X394428Y90717D01*
X391753Y89608D01*
X389455Y87845D01*
X387691Y85547D01*
X386583Y82872D01*
X386205Y80000D01*
X386583Y77128D01*
X387691Y74453D01*
X389455Y72155D01*
X391753Y70392D01*
X394428Y69283D01*
X397300Y68905D01*
X400172Y69283D01*
X402848Y70392D01*
X405145Y72155D01*
X406908Y74453D01*
X408017Y77128D01*
X408395Y80000D01*
X408017Y82872D01*
X406908Y85547D01*
X405145Y87845D01*
X402848Y89608D01*
X400172Y90717D01*
X397300Y91095D01*
D02*
G37*
G36*
X459572Y78730D02*
X449370D01*
Y68528D01*
X451113Y68757D01*
X453920Y69920D01*
X456330Y71770D01*
X458180Y74180D01*
X459343Y76988D01*
X459572Y78730D01*
D02*
G37*
G36*
X434172D02*
X423970D01*
Y68528D01*
X425713Y68757D01*
X428520Y69920D01*
X430930Y71770D01*
X432780Y74180D01*
X433943Y76988D01*
X434172Y78730D01*
D02*
G37*
G36*
X446830D02*
X436628D01*
X436857Y76988D01*
X438020Y74180D01*
X439870Y71770D01*
X442280Y69920D01*
X445088Y68757D01*
X446830Y68528D01*
Y78730D01*
D02*
G37*
G36*
X421430D02*
X411228D01*
X411457Y76988D01*
X412620Y74180D01*
X414470Y71770D01*
X416880Y69920D01*
X419688Y68757D01*
X421430Y68528D01*
Y78730D01*
D02*
G37*
G36*
X327001Y74995D02*
X324129Y74616D01*
X321453Y73508D01*
X319156Y71745D01*
X317392Y69447D01*
X316284Y66771D01*
X315906Y63900D01*
X316284Y61028D01*
X317392Y58352D01*
X319156Y56054D01*
X321453Y54291D01*
X324129Y53183D01*
X327001Y52805D01*
X329872Y53183D01*
X332548Y54291D01*
X334846Y56054D01*
X336609Y58352D01*
X337718Y61028D01*
X338096Y63900D01*
X337718Y66771D01*
X336609Y69447D01*
X334846Y71745D01*
X332548Y73508D01*
X329872Y74616D01*
X327001Y74995D01*
D02*
G37*
G36*
X35000Y66060D02*
X33173Y65820D01*
X31470Y65114D01*
X30008Y63992D01*
X28886Y62530D01*
X28180Y60827D01*
X27940Y59000D01*
X28180Y57173D01*
X28886Y55470D01*
X30008Y54008D01*
X31470Y52885D01*
X33173Y52180D01*
X35000Y51940D01*
X36827Y52180D01*
X38530Y52885D01*
X39992Y54008D01*
X41115Y55470D01*
X41820Y57173D01*
X42060Y59000D01*
X41820Y60827D01*
X41115Y62530D01*
X39992Y63992D01*
X38530Y65114D01*
X36827Y65820D01*
X35000Y66060D01*
D02*
G37*
G36*
X338001Y49500D02*
X316001D01*
Y27500D01*
X338001D01*
Y49500D01*
D02*
G37*
G36*
X113166Y31472D02*
Y21270D01*
X123369D01*
X123139Y23013D01*
X121976Y25820D01*
X120127Y28230D01*
X117716Y30080D01*
X114909Y31243D01*
X113166Y31472D01*
D02*
G37*
G36*
X110626D02*
X108884Y31243D01*
X106076Y30080D01*
X103666Y28230D01*
X101816Y25820D01*
X100653Y23013D01*
X100424Y21270D01*
X110626D01*
Y31472D01*
D02*
G37*
G36*
X62367D02*
Y21270D01*
X72569D01*
X72340Y23013D01*
X71177Y25820D01*
X69327Y28230D01*
X66916Y30080D01*
X64109Y31243D01*
X62367Y31472D01*
D02*
G37*
G36*
X59827D02*
X58084Y31243D01*
X55277Y30080D01*
X52866Y28230D01*
X51017Y25820D01*
X49854Y23013D01*
X49624Y21270D01*
X59827D01*
Y31472D01*
D02*
G37*
G36*
X163967Y31472D02*
Y21269D01*
X174169D01*
X173940Y23012D01*
X172777Y25819D01*
X170928Y28230D01*
X168517Y30079D01*
X165710Y31242D01*
X163967Y31472D01*
D02*
G37*
G36*
X161427D02*
X159684Y31242D01*
X156877Y30079D01*
X154467Y28230D01*
X152617Y25819D01*
X151454Y23012D01*
X151225Y21269D01*
X161427D01*
Y31472D01*
D02*
G37*
G36*
X86497Y31095D02*
X83625Y30717D01*
X80949Y29609D01*
X78651Y27845D01*
X76888Y25547D01*
X75780Y22872D01*
X75402Y20000D01*
X75780Y17128D01*
X76888Y14453D01*
X78651Y12155D01*
X80949Y10391D01*
X83625Y9283D01*
X86497Y8905D01*
X89368Y9283D01*
X92044Y10391D01*
X94342Y12155D01*
X96105Y14453D01*
X97213Y17128D01*
X97591Y20000D01*
X97213Y22872D01*
X96105Y25547D01*
X94342Y27845D01*
X92044Y29609D01*
X89368Y30717D01*
X86497Y31095D01*
D02*
G37*
G36*
X188097Y31094D02*
X185226Y30716D01*
X182550Y29608D01*
X180252Y27845D01*
X178489Y25547D01*
X177380Y22871D01*
X177002Y19999D01*
X177380Y17128D01*
X178489Y14452D01*
X180252Y12154D01*
X182550Y10391D01*
X185226Y9282D01*
X188097Y8904D01*
X190969Y9282D01*
X193645Y10391D01*
X195942Y12154D01*
X197705Y14452D01*
X198814Y17128D01*
X199192Y19999D01*
X198814Y22871D01*
X197705Y25547D01*
X195942Y27845D01*
X193645Y29608D01*
X190969Y30716D01*
X188097Y31094D01*
D02*
G37*
G36*
X123369Y18730D02*
X113166D01*
Y8528D01*
X114909Y8757D01*
X117716Y9920D01*
X120127Y11770D01*
X121976Y14180D01*
X123139Y16988D01*
X123369Y18730D01*
D02*
G37*
G36*
X110626D02*
X100424D01*
X100653Y16988D01*
X101816Y14180D01*
X103666Y11770D01*
X106076Y9920D01*
X108884Y8757D01*
X110626Y8528D01*
Y18730D01*
D02*
G37*
G36*
X72569D02*
X62367D01*
Y8528D01*
X64109Y8757D01*
X66916Y9920D01*
X69327Y11770D01*
X71177Y14180D01*
X72340Y16988D01*
X72569Y18730D01*
D02*
G37*
G36*
X59827D02*
X49624D01*
X49854Y16988D01*
X51017Y14180D01*
X52866Y11770D01*
X55277Y9920D01*
X58084Y8757D01*
X59827Y8528D01*
Y18730D01*
D02*
G37*
G36*
X174169Y18729D02*
X163967D01*
Y8527D01*
X165710Y8756D01*
X168517Y9919D01*
X170928Y11769D01*
X172777Y14179D01*
X173940Y16987D01*
X174169Y18729D01*
D02*
G37*
G36*
X161427D02*
X151225D01*
X151454Y16987D01*
X152617Y14179D01*
X154467Y11769D01*
X156877Y9919D01*
X159684Y8756D01*
X161427Y8527D01*
Y18729D01*
D02*
G37*
G36*
X120771Y286472D02*
Y276270D01*
X130973D01*
X130744Y278013D01*
X129581Y280820D01*
X127731Y283230D01*
X125320Y285080D01*
X122513Y286243D01*
X120771Y286472D01*
D02*
G37*
G36*
X118230Y286472D02*
X116488Y286243D01*
X113681Y285080D01*
X111270Y283230D01*
X109420Y280820D01*
X108258Y278013D01*
X108028Y276270D01*
X118230D01*
Y286472D01*
D02*
G37*
G36*
X90771Y286472D02*
Y276270D01*
X100973D01*
X100744Y278013D01*
X99581Y280820D01*
X97731Y283230D01*
X95320Y285080D01*
X92513Y286243D01*
X90771Y286472D01*
D02*
G37*
G36*
X88231D02*
X86488Y286243D01*
X83681Y285080D01*
X81270Y283230D01*
X79420Y280820D01*
X78258Y278013D01*
X78028Y276270D01*
X88231D01*
Y286472D01*
D02*
G37*
G36*
X118230Y273730D02*
X108028D01*
X108258Y271987D01*
X109420Y269180D01*
X111270Y266770D01*
X113681Y264920D01*
X116488Y263757D01*
X118230Y263528D01*
Y273730D01*
D02*
G37*
G36*
X100973Y273730D02*
X90771D01*
Y263528D01*
X92513Y263757D01*
X95320Y264920D01*
X97731Y266770D01*
X99581Y269180D01*
X100744Y271987D01*
X100973Y273730D01*
D02*
G37*
G36*
X88231D02*
X78028D01*
X78258Y271987D01*
X79420Y269180D01*
X81270Y266770D01*
X83681Y264920D01*
X86488Y263757D01*
X88231Y263528D01*
Y273730D01*
D02*
G37*
G36*
X130973Y273730D02*
X120771D01*
Y263528D01*
X122513Y263757D01*
X125320Y264920D01*
X127731Y266770D01*
X129581Y269180D01*
X130744Y271987D01*
X130973Y273730D01*
D02*
G37*
G36*
X119501Y256095D02*
X116629Y255717D01*
X113953Y254608D01*
X111655Y252845D01*
X109892Y250548D01*
X108784Y247872D01*
X108406Y245000D01*
X108784Y242128D01*
X109892Y239453D01*
X111655Y237155D01*
X113953Y235392D01*
X116629Y234283D01*
X119501Y233905D01*
X122372Y234283D01*
X125048Y235392D01*
X127346Y237155D01*
X129109Y239453D01*
X130217Y242128D01*
X130596Y245000D01*
X130217Y247872D01*
X129109Y250548D01*
X127346Y252845D01*
X125048Y254608D01*
X122372Y255717D01*
X119501Y256095D01*
D02*
G37*
G36*
X89501D02*
X86629Y255717D01*
X83953Y254608D01*
X81655Y252845D01*
X79892Y250548D01*
X78784Y247872D01*
X78406Y245000D01*
X78784Y242128D01*
X79892Y239453D01*
X81655Y237155D01*
X83953Y235392D01*
X86629Y234283D01*
X89501Y233905D01*
X92372Y234283D01*
X95048Y235392D01*
X97346Y237155D01*
X99109Y239453D01*
X100217Y242128D01*
X100596Y245000D01*
X100217Y247872D01*
X99109Y250548D01*
X97346Y252845D01*
X95048Y254608D01*
X92372Y255717D01*
X89501Y256095D01*
D02*
G37*
G36*
Y226095D02*
X86629Y225717D01*
X83953Y224608D01*
X81655Y222845D01*
X79892Y220548D01*
X78784Y217872D01*
X78406Y215000D01*
X78784Y212129D01*
X79892Y209453D01*
X81655Y207155D01*
X83953Y205392D01*
X86629Y204283D01*
X89501Y203905D01*
X92372Y204283D01*
X95048Y205392D01*
X97346Y207155D01*
X99109Y209453D01*
X100217Y212129D01*
X100596Y215000D01*
X100217Y217872D01*
X99109Y220548D01*
X97346Y222845D01*
X95048Y224608D01*
X92372Y225717D01*
X89501Y226095D01*
D02*
G37*
%LPD*%
D10*
X357000Y476000D02*
X364270Y483270D01*
X384886D01*
D12*
X468000Y182000D02*
Y212000D01*
X393000Y287000D02*
X468000Y212000D01*
X439420Y353060D02*
X530000Y262480D01*
Y64100D02*
X547851Y46250D01*
X530000Y64100D02*
Y262480D01*
X547851Y46250D02*
X555601Y38500D01*
X547851Y46250D02*
X547851D01*
X143381Y71120D02*
X162000D01*
X116441Y98060D02*
X143381Y71120D01*
X144000Y269000D02*
Y272000D01*
X178000Y274000D02*
Y290636D01*
X187960Y300596D01*
X239000Y20102D02*
Y215412D01*
X238897Y19999D02*
X239000Y20102D01*
X385000Y452000D02*
X385676D01*
X387677Y454000D01*
X400000D01*
X336550Y374650D02*
Y420550D01*
X350520Y434520D02*
Y448310D01*
X336550Y420550D02*
X350520Y434520D01*
X248000Y424000D02*
X264000D01*
X273000Y415000D01*
X195000Y71000D02*
X216000Y92000D01*
Y206000D01*
X187960Y300596D02*
Y345440D01*
X102500Y452000D02*
X135000D01*
X89500Y465000D02*
X102500Y452000D01*
X135000D02*
X148590Y438410D01*
Y368935D02*
Y438410D01*
X112500Y352000D02*
X113000D01*
X89500Y375000D02*
X112500Y352000D01*
X25000Y362350D02*
X51350Y336000D01*
X25000Y593903D02*
X61097Y630000D01*
X25000Y362350D02*
Y593903D01*
X19000Y141000D02*
X60000Y100000D01*
X19000Y141000D02*
Y420000D01*
X372000Y287000D02*
X393000D01*
X464000Y178000D02*
X468000Y182000D01*
X381000Y230000D02*
X402000D01*
X408000Y236000D01*
X27000Y193000D02*
X80000Y140000D01*
X27000Y193000D02*
Y350000D01*
X60000Y100000D02*
X110000D01*
X146000Y570000D02*
X146000D01*
X206000Y510000D01*
X111896Y587104D02*
Y630000D01*
Y587104D02*
X189000Y510000D01*
X162697Y587303D02*
Y629999D01*
Y587303D02*
X255000Y495000D01*
X137160Y629865D02*
X137295Y630001D01*
X137160Y595630D02*
Y629865D01*
X188097Y629999D02*
X280000Y538096D01*
Y485000D02*
Y538096D01*
X213497Y629999D02*
X290000Y553496D01*
Y485000D02*
Y553496D01*
X238897Y629999D02*
X300990Y567906D01*
Y485000D02*
Y567906D01*
X51350Y336000D02*
X83000D01*
X80000Y140000D02*
X104501D01*
X119501Y155000D01*
Y109501D02*
Y125000D01*
X110000Y100000D02*
X119501Y109501D01*
X185000Y71000D02*
X195000D01*
X487680Y467360D02*
X495300Y459740D01*
X325120Y440690D02*
X351790Y467360D01*
X487680D01*
X325120Y369570D02*
Y440690D01*
X317500Y361950D02*
X325120Y369570D01*
X447040Y433070D02*
X495300D01*
X369570Y355600D02*
X447040Y433070D01*
X323850Y355600D02*
X369570D01*
X427990Y406400D02*
X495300D01*
X370840Y349250D02*
X427990Y406400D01*
X330200Y349250D02*
X370840D01*
X237490Y322580D02*
X246380D01*
X203200Y356870D02*
Y381000D01*
Y356870D02*
X237490Y322580D01*
X186690Y355600D02*
X245110Y297180D01*
X259080D01*
X161925Y355600D02*
X186690D01*
X219365Y219365D02*
X228600Y228600D01*
X209205Y219365D02*
X219365D01*
X198120Y233680D02*
X222250D01*
X179070Y214630D02*
X198120Y233680D01*
X179070Y203200D02*
Y214630D01*
X383540Y353060D02*
X439420D01*
X542290Y77210D02*
Y264160D01*
X457200Y349250D02*
X542290Y264160D01*
Y77210D02*
X555601Y63900D01*
X266700Y254000D02*
X304800Y292100D01*
X171450Y62046D02*
X213497Y19999D01*
X171450Y62046D02*
Y171450D01*
Y191770D02*
Y247650D01*
X187960Y361950D02*
Y412750D01*
X114300Y336550D02*
X146050D01*
X312420Y368300D02*
Y420370D01*
X137160Y595630D02*
X312420Y420370D01*
X367030Y365760D02*
X373380D01*
X378460Y370840D02*
Y459740D01*
X373380Y365760D02*
X378460Y370840D01*
X345440Y365760D02*
X351790D01*
X336550Y374650D02*
X345440Y365760D01*
X355600Y407670D02*
X369570Y421640D01*
Y449580D01*
X359410Y421640D02*
Y449580D01*
X350520Y412750D02*
X359410Y421640D01*
X412750Y318770D02*
X436880Y294640D01*
Y266700D02*
Y294640D01*
X330200Y281940D02*
X339090D01*
X317500Y269240D02*
X330200Y281940D01*
X317500Y250190D02*
Y269240D01*
X313690Y280670D02*
X318770D01*
X308610Y275590D02*
X313690Y280670D01*
X308610Y248920D02*
Y275590D01*
X299720Y240030D02*
X308610Y248920D01*
X85090Y480060D02*
X146050D01*
X330992Y292578D02*
X331470Y292100D01*
X330992Y292578D02*
Y295118D01*
X146050Y480060D02*
X330992Y295118D01*
X165100Y495300D02*
X318770Y341630D01*
X372110D01*
X119500Y525000D02*
X311760Y332740D01*
X382270D01*
X73660Y509160D02*
X89500Y525000D01*
X73660Y491490D02*
Y509160D01*
Y491490D02*
X85090Y480060D01*
X89500Y495000D02*
X103770Y509270D01*
X127000D02*
X318770Y317500D01*
X103770Y509270D02*
X127000D01*
X318770Y317500D02*
X382270D01*
X148590Y368935D02*
X161925Y355600D01*
X325120Y285750D02*
X325199D01*
X145870Y465000D02*
X325120Y285750D01*
X119500Y465000D02*
X145870D01*
X189230Y240030D02*
X299720D01*
X67310Y408940D02*
X80010Y421640D01*
X106140D02*
X119500Y435000D01*
X80010Y421640D02*
X106140D01*
X67310Y361950D02*
Y408940D01*
Y361950D02*
X189230Y240030D01*
X76200Y391700D02*
X89500Y405000D01*
X76200Y361950D02*
Y391700D01*
Y361950D02*
X191770Y246380D01*
X293370D02*
X302260Y255270D01*
X191770Y246380D02*
X293370D01*
X105951Y171450D02*
X139700D01*
X89501Y155000D02*
X105951Y171450D01*
X153670Y200660D02*
X191770Y162560D01*
X89501Y185000D02*
X105161Y200660D01*
X153670D01*
D18*
X348000Y592000D02*
D03*
X548000Y332000D02*
D03*
X35000Y59000D02*
D03*
D50*
X353000Y79000D02*
D03*
X480000Y235000D02*
D03*
X87000Y91000D02*
D03*
X159000Y253000D02*
D03*
X116441Y98060D02*
D03*
X162000Y71120D02*
D03*
X139000Y316000D02*
D03*
X178000Y274000D02*
D03*
X239000Y215412D02*
D03*
X400000Y454000D02*
D03*
X385000Y452000D02*
D03*
X248000Y424000D02*
D03*
X210000Y265000D02*
D03*
X216000Y206000D02*
D03*
X141448Y146941D02*
D03*
X21000Y620000D02*
D03*
X188326Y485240D02*
D03*
X137000Y405000D02*
D03*
Y380000D02*
D03*
Y355000D02*
D03*
X173000Y344000D02*
D03*
X262840Y337160D02*
D03*
X196000Y109000D02*
D03*
X160000Y117000D02*
D03*
X433000Y26000D02*
D03*
X317000Y464000D02*
D03*
X35000Y329000D02*
D03*
X113000Y352000D02*
D03*
X10000Y340000D02*
D03*
X402000Y135000D02*
D03*
X372000Y287000D02*
D03*
X464000Y178000D02*
D03*
X408000Y236000D02*
D03*
X381000Y230000D02*
D03*
X384886Y483270D02*
D03*
X357000Y476000D02*
D03*
X434000Y102000D02*
D03*
X407000Y110000D02*
D03*
X461000Y111000D02*
D03*
X452000Y142000D02*
D03*
X413000Y197000D02*
D03*
X469000Y395000D02*
D03*
X448000Y328000D02*
D03*
X427976Y328123D02*
D03*
X471000Y243000D02*
D03*
X358000Y280000D02*
D03*
X369000Y256000D02*
D03*
X418000Y242000D02*
D03*
X428000Y268000D02*
D03*
X396000Y258000D02*
D03*
X338000Y200000D02*
D03*
X319000D02*
D03*
X291000Y205000D02*
D03*
X283000Y220000D02*
D03*
X255000Y268000D02*
D03*
X295000Y376000D02*
D03*
X273000Y440000D02*
D03*
Y415000D02*
D03*
X295000Y420000D02*
D03*
X352000Y485000D02*
D03*
X363000Y501000D02*
D03*
X355000D02*
D03*
X344000D02*
D03*
X330000Y510000D02*
D03*
X395000Y400000D02*
D03*
X561000Y396000D02*
D03*
Y425000D02*
D03*
Y450000D02*
D03*
X27000Y350000D02*
D03*
X19000Y420000D02*
D03*
X146000Y570000D02*
D03*
X206000Y510000D02*
D03*
X189000Y510000D02*
D03*
X255000Y495000D02*
D03*
X280000Y485000D02*
D03*
X290000D02*
D03*
X300990D02*
D03*
X83000Y336000D02*
D03*
X185000Y71000D02*
D03*
X495300Y459740D02*
D03*
X317500Y361950D02*
D03*
X495300Y433070D02*
D03*
X323850Y355600D02*
D03*
X495300Y406400D02*
D03*
X330200Y349250D02*
D03*
X246380Y322580D02*
D03*
X203200Y381000D02*
D03*
X259080Y297180D02*
D03*
X209205Y219365D02*
D03*
X222250Y233680D02*
D03*
X179070Y203200D02*
D03*
X228600Y228600D02*
D03*
X383540Y353060D02*
D03*
X457200Y349250D02*
D03*
X266700Y254000D02*
D03*
X304800Y292100D02*
D03*
X171450Y171450D02*
D03*
Y191770D02*
D03*
Y247650D02*
D03*
X187960Y345440D02*
D03*
Y361950D02*
D03*
Y412750D02*
D03*
X114300Y336550D02*
D03*
X146050D02*
D03*
X312420Y368300D02*
D03*
X378460Y459740D02*
D03*
X367030Y365760D02*
D03*
X351790D02*
D03*
X350520Y448310D02*
D03*
X369570Y449580D02*
D03*
X355600Y407670D02*
D03*
X359410Y449580D02*
D03*
X350520Y412750D02*
D03*
X436880Y266700D02*
D03*
X412750Y318770D02*
D03*
X339090Y281940D02*
D03*
X317500Y250190D02*
D03*
X318770Y280670D02*
D03*
X165100Y495300D02*
D03*
X372110Y341630D02*
D03*
X382270Y332740D02*
D03*
X331470Y292100D02*
D03*
X382270Y317500D02*
D03*
X325199Y285750D02*
D03*
X302260Y255270D02*
D03*
X139700Y171450D02*
D03*
X191770Y162560D02*
D03*
D53*
X353000Y79000D02*
Y95000D01*
X384000Y126000D01*
X480000Y235000D02*
X495000Y220000D01*
Y160000D02*
Y220000D01*
X461000Y126000D02*
X495000Y160000D01*
X384000Y126000D02*
X461000D01*
D55*
X3000Y602000D02*
X21000Y620000D01*
X3000Y340000D02*
Y602000D01*
Y120000D02*
Y340000D01*
X10000D01*
X480400Y545000D02*
Y581500D01*
X461900Y600000D02*
X480400Y581500D01*
X3000Y120000D02*
X50000Y73000D01*
X84296D02*
X137295Y20001D01*
X50000Y73000D02*
X84296D01*
D56*
X400000Y550000D02*
D03*
X510000Y100000D02*
D03*
X260000Y150000D02*
D03*
Y520000D02*
D03*
D57*
X450400Y515000D02*
D03*
Y545000D02*
D03*
X480400Y515000D02*
D03*
D58*
Y545000D02*
D03*
D59*
X523600Y530000D02*
D03*
X46501Y253500D02*
D03*
Y146500D02*
D03*
X46500Y503500D02*
D03*
Y396500D02*
D03*
D60*
X327001Y38500D02*
D03*
X555601D02*
D03*
X89501Y125000D02*
D03*
X89500Y375000D02*
D03*
D61*
X327001Y63900D02*
D03*
Y89300D02*
D03*
Y114700D02*
D03*
X326999Y140101D02*
D03*
X327000Y165500D02*
D03*
X555601Y63900D02*
D03*
Y89300D02*
D03*
Y114700D02*
D03*
X555599Y140101D02*
D03*
X555600Y165500D02*
D03*
X538100Y600000D02*
D03*
X512700D02*
D03*
X487300D02*
D03*
X448100Y80000D02*
D03*
X422700D02*
D03*
X397300D02*
D03*
X61097Y630000D02*
D03*
X86497D02*
D03*
X213497Y629999D02*
D03*
X188097D02*
D03*
X162697D02*
D03*
X137295Y630001D02*
D03*
X111896Y630000D02*
D03*
X61097Y20000D02*
D03*
X86497D02*
D03*
X213497Y19999D02*
D03*
X188097D02*
D03*
X162697D02*
D03*
X137295Y20001D02*
D03*
X111896Y20000D02*
D03*
X119501Y125000D02*
D03*
X89501Y155000D02*
D03*
X119501D02*
D03*
X89501Y185000D02*
D03*
X119501D02*
D03*
X89501Y215000D02*
D03*
X119501D02*
D03*
X89501Y245000D02*
D03*
X119501D02*
D03*
X89501Y275000D02*
D03*
X119501D02*
D03*
X119500Y375000D02*
D03*
X89500Y405000D02*
D03*
X119500D02*
D03*
X89500Y435000D02*
D03*
X119500D02*
D03*
X89500Y465000D02*
D03*
X119500D02*
D03*
X89500Y495000D02*
D03*
X119500D02*
D03*
X89500Y525000D02*
D03*
X119500D02*
D03*
D62*
X461900Y600000D02*
D03*
X371900Y80000D02*
D03*
X238897Y629999D02*
D03*
Y19999D02*
D03*
M02*
