G04*
G04 #@! TF.GenerationSoftware,Altium Limited,Altium Designer,20.0.11 (256)*
G04*
G04 Layer_Color=32896*
%FSLAX44Y44*%
%MOMM*%
G71*
G01*
G75*
%ADD13C,0.1000*%
D13*
X446660Y587933D02*
X553340D01*
Y612064D01*
X446660D02*
X553340D01*
X446660Y587933D02*
Y612064D01*
X356660Y67933D02*
X463340D01*
Y92064D01*
X356660D02*
X463340D01*
X356660Y67933D02*
Y92064D01*
X254135Y617936D02*
Y642066D01*
X45855D02*
X254135D01*
X45855Y617936D02*
Y642066D01*
Y617936D02*
X254135D01*
Y7936D02*
Y32066D01*
X45855D02*
X254135D01*
X45855Y7936D02*
Y32066D01*
Y7936D02*
X254135D01*
X36586Y634247D02*
X39918D01*
X38252D01*
Y625916D01*
X39918Y624250D01*
X41584D01*
X43250Y625916D01*
X26589Y634247D02*
X29921Y632581D01*
X33253Y629248D01*
Y625916D01*
X31587Y624250D01*
X28255D01*
X26589Y625916D01*
Y627582D01*
X28255Y629248D01*
X33253D01*
X36586Y23997D02*
X39918D01*
X38252D01*
Y15666D01*
X39918Y14000D01*
X41584D01*
X43250Y15666D01*
X26589Y23997D02*
X33253D01*
Y18998D01*
X29921Y20665D01*
X28255D01*
X26589Y18998D01*
Y15666D01*
X28255Y14000D01*
X31587D01*
X33253Y15666D01*
X543835Y624497D02*
X547168D01*
X545502D01*
Y616166D01*
X547168Y614500D01*
X548834D01*
X550500Y616166D01*
X535505Y614500D02*
Y624497D01*
X540503Y619498D01*
X533839D01*
X455085Y65247D02*
X458418D01*
X456752D01*
Y56916D01*
X458418Y55250D01*
X460084D01*
X461750Y56916D01*
X451753Y63581D02*
X450087Y65247D01*
X446755D01*
X445089Y63581D01*
Y61915D01*
X446755Y60248D01*
X448421D01*
X446755D01*
X445089Y58582D01*
Y56916D01*
X446755Y55250D01*
X450087D01*
X451753Y56916D01*
M02*
